<svg version="1.2" xmlns="http://www.w3.org/2000/svg" viewBox="0 0 25 25" width="25" height="25">
	<title>login (1)-svg</title>
	<style>
		.s0 { fill: #ffffff } 
	</style>
	<path id="Icon_awesome-user-circle" fill-rule="evenodd" class="s0" d="m17.2 0.9c1.5 0.7 2.9 1.6 4.1 2.7 1.1 1.2 2 2.6 2.7 4.1 0.6 1.5 0.9 3.1 0.9 4.8 0 5-3 9.5-7.7 11.5-4.6 1.9-10 0.8-13.6-2.7-3.5-3.6-4.6-9-2.7-13.6 2-4.7 6.5-7.7 11.6-7.7 1.6 0 3.2 0.3 4.7 0.9zm-6.4 4.3q-0.8 0.3-1.5 0.9-0.6 0.6-0.9 1.4-0.4 0.9-0.4 1.7c0 1.8 1.1 3.4 2.8 4.1 1.6 0.7 3.5 0.3 4.8-0.9 1.2-1.3 1.6-3.2 0.9-4.8-0.6-1.7-2.3-2.8-4-2.8q-0.9 0-1.7 0.4zm3.7 16.7q1.1-0.3 2-0.7 1-0.4 1.8-1.1 0.8-0.6 1.5-1.4-0.3-0.7-0.9-1.3-0.5-0.5-1.1-0.9-0.7-0.4-1.4-0.6-0.8-0.2-1.5-0.2-0.1 0-0.1 0-0.1 0-0.1 0-0.1 0-0.1 0 0 0-0.1 0-0.2 0.1-0.5 0.2-0.2 0-0.5 0.1-0.3 0-0.5 0-0.3 0.1-0.5 0.1-0.3 0-0.6-0.1-0.2 0-0.5 0-0.2-0.1-0.5-0.1-0.2-0.1-0.5-0.2 0 0-0.1 0 0 0-0.1 0 0 0-0.1 0 0 0-0.1 0-0.7 0-1.5 0.2-0.7 0.2-1.3 0.6-0.7 0.4-1.2 0.9-0.5 0.6-0.9 1.3 0.7 0.8 1.5 1.4 0.8 0.7 1.8 1.1 1 0.4 2 0.7 1 0.2 2.1 0.2 1 0 2-0.2z"/>
</svg>