<svg version="1.2" xmlns="http://www.w3.org/2000/svg" viewBox="0 0 146 70" width="146" height="70">
	<title>logo-red-svg</title>
	<style>
		.s0 { fill: #c62032 } 
		.s1 { fill: #231f20 } 
	</style>
	<g id="Layer">
		<g id="Layer">
			<path id="Layer" class="s0" d="m66.5 27.3l0.5-2.6h0.1l-0.5 2.6h-0.1z"/>
			<path id="Layer" class="s0" d="m66.5 27.3q-0.1 0-0.1 0l0.6-2.6q0 0 0 0 0-0.1 0-0.1l0.1 0.1q0.1 0 0.1 0l-0.6 2.6q0 0 0 0 0 0-0.1 0 0 0 0 0z"/>
		</g>
		<g id="Layer">
			<path id="Layer" fill-rule="evenodd" class="s0" d="m76.3 19.3c0.3-0.2 0.5-0.3 0.5-0.3q0 0 0-0.1c0-0.1 0-0.2-0.8-0.4q-0.1 0-0.3 0-0.1 0-0.2 0v-0.1q0.1 0 0.2 0 0.2 0 0.3 0c0.8 0.2 0.9 0.4 0.9 0.5q0 0.1 0 0.1c0 0-0.2 0.2-0.6 0.4z"/>
			<path id="Layer" class="s0" d="m76.3 19.4l-0.1-0.1h0.1v0.1-0.1h-0.1q0 0 0 0 0 0 0.1 0c0.2-0.2 0.4-0.3 0.5-0.4q0 0 0 0c0 0-0.1-0.2-0.8-0.3q-0.1-0.1-0.3-0.1-0.1 0-0.2 0.1 0 0 0 0 0 0 0-0.1 0 0 0 0 0 0 0 0v-0.1q0 0 0 0 0.1 0 0.2 0 0.2 0 0.3 0c0.8 0.1 0.9 0.3 1 0.5q-0.1 0.1-0.1 0.1c0 0-0.2 0.2-0.6 0.4q0 0 0 0 0 0 0 0z"/>
		</g>
		<g id="Layer">
			<path id="Layer" class="s0" d="m67.2 18.2h0.1c0.1 0.3 0.8 0.7 1.2 0.7q0 0 0.1 0c0.4-0.1 0.9-0.9 1-1.3-0.1-0.1-0.5-0.2-0.9-0.2q-0.2 0-0.3 0c-0.5 0.1-1.1 0.4-1.1 0.7q0 0.1 0 0.1h-0.1q0 0 0-0.1c0-0.4 0.6-0.7 1.1-0.8q0.2 0 0.4 0c0.5 0 0.9 0.1 1 0.3-0.1 0.4-0.6 1.3-1.1 1.3q-0.1 0-0.1 0.1c-0.5-0.1-1.2-0.4-1.3-0.8z"/>
			<path id="Layer" fill-rule="evenodd" class="s0" d="m67.2 18.2q0 0 0 0 0 0 0-0.1c0-0.4 0.6-0.7 1.1-0.8q0.2-0.1 0.4-0.1c0.5 0.1 0.9 0.1 1 0.4v0.1c-0.1 0.4-0.6 1.2-1.1 1.3q-0.1 0-0.1 0c-0.5 0-1.2-0.4-1.3-0.8zm1.3 0.6q0 0 0.1 0c0.3 0 0.9-0.8 0.9-1.1 0-0.2-0.4-0.3-0.8-0.3q0 0 0 0-0.2 0-0.3 0.1c-0.5 0-1.1 0.4-1 0.6q0 0 0 0 0 0 0 0.1 0 0 0 0c0 0.2 0.7 0.6 1.1 0.6q0 0 0 0 0 0 0 0zm1.1-1.2q0 0 0 0 0 0 0 0z"/>
		</g>
		<g id="Layer">
			<path id="Layer" fill-rule="evenodd" class="s0" d="m68 24.5q0 0-0.1 0-0.1-0.1-0.2-0.2 0-0.1 0.1-0.1 0-0.1 0.2-0.1 0 0 0.1 0 0.1 0.1 0.2 0.2 0 0.1-0.1 0.1 0 0.1-0.2 0.1 0 0 0 0zm-0.2-0.3q0 0.1 0 0.1 0 0.1 0.2 0.1 0 0 0 0 0.1 0 0.2 0 0-0.1 0-0.1 0-0.1-0.2-0.1 0 0 0 0-0.1 0-0.2 0z"/>
			<path id="Layer" fill-rule="evenodd" class="s0" d="m68 24.6q0 0-0.1 0c-0.1-0.1-0.2-0.2-0.2-0.3q0-0.1 0-0.1 0.1-0.2 0.3-0.2 0 0 0 0 0 0 0.1 0.1c0.1 0 0.2 0.1 0.2 0.2q0 0.1 0 0.1 0 0 0 0c-0.1 0.1-0.2 0.2-0.3 0.2zm0-0.2q0 0 0 0 0.1 0 0.1 0 0-0.1 0-0.1 0 0-0.1-0.1 0 0 0 0-0.1 0-0.1 0.1l-0.1-0.1 0.1 0.1q0 0 0 0 0 0 0 0 0 0 0.1 0.1z"/>
		</g>
		<g id="Layer">
			<path id="Layer" class="s0" d="m68.7 25c0 0 0.4-1 0.5-1.5 0 0-0.1-0.3-0.2-0.5 0.2 0.2 0.3 0.5 0.3 0.5-0.2 0.5-0.5 1.5-0.5 1.5z"/>
			<path id="Layer" fill-rule="evenodd" class="s0" d="m68.8 25.1h-0.1q0-0.1 0-0.1c0 0 0.3-1 0.5-1.5-0.1-0.1-0.2-0.3-0.3-0.5q0 0 0 0 0 0 0 0l0.1-0.1q0 0 0 0 0.1 0 0.1 0c0.1 0.3 0.2 0.6 0.2 0.6v0.1c-0.1 0.4-0.4 1.3-0.4 1.5q0 0 0 0-0.1 0-0.1 0 0 0 0 0zm0.4-1.6q0 0 0 0 0 0 0 0z"/>
		</g>
		<g id="Layer">
			<path id="Layer" fill-rule="evenodd" class="s0" d="m65.6 32.5h-0.2l1.1-5.3-5.1 4.4-0.2-0.2 5.8-6.7 0.8-3.5h-0.1v-0.1c0 0 0.1-0.3 0.1-0.7q0-0.2-0.1-0.4c-0.2-0.5-0.6-1.4-0.8-1.7q-0.1-0.2-0.1-0.4c0-0.5 0.5-1.1 1.2-1.2q0.3-0.1 0.6-0.1c0.6 0 1.1 0.2 1.4 0.5 0.3 0 0.4 0.3 0.4 0.5q0 0.2-0.1 0.3c0 0.1-0.5 1.3-0.6 1.5-0.1 0.3-0.4 1.7-0.5 2-0.1 0.1-0.3 0.1-0.3 0.2 0 0-0.1 0.2-0.1 0.5 0 0.3 0.1 0.7 0.2 0.8 0.7-0.2 1.6-0.9 2-1.3q0 0 0-0.1c0-0.3 0.5-0.7 0.7-0.9 0-0.1 0.3-0.4 0.7-0.7q0.3 0.2 0.5 0.3c0.3 0.1 1.1 0.2 1.8 0.5l0.1 0.1h-0.1q-0.1 0.1-0.2 0.1c-0.7 0.4-2 1.1-2.2 1.4q-0.1 0-0.1 0c-0.2 0-0.3 0-0.3-0.1l-3.1 2.9-3.2 7.5zm0-0.2v0.1l3.2-7.5 3.1-2.8q0 0 0.1 0 0.1 0 0.2 0 0 0 0.1 0c0.2-0.3 1.5-1 2.2-1.3q0-0.1 0.1-0.1c-0.6-0.3-1.4-0.4-1.6-0.5q-0.3-0.1-0.5-0.3c-0.4 0.3-0.7 0.6-0.7 0.7-0.2 0.1-0.7 0.6-0.7 0.8q0 0.1 0 0.1v0.1c-0.4 0.4-1.3 1.1-2.1 1.4v-0.1c-0.2-0.1-0.2-0.6-0.2-0.9 0-0.3 0-0.6 0-0.6 0 0 0.3-0.1 0.4-0.1 0.1-0.3 0.4-1.7 0.5-2 0.1-0.3 0.6-1.5 0.6-1.5q0-0.1 0-0.3c0-0.2 0-0.4-0.3-0.4-0.3-0.3-0.7-0.5-1.4-0.5q-0.2 0-0.6 0.1c-0.6 0.1-1.1 0.6-1.1 1.1q0 0.2 0.2 0.4c0.2 0.3 0.5 1.2 0.7 1.6q0.1 0.3 0.1 0.6c0 0.2-0.1 0.5-0.1 0.6l0.2 0.1-0.9 3.5-5.7 6.7 0.1 0.1 5.1-4.5zm4.8-14.5q0 0 0 0 0 0 0 0zm2.1 2z"/>
			<path id="Layer" fill-rule="evenodd" class="s0" d="m65.6 32.6l-0.2-0.1q0 0 0 0l1-5.2-4.9 4.3q-0.1 0-0.1 0l-0.2-0.1q0 0 0-0.1 0 0 0 0l5.8-6.7 0.8-3.5h-0.1q-0.1 0-0.1 0v-0.1c0.1 0 0.1-0.3 0.1-0.7q0-0.2 0-0.4c-0.2-0.5-0.6-1.4-0.8-1.6q-0.2-0.3-0.2-0.5 0 0 0 0c0-0.6 0.5-1.1 1.3-1.3q0.3 0 0.6 0c0.6 0 1.1 0.2 1.4 0.4 0.3 0.1 0.4 0.3 0.4 0.6q0 0 0 0 0 0.2 0 0.4c0 0-0.5 1.2-0.7 1.5-0.1 0.2-0.3 1.6-0.5 1.9-0.1 0.1-0.2 0.2-0.3 0.2 0 0.1 0 0.3 0 0.5q0 0 0 0c0 0.3 0 0.7 0.1 0.8 0.7-0.2 1.6-0.9 1.9-1.3q0 0 0-0.1 0 0 0 0c0-0.3 0.5-0.8 0.7-1 0.1 0 0.4-0.3 0.7-0.6l0.1-0.1q0 0 0 0l0.1 0.1q0.2 0.2 0.5 0.3c0.2 0 1.1 0.2 1.7 0.5h0.1q0 0 0 0.1 0 0 0 0h-0.1q-0.1 0.1-0.2 0.2c-0.7 0.3-2 1-2.2 1.3q-0.1 0-0.1 0-0.2 0-0.3 0l-3 2.8-3.2 7.5q0 0-0.1 0 0 0 0 0zm0-0.1q0 0 0 0zm-0.1-0.1v0.1q0-0.1 0-0.1zm1.1-5.5q0 0 0 0.1l-1 5.2 3.1-7.2v-0.1l3.1-2.8q0 0 0 0h0.1q0 0 0 0 0.1 0 0.3 0 0 0 0 0c0.3-0.3 1.5-1 2.2-1.3q0 0 0-0.1c-0.6-0.2-1.2-0.3-1.5-0.4q-0.3-0.1-0.5-0.3c-0.3 0.3-0.6 0.6-0.7 0.6-0.1 0.2-0.6 0.7-0.6 0.9q0 0 0 0v0.1q0 0 0 0c-0.4 0.5-1.4 1.2-2.1 1.4v0.1q0 0-0.1-0.1c-0.2-0.2-0.2-0.6-0.2-1 0-0.3 0-0.5 0-0.5q0-0.1 0-0.1h0.1q0 0 0 0 0 0 0 0 0 0 0.1 0 0.1-0.1 0.2-0.1c0.1-0.2 0.4-1.6 0.5-1.9 0-0.3 0.4-1 0.5-1.3q0.1-0.2 0.1-0.2 0-0.2 0-0.3c0-0.3 0-0.4-0.2-0.4h-0.1v-0.1c-0.2-0.2-0.7-0.4-1.3-0.4q-0.3 0-0.6 0.1c-0.7 0.1-1.1 0.6-1.1 1v0.1q0 0.2 0.1 0.3c0.3 0.3 0.6 1.2 0.8 1.7q0.1 0.2 0.1 0.5c0 0.3-0.1 0.5-0.1 0.7h0.1q0.1 0 0 0l-0.8 3.6-5.7 6.7 5.1-4.5q0.1 0 0.1 0 0 0 0 0zm-5.2 4.6q0 0 0 0zm-0.2-0.1h0.1q0 0 0 0 0 0 0 0zm5.2-4.3q0 0 0 0.1v-0.2l-0.1 0.1q0 0 0 0 0.1 0 0.1 0zm2.5-4.2q0 0 0 0 0 0 0 0 0 0 0 0zm3.2-0.7q0 0 0 0 0 0 0.1 0zm-0.5-0.1q0.1 0 0.1 0 0 0 0 0 0 0 0 0zm-0.9-0.6q0 0 0.1 0-0.1 0-0.1 0 0 0 0 0zm-2.2 0q0 0 0-0.1 0 0.1 0 0.1 0 0 0 0zm-0.9-0.4q0 0 0 0zm-0.1 0q0 0 0-0.1 0 0.1 0 0.1zm6.8-0.4q0 0 0 0 0 0 0.1 0-0.1 0-0.1-0.1 0 0.1 0 0.1zm-4.6-3.7q0 0 0 0 0 0 0 0zm-2.3 4z"/>
		</g>
		<g id="Layer">
			<path id="Layer" fill-rule="evenodd" class="s0" d="m76.9 19.9c-0.5-0.4-1.1-1.1-1.4-1.4v-0.1 0.1q-0.2-0.2-0.2-0.3c-0.1-0.3-0.2-0.2-0.6-0.4h-0.2 0.2q0-0.1 0-0.1c0.5-0.2 1.2-0.2 1.6-0.3 0.3-0.1 1.3-0.4 1.9-0.4q0.2 0 0.4 0.1h0.1c0.1 0.3 0.1 0.5 0.1 0.7q0 0.1 0 0.1v0.1c-0.2-0.1-0.3-0.2-0.4-0.2q-0.1 0-0.2 0.1c-0.3 0.1-0.9 0.3-0.9 0.4q0 0 0 0 0.1 0.1 0.1 0.3c0 0.4-0.1 0.9-0.2 1.1q-0.1 0.1-0.2 0.2l-0.1 0.1zm0.1-0.1q0.1-0.1 0.1-0.2c0.2-0.1 0.2-0.7 0.2-1q0-0.2 0-0.3 0 0 0 0c0-0.3 0.6-0.4 0.9-0.6q0.1 0 0.2 0c0.2 0 0.2 0 0.4 0.1q0 0 0-0.1c0-0.1-0.1-0.3-0.2-0.6q-0.1 0-0.4 0c-0.6 0-1.5 0.3-1.8 0.3-0.4 0.1-1.1 0.2-1.5 0.3 0.2 0.1 0.4 0.1 0.5 0.4q0 0 0.2 0.2c0.3 0.4 0.9 1 1.4 1.5z"/>
			<path id="Layer" fill-rule="evenodd" class="s0" d="m76.9 20c-0.5-0.5-1.2-1.1-1.5-1.5q0 0 0 0-0.1-0.2-0.2-0.3c0-0.2-0.1-0.2-0.6-0.3l-0.1-0.1q0 0 0 0 0 0 0-0.1h0.1q0.1 0 0.1 0c0.5-0.2 1.2-0.2 1.6-0.3 0.3-0.1 1.2-0.4 1.9-0.4q0.3 0 0.4 0.1h0.1c0.1 0.3 0.2 0.5 0.2 0.7q0 0.1 0 0.1l-0.1 0.1q0 0 0 0 0 0 0 0h-0.1c-0.2-0.1-0.2-0.1-0.3-0.1q0 0-0.2 0c-0.2 0.1-0.6 0.2-0.7 0.4q-0.1 0-0.1 0 0 0.1 0 0.3c0 0.4 0 0.9-0.2 1.1q-0.1 0.2-0.2 0.3 0 0-0.1 0 0 0 0 0zm0.1-0.1q0 0 0 0 0 0 0 0-0.1 0-0.1 0 0 0 0.1 0zm-1.6-1.8c0 0.1 0.1 0.2 0.2 0.3 0.3 0.3 0.9 0.9 1.3 1.4q0.1-0.1 0.2-0.2c0.1-0.1 0.1-0.6 0.1-0.9q0 0 0-0.1 0-0.2 0-0.2 0 0 0-0.1c0.1-0.3 0.6-0.4 0.9-0.5q0.2-0.1 0.3-0.1c0.1 0 0.2 0 0.3 0.1 0-0.1 0-0.3-0.1-0.6q-0.2 0-0.4 0c-0.6 0-1.5 0.3-1.9 0.4-0.3 0-0.9 0.1-1.3 0.2 0.2 0 0.3 0.1 0.4 0.3zm2.1 0q0 0 0.1 0-0.1 0-0.1 0zm1.3-0.2q0 0 0 0 0 0 0 0-0.1 0-0.1 0 0 0 0.1 0zm-4-0.1q0 0 0 0 0 0 0 0 0 0 0 0-0.1 0-0.1 0 0 0 0.1 0zm3.8-0.7q0 0 0 0 0 0 0 0zm-1.7 2.7h0.1zm0.3-1.5q0 0 0 0z"/>
		</g>
		<g id="Layer">
			<path id="Layer" class="s0" d="m80.6 25.1l-3.1-2.9c0 0.1-0.2 0.1-0.3 0.1q-0.1 0-0.1 0c-0.2-0.3-1.5-1-2.2-1.4q-0.1 0-0.2-0.1v-0.1q0.1 0.1 0.2 0.1c0.7 0.4 2 1.1 2.2 1.4q0.1 0 0.1 0c0.1 0 0.3 0 0.3 0v-0.1l3.1 2.9 3.2 7.5v-0.1l-1-5.4 5.1 4.5 0.1-0.1-5.7-6.7-0.9-3.5 0.1-0.1h0.1c0-0.1-0.1-0.4-0.1-0.7q0-0.2 0.1-0.5c0.2-0.4 0.5-1.3 0.7-1.6q0.2-0.2 0.2-0.4c0-0.5-0.5-1-1.2-1.2q-0.3 0-0.5 0c-0.7 0-1.1 0.2-1.4 0.4v0.1c-0.3 0-0.3 0.2-0.3 0.4 0 0.1 0 0.2 0 0.3 0 0 0.5 1.2 0.6 1.5 0.1 0.3 0.4 1.7 0.5 1.9 0.1 0.1 0.4 0.2 0.4 0.2 0 0 0 0.3 0 0.6 0 0.3 0 0.8-0.2 0.9-0.8-0.2-1.8-0.9-2.1-1.4q0 0 0-0.1c0-0.2-0.5-0.7-0.7-0.9 0 0-0.3-0.3-0.7-0.7h0.1c0.3 0.3 0.6 0.6 0.7 0.7 0.2 0.2 0.7 0.6 0.7 0.9q0 0.1 0 0.1c0.3 0.4 1.3 1.1 2 1.3 0.1-0.1 0.1-0.5 0.1-0.8 0-0.3 0-0.5 0-0.5-0.1-0.1-0.2-0.1-0.3-0.2-0.2-0.3-0.4-1.7-0.5-2-0.2-0.2-0.7-1.5-0.7-1.5q0-0.1 0-0.3c0-0.2 0-0.5 0.4-0.5 0.2-0.3 0.7-0.5 1.4-0.5q0.2 0 0.6 0.1c0.7 0.1 1.2 0.7 1.2 1.2q0 0.2-0.2 0.4c-0.2 0.3-0.6 1.2-0.7 1.7q-0.1 0.2-0.1 0.4c0 0.4 0.1 0.7 0.1 0.7v0.1h-0.1-0.1l0.8 3.5 5.8 6.7v0.1l-0.2 0.1-5-4.4 1 5.3-0.2 0.1z"/>
			<path id="Layer" fill-rule="evenodd" class="s0" d="m83.7 32.6l-3.2-7.5-3-2.8q-0.1 0-0.3 0-0.1 0-0.1 0h-0.1c-0.1-0.3-1.5-1-2.1-1.3q-0.1-0.1-0.3-0.2 0 0 0 0 0 0 0 0l0.1-0.1q0 0 0 0 0 0 0 0 0.1 0 0.3 0.1c0.6 0.4 1.8 1 2.2 1.4q0 0 0 0c0.1 0 0.3-0.1 0.3-0.1q0 0 0.1 0l3.1 2.9 3 7.3-1-5.3q0 0 0-0.1 0.1 0 0.1 0.1l5.1 4.4-5.7-6.6v-0.1l-0.8-3.5q0-0.1 0-0.1h0.1c0-0.1 0-0.4 0-0.7q-0.1-0.2 0-0.5c0.2-0.5 0.6-1.3 0.8-1.6q0.1-0.2 0.1-0.4c0-0.5-0.4-1-1.1-1.1q-0.3-0.1-0.5-0.1c-0.7 0-1.1 0.3-1.4 0.5-0.2 0-0.3 0.2-0.3 0.4q0 0.2 0 0.3 0 0 0 0 0 0 0.1 0 0 0.1 0 0.2 0.1 0.2 0.2 0.4c0.2 0.4 0.3 0.7 0.4 0.9 0.1 0.3 0.4 1.7 0.5 1.9 0.1 0.1 0.2 0.1 0.3 0.1q0 0 0 0v0.1q0 0 0 0c0 0 0.1 0.3 0.1 0.6-0.1 0.3-0.1 0.8-0.3 1q0 0 0 0h-0.1c-0.7-0.3-1.7-1-2.1-1.4q0-0.1 0-0.1 0 0 0-0.1 0 0 0 0c0.1-0.2-0.4-0.7-0.6-0.8-0.1-0.1-0.4-0.4-0.7-0.7q0 0 0-0.1 0.1-0.1 0.1 0c0.4 0.3 0.6 0.6 0.7 0.6 0.2 0.2 0.7 0.7 0.7 1q0 0.1 0 0.1c0.4 0.4 1.3 1.1 1.9 1.3 0.1-0.1 0.2-0.5 0.2-0.8q0 0 0 0c0-0.2 0-0.4 0-0.5-0.1 0-0.3-0.1-0.4-0.2-0.1-0.3-0.4-1.7-0.5-1.9-0.1-0.3-0.6-1.5-0.6-1.6q-0.1-0.1-0.1-0.3 0 0 0 0c0-0.3 0.1-0.5 0.4-0.6 0.3-0.2 0.8-0.4 1.5-0.4q0.2 0 0.6 0c0.7 0.2 1.2 0.7 1.2 1.3q0 0.2-0.1 0.5c-0.2 0.2-0.6 1.1-0.8 1.6q-0.1 0.2-0.1 0.4c0 0.4 0.1 0.7 0.1 0.7v0.1q0 0 0 0h-0.1l0.8 3.5 5.8 6.7q0 0 0 0 0 0.1 0 0.1h-0.1l-0.2 0.1q0 0 0 0l-4.9-4.3 1 5.2q0 0-0.1 0l-0.2 0.1q0 0 0 0 0 0 0 0zm0-0.1h0.1q-0.1 0-0.1 0zm0.1-0.1h0.1q0 0-0.1 0zm4.1-0.9q0 0 0 0zm0.1-0.1q0 0 0 0h0.1-0.1q0 0 0 0zm-5.2-4.2q0 0 0.1-0.1 0 0 0 0h-0.1zm-2.5-4.3q0 0 0 0 0 0 0 0 0 0 0 0zm-3.2-0.7q0 0 0 0 0 0 0 0zm0.4 0q0 0 0 0 0 0 0 0zm0.8-0.6q0 0 0 0 0 0 0 0 0 0 0 0zm2.2-0.1q0 0 0 0 0 0 0 0 0 0 0 0 0 0 0 0zm1-0.3q0-0.1 0-0.1zm0.1 0q0 0 0 0 0 0 0 0 0 0 0 0 0 0 0 0zm-2.3-4.1q0 0 0 0 0 0 0 0zm1.2 8zm0-3.6q0 0 0 0zm0.1 0q0 0 0 0 0 0 0 0zm-1.5-3.6q0 0 0 0 0 0 0 0z"/>
		</g>
		<g id="Layer">
			<path id="Layer" class="s0" d="m72.2 19.7c-0.2-0.2-0.2-0.7-0.2-1q0-0.3 0-0.4 0 0 0 0c0-0.1-0.5-0.3-0.8-0.4q-0.2-0.1-0.3-0.1c0 0-0.1 0.1-0.3 0.2l-0.1-0.1q0 0 0-0.1c0-0.1 0.1-0.4 0.2-0.7q0.2-0.1 0.4-0.1c0.7 0 1.6 0.3 1.9 0.4 0.5 0.1 1.2 0.1 1.6 0.3q0 0 0.1 0v0.1q-0.1 0-0.1 0c-0.5-0.2-1.2-0.2-1.6-0.3-0.3-0.1-1.2-0.4-1.9-0.4q-0.2 0-0.3 0.1c-0.1 0.2-0.2 0.5-0.2 0.6q0 0 0 0.1c0.2-0.1 0.2-0.2 0.3-0.2q0.1 0 0.3 0.1c0.3 0.1 0.9 0.3 0.9 0.5q0 0 0 0 0 0.1 0 0.4c0 0.3 0 0.8 0.1 1q0.1 0.1 0.2 0.2-0.1-0.1-0.2-0.2z"/>
			<path id="Layer" fill-rule="evenodd" class="s0" d="m72.3 20q-0.1-0.1-0.2-0.3h0.1-0.1c-0.1-0.2-0.1-0.7-0.1-1q0-0.3 0-0.4 0 0 0 0 0 0-0.1 0-0.1-0.1-0.2-0.2c-0.2 0-0.4-0.1-0.5-0.2q-0.2 0-0.3 0c0 0-0.1 0-0.3 0.1q0 0-0.1 0 0 0 0 0v-0.1q0 0 0-0.1c0-0.2 0-0.4 0.2-0.7q0.2-0.1 0.4-0.1c0.7 0 1.6 0.3 2 0.4 0.4 0.1 1.1 0.1 1.5 0.3q0.1 0 0.1 0 0 0 0 0 0 0 0 0.1v0.1q0 0 0 0 0 0-0.1 0 0 0 0-0.1c-0.5-0.1-1.2-0.2-1.6-0.2-0.3-0.1-1.2-0.4-1.9-0.4q-0.1 0-0.3 0c-0.1 0.3-0.1 0.5-0.1 0.6 0.1-0.1 0.1-0.1 0.2-0.1q0.2 0 0.3 0.1c0.3 0.1 0.9 0.2 0.9 0.5q0 0 0 0.1 0 0 0 0.3 0 0 0 0c0 0.3 0.1 0.8 0.2 0.9q0.1 0.1 0.2 0.3 0 0 0 0 0 0 0 0l-0.1 0.1q0 0 0 0 0 0-0.1 0zm-0.4-1.9q-0.1 0-0.1 0 0 0 0.1 0zm-1.3-0.2q0 0 0 0 0 0 0 0 0 0 0 0 0 0 0 0zm0.1-0.7l0.1-0.1q0 0-0.1 0 0 0 0 0.1z"/>
		</g>
		<g id="Layer">
			<path id="Layer" class="s0" d="m82.3 24.7l0.6 2.6h-0.1l-0.5-2.6z"/>
			<path id="Layer" class="s0" d="m82.8 27.3q0 0 0 0l-0.6-2.6h0.1v0.1-0.1h-0.1q0 0 0 0l0.1-0.1q0.1 0 0.1 0.1l0.5 2.6q0 0 0 0 0 0 0 0h-0.1q0 0 0 0 0 0 0 0z"/>
		</g>
		<g id="Layer">
			<path id="Layer" fill-rule="evenodd" class="s0" d="m73.7 19.7c-0.7-0.2-1.2-0.7-1.2-0.7q0 0 0-0.1c0-0.1 0.1-0.3 0.8-0.5q0.2 0 0.3 0c0.9 0 1.7 0.6 1.7 1.1q0 0 0 0v0.1c0 0-0.4 0.2-1 0.2q-0.2 0-0.6-0.1zm0.1-0.1q0.3 0.1 0.5 0.1c0.5 0 0.9-0.2 0.9-0.2 0.1-0.2-0.1-0.4-0.4-0.6-0.3-0.2-0.8-0.4-1.2-0.4q-0.1 0-0.3 0c-0.7 0.2-0.8 0.4-0.8 0.4q0 0 0 0.1c0.1 0 0.6 0.4 1.3 0.6z"/>
			<path id="Layer" fill-rule="evenodd" class="s0" d="m73.7 19.7c-0.7-0.2-1.2-0.6-1.3-0.7q0 0 0-0.1c0-0.2 0.2-0.4 0.9-0.5q0.2 0 0.3 0c0.9 0 1.8 0.6 1.8 1.1q0 0 0 0v0.1q0 0 0 0h-0.1c0 0-0.4 0.2-1 0.2q-0.3 0-0.6-0.1zm0.1-0.2q0.3 0.1 0.5 0.1c0.4 0 0.8-0.1 0.9-0.1 0-0.2-0.2-0.4-0.5-0.6-0.3-0.2-0.7-0.4-1.1-0.4q-0.1 0-0.3 0.1c-0.7 0.1-0.7 0.3-0.7 0.3q0 0 0 0c0.1 0.1 0.5 0.5 1.2 0.6zm0 0v0.1-0.1q0 0 0 0zm1.5 0q0 0 0 0 0 0 0 0 0 0 0 0z"/>
		</g>
		<g id="Layer">
			<path id="Layer" fill-rule="evenodd" class="s0" d="m80.8 18.9c-0.5 0-1-0.9-1.1-1.3 0.1-0.2 0.5-0.3 0.9-0.3q0.2 0 0.4 0c0.5 0.1 1.1 0.4 1.1 0.8q0 0.1 0 0.1c-0.1 0.4-0.8 0.7-1.2 0.8q-0.1-0.1-0.1-0.1zm0 0q0 0 0.1 0c0.4 0 1.1-0.4 1.1-0.7q0 0 0-0.1c0.1-0.3-0.5-0.6-1-0.7q-0.2 0-0.3 0c-0.5 0-0.9 0.1-0.9 0.2 0 0.4 0.6 1.2 1 1.3z"/>
			<path id="Layer" fill-rule="evenodd" class="s0" d="m80.8 19c-0.5-0.1-1.1-0.9-1.2-1.3v-0.1c0.2-0.3 0.6-0.3 1-0.4q0.2 0 0.4 0.1c0.6 0.1 1.2 0.4 1.2 0.8q0 0.1 0 0.1c-0.1 0.4-0.8 0.8-1.3 0.8q-0.1 0-0.1 0zm0-0.2q0 0 0.1 0 0 0 0 0c0.4 0 1.1-0.4 1.1-0.6q0 0 0-0.1 0 0 0 0c0-0.2-0.5-0.6-1-0.6q-0.2-0.1-0.4-0.1 0 0 0 0c-0.3 0-0.7 0.1-0.8 0.3 0.1 0.3 0.7 1.1 1 1.1zm-1.1-1.2q0 0 0 0 0 0 0 0z"/>
		</g>
		<g id="Layer">
			<path id="Layer" fill-rule="evenodd" class="s0" d="m81.1 24.4q0 0 0-0.1 0-0.1 0.2-0.2 0 0 0.1 0 0.1 0 0.2 0.1 0 0.1 0 0.1 0 0.1-0.2 0.2 0 0-0.1 0 0 0 0 0-0.1 0-0.2-0.1zm0.2 0q0.1 0 0.1 0 0.1 0 0.1-0.1 0 0 0-0.1 0 0-0.1 0 0 0-0.1 0-0.1 0-0.1 0.1 0 0 0 0.1 0 0 0.1 0z"/>
			<path id="Layer" fill-rule="evenodd" class="s0" d="m81.3 24.6q-0.1 0-0.2-0.2 0 0 0 0 0 0 0-0.1c0-0.1 0-0.2 0.2-0.2q0-0.1 0.1-0.1c0.1 0 0.2 0.1 0.2 0.2q0.1 0 0.1 0.1c0 0.1-0.1 0.2-0.3 0.3q0 0-0.1 0zm0-0.2q0.1 0 0.1 0 0.1-0.1 0.1-0.1 0 0 0 0 0 0 0 0 0-0.1-0.1-0.1 0 0-0.1 0-0.1 0.1-0.1 0.1 0 0 0 0 0 0 0 0 0.1 0.1 0.1 0.1zm0 0.1v-0.1zm-0.2 0z"/>
		</g>
		<g id="Layer">
			<path id="Layer" class="s0" d="m80.1 23.5c0 0 0.1-0.3 0.2-0.5h0.1c-0.1 0.2-0.2 0.5-0.2 0.5 0.1 0.5 0.4 1.5 0.4 1.5h-0.1c0 0-0.3-1-0.4-1.5z"/>
			<path id="Layer" fill-rule="evenodd" class="s0" d="m80.5 25.1c0 0-0.3-1.1-0.5-1.5v-0.1q0 0 0 0 0 0 0-0.1 0.1 0 0.1-0.1 0.1-0.2 0.2-0.4 0 0 0 0 0 0 0.1 0v0.1q0 0 0.1 0 0 0-0.1 0c0 0.2-0.2 0.4-0.2 0.5 0.1 0.5 0.4 1.4 0.5 1.5q0 0 0 0 0 0.1-0.1 0.1-0.1 0-0.1 0 0 0 0 0zm-0.4-1.6q0 0 0 0 0 0 0 0zm0 0z"/>
		</g>
		<g id="Layer">
			<g id="Layer">
				<path id="Layer" fill-rule="evenodd" class="s0" d="m80.2 6.7c-1.1 0-2.1-0.9-2.1-2.1 0-1.1 1-2 2.1-2 1.2 0 2.1 0.9 2.1 2 0 1.2-0.9 2.1-2.1 2.1zm2-2.1c0-1.1-0.9-2-2-2-1.1 0-2 0.9-2 2 0 1.1 0.9 2 2 2 1.1 0 2-0.9 2-2z"/>
				<path id="Layer" fill-rule="evenodd" class="s0" d="m80.2 6.8c-1.2 0-2.1-1-2.1-2.2 0-1.1 0.9-2.1 2.1-2.1 1.2 0 2.1 1 2.1 2.1 0 1.2-0.9 2.2-2.1 2.2zm2-2.2c0-1-0.9-1.9-2-1.9-1.1 0-1.9 0.9-1.9 1.9 0 1.1 0.8 2 1.9 2 1.1 0 2-0.9 2-2z"/>
			</g>
			<g id="Layer">
				<g id="Layer">
					<path id="Layer" fill-rule="evenodd" class="s0" d="m79.9 4.5c-0.2 0-0.3-0.1-0.3-0.2 0-0.1 0.1-0.2 0.3-0.2 0.2 0 0.3 0.1 0.3 0.2 0 0.1-0.1 0.2-0.3 0.2zm0.2-0.2c0-0.1-0.1-0.2-0.2-0.2-0.1 0-0.2 0.1-0.2 0.2 0 0.1 0.1 0.2 0.2 0.2 0.1 0 0.2-0.1 0.2-0.2z"/>
				</g>
				<path id="Layer" fill-rule="evenodd" class="s0" d="m79.9 4.5c-0.2 0-0.3-0.1-0.3-0.2 0-0.1 0.1-0.3 0.3-0.3 0.2 0 0.3 0.2 0.3 0.3 0 0.1-0.1 0.2-0.3 0.2zm0.3-0.2c0-0.1-0.1-0.2-0.3-0.2-0.2 0-0.3 0.1-0.3 0.2 0 0.1 0.1 0.2 0.3 0.2 0.2 0 0.3-0.1 0.3-0.2zm-0.3 0.2c-0.1 0-0.2-0.1-0.2-0.2 0-0.1 0.1-0.2 0.2-0.2 0.1 0 0.2 0.1 0.2 0.2 0 0.1-0.1 0.2-0.2 0.2zm0.2-0.2c0-0.1-0.1-0.2-0.2-0.2-0.1 0-0.2 0.1-0.2 0.2 0 0.1 0.1 0.2 0.2 0.2 0.1 0 0.2-0.1 0.2-0.2z"/>
			</g>
			<g id="Layer">
				<g id="Layer">
					<path id="Layer" fill-rule="evenodd" class="s0" d="m80.5 5.2c-0.1 0-0.3-0.1-0.3-0.3 0-0.1 0.2-0.2 0.3-0.2 0.2 0 0.3 0.1 0.3 0.2 0 0.2-0.1 0.3-0.3 0.3zm0.2-0.3c0-0.1-0.1-0.1-0.2-0.1-0.1 0-0.2 0-0.2 0.1 0 0.1 0.1 0.2 0.2 0.2 0.1 0 0.2-0.1 0.2-0.2z"/>
				</g>
				<path id="Layer" fill-rule="evenodd" class="s0" d="m80.5 5.2c-0.1 0-0.3-0.1-0.3-0.3 0-0.1 0.2-0.2 0.3-0.2 0.2 0 0.3 0.1 0.3 0.2 0 0.2-0.1 0.3-0.3 0.3zm0.3-0.3c0-0.1-0.1-0.2-0.3-0.2-0.1 0-0.3 0.1-0.3 0.2 0 0.2 0.2 0.3 0.3 0.3 0.2 0 0.3-0.1 0.3-0.3zm-0.3 0.2c-0.1 0-0.2-0.1-0.2-0.2 0-0.1 0.1-0.1 0.2-0.1 0.1 0 0.2 0 0.2 0.1 0 0.1-0.1 0.2-0.2 0.2zm0.2-0.2c0-0.1-0.1-0.1-0.2-0.1-0.1 0-0.2 0-0.2 0.1 0 0.1 0.1 0.2 0.2 0.2 0.1 0 0.2-0.1 0.2-0.2z"/>
			</g>
		</g>
		<g id="Layer">
			<g id="Layer">
				<path id="Layer" fill-rule="evenodd" class="s0" d="m68.9 6.7c-1.1 0-2.1-0.9-2.1-2.1 0-1.1 1-2 2.1-2 1.2 0 2.1 0.9 2.1 2 0 1.2-0.9 2.1-2.1 2.1zm2-2.1c0-1.1-0.9-2-2-2-1.1 0-2 0.9-2 2 0 1.1 0.9 2 2 2 1.1 0 2-0.9 2-2z"/>
				<path id="Layer" fill-rule="evenodd" class="s0" d="m68.9 6.8c-1.2 0-2.1-1-2.1-2.2 0-1.1 0.9-2.1 2.1-2.1 1.2 0 2.1 1 2.1 2.1 0 1.2-0.9 2.2-2.1 2.2zm2-2.2c0-1-0.9-1.9-2-1.9-1.1 0-1.9 0.9-1.9 1.9 0 1.1 0.8 2 1.9 2 1.1 0 2-0.9 2-2zm-2 2.1v-0.1z"/>
			</g>
			<g id="Layer">
				<g id="Layer">
					<path id="Layer" fill-rule="evenodd" class="s0" d="m69.2 4.5c-0.1 0-0.3-0.1-0.3-0.2 0-0.1 0.2-0.2 0.3-0.2 0.2 0 0.3 0.1 0.3 0.2 0 0.1-0.1 0.2-0.3 0.2zm0.2-0.2c0-0.1-0.1-0.2-0.2-0.2-0.1 0-0.2 0.1-0.2 0.2 0 0.1 0.1 0.2 0.2 0.2 0.1 0 0.2-0.1 0.2-0.2z"/>
				</g>
				<path id="Layer" fill-rule="evenodd" class="s0" d="m69.2 4.5c-0.1 0-0.3-0.1-0.3-0.2 0-0.1 0.2-0.3 0.3-0.3 0.2 0 0.3 0.2 0.3 0.3 0 0.1-0.1 0.2-0.3 0.2zm0.3-0.2c0-0.1-0.1-0.2-0.3-0.2-0.1 0-0.3 0.1-0.3 0.2 0 0.1 0.2 0.2 0.3 0.2 0.2 0 0.3-0.1 0.3-0.2zm-0.5 0c0-0.1 0.1-0.2 0.2-0.2q0.1 0 0.1 0.1 0-0.1-0.1-0.1c-0.1 0-0.2 0.1-0.2 0.2 0 0.1 0.1 0.2 0.2 0.2 0.1 0 0.2-0.1 0.2-0.2q0 0 0-0.1 0 0.1 0 0.1c0 0.1 0 0.2-0.2 0.2-0.1 0-0.2-0.1-0.2-0.2zm0.3-0.1q0.1 0 0.1 0 0 0-0.1 0z"/>
			</g>
			<g id="Layer">
				<g id="Layer">
					<path id="Layer" fill-rule="evenodd" class="s0" d="m68.6 5.2c-0.2 0-0.3-0.1-0.3-0.3 0-0.1 0.1-0.2 0.3-0.2 0.2 0 0.3 0.1 0.3 0.2 0 0.2-0.1 0.3-0.3 0.3zm0.2-0.3c0-0.1-0.1-0.1-0.2-0.1-0.1 0-0.2 0-0.2 0.1 0 0.1 0.1 0.2 0.2 0.2 0.1 0 0.2-0.1 0.2-0.2z"/>
				</g>
				<path id="Layer" fill-rule="evenodd" class="s0" d="m68.3 4.9c0-0.1 0.1-0.2 0.3-0.2 0.2 0 0.3 0.1 0.3 0.2 0 0.2-0.1 0.3-0.3 0.3-0.2 0-0.3-0.1-0.3-0.3zm0.6 0c0-0.1-0.1-0.2-0.3-0.2-0.2 0-0.3 0.1-0.3 0.2 0 0.2 0.1 0.3 0.3 0.3 0.2 0 0.3-0.1 0.3-0.3zm-0.5 0c0-0.1 0.1-0.1 0.2-0.1 0.1 0 0.2 0 0.2 0.1 0 0.1-0.1 0.2-0.2 0.2 0.1 0 0.2-0.1 0.2-0.2 0-0.1-0.1-0.1-0.2-0.1-0.1 0-0.2 0-0.2 0.1 0 0.1 0.1 0.2 0.2 0.2-0.1 0-0.2-0.1-0.2-0.2z"/>
			</g>
		</g>
		<g id="Layer">
			<path id="Layer" fill-rule="evenodd" class="s0" d="m74.7 9.9c-1.7 0-3.1-1.4-3.1-3 0-1.7 1.4-3 3.1-3 1.7 0 3 1.3 3 3 0 1.6-1.3 3-3 3zm2.9-3c0-1.6-1.3-2.9-2.9-2.9-1.7 0-3 1.3-3 2.9 0 1.6 1.3 2.9 3 2.9 1.6 0 2.9-1.3 2.9-2.9z"/>
			<path id="Layer" fill-rule="evenodd" class="s0" d="m74.7 9.9c-1.7 0-3.1-1.3-3.1-3 0-1.7 1.4-3 3.1-3 1.7 0 3.1 1.3 3.1 3 0 1.7-1.4 3-3.1 3zm2.9-3c0-1.6-1.3-2.8-2.9-2.8-1.6 0-2.9 1.2-2.9 2.8 0 1.6 1.3 2.8 2.9 2.8 1.6 0 2.9-1.2 2.9-2.8zm-5.9 0z"/>
		</g>
		<g id="Layer">
			<path id="Layer" fill-rule="evenodd" class="s0" d="m74.5 6.5c-0.2 0-0.3-0.1-0.3-0.2 0-0.1 0.1-0.2 0.3-0.2 0.2 0 0.3 0.1 0.3 0.2 0 0.1-0.1 0.2-0.3 0.2zm0.2-0.2c0-0.1-0.1-0.1-0.2-0.1-0.1 0-0.2 0-0.2 0.1 0 0.1 0.1 0.1 0.2 0.1 0.1 0 0.2 0 0.2-0.1z"/>
			<path id="Layer" fill-rule="evenodd" class="s0" d="m74.2 6.3c0-0.2 0.1-0.3 0.3-0.3 0.2 0 0.3 0.1 0.3 0.3 0 0.2-0.1 0.3-0.3 0.3-0.2 0-0.3-0.1-0.3-0.3zm0.6 0c0-0.1-0.1-0.2-0.3-0.2-0.2 0-0.3 0.1-0.3 0.2 0 0.1 0.1 0.2 0.3 0.2 0.2 0 0.3-0.1 0.3-0.2zm-0.3 0.2c-0.1 0-0.3-0.1-0.3-0.2 0-0.1 0.2-0.2 0.3-0.2 0.1 0 0.3 0.1 0.3 0.2 0 0.1-0.2 0.2-0.3 0.2zm0-0.1c0.1 0 0.2-0.1 0.2-0.1 0 0-0.1-0.1-0.2-0.1-0.1 0-0.2 0.1-0.2 0.1 0 0 0.1 0.1 0.2 0.1z"/>
		</g>
		<g id="Layer">
			<path id="Layer" fill-rule="evenodd" class="s0" d="m75.3 7.1c-0.2 0-0.3-0.1-0.3-0.2 0-0.2 0.1-0.3 0.3-0.3 0.2 0 0.3 0.1 0.3 0.3 0 0.1-0.1 0.2-0.3 0.2zm0.3-0.2c0-0.1-0.2-0.2-0.3-0.2-0.1 0-0.2 0.1-0.2 0.2 0 0 0.1 0.1 0.2 0.1 0.1 0 0.3-0.1 0.3-0.1z"/>
			<path id="Layer" fill-rule="evenodd" class="s0" d="m75 6.9c0-0.2 0.1-0.3 0.3-0.3 0.2 0 0.4 0.1 0.4 0.3 0 0.1-0.2 0.2-0.4 0.2-0.2 0-0.3-0.1-0.3-0.2zm0.6 0c0-0.2-0.1-0.3-0.3-0.3-0.2 0-0.3 0.1-0.3 0.3 0 0.1 0.1 0.2 0.3 0.2 0.2 0 0.3-0.1 0.3-0.2zm-0.5 0c0-0.1 0.1-0.2 0.2-0.2 0.2 0 0.3 0.1 0.3 0.2 0 0-0.1 0.1-0.3 0.1-0.1 0-0.2-0.1-0.2-0.1zm0.2 0.1c0.2 0 0.2-0.1 0.2-0.1 0-0.1 0-0.2-0.2-0.2-0.1 0-0.2 0.1-0.2 0.2 0 0 0.1 0.1 0.2 0.1z"/>
		</g>
		<g id="Layer">
			<path id="Layer" fill-rule="evenodd" class="s0" d="m73.9 7.3c-0.1 0-0.3-0.1-0.3-0.3 0-0.1 0.2-0.2 0.3-0.2 0.2 0 0.4 0.1 0.4 0.2 0 0.2-0.2 0.3-0.4 0.3zm0.3-0.3c0-0.1-0.1-0.1-0.3-0.1-0.1 0-0.2 0-0.2 0.1 0 0.1 0.1 0.2 0.2 0.2 0.2 0 0.3-0.1 0.3-0.2z"/>
			<path id="Layer" fill-rule="evenodd" class="s0" d="m73.6 7c0-0.1 0.2-0.2 0.3-0.2 0.2 0 0.4 0.1 0.4 0.2 0 0.2-0.2 0.3-0.4 0.3-0.1 0-0.3-0.1-0.3-0.3zm0.6 0c0-0.1-0.1-0.2-0.3-0.2-0.1 0-0.3 0.1-0.3 0.2 0 0.1 0.2 0.2 0.3 0.2 0.2 0 0.3-0.1 0.3-0.2zm-0.3 0.2c-0.1 0-0.2-0.1-0.2-0.2 0-0.1 0.1-0.1 0.2-0.1 0.2 0 0.3 0 0.3 0.1 0 0.1-0.1 0.2-0.3 0.2zm0 0c0.2 0 0.2-0.1 0.2-0.2 0 0 0-0.1-0.2-0.1-0.1 0-0.2 0.1-0.2 0.1 0 0.1 0.1 0.2 0.2 0.2z"/>
		</g>
		<g id="Layer">
			<path id="Layer" fill-rule="evenodd" class="s0" d="m74.7 7.8c-0.1 0-0.3-0.1-0.3-0.2 0-0.1 0.2-0.3 0.3-0.3 0.2 0 0.4 0.2 0.4 0.3 0 0.1-0.2 0.2-0.4 0.2zm0.3-0.2c0-0.1-0.1-0.2-0.3-0.2-0.1 0-0.2 0.1-0.2 0.2 0 0.1 0.1 0.1 0.2 0.1 0.2 0 0.3 0 0.3-0.1z"/>
			<path id="Layer" fill-rule="evenodd" class="s0" d="m74.4 7.6c0-0.2 0.2-0.3 0.3-0.3 0.2 0 0.4 0.1 0.4 0.3 0 0.1-0.2 0.2-0.4 0.2-0.1 0-0.3-0.1-0.3-0.2zm0.7 0c0-0.1-0.2-0.2-0.4-0.2-0.1 0-0.3 0.1-0.3 0.2 0 0.1 0.2 0.2 0.3 0.2 0.2 0 0.4-0.1 0.4-0.2zm-0.4 0.1c-0.1 0-0.2 0-0.2-0.1 0-0.1 0.1-0.2 0.2-0.2 0.2 0 0.3 0.1 0.3 0.2 0 0.1-0.1 0.1-0.3 0.1zm0 0c0.2 0 0.3-0.1 0.3-0.1 0-0.1-0.1-0.1-0.3-0.1-0.1 0-0.2 0-0.2 0.1 0 0 0.1 0.1 0.2 0.1z"/>
		</g>
		<g id="Layer">
			<path id="Layer" fill-rule="evenodd" class="s0" d="m74.7 16.6c-0.9 0-1.6-0.7-1.6-1.5 0-0.9 0.7-1.6 1.6-1.6 0.8 0 1.5 0.7 1.5 1.6 0 0.8-0.7 1.5-1.5 1.5zm1.4-1.5c0-0.8-0.6-1.5-1.4-1.5-0.8 0-1.5 0.7-1.5 1.5 0 0.7 0.7 1.4 1.5 1.4 0.8 0 1.4-0.7 1.4-1.4z"/>
			<path id="Layer" fill-rule="evenodd" class="s0" d="m74.7 16.6c-0.9 0-1.6-0.7-1.6-1.5 0-0.9 0.7-1.6 1.6-1.6 0.9 0 1.6 0.7 1.6 1.6 0 0.8-0.7 1.5-1.6 1.5zm1.4-1.5c0-0.8-0.6-1.4-1.4-1.4-0.8 0-1.4 0.6-1.4 1.4 0 0.7 0.6 1.3 1.4 1.3 0.8 0 1.4-0.6 1.4-1.3zm-2.9 0z"/>
		</g>
		<g id="Layer">
			<path id="Layer" fill-rule="evenodd" class="s0" d="m74.4 14.8c0-0.1 0.1-0.2 0.2-0.2 0.1 0 0.2 0.1 0.2 0.2 0 0.1-0.1 0.1-0.2 0.1-0.1 0-0.2 0-0.2-0.1zm0.1 0q0 0 0.1 0 0.1 0 0.1 0 0-0.1-0.1-0.1-0.1 0-0.1 0.1z"/>
			<path id="Layer" fill-rule="evenodd" class="s0" d="m74.4 14.8c0-0.2 0.1-0.2 0.2-0.2 0.1 0 0.2 0.1 0.2 0.2 0 0.1-0.1 0.1-0.2 0.1-0.1 0-0.2 0-0.2-0.1zm0.2 0.1c0.1 0 0.2-0.1 0.2-0.1 0-0.1-0.1-0.2-0.2-0.2-0.1 0-0.2 0.1-0.2 0.2 0 0 0.1 0.1 0.2 0.1zm-0.1-0.1q0-0.1 0.1-0.1 0.1 0 0.1 0.1 0 0-0.1 0-0.1 0-0.1 0zm0.1 0c0.1 0 0.1 0 0.1 0 0 0-0.1-0.1-0.1-0.1-0.1 0-0.1 0.1-0.1 0.1 0 0 0 0 0.1 0z"/>
		</g>
		<g id="Layer">
			<path id="Layer" fill-rule="evenodd" class="s0" d="m74.8 15c0-0.1 0.1-0.1 0.2-0.1 0.1 0 0.2 0 0.2 0.1 0 0.1-0.1 0.2-0.2 0.2-0.1 0-0.2-0.1-0.2-0.2zm0.1 0c0 0.1 0 0.1 0.1 0.1q0.1 0 0.1-0.1 0 0-0.1 0c-0.1 0-0.1 0-0.1 0z"/>
			<path id="Layer" fill-rule="evenodd" class="s0" d="m75 15.2c-0.1 0-0.2-0.1-0.2-0.2 0-0.1 0.1-0.1 0.2-0.1 0.1 0 0.2 0 0.2 0.1 0 0.1-0.1 0.2-0.2 0.2q0 0 0 0zm0 0c0.1 0 0.2-0.1 0.2-0.2 0 0-0.1-0.1-0.2-0.1-0.1 0-0.2 0.1-0.2 0.1 0 0.1 0.1 0.2 0.2 0.2zm-0.1-0.2q0 0 0.1 0 0.1 0 0.1 0 0 0.1-0.1 0.1-0.1 0-0.1-0.1zm0.1 0.1q0.1 0 0.1-0.1c0 0 0 0-0.1 0q-0.1 0-0.1 0 0 0.1 0.1 0.1z"/>
		</g>
		<g id="Layer">
			<path id="Layer" fill-rule="evenodd" class="s0" d="m74.1 15.1c0-0.1 0.1-0.1 0.2-0.1 0.1 0 0.2 0 0.2 0.1 0 0.1-0.1 0.2-0.2 0.2-0.1 0-0.2-0.1-0.2-0.2zm0.1 0q0 0.1 0.1 0.1 0.1 0 0.1-0.1 0 0-0.1 0c-0.1 0-0.1 0-0.1 0z"/>
			<path id="Layer" fill-rule="evenodd" class="s0" d="m74.1 15.1c0-0.1 0.1-0.1 0.2-0.1 0.1 0 0.2 0 0.2 0.1 0 0.1-0.1 0.2-0.2 0.2-0.1 0-0.2-0.1-0.2-0.2zm0.2 0.1c0.1 0 0.2 0 0.2-0.1 0-0.1-0.1-0.1-0.2-0.1q-0.1 0-0.2 0.1c0 0.1 0.1 0.1 0.2 0.1zm-0.1-0.1q0 0 0.1 0 0.1 0 0.1 0 0 0.1-0.1 0.1-0.1 0-0.1-0.1zm0.2 0q0 0 0 0c0 0 0 0-0.1 0q-0.1 0-0.1 0 0 0 0.1 0.1 0 0 0.1-0.1z"/>
		</g>
		<g id="Layer">
			<path id="Layer" fill-rule="evenodd" class="s0" d="m74.5 15.4c0-0.1 0.1-0.1 0.2-0.1 0.1 0 0.2 0 0.2 0.1 0 0.1-0.1 0.1-0.2 0.1-0.1 0-0.2 0-0.2-0.1zm0.1 0q0 0 0.1 0.1c0.1 0 0.1-0.1 0.1-0.1q0 0-0.1 0-0.1 0-0.1 0z"/>
			<path id="Layer" fill-rule="evenodd" class="s0" d="m74.5 15.4c0-0.1 0.1-0.2 0.2-0.2 0.1 0 0.2 0.1 0.2 0.2 0 0.1-0.1 0.2-0.2 0.2-0.1 0-0.2-0.1-0.2-0.2zm0.2 0.1c0.1 0 0.2 0 0.2-0.1 0-0.1-0.1-0.1-0.2-0.1-0.1 0-0.1 0-0.2 0.1q0.1 0.1 0.2 0.1zm-0.1-0.1q0-0.1 0.1-0.1 0.1 0 0.1 0.1 0 0.1-0.1 0.1-0.1 0-0.1-0.1zm0.1 0c0.1 0 0.1 0 0.1 0 0 0 0 0-0.1 0 0 0-0.1 0-0.1 0 0 0 0.1 0 0.1 0z"/>
		</g>
		<g id="Layer">
			<g id="Layer">
				<path id="Layer" class="s0" d="m69.3 9.4c-0.5-0.1-2.3-1.1-3.3-1.6-0.9-0.5-2.4-1.5-2.5-1.6v-0.1c0.1-0.1 0.2-0.4 0.4-0.4q0 0 0 0c0.1 0 1.6 0.7 2.6 1.2 0.9 0.5 2.8 1.5 3.1 1.9 0.2 0.1 2.4 1.3 5 2.9-2.7-1.5-4.9-2.7-5.1-2.9-0.2-0.3-2.2-1.3-3.1-1.8-0.9-0.5-2.4-1.2-2.5-1.2-0.1-0.1-0.3 0.2-0.3 0.3 0.2 0.2 1.6 1.1 2.5 1.6 0.9 0.5 2.8 1.5 3.2 1.6 0.2 0.1 2.3 1.2 4.9 2.6l-0.1 0.1c-2.6-1.4-4.7-2.5-4.8-2.6z"/>
				<path id="Layer" fill-rule="evenodd" class="s0" d="m74.1 12c-2.6-1.3-4.6-2.5-4.9-2.6-0.4-0.1-2.3-1.1-3.2-1.6-0.9-0.5-2.4-1.5-2.5-1.6v-0.1c0-0.1 0.1-0.4 0.4-0.5q0 0 0 0 0 0 0 0c0.2 0.1 1.7 0.8 2.6 1.3 0.9 0.5 2.8 1.5 3.1 1.8 0.2 0.2 2.4 1.4 5.1 2.9q0 0 0 0.1l-0.1 0.1q0 0 0 0 0 0 0 0c-2.7-1.5-4.9-2.8-5.1-2.9-0.2-0.3-2.2-1.3-3.1-1.9-0.9-0.5-2.4-1.2-2.5-1.2q0 0 0 0 0 0 0 0-0.1 0-0.1 0 0 0.1 0 0.1-0.1 0.1-0.1 0.2c0.2 0.2 1.5 1.1 2.4 1.6 0.9 0.5 2.8 1.5 3.2 1.5 0.2 0.1 2.3 1.3 4.9 2.7q0 0 0 0 0 0 0 0.1 0 0-0.1 0.1 0 0 0 0 0 0 0-0.1zm-4.8-2.6h-0.1 0.1v-0.1zm-5.7-3.2q0 0 0 0 0 0 0 0 0 0 0 0zm0.1-0.3q0 0 0 0 0 0 0 0zm0.2-0.1q0 0 0 0 0 0 0 0z"/>
			</g>
			<g id="Layer">
				<path id="Layer" fill-rule="evenodd" class="s0" d="m75.1 12q-0.3-0.1-0.5-0.3h-0.1 0.1c2.7-1.6 4.9-2.8 5.1-2.9 0.2-0.4 2.2-1.3 3.1-1.9 0.9-0.5 2.4-1.2 2.6-1.2q0 0 0 0 0 0 0 0c0.2 0 0.3 0.3 0.3 0.4v0.1c-0.1 0.1-1.5 1.1-2.5 1.6-0.9 0.5-2.8 1.5-3.2 1.6-0.2 0.1-2.3 1.2-4.9 2.6zm0-0.1c2.6-1.4 4.7-2.5 4.9-2.6 0.4 0 2.3-1.1 3.2-1.6 0.9-0.4 2.3-1.4 2.5-1.6-0.1-0.1-0.2-0.3-0.3-0.3q0 0 0 0c-0.1 0-1.7 0.7-2.6 1.2-0.9 0.5-2.8 1.6-3.1 1.9-0.2 0.1-2.3 1.3-5 2.8q0.2 0.1 0.4 0.2z"/>
				<path id="Layer" fill-rule="evenodd" class="s0" d="m75.1 12.1v-0.1q-0.3-0.1-0.5-0.2l-0.1-0.1q0 0 0 0 0 0 0 0l0.1-0.1c2.6-1.5 4.8-2.7 5-2.9 0.3-0.3 2.2-1.3 3.1-1.8 1-0.5 2.4-1.2 2.7-1.3q0 0 0 0 0 0 0 0c0.2 0.1 0.3 0.4 0.4 0.5v0.1c-0.2 0.1-1.6 1.1-2.6 1.6-0.9 0.5-2.7 1.5-3.2 1.6-0.3 0.1-2.3 1.3-4.9 2.6v0.1q0 0 0 0 0 0 0 0zm0-0.1q0 0 0 0 0 0 0 0 0 0 0 0zm0-0.1c2.6-1.4 4.6-2.6 4.8-2.7q0 0 0.1 0 0 0 0 0c0.3 0 2.2-1 3.1-1.5 0.9-0.5 2.3-1.4 2.5-1.6-0.1-0.1-0.2-0.3-0.2-0.3q0 0 0 0 0 0 0 0 0 0 0 0c-0.1 0-1.7 0.7-2.6 1.2-0.9 0.6-2.8 1.6-3 1.9h-0.1c-0.2 0.1-2.3 1.3-4.9 2.8q0.1 0.1 0.3 0.2zm-0.4-0.2q0 0 0 0 0 0 0 0-0.1 0-0.1 0 0 0 0.1 0zm0.4 0.3zm0-0.1zm10.6-5.8q0 0 0 0 0 0 0 0 0 0 0 0z"/>
			</g>
			<g id="Layer">
				<g id="Layer">
					<path id="Layer" class="s0" d="m63.9 18c0 0 6.1-3.3 10.8-5.8l-0.1 0.1c-2.3 1.2-5 2.7-7 3.8-2.1 1.2-3.6 2-3.6 2l-0.6 0.1 0.4-0.4c0 0 5.7-3.3 10.3-5.9h0.1q0 0 0 0c-4.6 2.6-10.4 5.9-10.4 5.9l-0.2 0.3z"/>
					<path id="Layer" class="s0" d="m63.4 18.2q0 0 0-0.1l0.4-0.3q0-0.1 0-0.1 0 0 0 0c0 0 5.7-3.2 10.3-5.8q0 0 0.1 0 0 0 0 0 0 0 0 0 0 0.1 0 0.1c-4.5 2.5-10.1 5.7-10.3 5.9l-0.2 0.1h0.2c0.2-0.1 6.2-3.3 10.7-5.8q0.1 0 0.1 0 0.1 0 0.1 0 0 0.1-0.1 0.1c-2.4 1.3-5 2.7-7.1 3.9-2.1 1.1-3.6 1.9-3.6 1.9l-0.6 0.1q0 0 0 0 0 0 0 0z"/>
				</g>
				<g id="Layer">
					<path id="Layer" class="s0" d="m63.8 17.8c0 0 5.8-3.3 10.4-5.9q0.2 0.1 0.4 0.2l-0.1 0.1q-0.2-0.1-0.4-0.2c-4.4 2.6-10 5.7-10.2 5.9l-0.2 0.1-0.1 0.1z"/>
					<path id="Layer" class="s0" d="m63.5 18.1q0 0 0 0l0.3-0.3c0 0 1.4-0.8 3.5-2 2-1.1 4.6-2.6 6.9-3.9q0 0 0 0 0.2 0.1 0.4 0.2 0 0 0 0 0 0.1 0 0.1h-0.1q0 0.1-0.1 0-0.1 0-0.3-0.1c-4.4 2.5-9.9 5.6-10.2 5.8l-0.2 0.2q0 0 0 0h-0.1q0 0.1 0 0.1-0.1 0-0.1-0.1z"/>
				</g>
				<g id="Layer">
					<path id="Layer" class="s0" d="m74.6 12.2h0.1c-4.7 2.5-10.7 5.8-10.7 5.8l-0.4 0.1 0.1-0.1h0.2c0 0 6-3.2 10.6-5.8q0 0 0 0l0.1-0.1q0 0.1 0 0.1z"/>
					<path id="Layer" fill-rule="evenodd" class="s0" d="m63.5 18.1q0 0 0 0l0.2-0.1 0.2-0.1c0.2-0.1 6-3.2 10.5-5.7q0 0 0 0 0 0 0 0l0.1-0.1q0.1 0 0.1 0 0 0 0.1 0v0.1q0 0 0 0 0 0 0 0c-3.5 1.9-7.8 4.3-9.7 5.3-0.7 0.4-1 0.6-1 0.6h-0.4q0 0 0 0-0.1 0.1-0.1 0zm11.1-5.9q0 0 0 0 0 0 0 0 0 0 0 0zm-0.1 0l0.1-0.1z"/>
				</g>
			</g>
			<g id="Layer">
				<path id="Layer" class="s0" d="m74.1 12l0.1-0.1q0.2 0.2 0.4 0.3v0.1q-0.2-0.2-0.5-0.3z"/>
				<path id="Layer" class="s0" d="m74.6 12.3q-0.3-0.1-0.5-0.3 0 0 0 0 0 0 0 0v-0.1q0 0 0.1 0 0 0 0 0 0.2 0.1 0.5 0.2 0 0.1 0 0.1 0 0 0 0l-0.1 0.1q0 0 0 0 0 0 0 0z"/>
			</g>
			<g id="Layer">
				<path id="Layer" class="s0" d="m74.6 11.7q0.3 0.1 0.5 0.2v0.1q-0.3-0.1-0.5-0.3z"/>
				<path id="Layer" class="s0" d="m75.1 12q-0.3-0.1-0.5-0.2v-0.1 0.1-0.1 0.1q-0.1 0 0-0.1v-0.1q0 0 0.1 0 0.2 0.2 0.4 0.3 0.1 0 0.1 0v0.1h-0.1q0 0 0 0.1 0 0 0 0 0 0 0-0.1z"/>
			</g>
			<g id="Layer">
				<path id="Layer" class="s0" d="m85.3 18.1c0 0-6-3.3-10.7-5.8v-0.1c4.7 2.5 10.7 5.8 10.7 5.8h0.3l-0.2-0.1c0 0-5.7-3.3-10.3-5.9v-0.1c4.6 2.6 10.3 5.9 10.3 5.9l0.4 0.4z"/>
				<path id="Layer" fill-rule="evenodd" class="s0" d="m85.8 18.2l-0.5-0.1h-0.1c0 0-6-3.3-10.6-5.8q-0.1 0 0-0.1 0-0.1 0-0.1 0 0 0.1 0c4.5 2.5 10.2 5.6 10.6 5.8l0.1 0.1v-0.1c-0.3-0.1-5.9-3.3-10.3-5.9q-0.1 0-0.1 0l0.1-0.1q0 0 0 0 0 0 0 0c4.6 2.6 10.3 5.8 10.4 5.9l0.3 0.3q0.1 0.1 0 0.1 0 0 0 0 0 0 0 0zm-0.1-0.1l-0.1-0.1q0 0 0 0.1 0 0 0 0zm-0.4-0.1q0 0 0 0 0 0 0 0zm0 0q0 0 0 0 0 0 0 0zm0-0.1q0 0 0 0 0 0 0 0z"/>
			</g>
		</g>
		<g id="Layer">
			<path id="Layer" fill-rule="evenodd" class="s0" d="m71.5 28.3c0-0.4 0.5-0.8 1.3-1q0 0.2 0.1 0.3c0.1 0.3 0.5 0.6 1.7 0.6 1.1 0 1.8-0.4 1.8-0.6q0 0 0-0.2v-0.1h0.1c0.7 0.2 1.2 0.6 1.2 1-0.1 0.7-1.4 1.2-3.1 1.2-1.7 0-3-0.5-3.1-1.2zm0.1 0c0 0.3 0.3 0.6 0.9 0.8 0.5 0.2 1.3 0.3 2.1 0.3 0.8 0 1.6-0.1 2.1-0.3 0.6-0.2 0.9-0.5 0.9-0.8 0-0.3-0.4-0.7-1.1-0.9q0 0.2 0 0.2c-0.1 0.3-0.8 0.7-1.9 0.7-1.2 0-1.6-0.4-1.8-0.7q0 0 0-0.2c-0.7 0.2-1.2 0.6-1.2 0.9zm4.9-0.9z"/>
			<path id="Layer" fill-rule="evenodd" class="s0" d="m71.5 28.3c0-0.5 0.5-0.8 1.3-1v-0.1q0 0 0.1 0 0 0.1 0 0.1 0 0.2 0 0.3c0.2 0.2 0.6 0.6 1.7 0.6q0 0 0 0c1.1 0 1.7-0.4 1.8-0.6 0 0 0-0.1 0-0.2v-0.1q0 0 0 0 0-0.1 0 0h0.1c0.7 0.2 1.2 0.5 1.2 1 0 0.8-1.4 1.3-3.1 1.3-1.7 0-3.1-0.5-3.1-1.3zm0.2 0c0 0.3 0.3 0.5 0.8 0.7 0.5 0.3 1.3 0.4 2.1 0.4 0.8 0 1.6-0.1 2.1-0.4 0.5-0.2 0.8-0.4 0.8-0.7q0 0 0 0 0 0 0 0c0-0.3-0.3-0.6-0.9-0.8q-0.1 0.1-0.1 0.2c-0.1 0.3-0.8 0.6-1.9 0.6q0 0 0 0c-1.2 0-1.7-0.3-1.9-0.7q0 0 0-0.1c-0.6 0.2-1 0.5-1 0.8h-0.1zm1.1-0.9q0 0 0.1 0 0 0 0-0.1-0.1 0-0.1 0.1 0 0 0 0z"/>
		</g>
		<g id="Layer">
			<path id="Layer" class="s0" d="m72.9 23.6c0 0 0-0.4 0-0.4 0.3-0.3 1-0.4 1.6-0.4q0 0 0.1 0c0.6 0 1.5 0.1 1.6 0.4q0.1 0.4 0.1 0.3l-0.1 0.1q0 0-0.1-0.3c0-0.2-0.9-0.4-1.5-0.4q-0.1 0-0.1 0c-0.6 0-1.3 0.1-1.5 0.4 0 0 0 0.3 0 0.3z"/>
			<path id="Layer" fill-rule="evenodd" class="s0" d="m72.9 23.7q-0.1 0-0.1-0.1c0 0 0.1-0.3 0.1-0.4 0.3-0.3 1-0.5 1.6-0.5q0 0 0.1 0c0.6 0.1 1.5 0.2 1.6 0.5q0.1 0.3 0.1 0.3 0.1 0 0 0.1 0 0 0 0h-0.1q0 0 0 0 0 0 0 0 0 0-0.1-0.3c0-0.1-0.3-0.2-0.5-0.3-0.3 0-0.7-0.1-1-0.1q-0.1 0-0.1 0 0 0 0 0c-0.6 0-1.3 0.2-1.4 0.4 0 0.1-0.1 0.3-0.1 0.3q0 0.1 0 0.1 0 0 0 0zm2.8-0.7q0 0-0.1 0 0.1 0 0.1 0zm-2.7 0.2q0 0 0 0 0 0 0 0z"/>
		</g>
		<g id="Layer">
			<path id="Layer" fill-rule="evenodd" class="s0" d="m73.3 23.3q0 0 0 0c0-0.3 0.6-0.4 1.3-0.5 0.7 0.1 1.3 0.2 1.3 0.5 0 0.3-0.6 0.4-1.3 0.4-0.7 0-1.3-0.1-1.3-0.4zm0.4 0.2q0.3 0.1 0.9 0.2 0.5-0.1 0.9-0.2c0.2 0 0.3-0.1 0.3-0.2q0 0 0 0c0-0.1-0.1-0.2-0.3-0.2q-0.3-0.2-0.9-0.2-0.5 0-0.9 0.2-0.3 0.1-0.3 0.2 0 0 0 0 0 0.1 0.3 0.2z"/>
			<path id="Layer" fill-rule="evenodd" class="s0" d="m73.2 23.3q0 0 0 0 0 0 0 0c0.1-0.4 0.7-0.5 1.4-0.5 0.7 0 1.3 0.1 1.4 0.5q0 0 0 0 0 0 0 0c-0.1 0.4-0.7 0.5-1.4 0.5-0.7 0-1.3-0.1-1.4-0.5zm1.4 0.3q0.5 0 0.9-0.1c0.2-0.1 0.3-0.2 0.3-0.2q0 0 0 0 0 0 0 0c0 0-0.1-0.1-0.3-0.2-0.2-0.1-0.5-0.1-0.9-0.1-0.3 0-0.6 0-0.9 0.1-0.2 0.1-0.3 0.1-0.3 0.2q0 0 0 0 0 0 0 0c0 0 0.1 0.1 0.3 0.2q0.4 0.1 0.9 0.1z"/>
		</g>
		<g id="Layer">
			<path id="Layer" fill-rule="evenodd" class="s0" d="m56.5 17.1q0 0 0 0c0-0.1 0.1-0.3 0.6-0.7 0.7-0.5 4.3-1.7 6.4-2.5 1.5-0.6 2.3-1.1 2.9-1.6-0.4-0.7-3-2.3-3.4-2.7-0.5-0.3-3.9-2.9-4.1-3.1-0.3-0.3-0.8-0.9-1.2-1.7q-0.1-0.2-0.1-0.6c0-0.7 0.3-1.4 0.8-1.5v0.1c0 0 1 1.2 1.5 1.6 0.4 0.3 2.4 1.9 2.8 2.1 0.5 0.3 3.6 2.5 3.9 3 0.3 0.2 0.7 0.9 0.7 1.5q0 0.3-0.2 0.6-0.3 0.4-0.6 0.7 0 0 0 0l0.3 2.5h-0.1l-0.3-2.4c-0.6 0.5-1.4 1-2.8 1.6-2.2 0.8-5.8 2-6.4 2.5-0.5 0.4-0.6 0.5-0.6 0.6 0.1 0.8 0.2 2.3 0.3 2.6h-0.1c-0.1-0.3-0.2-1.7-0.3-2.6zm1.4-13.8c-0.1 0.3-0.2 0.6-0.2 0.9q0 0.4 0.1 0.6c0.3 0.7 0.9 1.4 1.1 1.6 0.3 0.3 3.7 2.8 4.1 3.1 0.4 0.4 3 2 3.4 2.7q0.4-0.3 0.6-0.6 0.3-0.3 0.2-0.6c0-0.6-0.4-1.2-0.6-1.5-0.4-0.4-3.5-2.7-3.9-2.9-0.4-0.3-2.4-1.8-2.9-2.1-0.4-0.4-1.3-1.5-1.5-1.7-0.1 0.1-0.3 0.2-0.4 0.5z"/>
			<path id="Layer" fill-rule="evenodd" class="s0" d="m56.8 19.8q-0.1 0-0.1 0c-0.1-0.4-0.2-1.8-0.2-2.7q0 0 0 0 0 0 0 0c0-0.2 0.1-0.3 0.6-0.7 0.7-0.6 4.3-1.7 6.4-2.5 1.4-0.6 2.3-1.1 2.8-1.6-0.4-0.7-2.9-2.3-3.4-2.6-0.4-0.4-3.8-2.9-4.1-3.2-0.2-0.3-0.8-0.9-1.1-1.6q-0.2-0.3-0.2-0.7c0-0.7 0.4-1.5 0.9-1.5 0 0 1 1.3 1.5 1.6 0.4 0.4 2.5 1.9 2.9 2.2 0.4 0.2 3.5 2.5 3.9 2.9 0.2 0.3 0.7 0.9 0.7 1.6q0 0.3-0.3 0.7-0.2 0.3-0.6 0.6 0 0 0 0l0.3 2.4q0 0.1 0 0.1 0 0 0 0h-0.1q0 0 0 0 0 0 0 0l-0.3-2.3c-0.6 0.5-1.4 1-2.8 1.5-2.2 0.8-5.8 2-6.4 2.5-0.5 0.3-0.5 0.5-0.5 0.6 0 0.8 0.1 2.3 0.2 2.6q0 0 0 0 0 0 0 0.1h-0.1q0 0 0 0 0 0 0 0zm9.6-7.5q0 0 0 0 0 0 0 0 0 0 0 0 0 0 0 0 0 0 0 0 0 0 0 0 0 0 0 0 0 0 0 0 0 0 0 0 0 0 0 0zm-8.7-8.1q0 0.3 0.1 0.6c0.4 0.7 0.9 1.3 1.2 1.6 0.2 0.2 3.6 2.8 4 3.1 0.5 0.3 2.9 1.9 3.4 2.6q0.3-0.3 0.6-0.5 0.2-0.3 0.2-0.6c0-0.6-0.4-1.2-0.7-1.5-0.3-0.3-3.4-2.6-3.8-2.9-0.4-0.2-2.5-1.8-2.9-2.1-0.5-0.3-1.3-1.4-1.5-1.6-0.1 0-0.2 0.2-0.4 0.4-0.1 0.3-0.2 0.6-0.2 0.9zm0.7-1.4q0 0 0 0 0 0 0 0zm-1.9 14.3h0.1z"/>
		</g>
		<g id="Layer">
			<path id="Layer" class="s0" d="m59 20.6c-0.8-0.1-1-0.1-2.1-0.6q-0.1-0.1-0.1-0.2c0-0.4 1.5-1.1 3.1-1.8 1.7-0.6 3.6-1.3 4.3-1.6 1.7-0.7 2.5-1.8 2.7-2 0-0.1 0.2-1 0.2-1.7 0.1-0.8 0.1-1.6 0.1-1.6h0.1c0 0-0.1 3-0.4 3.3-0.2 0.3-0.9 1.4-2.6 2.1-0.8 0.3-2.7 0.9-4.3 1.6-1.7 0.7-3.2 1.4-3.1 1.7q0 0 0.1 0.1c1 0.5 1.2 0.5 2 0.6 0.8 0.1 2.4 0.2 2.4 0.2v0.1c0 0-1.6-0.1-2.4-0.2z"/>
			<path id="Layer" fill-rule="evenodd" class="s0" d="m59 20.7c-0.8-0.1-1-0.2-2.1-0.7q-0.2-0.1-0.2-0.2 0 0 0 0c0.1-0.5 1.5-1.1 3.2-1.8 1.7-0.7 3.6-1.4 4.3-1.7 1.7-0.6 2.4-1.7 2.6-2 0.1 0 0.1-0.2 0.2-0.5 0-0.4 0-0.8 0.1-1.2 0-0.7 0.1-1.5 0.1-1.5q0 0 0 0 0 0 0 0 0 0 0 0h0.1q0 0 0 0 0.1 0 0.1 0 0 0 0 0 0 0 0 0-0.1 0-0.1 0 0 0.1 0 0.1 0 0.2 0 0.4c0 0.3 0 0.7 0 1.1-0.1 0.8-0.2 1.6-0.3 1.8-0.2 0.2-1 1.3-2.7 2-0.8 0.3-2.6 1-4.3 1.7-0.8 0.3-1.6 0.6-2.2 0.9-0.5 0.3-0.9 0.6-0.9 0.7q0 0 0 0c0 0 0 0 0.1 0 1 0.5 1.2 0.6 2 0.7 0.8 0.1 2.4 0.2 2.4 0.2q0 0 0 0 0.1 0 0.1 0v0.1q-0.1 0.1-0.1 0.1c0 0-1.6-0.1-2.4-0.2zm-1.7-1.4q0.2-0.1 0.4-0.2-0.2 0.1-0.4 0.2z"/>
		</g>
		<g id="Layer">
			<path id="Layer" class="s0" d="m57 23.4q0 0 0 0c0.1-0.3 0.7-0.9 1.2-1.1 0.4-0.2 3.3-1.5 4-1.7 0.3-0.1 1.1-0.3 1.9-0.6 0.8-0.2 1.5-0.5 1.5-0.6q0 0 0 0c0-0.1-0.1-0.1-0.3-0.2q-0.2 0-0.6-0.1c-0.5 0-1-0.1-1.3-0.1-0.3 0-2.3-0.3-3.4-0.4-0.4-0.1-0.7-0.1-0.7-0.1v-0.1c0 0 0.3 0 0.7 0.1 1.1 0.1 3.1 0.4 3.4 0.4 0.3 0 0.8 0.1 1.3 0.1 0.5 0.1 0.9 0.1 1 0.4q0 0 0 0c-0.1 0.2-0.8 0.4-1.6 0.7-0.8 0.2-1.6 0.5-1.9 0.6-0.6 0.2-3.5 1.4-4 1.7-0.4 0.1-1.1 0.8-1.1 1q0 0 0 0c0.1 0.2 0.6 2.7 0.6 2.7h-0.1c0 0-0.5-2.5-0.6-2.7z"/>
			<path id="Layer" fill-rule="evenodd" class="s0" d="m57.6 26.1c-0.1 0-0.6-2.4-0.6-2.6q0-0.1 0-0.1c0-0.3 0.7-0.9 1.2-1.2 0.4-0.2 3.3-1.4 3.9-1.7 0.3-0.1 1.2-0.3 2-0.5 0.7-0.3 1.4-0.6 1.4-0.6q0 0 0 0 0-0.1 0-0.1-0.1 0-0.2 0-0.2-0.1-0.6-0.1c-0.5-0.1-1-0.1-1.3-0.1-0.3-0.1-2.3-0.4-3.4-0.5-0.4-0.1-0.6-0.1-0.7-0.1q0 0 0 0 0 0 0 0 0 0 0 0 0-0.1 0-0.1 0-0.1 0-0.1c0 0 0.3 0.1 0.7 0.1 1.1 0.2 3.1 0.4 3.4 0.5 0.3 0 0.8 0 1.3 0.1 0.5 0.1 0.9 0.1 1 0.4q0 0 0 0c-0.1 0.3-0.8 0.5-1.6 0.7-0.8 0.3-1.6 0.5-1.9 0.6-0.6 0.2-3.5 1.5-4 1.7-0.4 0.1-1 0.9-1 1q0 0 0 0c0 0.2 0.5 2.6 0.5 2.6q0 0.1 0 0.1h-0.1q0 0 0 0 0 0 0 0zm-0.6-2.7h0.1q0 0 0 0zm8.1-3.7q0.2-0.1 0.3-0.2-0.1 0.1-0.3 0.2z"/>
		</g>
		<g id="Layer">
			<path id="Layer" class="s0" d="m57.9 26.2q-0.4 0-0.4-0.2c0-0.4 1-1.1 1.3-1.2 0.5-0.2 4-1.5 4.6-1.7 0.6-0.2 2.3-0.9 2.5-1 0 0 0-0.1 0-0.2 0-0.7-0.3-2.5-0.3-2.5h0.1c0 0 0.3 1.8 0.3 2.5 0 0.1 0 0.2 0 0.2-0.3 0.2-2 0.9-2.6 1.1-0.6 0.2-4.1 1.5-4.5 1.6-0.3 0.1-1.3 0.9-1.3 1.2 0 0 0.1 0.1 0.3 0.1h1.2v0.1h-1.2z"/>
			<path id="Layer" class="s0" d="m57.9 26.3v-0.1 0.1c-0.2 0-0.4-0.1-0.4-0.3 0-0.5 1-1.1 1.3-1.3 0.4-0.1 3.9-1.5 4.6-1.7 0.6-0.2 2.3-0.8 2.5-1q0 0 0 0 0 0 0-0.1 0 0 0 0 0 0 0 0c0-0.7-0.3-2.4-0.4-2.5q0 0 0 0 0.1-0.1 0.1-0.1h0.1q0 0 0 0 0 0 0 0.1 0 0 0 0 0 0 0 0 0 0.1 0.1 0.2 0 0.3 0.1 0.7c0.1 0.6 0.2 1.2 0.2 1.6 0 0.1 0 0.2-0.1 0.3-0.3 0.2-2 0.8-2.6 1-0.6 0.2-4.1 1.5-4.5 1.7-0.3 0.1-1.3 0.8-1.2 1.1q0 0 0 0c0 0 0 0.1 0.2 0.1h1.2q0 0 0 0 0 0 0 0v0.1q0 0 0 0 0 0.1 0 0.1h-1.2z"/>
		</g>
		<g id="Layer">
			<path id="Layer" class="s0" d="m62.6 26.1c0.1-0.2 1-0.9 2.1-1.2l-0.9-1.8v-0.1l1 1.9h-0.1c-1 0.3-2 1.1-2 1.2z"/>
			<path id="Layer" fill-rule="evenodd" class="s0" d="m62.7 26.2l-0.1-0.1q0 0-0.1 0 0 0 0 0c0.1-0.2 1.1-0.9 2.1-1.3l-0.9-1.7q0 0 0-0.1h0.1q0 0 0.1 0 0 0 0 0l0.9 1.9q0 0 0 0 0 0.1 0 0.1h-0.1c-0.9 0.2-1.9 1-2 1.1q0 0 0 0 0 0.1 0 0.1 0 0 0 0 0 0 0 0zm2-1.3q0 0 0 0 0 0 0 0 0 0 0 0z"/>
		</g>
		<g id="Layer">
			<path id="Layer" fill-rule="evenodd" class="s0" d="m58.9 26.3c0.4-0.3 2.4-2.5 2.4-2.5l0.1 0.1c0 0-2 2.1-2.4 2.5z"/>
			<path id="Layer" class="s0" d="m59 26.4q0 0 0 0h-0.1v-0.1l0.1 0.1-0.1-0.1v0.1q0-0.1 0-0.1 0 0 0 0c0.4-0.3 2.4-2.5 2.4-2.5q0-0.1 0.1 0 0 0 0 0.1 0 0 0 0 0 0 0 0 0 0-0.1 0.1 0 0.1-0.2 0.2c-0.2 0.3-0.4 0.5-0.7 0.8-0.6 0.6-1.2 1.2-1.4 1.4q0 0 0 0z"/>
		</g>
		<g id="Layer">
			<path id="Layer" class="s0" d="m58.2 5.6l0.9-1.8h0.1l-0.9 1.8h-0.1z"/>
			<path id="Layer" class="s0" d="m58.3 5.6h-0.1 0.1-0.1q0 0 0 0 0 0 0-0.1l0.8-1.7q0.1-0.1 0.1-0.1l0.1 0.1q0 0 0 0l-0.9 1.8q0 0 0 0 0 0 0 0 0 0 0 0z"/>
		</g>
		<g id="Layer">
			<path id="Layer" class="s0" d="m59.8 7.1l1.2-1.8-1.1 1.9-0.1-0.1z"/>
			<path id="Layer" class="s0" d="m59.9 7.2h-0.1v-0.1l0.1 0.1-0.1-0.1v0.1q0 0 0-0.1 0 0 0 0l1.1-1.8q0-0.1 0.1 0h0.1q0 0 0 0 0 0.1 0 0.1l-1.1 1.8q0 0-0.1 0 0 0 0 0 0 0 0 0z"/>
		</g>
		<g id="Layer">
			<path id="Layer" class="s0" d="m62 8.7l1.3-1.8v0.1l-1.2 1.8-0.1-0.1z"/>
			<path id="Layer" class="s0" d="m62 8.8v-0.1 0.1-0.1 0.1q-0.1 0-0.1-0.1l1.3-1.8q0 0 0.1 0h0.1q0 0 0 0.1 0 0 0 0l-1.3 1.8q0 0 0 0 0 0 0 0-0.1 0-0.1 0z"/>
		</g>
		<g id="Layer">
			<path id="Layer" class="s0" d="m64.2 10.3l1.1-1.8 0.1 0.1-1.2 1.8v-0.1z"/>
			<path id="Layer" class="s0" d="m64.2 10.4h-0.1l0.1-0.1-0.1 0.1q0 0 0-0.1 0 0 0 0l1.1-1.8q0.1 0 0.1 0l0.1 0.1q0 0 0 0l-1.1 1.8q0 0-0.1 0 0 0 0 0z"/>
		</g>
		<g id="Layer">
			<path id="Layer" class="s0" d="m64.2 13.7l0.1-0.1 0.8 2.4h-0.1l-0.8-2.3z"/>
			<path id="Layer" class="s0" d="m64.9 16.1l-0.7-2.4q0-0.1 0-0.1h0.1q0 0 0 0l0.8 2.4q0 0 0 0 0 0 0 0.1h-0.1q0 0 0 0-0.1 0-0.1 0z"/>
		</g>
		<g id="Layer">
			<path id="Layer" class="s0" d="m61.3 14.8l0.1-0.1 1 2.5h-0.1l-1-2.4z"/>
			<path id="Layer" class="s0" d="m62.2 17.2l-0.9-2.4q0 0 0 0 0-0.1 0-0.1h0.1q0 0 0 0l1 2.5q0 0 0 0 0 0 0 0h-0.1q0 0.1 0 0.1 0 0-0.1-0.1z"/>
		</g>
		<g id="Layer">
			<path id="Layer" class="s0" d="m58.7 15.7h0.1l0.7 2.5h-0.1l-0.7-2.5z"/>
			<path id="Layer" class="s0" d="m59.4 18.3q0-0.1 0-0.1l-0.7-2.5v0.1-0.1q0 0 0 0h0.1q0 0 0.1 0l0.7 2.5q0 0-0.1 0l-0.1 0.1q0 0 0 0 0 0 0 0z"/>
		</g>
		<g id="Layer">
			<path id="Layer" class="s0" d="m62.6 20.6l0.1-0.1 0.9 2.5h-0.1l-0.9-2.4z"/>
			<path id="Layer" class="s0" d="m63.5 23.1q0 0 0 0l-0.9-2.5h0.1-0.1q0-0.1 0-0.1h0.1q0 0 0.1 0l0.8 2.5q0 0 0 0l-0.1 0.1q0 0 0 0 0 0 0 0z"/>
		</g>
		<g id="Layer">
			<path id="Layer" class="s0" d="m59.8 21.7l0.1-0.1 0.8 2.4-0.9-2.3z"/>
			<path id="Layer" class="s0" d="m60.6 24.1l-0.8-2.4h0.1-0.1q0 0 0-0.1 0 0 0 0h0.1q0.1 0 0.1 0l0.8 2.4q0 0 0 0 0 0.1 0 0.1h-0.1q0 0 0 0-0.1 0-0.1 0z"/>
		</g>
		<g id="Layer">
			<path id="Layer" class="s0" d="m65 19.8h0.1l0.5 2.5h-0.1l-0.5-2.5z"/>
			<path id="Layer" class="s0" d="m65.5 22.3q0 0 0 0l-0.5-2.5q0 0 0-0.1h0.1q0 0 0 0 0.1 0 0.1 0.1l0.5 2.4q0 0.1 0 0.1 0 0-0.1 0h-0.1q0 0 0 0 0 0 0 0z"/>
		</g>
		<g id="Layer">
			<path id="Layer" class="s0" d="m57.6 22.7h0.1l0.6 2.4v0.1l-0.7-2.5z"/>
			<path id="Layer" class="s0" d="m58.2 25.2q0 0 0 0l-0.6-2.5q-0.1-0.1 0-0.1h0.1q0 0 0 0l0.7 2.5q0 0 0 0.1 0 0 0 0h-0.1q0 0 0 0-0.1 0-0.1 0z"/>
		</g>
		<g id="Layer">
			<path id="Layer" class="s0" d="m63.1 23.3l0.1-0.1 1.5 1.7-1.6-1.6z"/>
			<path id="Layer" class="s0" d="m64.7 25q0 0-0.1 0l-1.5-1.7q0 0 0 0 0 0 0 0v-0.1q0.1 0 0.1 0l1.6 1.6q0 0 0 0.1 0 0 0 0l-0.1 0.1q0 0 0 0z"/>
		</g>
		<g id="Layer">
			<path id="Layer" class="s0" d="m60.8 24.5h0.1l2.1 1.2v0.1l-2.2-1.3z"/>
			<path id="Layer" class="s0" d="m62.9 25.8l-2.1-1.2v-0.1l0.1 0.1-0.1-0.1v0.1q0 0 0-0.1 0 0 0 0v-0.1q0.1 0 0.1 0l2.1 1.3q0 0 0.1 0 0 0-0.1 0v0.1q0 0 0 0-0.1 0-0.1 0z"/>
		</g>
		<g id="Layer">
			<path id="Layer" class="s0" d="m59.7 20.6l0.3-2.1h0.1l-0.3 2.1h-0.1z"/>
			<path id="Layer" class="s0" d="m59.8 20.7h-0.1v-0.1 0.1q-0.1 0-0.1-0.1l0.3-2.1q0.1 0 0.1 0h0.1q0 0 0 0l-0.3 2.1q0 0.1 0 0.1 0 0 0 0 0 0 0 0z"/>
		</g>
		<g id="Layer">
			<path id="Layer" class="s0" d="m62.4 20.5l0.3-1.6h0.1l-0.3 1.6h-0.1z"/>
			<path id="Layer" class="s0" d="m62.5 20.5h-0.1 0.1-0.1q0 0 0 0 0 0 0 0l0.3-1.6q0 0 0 0h0.1q0 0 0.1 0 0 0 0 0l-0.3 1.6q0 0-0.1 0 0 0 0 0z"/>
		</g>
		<g id="Layer">
			<path id="Layer" fill-rule="evenodd" class="s0" d="m92.1 19.7c0.1-0.3 0.2-1.8 0.2-2.6 0-0.1 0-0.3-0.5-0.6-0.6-0.5-4.3-1.7-6.4-2.5-1.5-0.6-2.3-1.1-2.8-1.6l-0.3 2.3h-0.1l0.3-2.4q0 0 0 0-0.4-0.3-0.6-0.7-0.3-0.3-0.3-0.6c0-0.6 0.5-1.3 0.7-1.5 0.4-0.5 3.5-2.7 3.9-3 0.4-0.2 2.4-1.8 2.9-2.1 0.4-0.4 1.5-1.6 1.5-1.6v-0.1c0.4 0.1 0.8 0.8 0.8 1.5q0 0.4-0.1 0.6c-0.4 0.8-1 1.4-1.2 1.7-0.3 0.2-3.6 2.8-4.1 3.1-0.4 0.4-3.1 2.1-3.4 2.7 0.5 0.5 1.4 1 2.8 1.6 2.2 0.8 5.8 2 6.4 2.5 0.6 0.4 0.6 0.6 0.6 0.7q0 0 0 0c0 0.9-0.1 2.3-0.2 2.6zm-3-15.2c-0.4 0.3-2.5 1.9-2.9 2.1-0.4 0.3-3.5 2.5-3.8 2.9-0.3 0.3-0.7 0.9-0.7 1.5q0 0.3 0.2 0.6 0.3 0.3 0.6 0.6c0.4-0.7 3-2.3 3.4-2.6 0.5-0.4 3.8-2.9 4.1-3.2 0.2-0.2 0.8-0.9 1.2-1.6q0.1-0.2 0.1-0.5c0-0.4-0.1-0.7-0.3-1-0.1-0.2-0.3-0.4-0.4-0.4-0.1 0.1-1 1.2-1.5 1.6z"/>
			<path id="Layer" fill-rule="evenodd" class="s0" d="m92.2 19.8h-0.1q0-0.1-0.1-0.1 0 0 0 0c0.1-0.3 0.2-1.8 0.3-2.6 0 0 0-0.2-0.5-0.6-0.7-0.5-4.3-1.7-6.4-2.5-1.4-0.5-2.2-1-2.8-1.5l-0.3 2.2q0 0 0 0 0 0 0 0h-0.1q0 0-0.1 0 0 0 0 0l0.3-2.4q-0.3-0.3-0.6-0.6-0.2-0.4-0.2-0.7c0-0.7 0.4-1.3 0.7-1.6 0.4-0.4 3.5-2.7 3.9-2.9 0.4-0.3 2.4-1.8 2.9-2.2 0.4-0.3 1.4-1.5 1.4-1.6q0 0 0 0.1v-0.1h0.1c0.5 0 0.8 0.8 0.8 1.5q0 0.4-0.1 0.7c-0.4 0.7-0.9 1.3-1.2 1.6-0.3 0.3-3.6 2.8-4.1 3.2-0.4 0.3-3 1.9-3.3 2.6 0.5 0.5 1.3 1 2.8 1.6 2.1 0.8 5.7 1.9 6.4 2.5 0.5 0.3 0.6 0.5 0.6 0.7q0 0 0 0c-0.1 0.9-0.2 2.3-0.3 2.6q0 0.1 0 0.1 0 0 0 0 0 0 0 0zm-1.7-17.1q0 0 0 0 0 0 0 0zm-8 9.6q0 0 0 0 0.1 0 0.1 0 0 0 0 0-0.1 0-0.1 0 0 0 0 0 0 0 0 0 0 0 0 0 0 0 0 0 0 0 0 0zm-0.7-1.4q0 0.4 0.2 0.6 0.2 0.3 0.5 0.6c0.5-0.7 3-2.3 3.4-2.6 0.5-0.4 3.8-2.9 4.1-3.1 0.2-0.3 0.8-0.9 1.1-1.6q0.1-0.3 0.1-0.6c0-0.3 0-0.7-0.2-0.9-0.1-0.3-0.3-0.4-0.4-0.4-0.1 0.2-1 1.2-1.4 1.6-0.5 0.3-2.5 1.8-2.9 2.1-0.4 0.2-3.5 2.5-3.9 2.9-0.2 0.3-0.6 0.9-0.6 1.4h-0.1zm8.9-8.1q0 0 0 0 0 0 0 0 0 0 0 0zm-0.1-0.1zm0 0q0 0 0 0z"/>
		</g>
		<g id="Layer">
			<path id="Layer" class="s0" d="m87.4 20.8c0 0 1.7-0.2 2.5-0.3 0.8-0.1 1-0.1 2.1-0.6q0.1-0.1 0.1-0.1c0-0.3-1.5-1-3.1-1.7-1.7-0.7-3.5-1.3-4.3-1.6-1.7-0.7-2.5-1.8-2.7-2.1-0.2-0.3-0.3-3.3-0.3-3.3 0 0 0.1 0.8 0.1 1.6 0.1 0.7 0.2 1.6 0.3 1.7 0.2 0.2 0.9 1.3 2.6 2 0.8 0.3 2.7 1 4.3 1.6 1.7 0.7 3.2 1.4 3.2 1.8q0 0.1-0.2 0.2c-1 0.5-1.2 0.5-2.1 0.6-0.8 0.1-2.5 0.3-2.5 0.3z"/>
			<path id="Layer" fill-rule="evenodd" class="s0" d="m87.4 20.9q-0.1 0-0.1 0v-0.1q0-0.1 0.1-0.1c0 0 1.7-0.1 2.5-0.2 0.8-0.1 1-0.1 2.1-0.7 0 0 0 0 0 0q0 0 0 0c0.1-0.1-0.3-0.4-0.9-0.7-0.5-0.3-1.3-0.6-2.1-0.9-1.7-0.7-3.6-1.4-4.3-1.7-1.7-0.7-2.5-1.8-2.7-2-0.1-0.2-0.2-1-0.3-1.8-0.1-0.8-0.1-1.5-0.1-1.6q0 0 0 0 0 0 0 0 0 0 0 0h0.1q0.1 0 0.1 0c0 0 0 0.8 0.1 1.6 0 0.3 0.1 0.8 0.1 1.1 0 0.3 0.1 0.5 0.1 0.5 0.2 0.3 1 1.4 2.6 2 0.8 0.3 2.7 1 4.3 1.7 1.7 0.7 3.2 1.3 3.2 1.8q0 0 0 0 0 0.1-0.1 0.2c-1.1 0.5-1.3 0.6-2.2 0.7-0.8 0.1-2.5 0.2-2.5 0.2q0 0 0 0 0 0 0 0zm4.3-1.6q-0.2-0.1-0.5-0.2 0.3 0.1 0.5 0.2z"/>
		</g>
		<g id="Layer">
			<path id="Layer" class="s0" d="m91.3 26.1c0 0 0.5-2.5 0.5-2.7q0 0 0 0c0-0.2-0.6-0.9-1.1-1-0.4-0.3-3.3-1.5-3.9-1.7-0.3-0.1-1.2-0.4-2-0.6-0.8-0.3-1.5-0.5-1.5-0.7q0 0 0 0c0-0.3 0.5-0.3 0.9-0.4 0.5 0 1.1-0.1 1.3-0.1 0.3 0 2.3-0.3 3.4-0.4 0.4-0.1 0.7-0.1 0.7-0.1v0.1c0 0-0.2 0-0.7 0-1.1 0.2-3 0.5-3.4 0.5-0.3 0-1.4 0.1-1.9 0.2q-0.2 0.1-0.2 0.2c0 0 0.7 0.4 1.5 0.6 0.7 0.2 1.6 0.5 1.9 0.6 0.6 0.2 3.5 1.5 4 1.7 0.4 0.2 1.1 0.8 1.1 1.1q0 0 0 0c0 0.2-0.5 2.7-0.5 2.7z"/>
			<path id="Layer" fill-rule="evenodd" class="s0" d="m91.3 26.1q-0.1 0-0.1 0 0 0 0-0.1 0 0 0 0 0 0 0 0 0 0 0 0 0 0 0-0.1 0.1-0.1 0.1-0.2c0.1-0.3 0.1-0.6 0.2-0.9 0.1-0.6 0.3-1.3 0.3-1.4q0 0 0 0c0-0.1-0.7-0.8-1.1-1-0.4-0.2-3.3-1.5-3.9-1.7-0.3-0.1-1.2-0.3-2-0.6-0.8-0.2-1.5-0.4-1.6-0.7q0 0 0 0c0.1-0.3 0.6-0.3 1-0.4 0.5-0.1 1.1-0.1 1.3-0.1 0.3-0.1 2.3-0.3 3.4-0.5 0.4 0 0.7-0.1 0.7-0.1q0.1 0 0.1 0.1v0.1q0 0-0.1 0c0 0-0.2 0-0.7 0.1-1.1 0.2-3 0.4-3.4 0.5-0.3 0-1.4 0-1.9 0.2q-0.1 0-0.2 0.1 0 0 0 0 0.1 0 0.1 0 0.1 0.1 0.3 0.2c0.3 0.1 0.7 0.2 1.1 0.4 0.8 0.2 1.6 0.5 1.9 0.6 0.6 0.2 3.5 1.4 4 1.6 0.5 0.3 1.1 0.9 1.2 1.2q0 0 0 0.1c-0.1 0.1-0.6 2.6-0.6 2.6q0 0 0 0 0 0 0 0 0 0-0.1 0zm-7.5-6.4q-0.2-0.1-0.3-0.2 0.1 0.1 0.3 0.2zm-0.3-0.5q0 0 0.1 0-0.1 0-0.1 0zm0 0.3q0 0-0.1 0 0.1 0 0.1 0z"/>
		</g>
		<g id="Layer">
			<path id="Layer" class="s0" d="m89.9 26.2v-0.1h1.1c0.3 0 0.3-0.1 0.3-0.1 0.1-0.3-0.9-1.1-1.2-1.2-0.4-0.1-3.9-1.4-4.5-1.6-0.7-0.2-2.4-0.9-2.6-1.1-0.1 0-0.1-0.1-0.1-0.2 0-0.7 0.4-2.5 0.4-2.5h0.1c0 0-0.4 1.8-0.4 2.5 0 0.1 0 0.2 0 0.2 0.2 0.1 2 0.8 2.6 1 0.6 0.2 4.1 1.5 4.5 1.7 0.3 0.1 1.3 0.8 1.3 1.2q0 0.2-0.4 0.2h-1.1z"/>
			<path id="Layer" class="s0" d="m91 26.3h-1.1v-0.1 0.1q0 0 0-0.1-0.1 0-0.1 0v-0.1q0 0 0.1 0 0 0 0 0h1.1c0.3 0 0.3-0.1 0.3-0.1q0 0 0 0c0-0.3-1-1-1.2-1.1-0.4-0.2-4-1.5-4.6-1.7-0.6-0.2-2.3-0.8-2.5-1-0.1-0.1-0.1-0.2-0.1-0.3 0-0.7 0.3-2.4 0.3-2.5q0-0.1 0.1-0.1 0 0 0 0h0.1q0 0 0 0.1c0 0-0.3 1.8-0.3 2.5h-0.1 0.1q0 0 0 0 0 0.1 0 0.1c0.2 0.2 1.9 0.8 2.5 1 0.6 0.2 4.1 1.6 4.5 1.7 0.4 0.2 1.3 0.8 1.4 1.3 0 0.2-0.2 0.3-0.5 0.3q0 0 0 0z"/>
		</g>
		<g id="Layer">
			<path id="Layer" class="s0" d="m84.2 24.9l0.9-1.8h0.1l-0.9 1.8c1 0.3 2 1 2.1 1.2h-0.1c0-0.1-1.1-0.9-2.1-1.2z"/>
			<path id="Layer" fill-rule="evenodd" class="s0" d="m86.3 26.2q-0.1 0-0.1-0.1 0 0 0 0 0 0 0 0 0-0.1-0.1-0.1-0.2-0.2-0.5-0.4c-0.4-0.2-0.9-0.5-1.4-0.6v-0.1 0.1q-0.1 0-0.1-0.1 0 0 0 0l1-1.9q0 0 0 0h0.1q0 0.1 0 0.1 0.1 0 0 0l-0.8 1.7c1 0.4 1.9 1.1 2 1.3q0 0 0 0 0 0 0 0l-0.1 0.1q0 0 0 0 0 0 0 0zm-2-1.3q0 0 0 0 0 0 0 0h-0.1q0.1 0 0.1 0z"/>
		</g>
		<g id="Layer">
			<path id="Layer" class="s0" d="m87.6 23.9v-0.1c0 0 2 2.2 2.4 2.5v0.1c-0.5-0.4-2.4-2.5-2.4-2.5z"/>
			<path id="Layer" fill-rule="evenodd" class="s0" d="m89.9 26.4c-0.4-0.3-2.4-2.5-2.4-2.5h0.1-0.1q0 0 0-0.1h0.1q0-0.1 0.1 0c0 0 1.9 2.1 2.4 2.5q0 0 0 0 0 0 0 0.1h-0.1q0 0 0 0 0 0 0 0-0.1 0-0.1 0zm-2.3-2.6q0 0 0 0z"/>
		</g>
		<g id="Layer">
			<path id="Layer" class="s0" d="m89.8 3.8h0.1l0.8 1.8-0.9-1.8z"/>
			<path id="Layer" class="s0" d="m90.6 5.6q0 0 0 0l-0.8-1.8v0.1-0.1q-0.1 0 0 0l0.1-0.1q0 0 0 0 0 0 0 0.1l0.9 1.7q0 0.1 0 0.1 0 0 0 0h-0.1q0 0 0 0 0 0-0.1 0z"/>
		</g>
		<g id="Layer">
			<path id="Layer" class="s0" d="m87.9 5.3h0.1l1.1 1.8-0.1 0.1-1.1-1.9z"/>
			<path id="Layer" class="s0" d="m89 7.2q0 0 0 0l-1.1-1.8q0-0.1 0-0.1h0.1q0 0 0 0 0 0 0 0l1.2 1.8q0 0 0 0 0 0.1-0.1 0.1 0 0-0.1 0 0 0 0 0z"/>
		</g>
		<g id="Layer">
			<path id="Layer" class="s0" d="m85.6 7l0.1-0.1 1.3 1.8-0.1 0.1-1.3-1.8z"/>
			<path id="Layer" class="s0" d="m86.9 8.8q0 0 0 0l-1.3-1.8h0.1-0.1q0 0 0-0.1h0.1q0 0 0 0l1.3 1.8q0 0 0 0.1 0 0 0 0h-0.1q0 0 0 0 0 0 0 0z"/>
		</g>
		<g id="Layer">
			<path id="Layer" class="s0" d="m83.6 8.6l0.1-0.1 1.1 1.8-0.1 0.1-1.1-1.8z"/>
			<path id="Layer" class="s0" d="m84.7 10.4q0 0 0 0l-1.1-1.8q-0.1 0 0 0v-0.1q0.1 0 0.1 0 0 0 0 0l1.1 1.8q0.1 0 0 0.1h-0.1q0 0 0 0 0 0 0 0z"/>
		</g>
		<g id="Layer">
			<path id="Layer" class="s0" d="m83.9 16l0.8-2.4v0.1l-0.7 2.3h-0.1z"/>
			<path id="Layer" class="s0" d="m84 16.1h-0.1v-0.1 0.1q-0.1-0.1-0.1-0.1l0.8-2.4q0 0 0 0 0.1 0 0.1 0h0.1q0 0 0 0.1l-0.8 2.4q0 0 0 0 0 0 0 0 0 0 0 0z"/>
		</g>
		<g id="Layer">
			<path id="Layer" class="s0" d="m86.6 17.2l1-2.5v0.1l-0.9 2.4h-0.1z"/>
			<path id="Layer" class="s0" d="m86.7 17.2h-0.1q0 0-0.1 0 0 0 0 0l1-2.5q0 0 0.1 0h0.1q0 0.1 0 0.1l-1 2.4q0 0.1 0 0.1 0 0 0-0.1z"/>
		</g>
		<g id="Layer">
			<path id="Layer" class="s0" d="m89.4 18.2l0.7-2.5h0.1l-0.7 2.5h-0.1z"/>
			<path id="Layer" class="s0" d="m89.5 18.3l-0.1-0.1h0.1-0.1q0 0 0 0 0 0 0 0l0.7-2.5q0 0 0.1 0h0.1q0 0 0 0 0 0 0 0l-0.7 2.5q0 0.1-0.1 0.1 0 0 0 0z"/>
		</g>
		<g id="Layer">
			<path id="Layer" class="s0" d="m85.4 23l0.8-2.5 0.1 0.1-0.8 2.4h-0.1z"/>
			<path id="Layer" class="s0" d="m85.4 23.1v-0.1q-0.1 0-0.1 0l0.9-2.5q0 0 0 0 0 0 0.1 0 0.1 0 0.1 0.1l-0.9 2.5q0 0 0 0 0 0 0 0-0.1 0-0.1 0z"/>
		</g>
		<g id="Layer">
			<path id="Layer" class="s0" d="m88.2 24l0.8-2.4 0.1 0.1-0.8 2.3h-0.1z"/>
			<path id="Layer" class="s0" d="m88.3 24.1h-0.1v-0.1h0.1-0.1v0.1q0 0 0-0.1 0 0 0 0l0.8-2.4q0 0 0 0h0.1q0.1 0 0.1 0 0 0.1 0 0.1l-0.9 2.4q0 0 0 0 0 0 0 0 0 0 0 0z"/>
		</g>
		<g id="Layer">
			<path id="Layer" class="s0" d="m83.3 22.3l0.5-2.5h0.1l-0.5 2.5h-0.1z"/>
			<path id="Layer" class="s0" d="m83.4 22.3h-0.1 0.1-0.1q0 0 0 0 0 0 0-0.1l0.5-2.4q0-0.1 0-0.1 0 0 0.1 0 0.1 0.1 0.1 0.1l-0.5 2.5q0 0-0.1 0 0 0 0 0 0 0 0 0z"/>
		</g>
		<g id="Layer">
			<path id="Layer" class="s0" d="m90.6 25.1l0.7-2.4h0.1l-0.7 2.5-0.1-0.1z"/>
			<path id="Layer" class="s0" d="m90.7 25.2h-0.1v-0.1l0.1 0.1-0.1-0.1v0.1q0 0 0-0.1l0.6-2.5q0 0 0.1 0h0.1q0 0 0 0.1 0 0 0 0l-0.7 2.5q0 0 0 0 0 0 0 0 0 0 0 0z"/>
		</g>
		<g id="Layer">
			<path id="Layer" class="s0" d="m84.2 24.9l1.6-1.7 0.1 0.1-1.6 1.6h-0.1z"/>
			<path id="Layer" class="s0" d="m84.2 25v-0.1q0 0 0-0.1l1.6-1.6q0 0 0 0l0.1 0.1q0 0 0 0 0 0 0 0l-1.6 1.7q0 0 0 0 0 0 0 0 0 0-0.1 0z"/>
		</g>
		<g id="Layer">
			<path id="Layer" class="s0" d="m85.9 25.7l2.2-1.2-2.1 1.3-0.1-0.1z"/>
			<path id="Layer" class="s0" d="m86 25.8l-0.1-0.1 0.1 0.1-0.1-0.1q0 0 0 0 0 0 0 0l2.2-1.3q0 0 0 0l0.1 0.1q0 0 0 0 0 0.1 0 0.1l-2.2 1.2q0 0 0 0 0 0 0 0z"/>
		</g>
		<g id="Layer">
			<path id="Layer" class="s0" d="m88.9 18.5h0.1l0.3 2.1h-0.1l-0.3-2.1z"/>
			<path id="Layer" class="s0" d="m89.2 20.7q-0.1 0-0.1-0.1l-0.3-2.1h0.1v0.1-0.1h-0.1q0 0 0.1 0h0.1q0-0.1 0 0l0.3 2.1q0 0 0 0.1 0 0 0 0h-0.1q0 0 0 0 0 0 0 0z"/>
		</g>
		<g id="Layer">
			<path id="Layer" class="s0" d="m86.1 18.9h0.1l0.3 1.6h-0.1l-0.3-1.6z"/>
			<path id="Layer" class="s0" d="m86.4 20.5q0 0 0 0l-0.3-1.6v0.1-0.1q0 0 0 0h0.1q0.1 0 0.1 0l0.3 1.6q0 0 0 0-0.1 0-0.1 0h-0.1q0 0 0 0 0 0 0 0z"/>
		</g>
		<g id="Layer">
			<path id="Layer" fill-rule="evenodd" class="s0" d="m72.8 27.6c-0.1-0.6-0.1-2-0.1-2.6q0-0.2 0-0.3 0 0 0 0c0-0.3 0-0.5 0-0.7 0-0.2 0-0.4 0.2-0.4q0 0 0 0c0.1 0.5 0.5 0.6 1.7 0.6q0 0 0 0c1.1 0 1.5-0.4 1.6-0.7h0.1c0 0 0.1 0.1 0.2 0.2v0.1c0 0 0 1.5 0 2.7q0 0.5 0 0.9 0 0 0 0 0 0.2 0 0.3c-0.1 0.2-0.8 0.6-1.9 0.6q0 0 0 0c-1.2 0-1.6-0.4-1.8-0.7zm1.8 0.6c1.1 0 1.7-0.4 1.8-0.6 0-0.2 0-0.6 0-1.1 0-1.1 0-2.6 0-2.7q-0.1-0.1-0.1-0.2c-0.2 0.4-0.6 0.7-1.7 0.7q0 0 0 0c-1.2 0-1.6-0.1-1.7-0.6q-0.1 0-0.1 0.3c0 0.2 0 0.4 0 0.7q0 0 0 0 0 0.1 0 0.3c0 0.5 0 1.7 0 2.3l0.1 0.3c0.1 0.3 0.5 0.6 1.7 0.6z"/>
			<path id="Layer" fill-rule="evenodd" class="s0" d="m72.7 27.6c0-0.6 0-2 0-2.6q0-0.2 0-0.3 0 0 0 0c0-0.3-0.1-0.5-0.1-0.7 0-0.2 0-0.4 0.3-0.5q0 0 0 0v0.1q0.1 0 0.1 0c0 0.3 0.1 0.4 0.3 0.5 0.3 0 0.7 0 1.3 0.1q0 0 0 0c1.1 0 1.5-0.4 1.6-0.7q0-0.1 0.1-0.1 0 0 0 0.1h0.1q0 0 0 0 0 0 0 0 0 0 0 0 0 0 0 0.1 0.1 0 0.1 0.1v0.1c0 0 0 1.5 0 2.7q0 0.5 0 0.8 0.1 0 0.1 0.1 0 0.2-0.1 0.3c-0.1 0.3-0.8 0.6-1.9 0.6q0 0 0 0 0 0 0 0c-1.2 0-1.7-0.3-1.9-0.7zm3.7-4.1q0 0 0 0 0 0 0 0zm-1.8 4.7q0 0 0 0zm0 0q0 0 0 0c1.1 0 1.7-0.4 1.8-0.6 0-0.2 0-0.6 0-1.1 0-1.1-0.1-2.5-0.1-2.7q0 0 0-0.1c-0.2 0.3-0.7 0.6-1.6 0.6h-0.1q0 0 0 0c-1.1 0-1.6 0-1.8-0.5q0 0.1 0 0.2c0 0.2 0.1 0.4 0.1 0.7q0 0-0.1 0 0 0.1 0 0.3c0 0.5 0.1 1.7 0.1 2.3q0 0 0 0v0.3c0.2 0.2 0.6 0.6 1.7 0.6zm1.8-0.6q0.1 0 0.1-0.2 0 0-0.1 0 0 0.1 0 0.2zm-3.6-3.9q0 0 0 0 0 0 0 0zm0.1-0.1q0 0.1 0 0.1 0 0 0-0.1 0 0 0 0 0 0 0 0zm3.4 0q0 0 0 0 0 0 0 0 0 0 0 0 0 0 0 0zm-3.5 4zm0 0q0 0 0 0 0 0 0 0zm3.6-3.9q0 0 0 0 0 0 0 0zm-0.1-0.1q0 0 0 0 0 0 0 0zm0.1-0.1z"/>
		</g>
		<path id="Layer" class="s0" d="m81 8.5c0.6-0.6 2.8-1.8 3.8-2.2"/>
		<path id="Layer" class="s0" d="m68.2 8.5c-0.6-0.6-2.5-1.7-3.5-2.1"/>
		<path id="Layer" class="s0" d="m82.9 7.3c0.2 0 1.6-0.6 1.9-1"/>
		<path id="Layer" class="s0" d="m66.3 7.3c-0.3 0-1.7-0.6-2-1"/>
	</g>
	<g id="Layer">
		<path id="Layer" class="s1" d="m6.9 53.4v-10.1h-4.8v-1.3h11.1v1.3h-4.8v10.1z"/>
		<path id="Layer" class="s1" d="m15.1 53.4v-11.4h1.5v4.5h6.7v-4.5h1.4v11.4h-1.4v-5.6h-6.7v5.6z"/>
		<path id="Layer" class="s1" d="m28.7 42h1.4v11.4h-1.4z"/>
		<path id="Layer" class="s1" d="m34 53.4v-11.4h0.7l7.4 8.5v-8.5h1.5v11.4h-0.7l-7.5-8.5v8.5z"/>
		<path id="Layer" fill-rule="evenodd" class="s1" d="m56.3 53.4v-11.4h6.5q1.7 0 2.6 0.9 1 0.8 1 2.3 0 1.2-0.8 2.1-0.7 0.9-1.9 1.1l2.8 5h-1.5l-2.9-5h-4.4v5c0 0-1.4 0-1.4 0zm1.4-6.3h5q1.1 0 1.6-0.5 0.6-0.5 0.6-1.4 0-0.9-0.6-1.4-0.5-0.5-1.5-0.5h-5.1z"/>
		<path id="Layer" class="s1" d="m69.6 53.4v-11.4h8.9v1.3h-7.5v3.4h4.5v1.3h-4.5v4.1h8v1.3z"/>
		<path id="Layer" fill-rule="evenodd" class="s1" d="m86.5 42q2.7 0 4.4 1.6 1.6 1.6 1.6 4.1 0 2.6-1.6 4.2-1.6 1.5-4.4 1.5h-4.9v-11.4zm0 1.3h-3.4v8.8h3.4q2.2 0 3.4-1.2 1.2-1.2 1.2-3.2 0-2-1.3-3.2-1.2-1.2-3.3-1.2z"/>
		<path id="Layer" class="s1" d="m104.4 53.4v-11.4h1.4v10.1h7.4v1.3z"/>
		<path id="Layer" class="s1" d="m115.7 42h1.4v11.4h-1.4z"/>
		<path id="Layer" class="s1" d="m121 53.4v-11.4h0.8l7.4 8.5v-8.5h1.4v11.4h-0.7l-7.4-8.5v8.5z"/>
		<path id="Layer" class="s1" d="m134.5 53.4v-11.4h9v1.3h-7.6v3.4h4.6v1.3h-4.6v4.1h8.1v1.3z"/>
	</g>
	<g id="Layer">
		<path id="Layer" class="s1" d="m55.6 62.7h1.9v0.5h-1.9v1.2h2.1v0.6h-2.7v-4.2h2.7v0.6h-2.1z"/>
		<path id="Layer" class="s1" d="m58.6 64q0.6 0.5 1.4 0.5 0.9 0 0.9-0.6 0-0.2-0.1-0.4-0.2-0.1-0.4-0.2-0.2 0-0.5-0.1-0.3-0.1-0.6-0.2-0.3 0-0.5-0.2-0.2-0.1-0.4-0.3-0.1-0.2-0.1-0.6 0-0.4 0.2-0.6 0.3-0.3 0.6-0.4 0.3-0.1 0.7-0.1 0.9 0 1.5 0.4l-0.3 0.5q-0.5-0.4-1.2-0.4-0.4 0-0.7 0.2-0.2 0.1-0.2 0.4 0 0.2 0.1 0.4 0.2 0.1 0.4 0.2 0.2 0 0.5 0.1 0.3 0 0.6 0.1 0.3 0.1 0.5 0.2 0.2 0.2 0.4 0.4 0.1 0.2 0.1 0.6 0 0.5-0.4 0.8-0.4 0.3-1.1 0.3-0.5 0-1-0.1-0.4-0.2-0.7-0.4l0.3-0.5z"/>
		<path id="Layer" class="s1" d="m63.8 61.4v3.6h-0.6v-3.6h-1.2v-0.6h3.1v0.6z"/>
		<path id="Layer" class="s1" d="m65.7 65q-0.1 0-0.3-0.1-0.1-0.1-0.1-0.3 0-0.1 0.1-0.2 0.2-0.2 0.3-0.1 0.2-0.1 0.3 0.1 0.1 0.1 0.1 0.2 0 0.2-0.1 0.3-0.1 0.1-0.3 0.1z"/>
		<path id="Layer" class="s1" d="m71.5 65h-2.7v-4.2h0.6v3.6h2.1z"/>
		<path id="Layer" fill-rule="evenodd" class="s1" d="m72.5 64.4q-0.6-0.6-0.6-1.5 0-0.9 0.6-1.5 0.6-0.6 1.6-0.6 0.9 0 1.5 0.6 0.6 0.6 0.6 1.5 0 0.9-0.6 1.5-0.6 0.6-1.5 0.6-1 0-1.6-0.6zm1.6-3.1q-0.7 0-1.1 0.5-0.5 0.4-0.5 1.1 0 0.7 0.5 1.1 0.4 0.5 1.1 0.5 0.7 0 1.1-0.5 0.4-0.4 0.4-1.1 0-0.7-0.4-1.1-0.5-0.5-1.1-0.5z"/>
		<path id="Layer" class="s1" d="m80.5 60.8v4.2h-0.5l-2.2-3.1v3.1h-0.6v-4.2h0.5l2.2 3.1v-3.1z"/>
		<path id="Layer" fill-rule="evenodd" class="s1" d="m81.7 60.8h1.3q1 0 1.6 0.6 0.7 0.5 0.7 1.5 0 0.9-0.7 1.5-0.6 0.6-1.6 0.6h-1.3zm1.3 3.6q0.8 0 1.2-0.4 0.4-0.4 0.4-1.2 0-0.7-0.4-1.1-0.4-0.4-1.2-0.4h-0.7v3.1c0 0 0.7 0 0.7 0z"/>
		<path id="Layer" fill-rule="evenodd" class="s1" d="m86.5 64.4q-0.6-0.6-0.6-1.5 0-0.9 0.6-1.5 0.6-0.6 1.6-0.6 0.9 0 1.5 0.6 0.6 0.6 0.6 1.5 0 0.9-0.6 1.5-0.6 0.6-1.5 0.6-1 0-1.6-0.6zm1.6-3.1q-0.7 0-1.1 0.5-0.5 0.4-0.5 1.1 0 0.7 0.5 1.1 0.4 0.5 1.1 0.5 0.7 0 1.1-0.5 0.4-0.4 0.4-1.1 0-0.7-0.4-1.1-0.5-0.5-1.1-0.5z"/>
		<path id="Layer" class="s1" d="m94.5 60.8v4.2h-0.5l-2.2-3.1v3.1h-0.6v-4.2h0.5l2.2 3.1v-3.1z"/>
	</g>
</svg>