<svg id="Group_9" data-name="Group 9" xmlns="http://www.w3.org/2000/svg" xmlns:xlink="http://www.w3.org/1999/xlink" width="155" height="65.745" viewBox="0 0 155 65.745">
  <defs>
    <clipPath id="clip-path">
      <rect id="Rectangle_29" data-name="Rectangle 29" width="155" height="65.745" fill="none"/>
    </clipPath>
  </defs>
  <path id="Path_353" data-name="Path 353" d="M136.67,50.058l.6-2.784.095.02-.6,2.785Z" transform="translate(-67.7 -23.418)" fill="#b6001c"/>
  <g id="Group_8" data-name="Group 8">
    <g id="Group_7" data-name="Group 7" clip-path="url(#clip-path)">
      <path id="Path_354" data-name="Path 354" d="M136.7,50.079l-.094-.021.011-.049.048.011-.048-.011-.011.049a.051.051,0,0,1-.038-.059l.6-2.785a.05.05,0,0,1,.021-.032.053.053,0,0,1,.038-.007l.095.021a.05.05,0,0,1,.038.059l-.6,2.784a.052.052,0,0,1-.022.032.054.054,0,0,1-.026.008H136.7" transform="translate(-67.651 -23.368)" fill="#b6001c"/>
      <path id="Path_355" data-name="Path 355" d="M156.745,34.865a3.464,3.464,0,0,0,.568-.386.129.129,0,0,0,.009-.044c0-.07-.068-.283-.845-.418a1.736,1.736,0,0,0-.3-.025,1.833,1.833,0,0,0-.218.014l-.011-.1a1.933,1.933,0,0,1,.229-.014,1.829,1.829,0,0,1,.316.027c.782.133.922.363.924.513a.176.176,0,0,1-.029.1,3.292,3.292,0,0,1-.6.412Zm-.787-.859h0Z" transform="translate(-77.25 -16.791)" fill="#b6001c"/>
      <path id="Path_356" data-name="Path 356" d="M156.7,34.924l-.047-.085.043-.024.024.044-.024-.044-.043.024a.046.046,0,0,1,0-.037.045.045,0,0,1,.024-.03,3.432,3.432,0,0,0,.548-.37s0,0,0-.015v0c.005-.03-.043-.232-.8-.364a1.684,1.684,0,0,0-.291-.025,1.76,1.76,0,0,0-.212.014H155.9a.05.05,0,0,1-.028-.014.051.051,0,0,1-.015-.035v0l-.01-.089a.049.049,0,0,1,.043-.055,2.014,2.014,0,0,1,.235-.014,1.872,1.872,0,0,1,.324.027c.786.132.961.371.966.562a.22.22,0,0,1-.042.136,3.221,3.221,0,0,1-.609.422.057.057,0,0,1-.025.006.049.049,0,0,1-.043-.026" transform="translate(-77.201 -16.742)" fill="#b6001c"/>
      <path id="Path_357" data-name="Path 357" d="M138.3,32.492l.047-.012.047-.011c.058.292.8.732,1.246.725a.686.686,0,0,0,.1-.008c.406-.06,1-.918,1.09-1.3a1.256,1.256,0,0,0-.943-.279,2.446,2.446,0,0,0-.385.03c-.534.08-1.129.443-1.117.764a.285.285,0,0,0,.009.07l-.047.011-.047.012a.371.371,0,0,1-.011-.093c.012-.426.642-.765,1.2-.859a2.578,2.578,0,0,1,.4-.031c.471,0,.915.112,1.037.349l.007.015,0,.016c-.1.418-.674,1.295-1.172,1.392a.778.778,0,0,1-.116.009,1.655,1.655,0,0,1-1.34-.8" transform="translate(-68.502 -15.608)" fill="#b6001c"/>
      <path id="Path_358" data-name="Path 358" d="M138.205,32.46l0-.006a.468.468,0,0,1-.012-.106c.024-.476.675-.807,1.239-.906a2.555,2.555,0,0,1,.408-.032c.477.008.933.1,1.082.378l.007.015,0,.03,0,.018c-.108.439-.673,1.316-1.213,1.43a.776.776,0,0,1-.125.01,1.7,1.7,0,0,1-1.385-.83m1.386.635a.756.756,0,0,0,.093-.007c.354-.039.954-.874,1.044-1.245a1.322,1.322,0,0,0-.869-.238h-.021a2.367,2.367,0,0,0-.378.03c-.516.07-1.09.443-1.074.7v.01a.251.251,0,0,0,.008.059v.007a1.6,1.6,0,0,0,1.185.678h.011m1.237-1.259,0-.007,0-.007Z" transform="translate(-68.454 -15.559)" fill="#b6001c"/>
      <path id="Path_359" data-name="Path 359" d="M139.705,46.458a.334.334,0,0,1-.11-.019.28.28,0,0,1-.193-.248.164.164,0,0,1,.013-.067.237.237,0,0,1,.231-.144.309.309,0,0,1,.111.019.276.276,0,0,1,.191.245.2.2,0,0,1-.012.067l-.046-.015.046.017a.238.238,0,0,1-.228.144Zm-.2-.3a.1.1,0,0,0-.005.032.182.182,0,0,0,.129.156.23.23,0,0,0,.078.015.142.142,0,0,0,.139-.083.1.1,0,0,0,.006-.035.179.179,0,0,0-.129-.155.208.208,0,0,0-.076-.015.148.148,0,0,0-.142.084" transform="translate(-69.054 -22.777)" fill="#b6001c"/>
      <path id="Path_360" data-name="Path 360" d="M139.655,46.459v0a.379.379,0,0,1-.128-.023.326.326,0,0,1-.226-.294.217.217,0,0,1,.016-.085.287.287,0,0,1,.276-.176h.008a.368.368,0,0,1,.123.022.326.326,0,0,1,.224.293.258.258,0,0,1-.012.078l0,.009a.289.289,0,0,1-.276.176Zm-.061-.207a.187.187,0,0,0,.06.012.1.1,0,0,0,.093-.047.073.073,0,0,0,0-.021v0a.134.134,0,0,0-.1-.106.172.172,0,0,0-.058-.011.1.1,0,0,0-.1.05l-.047-.017.045.02v.017a.142.142,0,0,0,.1.1" transform="translate(-69.004 -22.727)" fill="#b6001c"/>
      <path id="Path_361" data-name="Path 361" d="M141.5,45.809s.339-1.075.5-1.6c-.031-.071-.158-.358-.269-.555l.083-.048c.131.233.281.58.281.581l.008.017-.006.017c-.161.521-.507,1.619-.507,1.62Zm.232-2.156h0Z" transform="translate(-70.095 -21.6)" fill="#b6001c"/>
      <path id="Path_362" data-name="Path 362" d="M141.53,45.838l-.092-.03.016-.048h0l-.016.048a.051.051,0,0,1-.035-.048c.006-.033.334-1.058.5-1.6-.039-.09-.156-.351-.258-.531a.048.048,0,0,1-.008-.027h0a.049.049,0,0,1,.032-.046l.077-.044a.05.05,0,0,1,.038-.005.052.052,0,0,1,.03.024c.129.228.273.562.282.582l0,0,.007.017v.036l-.005.016c-.151.49-.464,1.485-.5,1.608h0a.047.047,0,0,1-.021.038.049.049,0,0,1-.044.007M142,44.164a.024.024,0,0,1,0-.009l0-.008Z" transform="translate(-70.045 -21.551)" fill="#b6001c"/>
      <path id="Path_363" data-name="Path 363" d="M130.223,47.185l-.175-.065,1.092-5.663-5.382,4.682-.03-.02-.21-.144,6.23-7.254.845-3.727-.138-.051.01-.041a3.705,3.705,0,0,0,.084-.74,1.489,1.489,0,0,0-.079-.524,11.031,11.031,0,0,0-.808-1.735.813.813,0,0,1-.161-.5,1.488,1.488,0,0,1,1.285-1.309,3.21,3.21,0,0,1,.648-.066,2.22,2.22,0,0,1,1.5.5c.341.028.426.32.42.564a2.359,2.359,0,0,1-.04.385s-.577,1.294-.691,1.61-.39,1.816-.558,2.112a1.491,1.491,0,0,1-.35.167c-.006.077-.023.291-.023.539a1.752,1.752,0,0,0,.177.943A5.8,5.8,0,0,0,136,35.419a.216.216,0,0,1-.018-.092c.01-.337.538-.821.748-1.027.081-.077.39-.372.762-.738l.034-.033.034.035a1.176,1.176,0,0,0,.543.338,9.649,9.649,0,0,1,1.876.56l.095.043-.095.043c-.085.04-.168.081-.244.124a13.134,13.134,0,0,0-2.332,1.462l-.013.019-.023,0a.834.834,0,0,1-.086,0,1.224,1.224,0,0,1-.352-.057l-3.252,3.018L130.266,47.2Zm-.065-.127.055.02,3.385-8.013,3.307-3.073.027.01s.042.014.106.03a1.117,1.117,0,0,0,.241.03l.056,0a13.582,13.582,0,0,1,2.351-1.473c.05-.029.1-.056.157-.082A10.023,10.023,0,0,0,138.079,34a1.245,1.245,0,0,1-.555-.331c-.356.35-.65.629-.728.7-.211.193-.729.712-.719.957a.126.126,0,0,0,.019.073l.018.029-.022.026a5.773,5.773,0,0,1-2.218,1.5l-.026.009-.02-.018c-.2-.181-.228-.644-.231-1.034,0-.316.026-.578.026-.579l0-.033.031-.008a1.706,1.706,0,0,0,.339-.148c.136-.239.42-1.755.536-2.082s.694-1.616.69-1.6a2.322,2.322,0,0,0,.036-.358c-.005-.241-.061-.45-.348-.469l-.019,0-.013-.013a2.112,2.112,0,0,0-1.444-.484,3.138,3.138,0,0,0-.629.065,1.4,1.4,0,0,0-1.208,1.214.718.718,0,0,0,.143.437,11.055,11.055,0,0,1,.821,1.759,1.572,1.572,0,0,1,.085.559,3.735,3.735,0,0,1-.078.72l.137.049-.868,3.835-6.175,7.192.09.061,5.534-4.815Zm7.331-13.428.034-.034Z" transform="translate(-62.176 -14.877)" fill="#b6001c"/>
      <path id="Path_364" data-name="Path 364" d="M130.2,47.2l-.043-.016.017-.047v0l-.017.047-.175-.066a.051.051,0,0,1-.032-.057l1.063-5.52-5.271,4.588a.047.047,0,0,1-.061,0l-.03-.02-.21-.143a.051.051,0,0,1-.022-.035.048.048,0,0,1,.012-.039l6.222-7.246.832-3.672-.1-.035a.05.05,0,0,1-.031-.059l.01-.042a3.768,3.768,0,0,0,.083-.728,1.453,1.453,0,0,0-.075-.507,11.207,11.207,0,0,0-.8-1.724.861.861,0,0,1-.172-.521s0,0,0,0A1.535,1.535,0,0,1,132.727,30a3.136,3.136,0,0,1,.659-.068,2.284,2.284,0,0,1,1.521.5.527.527,0,0,1,.449.59v.022a2.46,2.46,0,0,1-.043.4c0,.007-.579,1.3-.691,1.609s-.385,1.8-.561,2.119l-.014.016a1.469,1.469,0,0,1-.332.163c-.007.095-.02.286-.02.5V35.9a1.9,1.9,0,0,0,.144.847,5.828,5.828,0,0,0,2.054-1.385.289.289,0,0,1-.011-.077v-.006c.019-.378.555-.852.764-1.061.081-.078.39-.372.76-.737l.034-.033a.05.05,0,0,1,.071,0l.033.035a1.139,1.139,0,0,0,.52.324,9.557,9.557,0,0,1,1.885.563l.095.042a.049.049,0,0,1,.029.045.048.048,0,0,1-.029.045l-.094.044c-.084.039-.167.08-.24.122a13.439,13.439,0,0,0-2.316,1.447l-.013.019-.037.022-.023,0c-.03,0-.061,0-.09,0a1.253,1.253,0,0,1-.339-.051L133.666,39.1l-3.4,8.072a.051.051,0,0,1-.046.03.041.041,0,0,1-.017,0m-.01-.11.012-.027a.052.052,0,0,1-.038.017Zm-.134-.05.02.008a.05.05,0,0,1-.015-.028Zm1.205-5.928a.051.051,0,0,1,.024.052l-1.091,5.665L133.5,39l.012-.017,3.306-3.073a.05.05,0,0,1,.051-.01l.027.01c.025.006.044.015.1.029a1.044,1.044,0,0,0,.23.029h.031a14.063,14.063,0,0,1,2.351-1.468l.063-.034a10.717,10.717,0,0,0-1.658-.467,1.241,1.241,0,0,1-.542-.309c-.341.334-.618.6-.7.672-.207.182-.713.714-.7.913h0l0,.007a.072.072,0,0,0,.012.045l.018.029a.048.048,0,0,1,0,.058l-.022.027a5.824,5.824,0,0,1-2.242,1.513l-.026.009a.051.051,0,0,1-.048-.012l-.02-.017a1.614,1.614,0,0,1-.247-1.071c0-.316.026-.579.026-.584l0-.032a.049.049,0,0,1,.036-.043l.031-.008.007,0,.027-.009.087-.032a1.153,1.153,0,0,0,.194-.092c.129-.251.41-1.734.527-2.064.089-.246.431-1.023.6-1.4.049-.108.074-.169.09-.2a2.388,2.388,0,0,0,.034-.342c-.011-.24-.047-.4-.3-.421l-.018,0-.031-.014L134.8,30.6a2.063,2.063,0,0,0-1.408-.471h0a3.071,3.071,0,0,0-.619.064,1.348,1.348,0,0,0-1.169,1.162h-.034l.034,0a.667.667,0,0,0,.133.407,11.105,11.105,0,0,1,.827,1.771,1.625,1.625,0,0,1,.088.577,3.83,3.83,0,0,1-.07.688l.1.035a.048.048,0,0,1,.031.057l-.868,3.835-.011.021L125.685,45.9l.013.008,5.5-4.79a.048.048,0,0,1,.033-.013.052.052,0,0,1,.025.007M125.7,46.029l.012-.011a.057.057,0,0,1-.028,0Zm-.162-.112.027.019a.044.044,0,0,1-.008-.021.04.04,0,0,1,0-.023Zm5.571-4.551a.045.045,0,0,1,.024.033l.022-.113-.086.076a.043.043,0,0,1,.017,0,.041.041,0,0,1,.024.007m2.7-4.512.009,0a.039.039,0,0,1-.016,0l.007.006m3.486-.8h.014l.008-.01Zm-.437-.051.016,0h0l-.007,0ZM136,35.385a.062.062,0,0,1,.007-.009l0-.009a.05.05,0,0,1,0,.017m-2.374-.085a.045.045,0,0,1,.012-.017l-.01,0h0a.082.082,0,0,0,0,.013m-1.03-.364.005-.021-.022-.008a.045.045,0,0,1,.017.029m-.106-.065a.057.057,0,0,1-.016-.03.162.162,0,0,0,0,.021h0v0Zm-.019-.018h0Zm7.378-.4a.047.047,0,0,1-.014.035l.074-.035-.075-.034a.049.049,0,0,1,.015.034m-4.972-3.928-.012-.005.005,0h.007m-1.482-.4v0Z" transform="translate(-62.127 -14.828)" fill="#b6001c"/>
      <path id="Path_365" data-name="Path 365" d="M156.389,34.09c-.54-.533-1.222-1.218-1.553-1.61l.036-.031-.037.03a1.3,1.3,0,0,1-.2-.281c-.1-.271-.238-.236-.663-.383l-.128-.045.127-.045c.036-.013.058-.017.09-.03a11.676,11.676,0,0,1,1.68-.328,9.922,9.922,0,0,1,2.036-.411,1.331,1.331,0,0,1,.45.066l.017.007.009.018a1.717,1.717,0,0,1,.176.72.8.8,0,0,1-.011.144l-.011.055-.053-.019c-.217-.08-.276-.141-.366-.138a.776.776,0,0,0-.247.061c-.352.113-.919.347-.891.485v.008c.005.063.011.183.011.329a2.535,2.535,0,0,1-.183,1.151,2.826,2.826,0,0,1-.223.247l-.034.034Zm.035-.1c.066-.068.127-.138.181-.2a2.567,2.567,0,0,0,.163-1.09c0-.144-.006-.262-.011-.317a.125.125,0,0,1,0-.02c.028-.283.606-.44.956-.575a.832.832,0,0,1,.279-.067c.125,0,.185.059.342.122a.667.667,0,0,0,0-.068,1.623,1.623,0,0,0-.158-.661,1.305,1.305,0,0,0-.4-.053,9.878,9.878,0,0,0-2.016.41,13.2,13.2,0,0,0-1.62.306c.308.093.482.112.586.4a1.272,1.272,0,0,0,.182.252c.319.379.98,1.043,1.515,1.569m-1.59-1.507h0Z" transform="translate(-76.208 -15.335)" fill="#b6001c"/>
      <path id="Path_366" data-name="Path 366" d="M156.339,34.109l-.034-.033.035-.035-.035.035c-.54-.532-1.218-1.213-1.553-1.609l-.005-.006a1.273,1.273,0,0,1-.205-.3c-.088-.243-.192-.2-.634-.353l-.128-.044a.05.05,0,0,1-.033-.047.05.05,0,0,1,.033-.047l.127-.045c.04-.013.06-.017.088-.029a11.63,11.63,0,0,1,1.688-.33,9.966,9.966,0,0,1,2.046-.413,1.37,1.37,0,0,1,.467.07l.018.006.028.025.01.019a1.775,1.775,0,0,1,.181.741.875.875,0,0,1-.012.154l-.012.054a.05.05,0,0,1-.024.034.055.055,0,0,1-.042,0l-.052-.019c-.217-.082-.284-.139-.342-.136h-.007a.762.762,0,0,0-.232.059,3.305,3.305,0,0,0-.786.35.182.182,0,0,0-.072.076v0h-.006l.007.01h0v0c.005.065.012.185.012.333a2.55,2.55,0,0,1-.195,1.182,2.925,2.925,0,0,1-.227.25l-.034.034a.049.049,0,0,1-.07,0m.035-.105.021-.02a.043.043,0,0,1-.019,0,.062.062,0,0,1-.022,0l.02.021m0-.066.035-.035ZM154.726,32.1a1.227,1.227,0,0,0,.172.236c.309.368.947,1.01,1.475,1.531.052-.056.1-.112.145-.166a2.519,2.519,0,0,0,.15-1.02v-.038c0-.142-.005-.261-.01-.309a.231.231,0,0,1,0-.033c.053-.344.645-.474.989-.617a.875.875,0,0,1,.3-.07.665.665,0,0,1,.294.1,1.558,1.558,0,0,0-.145-.613,1.331,1.331,0,0,0-.364-.045h0a9.892,9.892,0,0,0-2,.409c-.4.084-1.006.129-1.459.255a.574.574,0,0,1,.462.383m2.027.216h0Zm.185-.229c.044-.026.1-.052.149-.08a1.464,1.464,0,0,0-.149.08m1.384-.238s0-.018.005-.041a.049.049,0,0,1-.018.02.051.051,0,0,1-.026.007l.039.015m-4.262-.091a.05.05,0,0,1-.018-.037.047.047,0,0,1,.017-.039l-.027.011c-.034.013-.057.018-.087.028l.115.037m4.105-.729-.005-.01h0l-.011,0Z" transform="translate(-76.159 -15.285)" fill="#b6001c"/>
      <path id="Path_367" data-name="Path 367" d="M160.406,39.136,157.141,36.1a1.271,1.271,0,0,1-.352.058.823.823,0,0,1-.086-.005l-.023,0-.013-.019a13.12,13.12,0,0,0-2.332-1.461c-.077-.044-.16-.085-.244-.124h0l.041-.087c.085.04.17.082.25.128a13.491,13.491,0,0,1,2.351,1.473l.056,0a1.162,1.162,0,0,0,.347-.061h0l.027-.01,3.319,3.088,3.373,8,.054-.02L162.782,41.2l5.533,4.815.091-.062-6.174-7.191-.87-3.834.04-.014.1-.036a3.758,3.758,0,0,1-.079-.723,1.568,1.568,0,0,1,.084-.556,11.361,11.361,0,0,1,.822-1.758.727.727,0,0,0,.143-.438,1.4,1.4,0,0,0-1.208-1.213,3.145,3.145,0,0,0-.629-.065,2.109,2.109,0,0,0-1.445.484l-.012.012-.018,0c-.288.02-.343.228-.349.468a2.494,2.494,0,0,0,.034.348s.572,1.291.69,1.617.4,1.842.526,2.067a1.408,1.408,0,0,0,.352.161l.031.01,0,.032s.023.258.023.569a1.631,1.631,0,0,1-.231,1.046l-.02.017-.026-.009a5.838,5.838,0,0,1-2.22-1.5l-.021-.026.019-.029a.151.151,0,0,0,.018-.074c.01-.246-.507-.763-.718-.956-.081-.077-.39-.372-.761-.737l.068-.07c.369.365.678.66.758.737.211.2.739.689.749,1.025a.248.248,0,0,1-.017.092,5.822,5.822,0,0,0,2.127,1.433,1.772,1.772,0,0,0,.179-.954c0-.242-.016-.451-.022-.528a1.349,1.349,0,0,1-.363-.182c-.157-.281-.432-1.782-.547-2.1s-.687-1.608-.692-1.622a2.517,2.517,0,0,1-.038-.374c0-.244.08-.534.421-.563a2.218,2.218,0,0,1,1.5-.5,3.312,3.312,0,0,1,.649.066,1.491,1.491,0,0,1,1.285,1.308.819.819,0,0,1-.162.5,11.369,11.369,0,0,0-.809,1.735,1.472,1.472,0,0,0-.079.521,3.659,3.659,0,0,0,.086.742h0l.01.041-.041.015-.1.036.845,3.728,6.229,7.255-.045.03-.2.132-5.378-4.682,1.092,5.664-.039.014-.179.067Z" transform="translate(-76.33 -14.877)" fill="#b6001c"/>
      <path id="Path_368" data-name="Path 368" d="M163.707,47.172l-3.393-8.056-3.237-3.006a1.273,1.273,0,0,1-.338.051c-.03,0-.062,0-.093-.005l-.023,0-.036-.023-.012-.017a13.408,13.408,0,0,0-2.316-1.446c-.076-.043-.157-.084-.24-.122a.05.05,0,0,1-.028-.056.044.044,0,0,1,.008-.018l.037-.08a.05.05,0,0,1,.066-.024c.086.04.172.083.254.13a13.972,13.972,0,0,1,2.351,1.468h.031a1.129,1.129,0,0,0,.329-.057l.027-.011a.05.05,0,0,1,.052.011L160.468,39l.012.017,3.3,7.814-1.091-5.665a.051.051,0,0,1,.024-.052.05.05,0,0,1,.058.006l5.5,4.79.013-.008-6.136-7.149-.012-.021-.869-3.834a.051.051,0,0,1,.032-.058l.04-.014.058-.021a3.865,3.865,0,0,1-.071-.691,1.624,1.624,0,0,1,.087-.574,11.46,11.46,0,0,1,.829-1.77.669.669,0,0,0,.133-.408v0a1.347,1.347,0,0,0-1.168-1.162,3.124,3.124,0,0,0-.62-.064,2.059,2.059,0,0,0-1.409.47l-.013.012-.031.014h-.018c-.255.022-.29.18-.3.418a2.324,2.324,0,0,0,.032.333l0,.01.019.041c.017.036.038.087.066.151.057.126.131.3.21.48.158.364.331.766.392.933.117.33.4,1.813.516,2.049a1.367,1.367,0,0,0,.317.145h0a.05.05,0,0,1,.016,0l.027.009a.051.051,0,0,1,.035.041l0,.038s.024.258.024.569a1.651,1.651,0,0,1-.248,1.083l-.021.018a.05.05,0,0,1-.048.01l-.026-.009a5.882,5.882,0,0,1-2.243-1.513l-.021-.027a.049.049,0,0,1,0-.058l.018-.028a.1.1,0,0,0,.012-.048v-.007c.012-.2-.5-.73-.7-.912-.081-.078-.39-.373-.762-.739a.05.05,0,0,1,0-.071l.068-.069a.049.049,0,0,1,.07,0c.37.365.678.659.758.736.209.21.745.681.764,1.062a.3.3,0,0,1-.011.081,5.845,5.845,0,0,0,2.054,1.386,1.921,1.921,0,0,0,.145-.859v-.037c0-.211-.011-.4-.018-.492a1.383,1.383,0,0,1-.346-.179l-.013-.015c-.165-.3-.437-1.8-.55-2.1s-.684-1.6-.694-1.632a2.392,2.392,0,0,1-.039-.381v-.021a.527.527,0,0,1,.45-.591,2.278,2.278,0,0,1,1.519-.5,3.345,3.345,0,0,1,.66.068,1.535,1.535,0,0,1,1.324,1.356.868.868,0,0,1-.171.525,11.36,11.36,0,0,0-.8,1.724,1.434,1.434,0,0,0-.075.5,3.679,3.679,0,0,0,.084.731l.01.042a.05.05,0,0,1-.031.059l-.041.015-.056.02.833,3.673,6.221,7.246a.055.055,0,0,1,.012.04.053.053,0,0,1-.022.035l-.045.03-.2.133a.049.049,0,0,1-.061,0l-5.269-4.588,1.065,5.522a.051.051,0,0,1-.032.056l-.038.015-.18.067a.042.042,0,0,1-.018,0,.049.049,0,0,1-.045-.03m.073-.083.026-.011a.05.05,0,0,1-.037-.017Zm.113-.042.021-.008,0-.02a.047.047,0,0,1-.018.028m4.369-1.018.015-.011a.052.052,0,0,1-.028,0Zm.145-.114a.044.044,0,0,1-.011.024l.031-.021-.023-.026a.045.045,0,0,1,0,.023M162.83,41.4a.054.054,0,0,1,.023-.032.052.052,0,0,1,.041,0l-.086-.074Zm-2.475-2.31-.045.02.045-.02.029-.031Zm-.2-2.232.008-.007-.019,0,.011,0m-3.486-.8-.021-.011a.048.048,0,0,1,.007.01h.014m.434-.052L157.1,36h0l0,0,.012,0m.866-.621a.058.058,0,0,1,0-.018s0,.006,0,.009l.008.01m2.376-.087v-.014l-.01,0-.006,0a.051.051,0,0,1,.016.019m-.023-.027h0Zm.075,0a.021.021,0,0,0,.007-.011.029.029,0,0,1-.007.011m-.038-.081h0Zm1.014-.248a.045.045,0,0,1,.017-.033l-.023.008Zm.106-.069.022-.008v-.005a.033.033,0,0,0,0-.011v-.005a.051.051,0,0,1-.018.029m-2.639-3.479,0-.014c0,.005,0,.01,0,.014m0-.017h0Zm.256-.847h.007l.006-.005ZM157.1,36h0Z" transform="translate(-76.281 -14.827)" fill="#b6001c"/>
      <path id="Path_369" data-name="Path 369" d="M147.082,33.841A2.49,2.49,0,0,1,146.9,32.7a3.238,3.238,0,0,1,.013-.332v-.012c.028-.137-.539-.371-.891-.484a.77.77,0,0,0-.247-.062c-.09,0-.15.059-.366.14l-.052.019-.011-.054a.709.709,0,0,1-.012-.144,1.735,1.735,0,0,1,.177-.722l.009-.018.018-.007a1.3,1.3,0,0,1,.45-.067,10.011,10.011,0,0,1,2.036.412,11.725,11.725,0,0,1,1.679.328c.031.012.054.017.09.03l-.034.09c-.028-.011-.052-.016-.091-.031A11.808,11.808,0,0,0,148,31.462a9.981,9.981,0,0,0-2.016-.411,1.248,1.248,0,0,0-.4.054,1.629,1.629,0,0,0-.159.663c0,.027,0,.049,0,.068.157-.065.218-.122.343-.124a.832.832,0,0,1,.279.067c.349.136.927.293.955.575,0,.007,0,.012,0,.019a3.2,3.2,0,0,0-.013.324,2.525,2.525,0,0,0,.165,1.084c.064.079.137.161.215.24l-.068.067c-.08-.081-.156-.165-.223-.247" transform="translate(-71.991 -15.334)" fill="#b6001c"/>
      <path id="Path_370" data-name="Path 370" d="M147.22,34.074c-.081-.082-.157-.167-.225-.251l.038-.032-.04.031a2.5,2.5,0,0,1-.195-1.175,3.365,3.365,0,0,1,.013-.337v-.017a.178.178,0,0,0-.071-.077,1.439,1.439,0,0,0-.219-.127,4.78,4.78,0,0,0-.57-.224.723.723,0,0,0-.234-.059v0c-.06,0-.127.053-.344.137l-.053.019a.045.045,0,0,1-.041,0,.047.047,0,0,1-.025-.033l-.012-.055a.939.939,0,0,1-.012-.154,1.794,1.794,0,0,1,.182-.743l.009-.018.027-.025.019-.007a1.343,1.343,0,0,1,.466-.07,9.974,9.974,0,0,1,2.047.413,11.608,11.608,0,0,1,1.688.33c.026.01.048.015.088.03a.048.048,0,0,1,.028.026.053.053,0,0,1,0,.038l-.035.09a.052.052,0,0,1-.026.028.053.053,0,0,1-.038,0c-.022-.009-.048-.014-.091-.031a11.905,11.905,0,0,0-1.657-.321,10.031,10.031,0,0,0-2.006-.409,1.248,1.248,0,0,0-.36.045,1.577,1.577,0,0,0-.146.614.671.671,0,0,1,.3-.1.874.874,0,0,1,.3.07c.342.143.934.273.987.622,0,.011,0,.015,0,.025a3.073,3.073,0,0,0-.012.319c0,.011,0,.023,0,.035a2.456,2.456,0,0,0,.155,1.017,3.07,3.07,0,0,0,.211.236.051.051,0,0,1,.014.035.05.05,0,0,1-.015.035l-.068.067a.051.051,0,0,1-.071,0m-.523-2c-.031-.018-.066-.036-.1-.054l.1.054m-1.355-.22.038-.014a.07.07,0,0,1-.025-.008.057.057,0,0,1-.019-.021c0,.022.005.037.006.042m.156-.82.018-.017-.012,0a.055.055,0,0,0-.006.012" transform="translate(-71.942 -15.285)" fill="#b6001c"/>
      <path id="Path_371" data-name="Path 371" d="M170.219,47.295l.094-.021.6,2.784-.095.021Z" transform="translate(-84.319 -23.418)" fill="#b6001c"/>
      <path id="Path_372" data-name="Path 372" d="M170.743,50.072a.051.051,0,0,1-.022-.032l-.6-2.784.049-.01.011.048-.011-.048-.049.01a.05.05,0,0,1,.038-.059l.094-.021a.048.048,0,0,1,.058.038l.6,2.784a.047.047,0,0,1-.007.038.051.051,0,0,1-.031.022l-.095.021h-.011a.056.056,0,0,1-.027-.008" transform="translate(-84.27 -23.368)" fill="#b6001c"/>
      <path id="Path_373" data-name="Path 373" d="M150.771,35.254a3.5,3.5,0,0,1-1.352-.728.2.2,0,0,1-.022-.092c0-.15.144-.379.93-.512a1.812,1.812,0,0,1,.315-.027c.961.007,1.836.684,1.849,1.175,0,.011,0,.023,0,.034l0,.029-.026.011a2.883,2.883,0,0,1-1.043.193,2.466,2.466,0,0,1-.647-.084m.026-.093a2.356,2.356,0,0,0,.621.081,2.88,2.88,0,0,0,.976-.174,1.042,1.042,0,0,0-.527-.686,2.232,2.232,0,0,0-1.225-.391,1.679,1.679,0,0,0-.3.026c-.779.134-.851.347-.848.417a.286.286,0,0,0,0,.036,3.513,3.513,0,0,0,1.3.69" transform="translate(-74.005 -16.79)" fill="#b6001c"/>
      <path id="Path_374" data-name="Path 374" d="M150.709,35.253l.013-.048-.013.048a3.449,3.449,0,0,1-1.384-.754.248.248,0,0,1-.026-.115c.006-.189.182-.428.969-.56a1.792,1.792,0,0,1,.326-.028c.982.013,1.872.682,1.9,1.225a.362.362,0,0,1,0,.039l0,.029a.053.053,0,0,1-.031.041l-.026.011a2.935,2.935,0,0,1-1.062.2,2.508,2.508,0,0,1-.66-.086m.027-.1.013-.045.013-.048a2.284,2.284,0,0,0,.608.079,2.81,2.81,0,0,0,.924-.158,1.1,1.1,0,0,0-.5-.61,2.184,2.184,0,0,0-1.2-.382,1.67,1.67,0,0,0-.291.026c-.749.128-.81.327-.807.362v0h-.024l.024,0v.01a3.441,3.441,0,0,0,1.266.668l-.013.048Zm1.642-.1.013-.005v-.014a.046.046,0,0,1-.014.019m-2.88-.642h0Z" transform="translate(-73.956 -16.741)" fill="#b6001c"/>
      <path id="Path_375" data-name="Path 375" d="M165.915,33.28c-.5-.1-1.077-.973-1.171-1.393l0-.016.008-.014c.121-.238.564-.346,1.037-.35a2.674,2.674,0,0,1,.4.031c.551.094,1.182.433,1.2.859a.374.374,0,0,1-.011.093,1.659,1.659,0,0,1-1.34.8.783.783,0,0,1-.115-.009m.016-.095a.661.661,0,0,0,.1.008c.446.008,1.186-.432,1.247-.725a.326.326,0,0,0,.008-.07c.012-.321-.585-.684-1.115-.764a2.525,2.525,0,0,0-.386-.03,1.25,1.25,0,0,0-.943.279c.083.383.682,1.242,1.089,1.3" transform="translate(-81.606 -15.608)" fill="#b6001c"/>
      <path id="Path_376" data-name="Path 376" d="M165.858,33.28l.009-.049-.01.049c-.537-.115-1.105-.991-1.21-1.43l0-.017,0-.033.007-.015c.147-.274.6-.369,1.082-.376a2.6,2.6,0,0,1,.409.032c.56.1,1.213.43,1.238.908a.451.451,0,0,1-.013.106,1.694,1.694,0,0,1-1.388.835.851.851,0,0,1-.124-.01m.032-.193-.007.049.008-.049a.694.694,0,0,0,.091.007h.011c.418.01,1.152-.443,1.187-.686a.269.269,0,0,0,.007-.06v-.009c.015-.261-.561-.634-1.073-.7a2.422,2.422,0,0,0-.38-.03h-.02a1.314,1.314,0,0,0-.867.238c.085.369.688,1.206,1.043,1.244m-1.144-1.252,0-.011,0,.005v.006" transform="translate(-81.558 -15.559)" fill="#b6001c"/>
      <path id="Path_377" data-name="Path 377" d="M167.793,46.316h0a.182.182,0,0,1-.013-.071.274.274,0,0,1,.192-.244.278.278,0,0,1,.111-.021.239.239,0,0,1,.231.145.206.206,0,0,1,.011.069.275.275,0,0,1-.193.246.35.35,0,0,1-.11.019h0a.232.232,0,0,1-.226-.143m.228.046a.246.246,0,0,0,.078-.013.181.181,0,0,0,.129-.155.1.1,0,0,0-.006-.036.144.144,0,0,0-.14-.082.185.185,0,0,0-.076.015.18.18,0,0,0-.131.153.07.07,0,0,0,.007.034l-.045.018.045-.017a.14.14,0,0,0,.139.082" transform="translate(-83.111 -22.777)" fill="#b6001c"/>
      <path id="Path_378" data-name="Path 378" d="M167.97,46.458a.283.283,0,0,1-.268-.164.044.044,0,0,1-.005-.01.231.231,0,0,1-.016-.09.32.32,0,0,1,.222-.289.314.314,0,0,1,.13-.026.29.29,0,0,1,.28.179.252.252,0,0,1,.014.085.326.326,0,0,1-.227.293.4.4,0,0,1-.126.022Zm0-.1v0Zm-.275-.077.045-.016Zm.275-.02a.209.209,0,0,0,.061-.01.14.14,0,0,0,.1-.106v0a.009.009,0,0,1,0,0,.056.056,0,0,0,0-.016.094.094,0,0,0-.094-.048.16.16,0,0,0-.059.012.138.138,0,0,0-.1.1h0a.024.024,0,0,0,0,.014v.006a.094.094,0,0,0,.092.047" transform="translate(-83.062 -22.727)" fill="#b6001c"/>
      <path id="Path_379" data-name="Path 379" d="M165.571,44.22l-.006-.017.008-.016s.147-.348.28-.581h0l.084.047c-.112.2-.237.484-.268.556.158.526.5,1.6.5,1.6l-.092.029s-.349-1.1-.506-1.62" transform="translate(-82.014 -21.601)" fill="#b6001c"/>
      <path id="Path_380" data-name="Path 380" d="M165.981,45.805s-.348-1.1-.5-1.619h0l-.007-.017,0-.037.007-.016v0l0-.013.019-.043c.016-.036.039-.088.066-.145.052-.118.123-.263.19-.382a.051.051,0,0,1,.072-.017l0,0,.083.047a.048.048,0,0,1,.023.03.045.045,0,0,1,0,.038c-.1.18-.218.443-.258.533.15.5.452,1.451.491,1.571v0a.054.054,0,0,1,0,.043.052.052,0,0,1-.032.03l-.092.029-.014,0a.051.051,0,0,1-.049-.035m-.457-1.635.017-.006Zm.049-.007v-.008h0v0h0l0,.007" transform="translate(-81.967 -21.552)" fill="#b6001c"/>
      <path id="Path_381" data-name="Path 381" d="M161.469,2.343a2.229,2.229,0,1,1,2.23,2.243,2.237,2.237,0,0,1-2.23-2.243m.1,0A2.133,2.133,0,1,0,163.7.2a2.143,2.143,0,0,0-2.133,2.147" transform="translate(-79.985 -0.05)" fill="#b6001c"/>
      <path id="Path_382" data-name="Path 382" d="M161.369,2.294a2.279,2.279,0,1,1,2.28,2.293,2.288,2.288,0,0,1-2.28-2.293m2.279,2.1a2.1,2.1,0,1,0-2.083-2.1,2.094,2.094,0,0,0,2.083,2.1" transform="translate(-79.935)" fill="#b6001c"/>
      <path id="Path_383" data-name="Path 383" d="M164.6,3.552a.326.326,0,0,1,.641,0,.326.326,0,0,1-.641,0m.095,0a.208.208,0,0,0,.228.17.2.2,0,0,0,.223-.17.2.2,0,0,0-.223-.171.208.208,0,0,0-.228.171" transform="translate(-81.536 -1.627)" fill="#b6001c"/>
      <path id="Path_384" data-name="Path 384" d="M164.6,3.55a.328.328,0,0,1,.646,0,.329.329,0,0,1-.646,0m0,0a.3.3,0,0,0,.321.264.294.294,0,0,0,.316-.264.324.324,0,0,0-.638,0m.092,0a.209.209,0,0,1,.229-.173.2.2,0,0,1,.224.173.206.206,0,0,1-.224.172.21.21,0,0,1-.229-.172m.229.168a.2.2,0,0,0,.22-.168.2.2,0,0,0-.22-.169.206.206,0,0,0-.225.169.207.207,0,0,0,.225.168" transform="translate(-81.533 -1.625)" fill="#b6001c"/>
      <path id="Path_385" data-name="Path 385" d="M165.924,4.877a.327.327,0,0,1,.643,0,.327.327,0,0,1-.643,0m.1,0a.2.2,0,0,0,.224.171.207.207,0,0,0,.227-.171.234.234,0,0,0-.451,0" transform="translate(-82.192 -2.284)" fill="#b6001c"/>
      <path id="Path_386" data-name="Path 386" d="M165.919,4.875a.329.329,0,0,1,.646,0,.328.328,0,0,1-.646,0m0,0a.325.325,0,0,0,.639,0,.325.325,0,0,0-.639,0m.091,0a.237.237,0,0,1,.456,0,.237.237,0,0,1-.456,0m.227.169a.2.2,0,0,0,.224-.169.232.232,0,0,0-.446,0,.2.2,0,0,0,.222.169" transform="translate(-82.189 -2.282)" fill="#b6001c"/>
      <path id="Path_387" data-name="Path 387" d="M137.48,2.343a2.229,2.229,0,1,1,2.229,2.243,2.236,2.236,0,0,1-2.229-2.243m2.229,2.146a2.147,2.147,0,1,0-2.132-2.146,2.143,2.143,0,0,0,2.132,2.146" transform="translate(-68.102 -0.05)" fill="#b6001c"/>
      <path id="Path_388" data-name="Path 388" d="M137.381,2.294a2.279,2.279,0,1,1,2.278,2.293,2.287,2.287,0,0,1-2.278-2.293m2.278,2.193v0Zm-2.083-2.193A2.083,2.083,0,1,0,139.659.2a2.094,2.094,0,0,0-2.083,2.1" transform="translate(-68.053)" fill="#b6001c"/>
      <path id="Path_389" data-name="Path 389" d="M141.907,3.552a.327.327,0,0,1,.643,0,.328.328,0,0,1-.643,0m.321.17a.2.2,0,0,0,.225-.17.234.234,0,0,0-.45,0,.207.207,0,0,0,.225.17" transform="translate(-70.295 -1.627)" fill="#b6001c"/>
      <path id="Path_390" data-name="Path 390" d="M141.9,3.55a.33.33,0,0,1,.648,0,.33.33,0,0,1-.648,0m0,0a.325.325,0,0,0,.639,0,.325.325,0,0,0-.639,0m.32.17v0A.21.21,0,0,1,142,3.55a.21.21,0,0,1,.228-.172.207.207,0,0,1,.227.172.207.207,0,0,1-.227.173ZM142,3.55a.232.232,0,0,0,.447,0,.232.232,0,0,0-.447,0" transform="translate(-70.292 -1.625)" fill="#b6001c"/>
      <path id="Path_391" data-name="Path 391" d="M140.586,4.877a.327.327,0,0,1,.642,0,.327.327,0,0,1-.642,0m.321.17a.207.207,0,0,0,.226-.17.233.233,0,0,0-.45,0,.205.205,0,0,0,.224.17" transform="translate(-69.64 -2.284)" fill="#b6001c"/>
      <path id="Path_392" data-name="Path 392" d="M140.583,4.875h0a.328.328,0,0,1,.646,0,.329.329,0,0,1-.646,0m.322.264a.3.3,0,0,0,.32-.264.325.325,0,0,0-.639,0,.3.3,0,0,0,.319.264m-.227-.264a.235.235,0,0,1,.454,0,.208.208,0,0,1-.227.172v0a.2.2,0,0,0,.223-.168.231.231,0,0,0-.445,0,.2.2,0,0,0,.222.168v0a.208.208,0,0,1-.227-.173" transform="translate(-69.639 -2.282)" fill="#b6001c"/>
      <path id="Path_393" data-name="Path 393" d="M147.662,6.187a3.267,3.267,0,0,1,6.532,0,3.267,3.267,0,0,1-6.532,0m.1,0a3.17,3.17,0,0,0,6.339,0,3.17,3.17,0,0,0-6.339,0" transform="translate(-73.145 -1.482)" fill="#b6001c"/>
      <path id="Path_394" data-name="Path 394" d="M147.563,6.138a3.316,3.316,0,0,1,6.631,0,3.316,3.316,0,0,1-6.631,0m3.315,3.052A3.089,3.089,0,0,0,154,6.138a3.121,3.121,0,0,0-6.239,0,3.088,3.088,0,0,0,3.12,3.052m-3.17-3.052h0Z" transform="translate(-73.096 -1.433)" fill="#b6001c"/>
      <path id="Path_395" data-name="Path 395" d="M153.065,7.835c.005-.156.169-.253.35-.253s.343.1.348.253-.168.251-.348.252-.345-.1-.35-.252m.1,0c0,.069.1.155.253.155s.25-.085.252-.155-.1-.156-.252-.156-.253.085-.253.156" transform="translate(-75.822 -3.756)" fill="#b6001c"/>
      <path id="Path_396" data-name="Path 396" d="M153.024,7.816h0c.008-.173.184-.273.37-.274s.361.1.368.275a.332.332,0,0,1-.368.271c-.186,0-.362-.1-.369-.271m.369.231c.175,0,.325-.094.329-.231s-.153-.234-.328-.234-.326.093-.33.234.155.231.329.232m-.272-.232c0-.09.115-.176.273-.177s.268.087.271.177-.114.174-.271.175-.269-.088-.273-.175m.273.135c.144,0,.231-.085.231-.135s-.087-.138-.231-.138-.233.085-.233.138.089.135.233.135" transform="translate(-75.802 -3.735)" fill="#b6001c"/>
      <path id="Path_397" data-name="Path 397" d="M154.79,9.023c.006-.155.171-.249.351-.25s.342.095.347.25-.168.254-.347.255-.345-.1-.351-.255m.1,0c0,.072.1.158.254.158s.251-.086.251-.158-.1-.153-.251-.153-.253.085-.254.153" transform="translate(-76.676 -4.346)" fill="#b6001c"/>
      <path id="Path_398" data-name="Path 398" d="M154.751,9h0c.007-.171.186-.268.371-.268s.36.1.366.27-.181.274-.366.274-.364-.1-.371-.274m.371.234c.173,0,.325-.094.327-.234s-.154-.23-.327-.23-.327.091-.332.23.157.234.332.235M154.847,9h0c0-.087.116-.173.275-.173s.267.086.27.174-.114.177-.27.178-.271-.087-.275-.178m.275.138c.143,0,.231-.084.231-.138s-.087-.134-.231-.134-.234.084-.234.134.089.139.234.138" transform="translate(-76.657 -4.326)" fill="#b6001c"/>
      <path id="Path_399" data-name="Path 399" d="M151.847,9.375c.006-.156.17-.252.35-.253s.343.1.348.253-.169.251-.348.252-.345-.1-.35-.252m.1,0c0,.069.1.156.253.156s.252-.086.252-.156-.1-.156-.252-.156-.253.086-.253.156" transform="translate(-75.219 -4.519)" fill="#b6001c"/>
      <path id="Path_400" data-name="Path 400" d="M151.808,9.356h0c.007-.172.184-.271.37-.271s.361.1.368.273-.183.271-.368.271-.363-.1-.37-.271m.37.232c.174,0,.324-.094.328-.232s-.154-.232-.328-.233-.326.093-.331.233.156.231.331.232m-.274-.232c0-.089.116-.175.274-.176s.268.086.271.176-.114.175-.271.176-.271-.088-.274-.176m.274.136c.144,0,.231-.084.231-.136s-.087-.136-.231-.136-.234.085-.234.136.09.135.234.136" transform="translate(-75.199 -4.499)" fill="#b6001c"/>
      <path id="Path_401" data-name="Path 401" d="M153.575,10.562c.006-.157.171-.253.351-.254s.343.1.348.254-.169.251-.348.251-.345-.1-.351-.251m.1,0c0,.069.1.155.254.155s.251-.086.251-.155-.1-.157-.251-.157-.254.085-.254.157" transform="translate(-76.074 -5.106)" fill="#b6001c"/>
      <path id="Path_402" data-name="Path 402" d="M153.535,10.543h0c.008-.173.184-.273.371-.274s.361.1.367.275-.182.27-.367.271-.363-.1-.371-.271m.371.231c.173,0,.325-.093.328-.231s-.153-.234-.328-.234-.327.094-.331.234.156.231.331.232m-.274-.232c0-.09.116-.176.274-.177s.268.087.27.177-.114.174-.27.176-.271-.087-.274-.176m.274.135c.144,0,.231-.085.231-.135s-.087-.137-.231-.137-.235.085-.235.137.089.136.235.135" transform="translate(-76.055 -5.086)" fill="#b6001c"/>
      <path id="Path_403" data-name="Path 403" d="M150.822,25.128a1.671,1.671,0,1,1,1.672,1.636,1.656,1.656,0,0,1-1.672-1.636m.1,0a1.575,1.575,0,1,0,1.575-1.54,1.558,1.558,0,0,0-1.575,1.54" transform="translate(-74.711 -11.636)" fill="#b6001c"/>
      <path id="Path_404" data-name="Path 404" d="M150.724,25.079a1.72,1.72,0,1,1,1.721,1.685,1.7,1.7,0,0,1-1.721-1.685m1.721,1.489a1.49,1.49,0,1,0-1.526-1.489,1.508,1.508,0,0,0,1.526,1.489m-1.576-1.489h0Z" transform="translate(-74.662 -11.588)" fill="#b6001c"/>
      <path id="Path_405" data-name="Path 405" d="M153.547,25.957a.179.179,0,0,1,.2-.15c.1,0,.2.051.2.15s-.1.151-.2.152a.179.179,0,0,1-.2-.152m.1,0c0,.016.035.056.1.056s.1-.039.1-.056-.033-.055-.1-.055-.1.04-.1.055" transform="translate(-76.061 -12.784)" fill="#b6001c"/>
      <path id="Path_406" data-name="Path 406" d="M153.508,25.939h0a.225.225,0,1,1,.219.173.2.2,0,0,1-.219-.173m.219.131c.093,0,.177-.049.179-.131s-.086-.131-.178-.132-.176.047-.179.131.087.131.178.132m-.123-.132c0-.036.047-.072.123-.075s.119.039.123.075-.045.073-.123.075-.119-.038-.123-.075m.123.035a.049.049,0,1,0,0-.07.1.1,0,0,0-.083.035.1.1,0,0,0,.083.035" transform="translate(-76.041 -12.764)" fill="#b6001c"/>
      <path id="Path_407" data-name="Path 407" d="M154.418,26.558a.207.207,0,0,1,.4,0c0,.1-.1.149-.2.149s-.195-.05-.2-.149m.1,0c0,.014.034.053.1.053s.1-.039.1-.053-.033-.056-.1-.056-.1.041-.1.056" transform="translate(-76.492 -13.08)" fill="#b6001c"/>
      <path id="Path_408" data-name="Path 408" d="M154.6,26.708a.2.2,0,0,1-.219-.169h0a.225.225,0,0,1,.438,0,.2.2,0,0,1-.216.169Zm0-.04c.092,0,.176-.047.179-.129s-.087-.132-.179-.133-.176.047-.18.132.088.128.18.13m-.124-.129h0c.006-.034.047-.072.124-.074s.119.039.123.075-.045.071-.123.074-.118-.039-.124-.073m.124.032a.094.094,0,0,0,.082-.033.092.092,0,0,0-.082-.035.1.1,0,0,0-.084.035.1.1,0,0,0,.084.033" transform="translate(-76.473 -13.061)" fill="#b6001c"/>
      <path id="Path_409" data-name="Path 409" d="M152.935,26.733c.005-.1.1-.15.2-.151s.2.051.2.151-.1.151-.2.151a.179.179,0,0,1-.2-.151m.1,0c0,.016.033.055.1.055s.1-.04.1-.055a.1.1,0,0,0-.1-.056c-.07,0-.1.041-.1.056" transform="translate(-75.757 -13.168)" fill="#b6001c"/>
      <path id="Path_410" data-name="Path 410" d="M152.9,26.715h0a.227.227,0,1,1,.22.173h0a.2.2,0,0,1-.217-.171m.22.131c.093,0,.177-.047.18-.13s-.087-.131-.18-.132-.175.047-.179.131.086.131.179.131m-.123-.131h0c0-.033.045-.071.123-.074s.119.041.124.076-.046.072-.124.074-.119-.039-.123-.074m.188.017a.153.153,0,0,0,.019-.017.092.092,0,0,0-.084-.036.088.088,0,0,0-.083.035.091.091,0,0,0,.083.035.109.109,0,0,0,.065-.017" transform="translate(-75.738 -13.148)" fill="#b6001c"/>
      <path id="Path_411" data-name="Path 411" d="M153.807,27.334a.179.179,0,0,1,.2-.151.157.157,0,1,1-.2.151m.1,0c0,.017.034.056.1.056s.1-.041.1-.056-.034-.054-.1-.055-.1.04-.1.055" transform="translate(-76.189 -13.465)" fill="#b6001c"/>
      <path id="Path_412" data-name="Path 412" d="M153.769,27.315h0a.226.226,0,1,1,.219.174.2.2,0,0,1-.219-.174m.219.131c.093,0,.177-.048.181-.131s-.088-.131-.181-.132-.176.047-.18.131.087.131.18.132m-.123-.132c0-.036.044-.072.123-.074s.12.038.123.074-.046.073-.123.076-.12-.039-.123-.076m.123.036a.1.1,0,0,0,.085-.036.1.1,0,0,0-.085-.035.049.049,0,1,0,0,.071" transform="translate(-76.171 -13.445)" fill="#b6001c"/>
      <path id="Path_413" data-name="Path 413" d="M136.558,10.706A24.281,24.281,0,0,1,133.1,9.02a20.923,20.923,0,0,1-2.688-1.76l-.013-.019.006-.021c.047-.143.166-.461.363-.483.007,0,.01,0,.007,0a20.554,20.554,0,0,1,2.8,1.344,26.408,26.408,0,0,1,3.314,1.991c.223.13,2.568,1.465,5.449,3.1l-.047.083c-2.882-1.639-5.225-2.973-5.464-3.118a27.535,27.535,0,0,0-3.3-1.979,22.084,22.084,0,0,0-2.752-1.331h0c-.067-.017-.226.249-.264.386a23.674,23.674,0,0,0,2.642,1.715,25.046,25.046,0,0,0,3.436,1.679c.224.117,2.454,1.333,5.239,2.854l-.046.084-5.22-2.848" transform="translate(-64.596 -3.338)" fill="#b6001c"/>
      <path id="Path_414" data-name="Path 414" d="M141.706,13.548,136.495,10.7a24.438,24.438,0,0,1-3.462-1.69,20.455,20.455,0,0,1-2.705-1.775l-.013-.019-.007-.042.007-.023c.052-.143.157-.479.411-.517h.015l.007,0a20.774,20.774,0,0,1,2.8,1.348,26.936,26.936,0,0,1,3.323,2c.264.154,2.591,1.479,5.439,3.1a.05.05,0,0,1,.019.068l-.047.084a.052.052,0,0,1-.068.019c-2.882-1.639-5.224-2.973-5.465-3.118l-.015-.013a28.388,28.388,0,0,0-3.284-1.965,23.957,23.957,0,0,0-2.723-1.324h-.01l0,0a.126.126,0,0,0-.026.023.669.669,0,0,0-.071.094,1.092,1.092,0,0,0-.1.2,24.733,24.733,0,0,0,2.607,1.687,25.542,25.542,0,0,0,3.417,1.673l.019.005c.225.119,2.454,1.335,5.24,2.855a.055.055,0,0,1,.025.03.054.054,0,0,1,0,.038l-.046.084a.054.054,0,0,1-.03.024l-.014,0a.051.051,0,0,1-.025-.007m-5.2-2.891-.024.043.024-.043,0-.043Zm-6.1-3.468a.031.031,0,0,1,0-.009v0l0,.005m.137-.309.014-.021-.014.021m.156-.048Zm.062-.019,0-.008,0,.008" transform="translate(-64.549 -3.289)" fill="#b6001c"/>
      <path id="Path_415" data-name="Path 415" d="M154.4,13.552l-.512-.291-.073-.042.073-.041c2.88-1.639,5.226-2.974,5.435-3.091a26.116,26.116,0,0,1,3.329-2,21.492,21.492,0,0,1,2.785-1.343l.014,0h0c.2.021.322.34.366.484l0,.02-.012.018a20.981,20.981,0,0,1-2.689,1.76,24.911,24.911,0,0,1-3.442,1.683c-.257.136-2.473,1.344-5.232,2.85l-.023.013Zm.023-.1c2.776-1.514,4.995-2.724,5.217-2.841l.023.043,0-.048a25.1,25.1,0,0,0,3.415-1.674,23.518,23.518,0,0,0,2.643-1.714c-.035-.13-.187-.385-.26-.386h-.009a22.3,22.3,0,0,0-2.751,1.331,27.073,27.073,0,0,0-3.313,1.991c-.223.13-2.528,1.444-5.376,3.063l.414.236" transform="translate(-76.191 -3.337)" fill="#b6001c"/>
      <path id="Path_416" data-name="Path 416" d="M154.343,13.559l-.022-.013-.512-.291-.074-.042a.049.049,0,0,1-.025-.043.049.049,0,0,1,.025-.043l.074-.042c2.846-1.618,5.169-2.941,5.426-3.085a26.38,26.38,0,0,1,3.336-2.01,21.455,21.455,0,0,1,2.795-1.347.073.073,0,0,1,.026,0,.047.047,0,0,1,.022,0c.24.046.347.372.4.519l0,.02-.006.039-.014.02a20.44,20.44,0,0,1-2.7,1.775A25.322,25.322,0,0,1,159.64,10.7c-.289.154-2.491,1.354-5.222,2.845l-.025.013a.05.05,0,0,1-.024.006.046.046,0,0,1-.026-.007m0-.056.008-.014h0Zm.023-.044.007,0h-.014l.007,0m0-.053.025-.043Zm0-.058c2.764-1.507,4.97-2.71,5.192-2.828a.041.041,0,0,1,.018-.006.052.052,0,0,1,.02-.006A25.851,25.851,0,0,0,163,8.842a24.613,24.613,0,0,0,2.609-1.688.887.887,0,0,0-.2-.316l0,0h-.014a24.2,24.2,0,0,0-2.72,1.324,27.824,27.824,0,0,0-3.3,1.978l-.015.013c-.221.13-2.488,1.421-5.3,3.02l.314.179m-.453-.146a.047.047,0,0,1-.012-.033.049.049,0,0,1,.011-.032l-.057.032.057.033m11.793-6.015,0,0h0l0,0v.009" transform="translate(-76.142 -3.288)" fill="#b6001c"/>
      <path id="Path_417" data-name="Path 417" d="M130.376,26.708l.287-.315,11.11-6.317-.026-.015-.024-.013-.023.014c-4.91,2.793-11.049,6.282-11.06,6.288l.024.042-.036-.033-.383.42.559-.1c.018-.008,1.624-.884,3.859-2.105l7.6-4.147.077-.041-.049-.028c-5.009,2.733-11.491,6.274-11.491,6.274Z" transform="translate(-64.517 -9.931)" fill="#b6001c"/>
      <path id="Path_418" data-name="Path 418" d="M130.151,26.755a.051.051,0,0,1,.006-.058l.384-.42a.059.059,0,0,1,.012-.01.064.064,0,0,1,.013-.01c.01-.006,6.15-3.5,11.059-6.288l.024-.013a.046.046,0,0,1,.049,0l.024.012.027.015a.052.052,0,0,1,.026.044.05.05,0,0,1-.025.043l-11.1,6.313-.18.2.263-.049c.228-.124,6.567-3.586,11.485-6.27a.048.048,0,0,1,.048,0l.049.027a.05.05,0,0,1,0,.088l-.077.042-7.6,4.147c-2.238,1.222-3.835,2.095-3.874,2.109l-.559.1H130.2a.051.051,0,0,1-.044-.025" transform="translate(-64.468 -9.882)" fill="#b6001c"/>
      <path id="Path_419" data-name="Path 419" d="M130.506,26.736l.138-.075h-.007l.186-.2c.231-.131,6.219-3.535,11.03-6.271l.354.193.1-.056L141.9,20.1l-11.11,6.317Z" transform="translate(-64.647 -9.959)" fill="#b6001c"/>
      <path id="Path_420" data-name="Path 420" d="M130.418,26.717a.05.05,0,0,1,0-.065l.286-.315.012-.01,3.711-2.109,7.4-4.207a.048.048,0,0,1,.048,0l.406.221a.05.05,0,0,1,.025.044.049.049,0,0,1-.025.043l-.1.056a.053.053,0,0,1-.048,0l-.33-.18-11,6.254-.164.179a.047.047,0,0,1-.023.027l-.137.075-.024-.043.024.043a.05.05,0,0,1-.063-.013" transform="translate(-64.598 -9.91)" fill="#b6001c"/>
      <path id="Path_421" data-name="Path 421" d="M142.309,20.541l-.1.055.055.03L130.9,26.83l-.256.047-.138.075.418-.079s6.483-3.541,11.491-6.274l-.028-.016-.079-.043" transform="translate(-64.647 -10.175)" fill="#b6001c"/>
      <path id="Path_422" data-name="Path 422" d="M130.41,26.92a.049.049,0,0,1,.024-.061l.137-.075.015,0,.249-.045c.244-.133,6.4-3.5,11.282-6.16a.046.046,0,0,1-.009-.027.05.05,0,0,1,.026-.044l.1-.055a.05.05,0,0,1,.048,0l.079.043.028.015a.049.049,0,0,1,.026.043.049.049,0,0,1-.026.044c-3.757,2.05-8.342,4.554-10.4,5.678l-1.092.6-.014.006-.418.078h-.009a.051.051,0,0,1-.047-.032m11.847-6.368,0,0,0,0,0,0v0m-.021-.02.023-.04Z" transform="translate(-64.598 -10.127)" fill="#b6001c"/>
      <path id="Path_423" data-name="Path 423" d="M152.945,20.16h0l.045-.085c.169.091.339.185.512.28l-.046.083-.512-.278" transform="translate(-75.762 -9.944)" fill="#b6001c"/>
      <path id="Path_424" data-name="Path 424" d="M153.383,20.432l-.512-.277.024-.045-.024.045a.051.051,0,0,1-.024-.057.056.056,0,0,1,.009-.018L152.9,20a.054.054,0,0,1,.029-.025.052.052,0,0,1,.039,0l.512.28a.051.051,0,0,1,.02.068l-.047.083a.049.049,0,0,1-.043.025.049.049,0,0,1-.025-.006" transform="translate(-75.713 -9.895)" fill="#b6001c"/>
      <path id="Path_425" data-name="Path 425" d="M153.956,19.584,154,19.5l.512.29h0l-.048.083-.512-.291" transform="translate(-76.263 -9.66)" fill="#b6001c"/>
      <path id="Path_426" data-name="Path 426" d="M154.394,19.869l-.512-.291.025-.043.043.024-.043-.024-.025.043a.049.049,0,0,1-.019-.068l.047-.083a.049.049,0,0,1,.068-.019l.512.291a.05.05,0,0,1,.025.043h0l-.007.025-.047.084a.054.054,0,0,1-.031.024l-.013,0a.046.046,0,0,1-.025-.007" transform="translate(-76.214 -9.61)" fill="#b6001c"/>
      <path id="Path_427" data-name="Path 427" d="M165.4,26.685s-6.44-3.518-11.439-6.246l.045-.085c5,2.727,11.43,6.241,11.426,6.241l.277.052-.178-.2s-6.15-3.5-11.06-6.288l.047-.084c4.91,2.793,11.05,6.282,11.072,6.3l.385.422Z" transform="translate(-76.265 -9.945)" fill="#b6001c"/>
      <path id="Path_428" data-name="Path 428" d="M165.913,26.8l-.574-.112.01-.049.022-.041-.022.041-.01.049-.014-.006s-6.439-3.517-11.439-6.246a.05.05,0,0,1-.021-.067l.046-.085a.046.046,0,0,1,.029-.024.052.052,0,0,1,.038,0C158.827,22.909,165,26.279,165.4,26.5l.128.024-.075-.084c-.237-.134-6.241-3.546-11.054-6.284a.048.048,0,0,1-.019-.067l.047-.084a.049.049,0,0,1,.03-.024.055.055,0,0,1,.038,0c4.913,2.8,11.046,6.28,11.085,6.308l.384.423a.05.05,0,0,1,.007.058.052.052,0,0,1-.043.026h-.011m-.128-.127-.082-.09a.048.048,0,0,1,0,.043.049.049,0,0,1-.034.025Zm-.355-.124,0,.019a.025.025,0,0,0,0-.029.05.05,0,0,1,0,.01m-.013-.034h0" transform="translate(-76.215 -9.896)" fill="#b6001c"/>
      <path id="Path_429" data-name="Path 429" d="M147.461,53.882c.007-.464.541-.837,1.334-1.073l.061-.018,0,.064c0,.137.005.23.006.264.186.288.622.662,1.845.664s1.912-.4,1.963-.62a1.844,1.844,0,0,0,.021-.287l0-.064.061.019c.753.237,1.26.6,1.266,1.052-.021.773-1.489,1.322-3.279,1.329-1.79-.008-3.259-.557-3.28-1.329m.1,0c0,.316.337.632.916.859a7.067,7.067,0,0,0,4.534,0c.58-.228.92-.544.916-.859.006-.356-.428-.709-1.138-.94a1.418,1.418,0,0,1-.022.246c-.1.312-.8.684-2.055.69s-1.733-.4-1.933-.718l-.008-.012v-.013s0-.08,0-.215c-.749.231-1.212.6-1.205.962m5.168-.959.015-.046Z" transform="translate(-73.046 -26.15)" fill="#b6001c"/>
      <path id="Path_430" data-name="Path 430" d="M147.362,53.834h0c.013-.507.573-.881,1.37-1.12l.06-.018a.05.05,0,0,1,.064.046l0,.065c0,.12.005.207.006.249.181.271.6.625,1.8.629h.026c1.207.007,1.866-.419,1.889-.584a1.868,1.868,0,0,0,.02-.273v-.065a.049.049,0,0,1,.02-.04.052.052,0,0,1,.044-.007l.062.019c.757.24,1.288.607,1.3,1.1-.041.838-1.532,1.364-3.329,1.378-1.8-.014-3.288-.54-3.33-1.378m.2,0v0c0,.275.314.584.885.809a7.02,7.02,0,0,0,4.5,0c.571-.225.889-.534.885-.81,0,0,0,0,0-.007v0c.007-.3-.38-.639-1.04-.865a1.077,1.077,0,0,1-.023.193c-.126.356-.837.714-2.1.724h-.008c-1.259,0-1.76-.4-1.968-.74l-.008-.012-.008-.027v-.013l0-.149c-.7.226-1.113.578-1.106.888v0l-.049.005Zm1.21-.752v0Zm-.025-.253a.049.049,0,0,1,.016.019c0-.013,0-.027,0-.041l-.041.013a.044.044,0,0,1,.026.009" transform="translate(-72.997 -26.101)" fill="#b6001c"/>
      <path id="Path_431" data-name="Path 431" d="M150.329,44.134c0-.071.051-.434.051-.436v-.013l.009-.011a2.433,2.433,0,0,1,1.64-.45c.043,0,.087,0,.13,0,.683.032,1.574.162,1.711.462.09.247.121.35.123.351l-.093.028s-.029-.1-.12-.345c-.048-.192-.96-.39-1.625-.4-.041,0-.083,0-.126,0a2.45,2.45,0,0,0-1.556.4c-.008.065-.049.366-.049.413h0Z" transform="translate(-74.467 -21.411)" fill="#b6001c"/>
      <path id="Path_432" data-name="Path 432" d="M150.375,44.137l-.1,0,0-.05h0l0,.05a.05.05,0,0,1-.048-.051c0-.075.046-.394.051-.437l.016,0-.016-.007,0-.012.01-.024.01-.013a2.462,2.462,0,0,1,1.678-.468c.042,0,.087,0,.132,0,.689.04,1.575.143,1.756.5.08.217.115.329.121.347a.05.05,0,0,1,0,.035.049.049,0,0,1-.033.034l-.094.028a.054.054,0,0,1-.038,0,.05.05,0,0,1-.023-.03s-.028-.1-.12-.347c.006-.042-.232-.165-.544-.232a5.252,5.252,0,0,0-1.034-.13l-.126,0h-.017a2.469,2.469,0,0,0-1.49.376c-.011.086-.047.357-.046.391h0a.048.048,0,0,1-.015.035.048.048,0,0,1-.034.014Zm.005-.478,0-.005h0v0m2.966-.254-.11-.03.11.03" transform="translate(-74.417 -21.362)" fill="#b6001c"/>
      <path id="Path_433" data-name="Path 433" d="M151.129,43.835s0,0,0-.007c.041-.31.677-.465,1.445-.476.76.011,1.381.162,1.41.473h-.025l-.022.005.047,0c-.038.31-.674.465-1.443.476-.762-.011-1.383-.163-1.412-.473m.46.254a3.34,3.34,0,0,0,.952.122,3.417,3.417,0,0,0,.966-.124c.245-.072.381-.182.383-.254a.022.022,0,0,1,0-.009c.008-.072-.121-.182-.363-.254a3.318,3.318,0,0,0-.951-.122,3.465,3.465,0,0,0-.967.123c-.239.071-.374.177-.385.263h0s0,0,0,.006c0,.072.129.178.365.249" transform="translate(-74.862 -21.475)" fill="#b6001c"/>
      <path id="Path_434" data-name="Path 434" d="M151.03,43.79l.05-.005-.05.005v-.009a.074.074,0,0,1,0-.021c.081-.364.728-.489,1.493-.508.762.019,1.4.141,1.459.517v0a.031.031,0,0,1,0,.014c-.068.374-.72.5-1.494.52-.764-.02-1.4-.143-1.461-.518m1.462.322a3.4,3.4,0,0,0,.952-.122.617.617,0,0,0,.348-.2.037.037,0,0,1,0-.017V43.77h0c.006-.02-.1-.137-.328-.2a3.29,3.29,0,0,0-.936-.12,3.416,3.416,0,0,0-.953.122.549.549,0,0,0-.346.208.011.011,0,0,1,0,.008V43.8a.545.545,0,0,0,.331.2l-.015.048.015-.048a3.29,3.29,0,0,0,.937.12" transform="translate(-74.813 -21.426)" fill="#b6001c"/>
      <path id="Path_435" data-name="Path 435" d="M115.566,15.94a.1.1,0,0,1-.007-.04c0-.1.079-.3.624-.717.729-.557,4.592-1.8,6.883-2.679a8.93,8.93,0,0,0,3.048-1.755c-.373-.678-3.185-2.487-3.66-2.85-.493-.384-4.084-3.1-4.367-3.386a7.654,7.654,0,0,1-1.263-1.757,1.441,1.441,0,0,1-.134-.642c.009-.746.394-1.589.831-1.609h.023l.015.018a16.757,16.757,0,0,0,1.574,1.737c.488.381,2.673,2.017,3.1,2.288.445.279,3.761,2.722,4.156,3.171a2.8,2.8,0,0,1,.757,1.623,1.1,1.1,0,0,1-.267.732,8.782,8.782,0,0,1-.654.7.18.18,0,0,1,.011.027l.328,2.617-.1.012-.322-2.581a9.086,9.086,0,0,1-3.048,1.747c-2.29.871-6.172,2.133-6.859,2.665-.539.414-.59.605-.586.641l0,0,.008.011v.014a24,24,0,0,0,.271,2.824h0l-.092.03a23.537,23.537,0,0,1-.275-2.841m1.468-14.859a2.418,2.418,0,0,0-.246,1.034,1.338,1.338,0,0,0,.124.6,7.576,7.576,0,0,0,1.244,1.731c.264.266,3.868,3,4.359,3.378.466.367,3.186,2.086,3.668,2.861.242-.231.441-.456.627-.673a1,1,0,0,0,.244-.669,2.726,2.726,0,0,0-.734-1.56c-.367-.422-3.705-2.886-4.135-3.152s-2.618-1.91-3.11-2.294A15.849,15.849,0,0,1,117.5.6c-.147.013-.33.2-.466.478" transform="translate(-57.243 -0.251)" fill="#b6001c"/>
      <path id="Path_436" data-name="Path 436" d="M115.769,18.777a.049.049,0,0,1-.025-.029,23.15,23.15,0,0,1-.277-2.848.154.154,0,0,1-.007-.046v0c.006-.127.1-.33.643-.755.75-.57,4.6-1.81,6.9-2.686a8.948,8.948,0,0,0,3-1.718c-.425-.677-3.158-2.445-3.627-2.8-.494-.385-4.08-3.1-4.371-3.39a7.7,7.7,0,0,1-1.273-1.769,1.489,1.489,0,0,1-.139-.665c.016-.76.382-1.619.882-1.658h.023l.038.019.009.012a16.956,16.956,0,0,0,1.572,1.735c.485.378,2.674,2.018,3.1,2.285.453.285,3.758,2.719,4.167,3.18a2.855,2.855,0,0,1,.77,1.656,1.15,1.15,0,0,1-.279.764c-.187.218-.388.445-.633.68l0,.007.326,2.617a.048.048,0,0,1-.01.037.054.054,0,0,1-.033.019l-.1.012a.048.048,0,0,1-.037-.011.048.048,0,0,1-.019-.033l-.31-2.486a9.3,9.3,0,0,1-2.993,1.694c-2.287.869-6.181,2.139-6.846,2.657-.489.371-.564.565-.568.594v0l.006.016v.013a24.648,24.648,0,0,0,.267,2.8.045.045,0,0,1,0,.015.049.049,0,0,1-.033.055l-.092.031-.016,0a.055.055,0,0,1-.022-.005m-.253-2.886-.05,0,.05,0,.042-.017Zm10.6-5.14a.049.049,0,0,1,.027.024l0-.01a.136.136,0,0,0-.009-.022.05.05,0,0,1,.011-.056l.006-.007a.042.042,0,0,1-.024,0,.04.04,0,0,1-.017-.005.049.049,0,0,1-.012.057l-.016.016a.04.04,0,0,1,.017,0,.054.054,0,0,1,.018,0m-9.088-9.7a2.373,2.373,0,0,0-.242,1.011,1.3,1.3,0,0,0,.119.576,7.565,7.565,0,0,0,1.235,1.719c.255.258,3.865,2.993,4.355,3.374.452.358,3.067,2,3.646,2.823.221-.214.406-.425.58-.628a.952.952,0,0,0,.232-.636v0a2.69,2.69,0,0,0-.721-1.524c-.353-.409-3.7-2.883-4.123-3.142-.446-.282-2.621-1.912-3.114-2.3A15.432,15.432,0,0,1,117.43.607a.82.82,0,0,0-.4.447l-.045-.022Zm.447-.544h0l0,0h-.012l.009,0" transform="translate(-57.194 -0.201)" fill="#b6001c"/>
      <path id="Path_437" data-name="Path 437" d="M118.485,28.564a5.543,5.543,0,0,1-2.25-.713.223.223,0,0,1-.15-.193c.034-.455,1.6-1.145,3.392-1.887s3.781-1.443,4.613-1.77a6.3,6.3,0,0,0,2.816-2.166,8.262,8.262,0,0,0,.262-1.849c.069-.85.11-1.667.11-1.668l.1,0a21.388,21.388,0,0,1-.393,3.572,6.383,6.383,0,0,1-2.856,2.2c-.835.329-2.827,1.044-4.612,1.77-1.781.711-3.366,1.5-3.332,1.8,0,.035.019.068.1.106a5.431,5.431,0,0,0,2.22.7c.872.109,2.558.218,2.56.218l-.007.1s-1.689-.108-2.566-.219" transform="translate(-57.504 -9.073)" fill="#b6001c"/>
      <path id="Path_438" data-name="Path 438" d="M118.429,28.564l.006-.049.007-.046-.007.046-.006.049a5.568,5.568,0,0,1-2.265-.718.271.271,0,0,1-.179-.236s0,0,0-.006h0c.067-.526,1.631-1.174,3.423-1.93,1.788-.728,3.783-1.444,4.613-1.771a6.249,6.249,0,0,0,2.8-2.153,2.478,2.478,0,0,0,.127-.618c.047-.343.09-.78.122-1.2.068-.848.11-1.663.11-1.664a.05.05,0,0,1,.049-.05h.009l.09,0a.048.048,0,0,1,.04.024.046.046,0,0,1,.007.032h0s0,0,0,0v0c0,.006,0,.016,0,.027s0,.06-.006.1c-.005.091-.012.219-.022.375-.018.309-.044.726-.078,1.153a7.19,7.19,0,0,1-.3,1.93,6.44,6.44,0,0,1-2.876,2.211c-.837.33-2.828,1.044-4.612,1.77-.88.35-1.712.721-2.322,1.041s-1,.613-.979.7v.009c0,.012,0,.023.067.061a5.368,5.368,0,0,0,2.206.7c.866.109,2.55.219,2.552.218a.053.053,0,0,1,.037.015.054.054,0,0,1,.013.037l-.006.1a.049.049,0,0,1-.049.046c-.009,0-1.69-.108-2.572-.219m-1.8-1.484c.13-.078.279-.16.445-.251-.167.087-.316.171-.445.251" transform="translate(-57.454 -9.024)" fill="#b6001c"/>
      <path id="Path_439" data-name="Path 439" d="M116.653,39.247a.133.133,0,0,1-.006-.038c.017-.3.74-.99,1.231-1.22s3.6-1.58,4.257-1.8c.331-.109,1.242-.368,2.08-.639a4.944,4.944,0,0,0,1.6-.68l0-.011c.007-.027-.082-.1-.263-.144a4.768,4.768,0,0,0-.686-.118c-.525-.059-1.109-.085-1.355-.113-.355-.039-2.485-.332-3.653-.495l-.765-.106.013-.095.766.1c1.167.163,3.3.457,3.65.494.238.027.827.054,1.354.114s1,.118,1.035.357a.14.14,0,0,1,0,.021c-.069.233-.817.474-1.662.761s-1.754.532-2.078.64c-.649.216-3.761,1.581-4.248,1.8-.457.193-1.19.942-1.174,1.132a.042.042,0,0,0,0,.014c.053.22.6,2.835.6,2.836l-.094.019s-.547-2.618-.6-2.83m2.437-5.365Z" transform="translate(-57.782 -16.737)" fill="#b6001c"/>
      <path id="Path_440" data-name="Path 440" d="M117.157,42.049c-.01-.028-.548-2.618-.6-2.839a.224.224,0,0,1-.007-.054c.033-.351.755-1.017,1.261-1.263.492-.217,3.593-1.578,4.261-1.8.333-.109,1.243-.368,2.081-.639a6.64,6.64,0,0,0,1.561-.639l0,0a.237.237,0,0,0-.039-.029.709.709,0,0,0-.186-.071,4.786,4.786,0,0,0-.678-.116c-.522-.059-1.105-.085-1.354-.113-.358-.039-2.486-.333-3.655-.495l-.756-.1h0a.051.051,0,0,1-.035-.015.049.049,0,0,1-.014-.035h0v-.007l.013-.095a.05.05,0,0,1,.057-.043l.766.106c1.165.162,3.3.456,3.649.494.235.027.826.053,1.356.114.523.083,1.006.095,1.078.406a.233.233,0,0,1,0,.037c-.107.287-.847.5-1.695.793-.84.274-1.756.533-2.078.639-.643.215-3.758,1.58-4.245,1.8a2.838,2.838,0,0,0-1.144,1.079h-.015l.015.007v0c.055.228.6,2.823.6,2.847a.05.05,0,0,1-.04.048l-.095.019h-.01a.049.049,0,0,1-.044-.027M116.6,39.2l.044-.011h0Zm8.69-4.053a3.378,3.378,0,0,0,.331-.155c-.086.045-.2.1-.331.155" transform="translate(-57.733 -16.687)" fill="#b6001c"/>
      <path id="Path_441" data-name="Path 441" d="M118.13,43.279c-.3,0-.461-.087-.463-.253.021-.437,1.081-1.172,1.428-1.314.436-.164,4.2-1.581,4.854-1.8a26.245,26.245,0,0,0,2.712-1.084.537.537,0,0,0,.033-.237,22.362,22.362,0,0,0-.377-2.659h0l.094-.019a22.477,22.477,0,0,1,.378,2.679c0,.152,0,.253-.07.314a25.618,25.618,0,0,1-2.74,1.1c-.651.216-4.417,1.633-4.852,1.8-.311.106-1.386.91-1.365,1.224,0,.081.07.153.367.156h1.2v.1Z" transform="translate(-58.287 -17.79)" fill="#b6001c"/>
      <path id="Path_442" data-name="Path 442" d="M118.082,43.28v0c-.3,0-.508-.092-.513-.3.04-.493,1.1-1.2,1.46-1.358.437-.165,4.2-1.58,4.856-1.8a27.791,27.791,0,0,0,2.689-1.071.22.22,0,0,0,.008-.033.713.713,0,0,0,.014-.143v-.029a22.229,22.229,0,0,0-.375-2.646.048.048,0,0,1,.007-.039.049.049,0,0,1,.033-.022l.094-.019a.052.052,0,0,1,.042.011.049.049,0,0,1,.017.035.071.071,0,0,1,0,.017l.012.063c.011.055.025.133.043.23.035.193.082.458.13.746a12.724,12.724,0,0,1,.19,1.628c-.006.149,0,.265-.09.353A25.265,25.265,0,0,1,123.948,40c-.65.216-4.416,1.633-4.852,1.8-.287.084-1.355.912-1.331,1.167v.009c0,.038.02.1.316.107h1.2a.05.05,0,0,1,.036.015.051.051,0,0,1,.015.035v.1a.049.049,0,0,1-.015.035.05.05,0,0,1-.036.015Z" transform="translate(-58.239 -17.741)" fill="#b6001c"/>
      <path id="Path_443" data-name="Path 443" d="M128.436,47.057a5.3,5.3,0,0,1,2.213-1.322l-.957-1.913.086-.044,1.009,2.015-.054.016a5.578,5.578,0,0,0-2.2,1.278Z" transform="translate(-63.622 -21.686)" fill="#b6001c"/>
      <path id="Path_444" data-name="Path 444" d="M128.464,47.085l-.092-.03.015-.047.044.018-.044-.018-.015.047a.05.05,0,0,1-.031-.066,5.192,5.192,0,0,1,2.189-1.332l-.931-1.862a.05.05,0,0,1,.021-.067l.087-.043a.045.045,0,0,1,.038,0,.052.052,0,0,1,.029.026l1.008,2.015a.049.049,0,0,1-.03.07l-.056.016a5.943,5.943,0,0,0-2.16,1.23c-.008.01-.008.01-.008.011a.051.051,0,0,1-.023.033.056.056,0,0,1-.025.007.054.054,0,0,1-.016,0m2.182-1.38a.054.054,0,0,1-.013.017l.032-.009-.016-.032a.044.044,0,0,1,0,.024" transform="translate(-63.573 -21.637)" fill="#b6001c"/>
      <path id="Path_445" data-name="Path 445" d="M120.747,48.173h0Zm-.063-.072c.43-.375,2.556-2.72,2.559-2.722l.072.064s-2.124,2.342-2.567,2.73Z" transform="translate(-59.782 -22.479)" fill="#b6001c"/>
      <path id="Path_446" data-name="Path 446" d="M120.7,48.174h0a.05.05,0,0,1-.041-.022l-.059-.067.037-.033.03.035-.03-.035-.037.033a.05.05,0,0,1-.013-.037.053.053,0,0,1,.017-.034c.424-.37,2.551-2.714,2.557-2.72a.05.05,0,0,1,.069,0l.071.064a.05.05,0,0,1,.016.04.049.049,0,0,1-.02.037h0l-.018.019-.069.075-.247.271c-.205.226-.484.53-.778.848-.583.63-1.218,1.306-1.449,1.509a.047.047,0,0,1-.037.017Z" transform="translate(-59.733 -22.43)" fill="#b6001c"/>
      <path id="Path_447" data-name="Path 447" d="M119.145,4.629l.928-1.909.087.042-.928,1.909Z" transform="translate(-59.019 -1.347)" fill="#b6001c"/>
      <path id="Path_448" data-name="Path 448" d="M119.16,4.666l-.086-.042.022-.045.044.022-.044-.022-.022.045a.051.051,0,0,1-.026-.028.048.048,0,0,1,0-.038l.928-1.909a.05.05,0,0,1,.067-.023l.086.041a.05.05,0,0,1,.023.066l-.928,1.909a.05.05,0,0,1-.028.026.043.043,0,0,1-.016,0,.07.07,0,0,1-.023,0" transform="translate(-58.97 -1.298)" fill="#b6001c"/>
      <path id="Path_449" data-name="Path 449" d="M122.61,7.916l1.2-1.964.082.05-1.2,1.963Z" transform="translate(-60.736 -2.949)" fill="#b6001c"/>
      <path id="Path_450" data-name="Path 450" d="M122.618,7.959l-.083-.05.026-.042.043.026-.043-.026-.026.042a.049.049,0,0,1-.016-.068l1.2-1.964a.05.05,0,0,1,.069-.016l.082.05a.049.049,0,0,1,.023.032.05.05,0,0,1-.007.037l-1.2,1.962a.049.049,0,0,1-.031.023l-.012,0a.049.049,0,0,1-.026-.008" transform="translate(-60.687 -2.9)" fill="#b6001c"/>
      <path id="Path_451" data-name="Path 451" d="M127.149,11.367,128.512,9.4l.08.055-1.365,1.964Z" transform="translate(-62.984 -4.658)" fill="#b6001c"/>
      <path id="Path_452" data-name="Path 452" d="M127.15,11.414l-.079-.056.029-.041.041.029-.041-.029-.029.041a.05.05,0,0,1-.013-.069l1.364-1.964a.05.05,0,0,1,.069-.013l.08.055a.048.048,0,0,1,.021.032.053.053,0,0,1-.008.038L127.22,11.4a.052.052,0,0,1-.033.02h-.009a.047.047,0,0,1-.028-.009" transform="translate(-62.935 -4.609)" fill="#b6001c"/>
      <rect id="Rectangle_22" data-name="Rectangle 22" width="2.254" height="0.096" transform="matrix(0.532, -0.847, 0.847, 0.532, 66.509, 8.401)" fill="#b6001c"/>
      <path id="Path_453" data-name="Path 453" d="M131.8,14.818l-.082-.051.027-.042.042.027-.042-.027-.027.042a.049.049,0,0,1-.022-.031.046.046,0,0,1,.007-.037l1.2-1.909a.05.05,0,0,1,.069-.015l.081.051a.05.05,0,0,1,.015.069l-1.2,1.908a.052.052,0,0,1-.042.023.047.047,0,0,1-.026-.008" transform="translate(-65.237 -6.325)" fill="#b6001c"/>
      <path id="Path_454" data-name="Path 454" d="M131.89,23.724l.093-.03.816,2.564-.091.028Z" transform="translate(-65.333 -11.737)" fill="#b6001c"/>
      <path id="Path_455" data-name="Path 455" d="M132.611,26.253l-.818-2.563.048-.015.016.047-.016-.047-.048.015a.05.05,0,0,1,.032-.062l.093-.029a.05.05,0,0,1,.062.032l.817,2.563a.05.05,0,0,1,0,.038.049.049,0,0,1-.03.024l-.092.029-.015,0a.05.05,0,0,1-.048-.034" transform="translate(-65.284 -11.689)" fill="#b6001c"/>
      <path id="Path_456" data-name="Path 456" d="M125.736,26.1l.09-.035,1.036,2.618-.089.035Z" transform="translate(-62.284 -12.912)" fill="#b6001c"/>
      <path id="Path_457" data-name="Path 457" d="M126.676,28.689l-1.037-2.619.047-.018.018.046-.018-.046-.047.018a.043.043,0,0,1,0-.038.045.045,0,0,1,.027-.027l.089-.034a.049.049,0,0,1,.065.027l1.037,2.618a.052.052,0,0,1,0,.039.046.046,0,0,1-.028.026l-.089.035a.061.061,0,0,1-.019,0,.05.05,0,0,1-.046-.031" transform="translate(-62.235 -12.863)" fill="#b6001c"/>
      <rect id="Rectangle_23" data-name="Rectangle 23" width="0.096" height="2.779" transform="matrix(0.962, -0.275, 0.275, 0.962, 60.67, 14.22)" fill="#b6001c"/>
      <path id="Path_458" data-name="Path 458" d="M120.914,30.82a.052.052,0,0,1-.024-.03l-.762-2.672.048-.014.014.048-.014-.048-.048.014a.049.049,0,0,1,.034-.062l.092-.026a.05.05,0,0,1,.062.034l.762,2.672a.049.049,0,0,1-.033.062l-.093.027-.015,0a.048.048,0,0,1-.023-.006" transform="translate(-59.505 -13.884)" fill="#b6001c"/>
      <rect id="Rectangle_24" data-name="Rectangle 24" width="0.097" height="2.829" transform="matrix(0.945, -0.327, 0.327, 0.945, 64.869, 19.404)" fill="#b6001c"/>
      <path id="Path_459" data-name="Path 459" d="M129.4,41.089a.05.05,0,0,1-.025-.029l-.927-2.674.047-.015.016.047-.016-.047-.047.015a.05.05,0,0,1,.031-.063l.091-.031a.05.05,0,0,1,.064.03L129.559,41a.051.051,0,0,1-.031.064l-.091.031a.047.047,0,0,1-.016,0,.062.062,0,0,1-.022-.005" transform="translate(-63.626 -18.967)" fill="#b6001c"/>
      <path id="Path_460" data-name="Path 460" d="M122.6,40.8l.091-.03.872,2.561-.091.031Z" transform="translate(-60.732 -20.195)" fill="#b6001c"/>
      <path id="Path_461" data-name="Path 461" d="M123.378,43.327l-.872-2.562.047-.016.016.047-.016-.047-.047.016a.052.052,0,0,1,0-.038.048.048,0,0,1,.029-.025l.091-.031a.051.051,0,0,1,.064.031l.872,2.561a.047.047,0,0,1,0,.038.051.051,0,0,1-.029.025l-.092.031a.042.042,0,0,1-.015,0,.05.05,0,0,1-.047-.034" transform="translate(-60.683 -20.146)" fill="#b6001c"/>
      <rect id="Rectangle_25" data-name="Rectangle 25" width="0.096" height="2.727" transform="translate(67.416 18.583) rotate(-12.137)" fill="#b6001c"/>
      <path id="Path_462" data-name="Path 462" d="M134.087,39.462a.05.05,0,0,1-.022-.032l-.543-2.672.049-.01.011.048-.011-.048-.049.01a.052.052,0,0,1,.04-.059l.094-.02a.047.047,0,0,1,.037.007.048.048,0,0,1,.022.032l.544,2.673a.053.053,0,0,1-.008.037.05.05,0,0,1-.032.021l-.094.019-.01,0a.048.048,0,0,1-.027-.008" transform="translate(-66.141 -18.169)" fill="#b6001c"/>
      <path id="Path_463" data-name="Path 463" d="M117.844,42.958l.094-.025.708,2.673-.093.025Z" transform="translate(-58.375 -21.267)" fill="#b6001c"/>
      <path id="Path_464" data-name="Path 464" d="M118.478,45.626a.052.052,0,0,1-.023-.03l-.709-2.673.048-.013.013.048-.013-.048-.048.013a.05.05,0,0,1,.035-.061l.093-.025a.05.05,0,0,1,.061.035l.709,2.673a.044.044,0,0,1-.005.037.049.049,0,0,1-.03.024l-.095.025-.012,0a.057.057,0,0,1-.025-.007" transform="translate(-58.326 -21.218)" fill="#b6001c"/>
      <path id="Path_465" data-name="Path 465" d="M129.538,44.254l.07-.067,1.69,1.745-.069.068Z" transform="translate(-64.168 -21.888)" fill="#b6001c"/>
      <path id="Path_466" data-name="Path 466" d="M131.179,46a.056.056,0,0,1-.035-.014l-1.69-1.747.036-.034.035.036-.035-.036-.036.034a.05.05,0,0,1-.014-.035.046.046,0,0,1,.016-.035l.069-.067a.05.05,0,0,1,.071,0l1.69,1.746a.046.046,0,0,1,.013.035.049.049,0,0,1-.015.035l-.069.068a.049.049,0,0,1-.035.014h0Z" transform="translate(-64.119 -21.839)" fill="#b6001c"/>
      <path id="Path_467" data-name="Path 467" d="M124.694,46.851l.049-.083,2.291,1.362-.049.082Z" transform="translate(-61.768 -23.167)" fill="#b6001c"/>
      <path id="Path_468" data-name="Path 468" d="M126.91,48.206l-2.291-1.361.026-.043.043.026-.043-.026-.026.043a.049.049,0,0,1-.022-.031.05.05,0,0,1,.006-.038l.049-.083a.05.05,0,0,1,.069-.018l2.291,1.362a.051.051,0,0,1,.023.031.049.049,0,0,1-.007.038l-.048.082a.049.049,0,0,1-.043.024.055.055,0,0,1-.026-.007" transform="translate(-61.719 -23.118)" fill="#b6001c"/>
      <path id="Path_469" data-name="Path 469" d="M122.275,36.37l.326-2.293.1.014-.326,2.293Z" transform="translate(-60.57 -16.88)" fill="#b6001c"/>
      <path id="Path_470" data-name="Path 470" d="M122.313,36.383l-.1-.014.007-.049.05.007-.05-.007-.007.049a.05.05,0,0,1-.042-.057l.328-2.293a.051.051,0,0,1,.057-.043l.1.015a.049.049,0,0,1,.042.056l-.327,2.293a.049.049,0,0,1-.021.033.044.044,0,0,1-.028.01h-.008" transform="translate(-60.52 -16.83)" fill="#b6001c"/>
      <path id="Path_471" data-name="Path 471" d="M128.11,36.634l.326-1.692.095.019-.326,1.691Z" transform="translate(-63.46 -17.309)" fill="#b6001c"/>
      <path id="Path_472" data-name="Path 472" d="M128.147,36.652l-.1-.018.009-.049.049.01-.049-.01-.009.049a.055.055,0,0,1-.033-.021.05.05,0,0,1-.008-.038l.327-1.692a.049.049,0,0,1,.058-.04l.1.019a.052.052,0,0,1,.04.058l-.326,1.692a.051.051,0,0,1-.049.04h-.009" transform="translate(-63.411 -17.26)" fill="#b6001c"/>
      <path id="Path_473" data-name="Path 473" d="M180.094,18.751a23.513,23.513,0,0,0,.272-2.823v-.014l.007-.01v0c0-.036-.049-.227-.588-.64-.688-.532-4.57-1.794-6.858-2.666a9.084,9.084,0,0,1-3.048-1.746l-.3,2.5-.1-.012.311-2.547c0-.006,0-.012.006-.017a9.026,9.026,0,0,1-.652-.7,1.1,1.1,0,0,1-.267-.732,2.794,2.794,0,0,1,.757-1.623c.4-.449,3.711-2.891,4.156-3.17s2.615-1.908,3.1-2.289A16.4,16.4,0,0,0,178.466.524l.015-.018h.023c.439.019.822.862.831,1.608a1.442,1.442,0,0,1-.134.642,7.564,7.564,0,0,1-1.262,1.756c-.283.284-3.874,3-4.368,3.387-.475.365-3.3,2.185-3.661,2.848a8.918,8.918,0,0,0,3.05,1.758c2.29.875,6.152,2.123,6.882,2.679.545.421.622.618.626.717a.134.134,0,0,1-.007.04,22.95,22.95,0,0,1-.275,2.841h0ZM176.953,2.337c-.494.383-2.671,2.016-3.113,2.294-.427.266-3.764,2.73-4.135,3.152a2.723,2.723,0,0,0-.733,1.559,1,1,0,0,0,.244.669c.186.216.385.441.625.672.47-.765,3.205-2.492,3.671-2.86.49-.382,4.094-3.112,4.358-3.378a7.578,7.578,0,0,0,1.245-1.731,1.359,1.359,0,0,0,.123-.6,2.431,2.431,0,0,0-.245-1.032c-.138-.28-.32-.465-.467-.478a16.084,16.084,0,0,1-1.574,1.733" transform="translate(-83.654 -0.251)" fill="#b6001c"/>
      <path id="Path_474" data-name="Path 474" d="M180.121,18.779l-.092-.031.016-.047.044.015-.044-.015-.016.047a.051.051,0,0,1-.029-.025.049.049,0,0,1,0-.038,23.875,23.875,0,0,0,.268-2.81v-.013l.005-.014c0-.007-.046-.2-.569-.6-.666-.519-4.559-1.789-6.845-2.658a9.293,9.293,0,0,1-2.992-1.692l-.293,2.4a.049.049,0,0,1-.018.032.048.048,0,0,1-.037.011l-.1-.012a.053.053,0,0,1-.034-.019.049.049,0,0,1-.01-.037l.311-2.541a9.239,9.239,0,0,1-.634-.682,1.147,1.147,0,0,1-.28-.765,2.834,2.834,0,0,1,.77-1.656c.411-.461,3.714-2.895,4.166-3.179.426-.266,2.613-1.906,3.1-2.285A16.34,16.34,0,0,0,178.373.449a.032.032,0,0,0-.005.014l.009-.02.016-.018.038-.019h.026c.5.039.863.9.878,1.658a1.484,1.484,0,0,1-.138.664A7.655,7.655,0,0,1,177.925,4.5c-.293.292-3.878,3.006-4.373,3.391-.469.356-3.217,2.137-3.629,2.8a8.968,8.968,0,0,0,3,1.721c2.292.877,6.142,2.116,6.895,2.686.548.424.638.627.645.756a.176.176,0,0,1-.007.05,23.135,23.135,0,0,1-.276,2.843.053.053,0,0,1-.02.03.049.049,0,0,1-.029.009.043.043,0,0,1-.016,0m-10.335-8.007a.047.047,0,0,1,.025-.021.05.05,0,0,1,.035,0l-.02-.019a.05.05,0,0,1-.012-.057.065.065,0,0,1-.017.006.051.051,0,0,1-.026,0l.007.007a.05.05,0,0,1,.012.058s0,.007,0,0Zm-.813-1.481a.939.939,0,0,0,.232.637c.175.2.359.412.579.627.569-.808,3.2-2.462,3.648-2.822.49-.379,4.1-3.116,4.354-3.374a7.517,7.517,0,0,0,1.235-1.718,1.306,1.306,0,0,0,.118-.577,2.373,2.373,0,0,0-.24-1.011.823.823,0,0,0-.4-.446,15.6,15.6,0,0,1-1.564,1.719c-.5.385-2.669,2.015-3.116,2.3-.421.259-3.768,2.734-4.124,3.143a2.678,2.678,0,0,0-.721,1.523h-.032ZM178.455.506l0,0,0,0,.013-.006Zm-.081-.057h0m0,0v0" transform="translate(-83.605 -0.201)" fill="#b6001c"/>
      <path id="Path_475" data-name="Path 475" d="M175.085,28.729s1.87-.152,2.74-.26a5.448,5.448,0,0,0,2.221-.7c.076-.039.095-.072.095-.107.035-.3-1.551-1.086-3.332-1.8-1.784-.727-3.777-1.442-4.613-1.77a6.4,6.4,0,0,1-2.857-2.2,21.681,21.681,0,0,1-.392-3.572l.1,0s.041.817.109,1.668a8.312,8.312,0,0,0,.261,1.848A6.307,6.307,0,0,0,172.232,24c.833.327,2.827,1.043,4.613,1.77,1.789.743,3.357,1.432,3.392,1.886a.223.223,0,0,1-.15.194,5.526,5.526,0,0,1-2.251.713c-.874.11-2.743.262-2.743.262Z" transform="translate(-83.69 -9.073)" fill="#b6001c"/>
      <path id="Path_476" data-name="Path 476" d="M175.02,28.819a.05.05,0,0,1-.026-.039l-.009-.1.05,0,.005.046-.005-.046-.05,0a.051.051,0,0,1,.044-.055c.007,0,1.871-.151,2.74-.26a5.386,5.386,0,0,0,2.205-.7c.07-.038.066-.051.069-.067v0c.02-.088-.367-.39-.979-.7s-1.442-.689-2.322-1.041c-1.783-.727-3.776-1.441-4.611-1.77a6.447,6.447,0,0,1-2.879-2.213,7.188,7.188,0,0,1-.292-1.909c-.066-.826-.1-1.627-.109-1.683v0a.051.051,0,0,1,.046-.058l.1-.006a.05.05,0,0,1,.05.034c.006.031.043.823.112,1.68.032.421.074.858.121,1.2a2.358,2.358,0,0,0,.13.62,6.258,6.258,0,0,0,2.8,2.151c.832.327,2.826,1.043,4.614,1.771,1.791.755,3.355,1.4,3.423,1.933v.006a.279.279,0,0,1-.178.232,5.571,5.571,0,0,1-2.267.718c-.873.11-2.739.261-2.741.261h-.008a.049.049,0,0,1-.025-.007m4.6-1.722c-.142-.089-.31-.184-.5-.282.189.1.357.2.5.282" transform="translate(-83.641 -9.024)" fill="#b6001c"/>
      <path id="Path_477" data-name="Path 477" d="M180.967,42.057s.545-2.615.6-2.831a.127.127,0,0,0,0-.018c.016-.191-.715-.939-1.172-1.133-.489-.217-3.6-1.581-4.249-1.8-.325-.108-1.239-.367-2.079-.64s-1.592-.529-1.66-.752a.089.089,0,0,1-.005-.03c.038-.239.508-.282,1.036-.357s1.117-.087,1.355-.114c.349-.038,2.484-.332,3.651-.494l.762-.105.014.1-.761.105c-1.169.163-3.3.456-3.655.495a15.913,15.913,0,0,0-2.042.23c-.182.046-.27.118-.263.145h-.008l.009.006a4.806,4.806,0,0,0,1.6.685c.837.272,1.749.531,2.078.64.661.222,3.765,1.583,4.259,1.8s1.213.919,1.23,1.221a.268.268,0,0,1,0,.036c-.053.213-.6,2.83-.6,2.833Z" transform="translate(-85.401 -16.736)" fill="#b6001c"/>
      <path id="Path_478" data-name="Path 478" d="M181,42.077l-.095-.02.011-.048.04.029-.04-.029-.011.048a.05.05,0,0,1-.036-.031.053.053,0,0,1,0-.029h0l0,0v0c0-.005,0-.012,0-.022l.018-.083c.014-.072.036-.175.062-.3.051-.249.122-.582.193-.922.143-.681.292-1.387.319-1.492a.086.086,0,0,0,0-.013v0a2.833,2.833,0,0,0-1.143-1.08c-.49-.216-3.6-1.582-4.246-1.8-.322-.107-1.238-.367-2.079-.64-.847-.3-1.587-.506-1.691-.784a.145.145,0,0,1-.007-.053c.071-.3.554-.316,1.079-.4.531-.06,1.12-.087,1.356-.113.347-.037,2.483-.331,3.65-.494.458-.064.754-.105.769-.106a.051.051,0,0,1,.05.043l.013.1a.05.05,0,0,1-.042.056l-.762.105c-1.169.162-3.3.456-3.656.494a16.057,16.057,0,0,0-2.034.229.558.558,0,0,0-.225.1.088.088,0,0,0,.017.015.525.525,0,0,0,.091.06,3.44,3.44,0,0,0,.35.167c.294.126.692.271,1.1.4.836.272,1.747.53,2.078.639.668.225,3.769,1.585,4.265,1.8.505.245,1.226.912,1.258,1.266a.224.224,0,0,1-.006.047c-.052.21-.6,2.83-.6,2.83a.051.051,0,0,1-.048.041l-.011,0m-8.043-6.917c-.157-.066-.29-.128-.385-.18a3.248,3.248,0,0,0,.385.18m-.412-.2-.014-.01.014.01m-.007-.294c.032-.014.07-.027.114-.041a.911.911,0,0,0-.114.041" transform="translate(-85.353 -16.688)" fill="#b6001c"/>
      <path id="Path_479" data-name="Path 479" d="M179.119,43.279v-.1h1.2c.3,0,.365-.075.366-.156.02-.313-1.054-1.118-1.365-1.223-.436-.164-4.2-1.581-4.851-1.8a25.436,25.436,0,0,1-2.74-1.1c-.068-.062-.067-.161-.071-.313a22.485,22.485,0,0,1,.38-2.68h0l.094.018a22.491,22.491,0,0,0-.377,2.66.527.527,0,0,0,.031.236,26.413,26.413,0,0,0,2.714,1.084c.657.219,4.418,1.635,4.855,1.8.345.141,1.405.878,1.425,1.314,0,.166-.161.252-.461.253Z" transform="translate(-85.031 -17.79)" fill="#b6001c"/>
      <path id="Path_480" data-name="Path 480" d="M180.268,43.281h-1.2v-.049h0v.049a.05.05,0,0,1-.036-.014.053.053,0,0,1-.014-.035v-.1a.053.053,0,0,1,.014-.035.048.048,0,0,1,.036-.015h1.2c.295-.009.316-.069.315-.11v-.006c.024-.255-1.045-1.084-1.332-1.168-.435-.164-4.2-1.582-4.849-1.8a24.867,24.867,0,0,1-2.759-1.109c-.089-.085-.082-.2-.087-.35a22,22,0,0,1,.379-2.683.052.052,0,0,1,.028-.041.049.049,0,0,1,.039,0l.087.017a.049.049,0,0,1,.04.048,23.032,23.032,0,0,0-.377,2.658h-.029l.029,0c0,.01,0,.02,0,.028a.611.611,0,0,0,.021.173,27.83,27.83,0,0,0,2.691,1.07c.66.22,4.419,1.635,4.857,1.8.359.156,1.416.865,1.457,1.36,0,.207-.2.3-.5.3Z" transform="translate(-84.982 -17.742)" fill="#b6001c"/>
      <path id="Path_481" data-name="Path 481" d="M174.369,45.81l-.055-.017,1.007-2.015.086.043-.957,1.913a5.294,5.294,0,0,1,2.212,1.323l-.091.03a5.571,5.571,0,0,0-2.2-1.277" transform="translate(-86.348 -21.686)" fill="#b6001c"/>
      <path id="Path_482" data-name="Path 482" d="M176.5,47.081a.047.047,0,0,1-.024-.032s0,0-.008-.011a.431.431,0,0,0-.037-.041,1.787,1.787,0,0,0-.142-.126,5.345,5.345,0,0,0-.5-.357,5.952,5.952,0,0,0-1.481-.7l.014-.048-.015.047-.055-.017a.052.052,0,0,1-.032-.028.054.054,0,0,1,0-.042l1.008-2.014a.049.049,0,0,1,.044-.028l.022.006.086.042a.055.055,0,0,1,.025.029.054.054,0,0,1,0,.038l-.931,1.862a5.17,5.17,0,0,1,2.188,1.333.054.054,0,0,1,0,.04.05.05,0,0,1-.029.026l-.092.03a.038.038,0,0,1-.015,0,.05.05,0,0,1-.025-.007m-2.128-1.357a.05.05,0,0,1-.014-.019.044.044,0,0,1,0-.024l-.016.033.034.01" transform="translate(-86.299 -21.637)" fill="#b6001c"/>
      <path id="Path_483" data-name="Path 483" d="M181.509,45.444l.07-.066s2.131,2.347,2.56,2.723l-.063.072c-.442-.388-2.567-2.729-2.567-2.729" transform="translate(-89.912 -22.478)" fill="#b6001c"/>
      <path id="Path_484" data-name="Path 484" d="M183.994,48.161c-.453-.4-2.561-2.718-2.579-2.745l.043-.022.035.036-.035-.036-.043.022a.05.05,0,0,1,.011-.059l.071-.065a.049.049,0,0,1,.064,0c.017.015,2.129,2.343,2.561,2.722a.067.067,0,0,1,.015.02.051.051,0,0,1-.008.053l-.064.072a.047.047,0,0,1-.035.018h0a.045.045,0,0,1-.032-.013m-2.494-2.8h0m0,0h0Z" transform="translate(-89.862 -22.429)" fill="#b6001c"/>
      <path id="Path_485" data-name="Path 485" d="M186.25,2.761l.087-.042.927,1.909-.087.042Z" transform="translate(-92.26 -1.347)" fill="#b6001c"/>
      <path id="Path_486" data-name="Path 486" d="M187.112,4.667a.046.046,0,0,1-.028-.026l-.928-1.909.045-.021.021.044-.021-.044-.045.021a.049.049,0,0,1,.023-.066l.086-.041a.047.047,0,0,1,.038,0,.054.054,0,0,1,.029.026l.927,1.909a.047.047,0,0,1-.022.066l-.087.043a.065.065,0,0,1-.022,0,.041.041,0,0,1-.016,0" transform="translate(-92.211 -1.297)" fill="#b6001c"/>
      <path id="Path_487" data-name="Path 487" d="M182.257,6l.082-.051,1.2,1.964-.082.051Z" transform="translate(-90.282 -2.949)" fill="#b6001c"/>
      <path id="Path_488" data-name="Path 488" d="M183.4,7.965a.048.048,0,0,1-.031-.023l-1.2-1.963.043-.026.026.042-.026-.042-.043.026a.05.05,0,0,1,.017-.068l.082-.051a.048.048,0,0,1,.068.017l1.2,1.964a.058.058,0,0,1,.007.038.052.052,0,0,1-.023.03l-.082.05a.049.049,0,0,1-.027.008l-.012,0" transform="translate(-90.233 -2.899)" fill="#b6001c"/>
      <rect id="Rectangle_26" data-name="Rectangle 26" width="0.096" height="2.39" transform="translate(89.522 4.8) rotate(-34.695)" fill="#b6001c"/>
      <path id="Path_489" data-name="Path 489" d="M178.7,11.422a.048.048,0,0,1-.031-.02L177.3,9.437l.041-.028.028.041-.028-.041-.041.028a.05.05,0,0,1,.013-.07l.079-.055a.049.049,0,0,1,.069.013l1.362,1.964a.052.052,0,0,1-.013.07l-.08.055a.042.042,0,0,1-.027.009H178.7" transform="translate(-87.825 -4.609)" fill="#b6001c"/>
      <path id="Path_490" data-name="Path 490" d="M173.071,12.917l.081-.051,1.2,1.909-.081.051Z" transform="translate(-85.732 -6.373)" fill="#b6001c"/>
      <path id="Path_491" data-name="Path 491" d="M174.211,14.825a.05.05,0,0,1-.031-.022l-1.2-1.909.042-.026.027.042-.027-.042-.042.026a.05.05,0,0,1,.016-.069l.081-.051a.046.046,0,0,1,.038-.007.053.053,0,0,1,.032.022l1.2,1.909a.048.048,0,0,1-.015.068l-.081.051a.05.05,0,0,1-.027.008h-.011" transform="translate(-85.683 -6.324)" fill="#b6001c"/>
      <path id="Path_492" data-name="Path 492" d="M173.708,26.257l.819-2.563.092.03-.818,2.563Z" transform="translate(-86.047 -11.737)" fill="#b6001c"/>
      <path id="Path_493" data-name="Path 493" d="M173.736,26.284l-.092-.029.015-.047.047.016-.047-.016-.015.047a.048.048,0,0,1-.032-.062l.817-2.564a.058.058,0,0,1,.025-.029.049.049,0,0,1,.038,0l.092.03a.05.05,0,0,1,.033.062l-.819,2.563a.05.05,0,0,1-.025.029.046.046,0,0,1-.023.006l-.016,0" transform="translate(-85.999 -11.688)" fill="#b6001c"/>
      <path id="Path_494" data-name="Path 494" d="M179.438,28.684l1.036-2.619.09.036-1.036,2.618Z" transform="translate(-88.886 -12.912)" fill="#b6001c"/>
      <path id="Path_495" data-name="Path 495" d="M179.461,28.716l-.09-.035.018-.047.047.019-.047-.019-.018.047a.047.047,0,0,1-.027-.027.05.05,0,0,1,0-.039L180.379,26a.049.049,0,0,1,.064-.028l.09.036a.05.05,0,0,1,.028.065l-1.036,2.618a.051.051,0,0,1-.047.031.054.054,0,0,1-.018,0" transform="translate(-88.837 -12.863)" fill="#b6001c"/>
      <path id="Path_496" data-name="Path 496" d="M185.486,30.8l.763-2.672.093.026-.764,2.672Z" transform="translate(-91.882 -13.933)" fill="#b6001c"/>
      <path id="Path_497" data-name="Path 497" d="M185.516,30.824l-.094-.026.014-.048.047.014-.047-.014-.014.048a.052.052,0,0,1-.03-.024.047.047,0,0,1,0-.038l.763-2.672a.05.05,0,0,1,.062-.035l.093.026a.046.046,0,0,1,.029.024.05.05,0,0,1,.005.038l-.763,2.672a.051.051,0,0,1-.049.037l-.013,0" transform="translate(-91.832 -13.884)" fill="#b6001c"/>
      <path id="Path_498" data-name="Path 498" d="M176.844,41.06l.927-2.673.09.032-.927,2.673Z" transform="translate(-87.601 -19.015)" fill="#b6001c"/>
      <path id="Path_499" data-name="Path 499" d="M176.87,41.09l-.09-.032.017-.047.047.017-.047-.017-.017.047a.05.05,0,0,1-.031-.064l.927-2.672a.05.05,0,0,1,.064-.031l.09.031a.049.049,0,0,1,.03.063l-.927,2.673a.049.049,0,0,1-.025.03.07.07,0,0,1-.022,0,.049.049,0,0,1-.017,0" transform="translate(-87.552 -18.967)" fill="#b6001c"/>
      <path id="Path_500" data-name="Path 500" d="M182.893,43.33l.873-2.561.093.031-.875,2.561Z" transform="translate(-90.598 -20.195)" fill="#b6001c"/>
      <path id="Path_501" data-name="Path 501" d="M182.919,43.358l-.09-.031.015-.047.047.016-.047-.016-.015.047a.048.048,0,0,1-.029-.025.051.051,0,0,1,0-.038l.874-2.562a.05.05,0,0,1,.063-.031l.091.031a.048.048,0,0,1,.029.025.049.049,0,0,1,0,.038l-.875,2.561a.05.05,0,0,1-.025.029.046.046,0,0,1-.038,0" transform="translate(-90.548 -20.146)" fill="#b6001c"/>
      <rect id="Rectangle_27" data-name="Rectangle 27" width="2.727" height="0.096" transform="translate(87.06 21.232) rotate(-78.474)" fill="#b6001c"/>
      <path id="Path_502" data-name="Path 502" d="M172.555,39.47l-.095-.019.01-.049.048.01-.048-.01-.01.049a.048.048,0,0,1-.032-.021.053.053,0,0,1-.007-.038l.545-2.673a.049.049,0,0,1,.021-.031.051.051,0,0,1,.038-.007l.094.019a.05.05,0,0,1,.039.059l-.545,2.673a.058.058,0,0,1-.021.032.06.06,0,0,1-.028.008l-.009,0" transform="translate(-85.41 -18.169)" fill="#b6001c"/>
      <path id="Path_503" data-name="Path 503" d="M187.971,45.606l.708-2.673.094.025-.71,2.672Z" transform="translate(-93.113 -21.268)" fill="#b6001c"/>
      <path id="Path_504" data-name="Path 504" d="M188,45.629l-.093-.025.013-.047.048.012-.048-.012-.013.047a.049.049,0,0,1-.035-.061l.708-2.672a.05.05,0,0,1,.061-.036l.093.025a.048.048,0,0,1,.031.023.05.05,0,0,1,0,.038l-.709,2.673a.05.05,0,0,1-.023.03.049.049,0,0,1-.025.007l-.012,0" transform="translate(-93.064 -21.218)" fill="#b6001c"/>
      <path id="Path_505" data-name="Path 505" d="M174.382,45.932l1.688-1.745.07.067L174.451,46Z" transform="translate(-86.381 -21.888)" fill="#b6001c"/>
      <path id="Path_506" data-name="Path 506" d="M174.368,45.986l-.07-.068.035-.035.035.034-.035-.034-.035.035a.05.05,0,0,1,0-.07l1.69-1.745a.05.05,0,0,1,.07,0l.069.067a.05.05,0,0,1,.015.036.051.051,0,0,1-.014.035l-1.689,1.746A.054.054,0,0,1,174.4,46h0a.05.05,0,0,1-.034-.015" transform="translate(-86.332 -21.839)" fill="#b6001c"/>
      <path id="Path_507" data-name="Path 507" d="M178.072,48.131l2.291-1.362.049.083-2.291,1.362Z" transform="translate(-88.209 -23.167)" fill="#b6001c"/>
      <path id="Path_508" data-name="Path 508" d="M178.03,48.188l-.049-.082.043-.025.024.042-.024-.042-.043.025a.055.055,0,0,1-.006-.038.048.048,0,0,1,.022-.031l2.291-1.362a.05.05,0,0,1,.069.018l.05.083a.052.052,0,0,1,.006.038.044.044,0,0,1-.024.031l-2.29,1.361a.047.047,0,0,1-.025.007.05.05,0,0,1-.043-.024" transform="translate(-88.161 -23.118)" fill="#b6001c"/>
      <path id="Path_509" data-name="Path 509" d="M184.3,34.09l.095-.013.326,2.293-.1.013Z" transform="translate(-91.293 -16.88)" fill="#b6001c"/>
      <path id="Path_510" data-name="Path 510" d="M184.542,36.374a.046.046,0,0,1-.019-.033l-.325-2.293.05-.007.006.049-.006-.049-.05.007a.049.049,0,0,1,.043-.056l.095-.014a.05.05,0,0,1,.056.042l.326,2.293a.043.043,0,0,1-.01.036.047.047,0,0,1-.033.02l-.1.013h-.008a.049.049,0,0,1-.029-.01" transform="translate(-91.243 -16.831)" fill="#b6001c"/>
      <rect id="Rectangle_28" data-name="Rectangle 28" width="0.097" height="1.722" transform="matrix(0.983, -0.186, 0.186, 0.983, 90.061, 17.652)" fill="#b6001c"/>
      <path id="Path_511" data-name="Path 511" d="M178.71,36.645a.045.045,0,0,1-.021-.032l-.326-1.691.048-.01.011.049-.011-.049-.048.01a.049.049,0,0,1,.04-.059l.094-.018a.05.05,0,0,1,.059.039l.326,1.691a.051.051,0,0,1-.007.037.052.052,0,0,1-.033.021l-.094.019h-.01a.045.045,0,0,1-.027-.008" transform="translate(-88.353 -17.26)" fill="#b6001c"/>
      <path id="Path_512" data-name="Path 512" d="M149.975,49.15l-.008-.012v-.013c-.017-.592-.054-2.184-.054-2.847,0-.1,0-.177,0-.228,0-.028,0-.056,0-.084,0-.238-.034-.524-.034-.75,0-.2.02-.392.194-.4a.217.217,0,0,1,.043.006l.033.008.005.033c.07.531.49.59,1.742.614h.089c1.17,0,1.579-.391,1.714-.708l.029-.068.051.054a1.559,1.559,0,0,1,.167.212l.006.011v.014s.021,1.663.021,2.958c0,.347,0,.667-.006.923h.016v0a1.7,1.7,0,0,1-.024.306c-.1.312-.8.684-2.056.689H151.9c-1.247,0-1.723-.4-1.924-.717m1.933.622c1.223.006,1.9-.394,1.962-.615.009-.271.011-.714.011-1.213,0-1.226-.018-2.782-.02-2.944a1.454,1.454,0,0,0-.1-.133c-.181.344-.657.7-1.771.7h-.09c-1.207-.018-1.726-.077-1.831-.659-.053.01-.089.106-.089.307,0,.217.034.5.034.75,0,.03,0,.057,0,.087,0,.049,0,.127,0,.225,0,.574.029,1.854.047,2.567h0l.006.263c.186.29.621.663,1.844.664" transform="translate(-74.246 -22.14)" fill="#b6001c"/>
      <path id="Path_513" data-name="Path 513" d="M149.883,49.127l-.007-.01-.008-.028v-.012c-.016-.593-.054-2.185-.054-2.849,0-.1,0-.177,0-.229,0-.028,0-.056,0-.083,0-.234-.034-.519-.034-.75,0-.2.014-.43.244-.454a.321.321,0,0,1,.054.006l.033.008a.052.052,0,0,1,.038.041l.006.034a.487.487,0,0,0,.393.456,5.387,5.387,0,0,0,1.3.114h.089c1.161,0,1.541-.383,1.668-.678l.03-.067a.048.048,0,0,1,.036-.03.05.05,0,0,1,.045.015l.051.056h0v0l.008.009-.005-.009,0,0,.013.014.042.049a1.468,1.468,0,0,1,.113.153l.007.011.007.026v.013s.021,1.664.021,2.959c0,.331,0,.637,0,.887a.055.055,0,0,1,.015.036v.006a1.581,1.581,0,0,1-.028.32c-.128.356-.837.714-2.1.724h-.017c-1.25,0-1.75-.4-1.958-.741m1.975.642v-.1h.026c1.194.007,1.851-.409,1.886-.567.008-.269.011-.712.011-1.21,0-1.2-.017-2.706-.02-2.929-.013-.02-.028-.041-.043-.06-.215.341-.719.662-1.768.661v0l-.009.005h-.091c-1.124-.015-1.69-.067-1.853-.591a.867.867,0,0,0-.017.189c0,.213.034.5.034.75,0,.029,0,.058,0,.089,0,.048,0,.126,0,.224,0,.57.029,1.839.046,2.554a.05.05,0,0,1,0,.012l.006.248c.181.273.6.626,1.795.629v.1Zm2.01-.662a1.837,1.837,0,0,0,.019-.253.049.049,0,0,1-.013-.019c0,.1,0,.192-.007.272m-3.943-.006.018-.012h0Zm.042-.025v0h0v0m3.89-4.137h0Zm-3.93-.063a.137.137,0,0,1,.053-.053.12.12,0,0,0-.053.053m.119-.058a.048.048,0,0,1,.015.016c0-.006,0-.012,0-.018l-.024,0,.012.006m3.631-.037a.05.05,0,0,1,.056-.007l-.035-.039c-.007.016-.014.031-.021.046m.018-.048,0,0,0,0h0m.076-.066h0" transform="translate(-74.197 -22.091)" fill="#b6001c"/>
      <path id="Path_514" data-name="Path 514" d="M167.637,10.385a17.252,17.252,0,0,1,4.04-2.344" transform="translate(-83.04 -3.983)" fill="#b6001c"/>
      <path id="Path_515" data-name="Path 515" d="M136.646,10.531a15.171,15.171,0,0,0-3.789-2.194" transform="translate(-65.812 -4.13)" fill="#b6001c"/>
      <path id="Path_516" data-name="Path 516" d="M171.49,9.188a4.8,4.8,0,0,0,2.095-1.147" transform="translate(-84.949 -3.983)" fill="#b6001c"/>
      <path id="Path_517" data-name="Path 517" d="M134.259,9.122a4.8,4.8,0,0,1-2.094-1.147" transform="translate(-65.469 -3.95)" fill="#b6001c"/>
      <path id="Path_518" data-name="Path 518" d="M122.033,126.22v-3.984h.581v3.451H124v.533Z" transform="translate(-60.45 -60.551)" fill="#686667"/>
      <path id="Path_519" data-name="Path 519" d="M132.135,126.223a2.067,2.067,0,1,1,2.073-2.056,2.073,2.073,0,0,1-2.073,2.056m0-3.6a1.534,1.534,0,1,0,1.491,1.551,1.507,1.507,0,0,0-1.491-1.551" transform="translate(-64.427 -60.478)" fill="#686667"/>
      <path id="Path_520" data-name="Path 520" d="M145.772,126.22l-1.969-3.078h-.013v3.078h-.58v-3.984h.636l1.937,3.031h.011v-3.031h.58v3.984Z" transform="translate(-70.94 -60.551)" fill="#686667"/>
      <path id="Path_521" data-name="Path 521" d="M154.7,122.237H156a1.867,1.867,0,0,1,1.625.733,2.262,2.262,0,0,1,.409,1.27,2.105,2.105,0,0,1-.5,1.4,2.08,2.08,0,0,1-1.555.576H154.7Zm.58,3.451h.694a1.346,1.346,0,0,0,1.47-1.448,1.406,1.406,0,0,0-1.459-1.469h-.705Z" transform="translate(-76.634 -60.551)" fill="#686667"/>
      <path id="Path_522" data-name="Path 522" d="M168.024,126.223a2.067,2.067,0,1,1,2.073-2.056,2.072,2.072,0,0,1-2.073,2.056m0-3.6a1.534,1.534,0,1,0,1.491,1.551,1.506,1.506,0,0,0-1.491-1.551" transform="translate(-82.205 -60.478)" fill="#686667"/>
      <path id="Path_523" data-name="Path 523" d="M181.659,126.22l-1.971-3.078h-.01v3.078H179.1v-3.984h.636l1.936,3.031h.012v-3.031h.581v3.984Z" transform="translate(-88.717 -60.551)" fill="#686667"/>
    </g>
  </g>
  <text id="THIN_RED_LINE" data-name="THIN RED LINE" transform="translate(1.171 50.55)" fill="#161615" font-size="19" font-family="SegoeUI, Segoe UI"><tspan x="0" y="0" letter-spacing="0.069em">T</tspan><tspan y="0" letter-spacing="0.028em">H</tspan><tspan y="0" letter-spacing="0.029em">I</tspan><tspan y="0" letter-spacing="0.054em">N</tspan><tspan y="0" letter-spacing="0.053em"> </tspan><tspan y="0" letter-spacing="0.036em">R</tspan><tspan y="0" letter-spacing="0.031em">E</tspan><tspan y="0" letter-spacing="0.053em">D </tspan><tspan y="0" letter-spacing="0.041em">L</tspan><tspan y="0" letter-spacing="0.029em">I</tspan><tspan y="0" letter-spacing="0.03em">N</tspan><tspan y="0">E</tspan></text>
</svg>
