<svg version="1.2" xmlns="http://www.w3.org/2000/svg" viewBox="0 0 200 84" width="200" height="84">
	<title>LOGO RED-svg</title>
	<style>
		.s0 { fill: #c62032 } 
		.s1 { fill: #231f20 } 
	</style>
	<g id="Layer">
		<g id="Layer">
			<path id="Layer" class="s0" d="m93.5 34.2l0.7-3.1h0.1l-0.7 3.1h-0.1z"/>
			<path id="Layer" class="s0" d="m93.6 34.3l-0.1-0.1h0.1-0.1q0 0 0 0l0.6-3.1q0 0 0.1-0.1 0 0 0 0l0.1 0.1q0.1 0 0.1 0l-0.7 3.1q0 0 0 0.1 0 0-0.1 0 0 0 0 0z"/>
		</g>
		<g id="Layer">
			<path id="Layer" fill-rule="evenodd" class="s0" d="m105.2 24.7c0.4-0.2 0.6-0.5 0.6-0.5q0 0 0 0c0-0.1 0-0.3-0.9-0.5q-0.2 0-0.3 0-0.2 0-0.3 0v-0.1q0.1 0 0.3 0 0.1 0 0.3 0c0.9 0.2 1 0.4 1 0.6q0 0.1 0 0.1c0 0-0.2 0.2-0.7 0.5z"/>
			<path id="Layer" class="s0" d="m105.2 24.8l-0.1-0.1h0.1-0.1q0 0 0 0 0-0.1 0.1-0.1c0.3-0.2 0.5-0.3 0.6-0.4q0 0 0 0c0 0-0.1-0.3-0.9-0.4q-0.2 0-0.3 0-0.2 0-0.3 0 0 0 0 0 0 0 0 0 0-0.1 0-0.1 0 0 0 0v-0.1q0 0 0 0 0.1-0.1 0.3-0.1 0.1 0 0.3 0.1c0.9 0.1 1.1 0.4 1.1 0.6q0 0.1-0.1 0.1c0 0.1-0.2 0.3-0.6 0.5q0 0-0.1 0 0 0 0 0z"/>
		</g>
		<g id="Layer">
			<path id="Layer" class="s0" d="m94.5 23.3h0.1c0 0.4 0.8 0.8 1.3 0.8q0.1 0 0.1 0c0.5 0 1.2-1 1.3-1.4-0.1-0.2-0.6-0.3-1.1-0.3q-0.2 0-0.4 0c-0.6 0.1-1.3 0.5-1.3 0.8q0 0.1 0.1 0.1h-0.1q-0.1 0-0.1-0.1c0.1-0.4 0.8-0.8 1.4-0.9q0.2 0 0.4 0c0.5 0 1 0.1 1.2 0.3v0.1c-0.1 0.4-0.8 1.4-1.3 1.5q-0.1 0-0.2 0c-0.5 0-1.3-0.4-1.4-0.9z"/>
			<path id="Layer" fill-rule="evenodd" class="s0" d="m94.4 23.4q0 0 0 0 0-0.1 0-0.2c0-0.5 0.7-0.9 1.4-1q0.2 0 0.4 0c0.5 0 1 0.1 1.2 0.4v0.1c-0.1 0.5-0.7 1.5-1.3 1.6q-0.1 0-0.2 0c-0.5 0-1.4-0.5-1.5-0.9zm1.5 0.7q0.1 0 0.1 0c0.4-0.1 1.1-1 1.2-1.4-0.1-0.1-0.5-0.3-1-0.3q0 0 0 0-0.2 0-0.4 0.1c-0.6 0-1.2 0.4-1.2 0.7q0 0 0 0 0 0.1 0 0.1 0 0 0 0c0.1 0.3 0.9 0.8 1.3 0.8q0 0 0 0 0 0 0 0zm1.4-1.4q0 0 0 0 0 0 0 0z"/>
		</g>
		<g id="Layer">
			<path id="Layer" fill-rule="evenodd" class="s0" d="m95.4 30.9q-0.1 0-0.1 0-0.2-0.1-0.2-0.3 0 0 0-0.1c0-0.1 0.1-0.1 0.2-0.1q0.1 0 0.2 0c0.1 0 0.2 0.1 0.2 0.3q0 0 0 0h-0.1 0.1q-0.1 0.2-0.3 0.2 0 0 0 0zm-0.2-0.3q0 0 0 0 0 0.1 0.1 0.2 0.1 0 0.1 0 0.1 0 0.1-0.1 0.1 0 0.1 0 0-0.1-0.2-0.2 0 0-0.1 0-0.1 0-0.1 0.1z"/>
			<path id="Layer" fill-rule="evenodd" class="s0" d="m95.4 31q-0.1 0-0.1-0.1c-0.2 0-0.3-0.2-0.3-0.3q0 0 0-0.1c0.1-0.1 0.2-0.2 0.3-0.2q0 0 0 0 0.1 0 0.2 0c0.1 0.1 0.2 0.2 0.2 0.4q0 0 0 0 0 0.1 0 0.1c0 0.1-0.2 0.2-0.3 0.2zm-0.1-0.3q0.1 0 0.1 0 0.1 0 0.1 0 0 0 0 0c0-0.1 0-0.1-0.1-0.2q0 0-0.1 0-0.1 0-0.1 0.1 0 0 0 0 0 0 0 0 0 0.1 0.1 0.1z"/>
		</g>
		<g id="Layer">
			<path id="Layer" class="s0" d="m96.2 31.5c0 0 0.4-1.2 0.6-1.8 0-0.1-0.2-0.4-0.3-0.6l0.1-0.1c0.1 0.3 0.3 0.7 0.3 0.7-0.2 0.6-0.6 1.8-0.6 1.8z"/>
			<path id="Layer" fill-rule="evenodd" class="s0" d="m96.3 31.6l-0.1-0.1q0 0 0 0c0-0.1 0.4-1.2 0.5-1.8 0-0.1-0.1-0.4-0.3-0.6q0 0 0 0 0 0 0.1-0.1h0.1q0 0 0 0 0 0 0 0c0.2 0.3 0.3 0.6 0.3 0.7h0.1c-0.2 0.6-0.6 1.7-0.6 1.8q0 0 0 0.1 0 0-0.1 0 0 0 0 0zm0.5-1.9q0 0 0 0 0 0 0 0z"/>
		</g>
		<g id="Layer">
			<path id="Layer" fill-rule="evenodd" class="s0" d="m92.5 40.5l-0.2-0.1 1.2-6.3-5.9 5.2h-0.1l-0.2-0.2 6.9-8 0.9-4.2h-0.1v-0.1c0 0 0.1-0.4 0.1-0.8q0-0.3-0.1-0.6c-0.2-0.5-0.6-1.6-0.9-1.9q-0.2-0.2-0.2-0.5c0-0.7 0.6-1.3 1.5-1.5q0.3-0.1 0.7-0.1c0.7 0 1.3 0.3 1.6 0.6 0.4 0 0.5 0.3 0.5 0.6q0 0.3 0 0.4c0 0-0.7 1.5-0.8 1.8-0.1 0.4-0.4 2-0.6 2.4-0.2 0.1-0.3 0.1-0.4 0.2 0 0 0 0.3 0 0.6-0.1 0.4 0 0.8 0.1 1 0.9-0.3 2-1.1 2.4-1.6q0 0 0-0.1c0-0.4 0.6-0.9 0.8-1.1 0.1-0.1 0.4-0.4 0.9-0.8v-0.1 0.1c0.2 0.1 0.4 0.3 0.6 0.3 0.4 0.1 1.3 0.3 2.1 0.7h0.1-0.1q-0.1 0.1-0.3 0.2c-0.7 0.4-2.3 1.3-2.5 1.6h-0.1q0 0-0.1 0c-0.1 0-0.3 0-0.4 0l-3.6 3.3-3.7 9zm-0.1-0.1l3.8-8.9 3.7-3.4q0 0 0.1 0 0.1 0 0.3 0 0 0 0 0c0.4-0.4 1.9-1.1 2.6-1.6q0.1 0 0.2-0.1c-0.7-0.3-1.6-0.5-1.9-0.5-0.3-0.1-0.5-0.3-0.7-0.4-0.3 0.4-0.7 0.7-0.8 0.8-0.2 0.2-0.8 0.8-0.8 1q0 0.1 0.1 0.1v0.1c-0.5 0.5-1.6 1.4-2.5 1.6-0.3-0.2-0.3-0.7-0.3-1.1 0-0.4 0-0.7 0-0.7h0.1c0 0 0.2-0.1 0.3-0.2 0.2-0.2 0.5-1.9 0.6-2.3 0.2-0.3 0.8-1.8 0.8-1.8q0-0.1 0-0.4c0-0.2 0-0.5-0.3-0.5h-0.1c-0.3-0.3-0.8-0.5-1.6-0.5q-0.3 0-0.7 0c-0.8 0.2-1.3 0.8-1.3 1.4q0 0.2 0.1 0.5c0.3 0.3 0.7 1.4 0.9 1.9q0.1 0.3 0.1 0.6c0 0.4 0 0.7 0 0.8l0.1 0.1-1 4.2-6.8 8 0.1 0.1 6.1-5.3zm5.6-17.4q0 0 0 0 0 0 0 0zm2.6 2.4z"/>
			<path id="Layer" fill-rule="evenodd" class="s0" d="m92.5 40.5h-0.2q0-0.1 0-0.1l1.1-6.1-5.8 5.1q0 0-0.1 0v-0.1l-0.2-0.1q-0.1 0-0.1-0.1 0 0 0.1 0l6.8-8 1-4.1-0.1-0.1q-0.1 0-0.1 0v-0.1c0.1 0 0.1-0.4 0.1-0.8q0-0.3 0-0.5c-0.3-0.6-0.7-1.6-0.9-2q-0.2-0.2-0.2-0.5 0 0 0 0c0-0.7 0.6-1.4 1.4-1.5q0.4-0.1 0.8-0.1c0.7 0 1.3 0.2 1.7 0.5 0.3 0.1 0.5 0.4 0.5 0.7q0 0 0 0-0.1 0.3-0.1 0.5c0 0-0.6 1.4-0.8 1.7-0.1 0.4-0.4 2-0.6 2.4-0.1 0.1-0.3 0.2-0.4 0.2 0 0.1 0 0.3 0 0.6q0 0 0 0c0 0.4 0.1 0.8 0.2 0.9 0.8-0.2 1.8-1 2.2-1.5q0 0 0-0.1 0 0 0 0c0.1-0.4 0.6-0.9 0.9-1.2 0.1-0.1 0.4-0.4 0.8-0.8h0.1q0-0.1 0 0h0.1q0.2 0.3 0.6 0.4c0.3 0.1 1.3 0.2 2 0.6h0.1q0.1 0.1 0.1 0.1 0 0-0.1 0l-0.1 0.1q-0.1 0.1-0.2 0.1c-0.8 0.5-2.4 1.3-2.6 1.6v0.1h-0.1q0 0-0.1 0c-0.1 0-0.3 0-0.3-0.1l-3.6 3.4-3.8 8.9q0 0.1 0 0.1 0-0.1-0.1-0.1zm0-0.1q0 0 0 0zm-0.1 0q0 0 0-0.1zm1.3-6.5q0 0 0 0l-1.2 6.3 3.7-8.7 3.7-3.4q0 0 0 0 0.1 0 0.2 0 0.1 0 0.2 0 0 0 0 0c0.4-0.4 1.9-1.1 2.6-1.6q0.1 0 0.1 0c-0.7-0.3-1.5-0.5-1.8-0.6q-0.4-0.1-0.6-0.3c-0.4 0.4-0.7 0.7-0.8 0.8-0.2 0.2-0.8 0.7-0.8 1q0 0 0 0l0.1 0.1q0 0 0 0l-0.1 0.1c-0.4 0.5-1.6 1.4-2.4 1.6h-0.1q0 0 0 0h-0.1c-0.2-0.2-0.2-0.7-0.2-1.2 0-0.3 0-0.6 0-0.6v-0.1q0 0 0 0h0.1q0 0 0 0 0 0 0 0 0.1 0 0.1-0.1 0.1 0 0.2-0.1c0.2-0.3 0.5-1.9 0.6-2.3 0.1-0.2 0.5-1.1 0.7-1.5q0.1-0.2 0.1-0.2 0-0.2 0-0.4c0-0.3 0-0.5-0.3-0.5h-0.1c-0.3-0.3-0.8-0.5-1.5-0.5q-0.4 0-0.7 0c-0.8 0.2-1.3 0.8-1.3 1.3h-0.1 0.1q0 0.3 0.1 0.5c0.3 0.3 0.7 1.4 0.9 1.9q0.1 0.3 0.1 0.7c0 0.3 0 0.6 0 0.7l0.1 0.1q0 0 0 0l-1 4.3-6.8 8 6.1-5.3q0-0.1 0.1-0.1 0 0 0 0.1zm-6.2 5.4h0.1q-0.1 0-0.1 0zm-0.2-0.1h0.1q0 0 0 0 0 0 0-0.1zm6.1-5q0.1 0 0.1 0v-0.1l-0.1 0.1q0 0 0 0 0 0 0 0zm3-5q0 0 0 0 0 0 0 0 0 0 0 0zm3.9-0.9q0 0 0 0 0 0 0 0zm-0.5-0.1q0 0 0 0 0 0 0 0 0 0 0 0zm-0.9-0.7q0 0 0 0 0 0 0 0 0 0 0 0zm-2.7-0.1q0.1 0 0.1 0 0 0 0 0-0.1 0-0.1 0zm-1.1-0.4q0 0 0 0zm-0.1 0q0-0.1 0-0.1 0 0 0 0.1zm8.1-0.5q0 0 0 0 0 0 0.1 0-0.1 0-0.1 0 0 0 0 0zm-5.5-4.4q0 0 0 0 0 0 0 0zm-2.7 4.8z"/>
		</g>
		<g id="Layer">
			<path id="Layer" fill-rule="evenodd" class="s0" d="m106 25.4c-0.6-0.6-1.4-1.3-1.8-1.8h0.1-0.1q-0.1-0.2-0.2-0.3c-0.1-0.3-0.3-0.2-0.7-0.4h-0.2l0.2-0.1q0 0 0.1 0c0.5-0.2 1.3-0.3 1.8-0.4 0.4-0.1 1.5-0.5 2.3-0.5q0.3 0 0.5 0.1c0.2 0.4 0.2 0.7 0.2 0.8q0 0.2 0 0.2v0.1l-0.1-0.1c-0.2 0-0.3-0.1-0.4-0.1q-0.1 0-0.2 0.1c-0.4 0.1-1.1 0.3-1 0.5q0 0 0 0 0 0.1 0 0.4c0 0.4-0.1 1-0.2 1.3q-0.1 0.1-0.3 0.2v0.1zm0-0.1q0.1-0.2 0.2-0.3c0.2-0.1 0.2-0.8 0.2-1.2q0-0.2 0-0.3 0 0 0-0.1c0-0.3 0.7-0.4 1.1-0.6q0.2-0.1 0.3-0.1c0.1 0 0.2 0.1 0.3 0.2q0-0.1 0-0.1c0-0.2 0-0.4-0.1-0.7q-0.2-0.1-0.5-0.1c-0.7 0-1.8 0.4-2.2 0.4-0.5 0.2-1.3 0.2-1.8 0.4 0.3 0.1 0.5 0.1 0.6 0.4q0.1 0.1 0.2 0.3c0.4 0.4 1.1 1.2 1.7 1.8z"/>
			<path id="Layer" fill-rule="evenodd" class="s0" d="m106 25.5h-0.1c-0.6-0.6-1.3-1.4-1.7-1.8q0 0 0 0-0.2-0.2-0.2-0.4c-0.1-0.2-0.3-0.2-0.7-0.3l-0.2-0.1q0 0 0 0 0-0.1 0-0.1h0.2q0-0.1 0.1-0.1c0.5-0.2 1.3-0.2 1.8-0.3 0.4-0.1 1.5-0.5 2.3-0.5q0.3 0 0.5 0.1h0.1c0.1 0.4 0.2 0.7 0.2 0.8q0 0.2 0 0.2l-0.1 0.1q0 0 0 0 0 0 0 0h-0.1c-0.2-0.1-0.3-0.2-0.4-0.2v0.1q0-0.1-0.2 0c-0.3 0.1-0.7 0.3-0.9 0.4q-0.1 0.1-0.1 0.1 0 0.1 0 0.4c0 0.4 0 1-0.2 1.3q-0.1 0.1-0.2 0.3h-0.1q0 0 0 0 0 0 0 0zm0-0.1q0 0 0 0 0 0 0 0 0 0 0 0 0 0 0 0zm-1.8-2.1c0 0 0 0.1 0.2 0.2 0.3 0.4 1 1.2 1.6 1.7q0.1-0.1 0.2-0.2c0.1-0.1 0.1-0.7 0.1-1.1q0 0 0 0 0-0.3 0-0.4 0 0 0 0c0.1-0.4 0.7-0.5 1.1-0.7q0.2-0.1 0.3-0.1c0.2 0 0.2 0.1 0.4 0.1 0-0.1-0.1-0.3-0.2-0.6q-0.2-0.1-0.4-0.1c-0.8 0-1.8 0.4-2.2 0.5-0.5 0.1-1.1 0.1-1.6 0.2 0.2 0.1 0.4 0.2 0.5 0.5zm2.4 0q0.1-0.1 0.2-0.1-0.1 0-0.2 0.1zm1.5-0.3q0 0 0.1-0.1-0.1 0.1-0.1 0.1 0 0 0 0 0 0 0 0zm-4.7-0.1q0 0 0 0 0-0.1 0-0.1 0 0 0 0-0.1 0-0.1 0.1 0.1 0 0.1 0zm4.6-0.8q0 0 0 0 0 0 0 0zm-2 3.2zm0.4-1.8q0 0 0 0z"/>
		</g>
		<g id="Layer">
			<path id="Layer" class="s0" d="m110.3 31.5l-3.7-3.3c0 0-0.2 0-0.3 0q-0.1 0-0.1 0h-0.1c-0.2-0.3-1.8-1.2-2.6-1.6q-0.1-0.1-0.2-0.2v-0.1q0.2 0.1 0.3 0.2c0.8 0.4 2.3 1.2 2.6 1.6q0 0 0.1 0c0.2 0 0.3 0 0.3 0h0.1l3.7 3.4 3.7 8.9v-0.1l-1.2-6.5 6.1 5.4 0.1-0.1-6.8-8-1-4.2h0.1l0.1-0.1c0-0.1-0.1-0.4-0.1-0.8q0-0.3 0.1-0.6c0.2-0.5 0.6-1.6 0.9-2q0.2-0.2 0.2-0.4c0-0.6-0.6-1.2-1.4-1.4q-0.4-0.1-0.7-0.1c-0.7 0-1.3 0.3-1.6 0.6-0.3 0-0.4 0.2-0.4 0.5 0 0.2 0 0.3 0 0.4 0 0 0.7 1.4 0.8 1.8 0.1 0.4 0.4 2 0.6 2.3 0.1 0.1 0.4 0.2 0.4 0.2 0 0 0 0.3 0 0.6 0 0.5 0 1-0.2 1.2h-0.1c-0.8-0.3-2-1.1-2.4-1.7h-0.1 0.1q0 0 0-0.1c0-0.3-0.6-0.8-0.8-1.1-0.1 0-0.4-0.4-0.8-0.8 0.4 0.4 0.8 0.7 0.9 0.8 0.2 0.2 0.8 0.7 0.8 1.1q0 0.1 0 0.1c0.4 0.5 1.5 1.3 2.3 1.6 0.2-0.2 0.2-0.7 0.2-1.1 0-0.2 0-0.5 0-0.5-0.1-0.1-0.3-0.1-0.4-0.2-0.2-0.4-0.5-2-0.6-2.4-0.1-0.3-0.8-1.8-0.8-1.8 0-0.1 0-0.2 0-0.4 0-0.3 0.1-0.6 0.5-0.6 0.3-0.3 0.9-0.6 1.6-0.6q0.4 0 0.7 0.1c0.9 0.2 1.5 0.8 1.5 1.5q0 0.3-0.2 0.5c-0.3 0.3-0.7 1.4-0.9 1.9q-0.1 0.3-0.1 0.6c0 0.4 0.1 0.8 0.1 0.8v0.1h-0.2l1 4.2 6.9 8-0.1 0.1-0.2 0.1-5.9-5.2 1.2 6.3h-0.1l-0.2 0.1z"/>
			<path id="Layer" fill-rule="evenodd" class="s0" d="m114 40.5l-3.8-8.9-3.6-3.4c0 0.1-0.2 0.1-0.3 0.1q-0.1 0-0.1 0h-0.1v-0.1c-0.2-0.3-1.8-1.1-2.6-1.6q-0.1 0-0.3-0.1 0 0 0-0.1 0 0 0 0l0.1-0.1q0 0 0 0 0 0 0 0 0.2 0.1 0.3 0.1c0.8 0.5 2.3 1.2 2.6 1.7q0 0 0.1 0c0.1 0 0.3-0.1 0.3-0.1h0.1q0 0 0 0l3.7 3.4v0.1l3.7 8.6-1.3-6.3q0 0 0.1 0 0 0 0 0l6.1 5.3h0.1l-6.8-7.9-0.1-0.1-0.9-4.2q0-0.1 0-0.1h0.1c0-0.2-0.1-0.5-0.1-0.8q0-0.3 0.1-0.6c0.3-0.6 0.7-1.6 1-2q0.1-0.2 0.1-0.4c0-0.6-0.5-1.2-1.3-1.3q-0.4-0.1-0.7-0.1c-0.7 0-1.3 0.2-1.5 0.5h-0.1c-0.3 0.1-0.3 0.2-0.3 0.5q0 0.2 0 0.4 0 0 0 0 0 0 0 0 0 0.1 0.1 0.2 0.1 0.2 0.2 0.5c0.2 0.4 0.4 0.9 0.5 1.1 0.1 0.3 0.4 2 0.5 2.3 0.1 0 0.3 0.1 0.4 0.1q0 0 0 0 0.1 0 0.1 0.1c0 0 0 0.3 0 0.6 0 0.5 0 1-0.3 1.2v0.1q0 0-0.1 0c-0.9-0.3-2-1.1-2.5-1.7q0-0.1 0-0.1 0-0.1 0-0.1 0 0 0 0c0-0.2-0.5-0.8-0.7-1-0.1-0.1-0.5-0.4-0.9-0.8q0-0.1 0-0.1l0.1-0.1q0 0 0.1 0c0.4 0.4 0.7 0.7 0.8 0.8 0.2 0.3 0.8 0.8 0.9 1.2q0 0.1-0.1 0.1c0.5 0.5 1.5 1.3 2.3 1.5 0.1-0.1 0.2-0.5 0.2-0.9q0 0 0-0.1c0-0.2 0-0.4 0-0.5-0.1 0-0.3-0.1-0.4-0.2-0.2-0.4-0.5-2-0.7-2.4-0.1-0.3-0.7-1.7-0.7-1.8 0-0.1-0.1-0.2-0.1-0.4q0 0 0 0c0-0.3 0.1-0.6 0.5-0.7 0.4-0.3 1-0.5 1.7-0.5q0.4 0 0.7 0.1c0.9 0.1 1.5 0.8 1.5 1.5q0 0.3-0.2 0.5c-0.2 0.4-0.7 1.4-0.9 2q0 0.2 0 0.5c0 0.4 0 0.8 0 0.8l0.1 0.1q0 0-0.1 0v0.1h-0.1l0.9 4.1 6.9 8q0 0 0 0 0 0.1 0 0.1l-0.3 0.2q0 0 0 0l-5.9-5.1 1.2 6.1q0 0 0 0.1h-0.1-0.2q0 0.1 0 0.1 0-0.1 0-0.1zm0.1-0.1q0 0-0.1 0zm0.2-0.1q0 0 0 0zm4.8-1.1q0 0 0 0zm0.2-0.1q0 0-0.1 0h0.1q0 0 0 0zm-6.2-5q0-0.1 0-0.1 0 0 0.1 0l-0.1-0.1zm-3-5q0 0 0 0 0 0 0 0 0 0 0 0zm-3.9-0.9q0 0 0 0 0 0 0 0zm0.5 0v-0.1q0 0 0 0 0 0 0 0.1zm1-0.7q0 0 0-0.1 0 0 0 0.1 0 0 0 0zm2.6-0.1q0 0 0-0.1 0 0 0 0 0 0 0 0 0 0.1 0 0.1zm1.1-0.4q0.1-0.1 0.1-0.1h-0.1zm0.2 0q0 0 0-0.1 0 0 0 0 0 0 0 0 0 0.1 0 0.1zm-2.7-4.9q0 0 0 0 0 0 0 0zm1.4 9.5v0.1-0.1h0.1zm-0.1-4.2q0 0 0 0zm0.1 0q0 0 0 0 0 0 0 0zm-1.7-4.3q0-0.1 0-0.1 0 0.1 0 0.1z"/>
		</g>
		<g id="Layer">
			<path id="Layer" class="s0" d="m100.3 25.2c-0.2-0.3-0.2-0.9-0.2-1.3q0-0.3 0-0.4 0 0 0 0c0.1-0.2-0.6-0.4-1-0.5q-0.2-0.1-0.2-0.1c-0.1 0-0.2 0.1-0.4 0.1l-0.1 0.1v-0.1q0 0 0-0.1c0-0.2 0-0.5 0.2-0.9q0.2-0.1 0.5-0.1c0.8 0 1.9 0.4 2.3 0.5 0.4 0.1 1.3 0.2 1.8 0.4q0.1 0 0.1 0v0.1q-0.1 0-0.1 0c-0.5-0.2-1.4-0.3-1.9-0.4-0.4-0.1-1.4-0.4-2.2-0.4q-0.3 0-0.4 0c-0.2 0.3-0.2 0.6-0.2 0.7q0 0.1 0 0.1c0.2 0 0.2-0.1 0.4-0.1q0.1 0 0.3 0.1c0.4 0.1 1 0.3 1 0.6q0 0 0 0 0 0.1 0 0.4c0 0.4 0.1 1 0.2 1.2q0.1 0.1 0.2 0.3-0.2-0.1-0.3-0.2z"/>
			<path id="Layer" fill-rule="evenodd" class="s0" d="m100.5 25.5q-0.1-0.2-0.2-0.3v-0.1 0.1c-0.2-0.3-0.2-0.9-0.2-1.3q0-0.3 0-0.4 0 0 0 0 0 0-0.1-0.1-0.1-0.1-0.3-0.1c-0.1-0.1-0.4-0.2-0.6-0.3q-0.2-0.1-0.2-0.1c-0.1 0-0.2 0.1-0.4 0.2h-0.1q0 0 0 0 0 0-0.1 0v-0.1q0 0 0-0.1c0-0.2 0-0.5 0.2-0.9h0.1q0.2-0.1 0.5-0.1c0.8 0 1.9 0.4 2.3 0.4 0.4 0.2 1.3 0.2 1.8 0.4q0.1 0 0.1 0.1 0.1 0 0.1 0 0 0 0 0l-0.1 0.1q0 0 0 0.1 0 0 0 0-0.1-0.1-0.1-0.1c-0.6-0.2-1.4-0.2-1.9-0.3-0.4-0.1-1.5-0.5-2.2-0.5q-0.2 0-0.4 0.1c-0.1 0.3-0.2 0.5-0.2 0.6 0.2 0 0.2-0.1 0.4-0.1q0.1 0 0.3 0.1c0.4 0.2 1 0.3 1.1 0.7q0 0 0 0 0 0.1 0 0.4 0 0 0 0c0 0.4 0 1 0.1 1.1q0.1 0.2 0.3 0.3 0 0 0 0.1 0 0 0 0l-0.1 0.1q0 0 0 0-0.1 0-0.1 0zm-0.6-2.3q0 0-0.1 0 0.1 0 0.1 0zm-1.5-0.2q0.1 0 0.1 0 0 0 0 0-0.1 0-0.1-0.1 0 0.1 0 0.1zm0.2-0.9q0 0 0 0 0 0 0 0z"/>
		</g>
		<g id="Layer">
			<path id="Layer" class="s0" d="m112.3 31.1h0.1l0.7 3.1h-0.1l-0.7-3.1z"/>
			<path id="Layer" class="s0" d="m112.9 34.3q0-0.1 0-0.1l-0.7-3.1h0.1v0.1-0.1h-0.1q0 0 0.1 0l0.1-0.1q0 0 0 0.1l0.7 3.1q0 0 0 0 0 0 0 0l-0.1 0.1q0 0 0 0-0.1 0-0.1 0z"/>
		</g>
		<g id="Layer">
			<path id="Layer" fill-rule="evenodd" class="s0" d="m102.2 25.1c-0.9-0.2-1.5-0.8-1.5-0.8q0 0-0.1-0.1c0.1-0.2 0.2-0.4 1.1-0.6q0.2 0 0.3 0c1.1 0 2.1 0.8 2.1 1.3q0 0 0 0v0.1h-0.1c0 0-0.5 0.2-1.1 0.2q-0.4 0-0.7-0.1zm0-0.1q0.4 0.1 0.7 0.1c0.5 0 1-0.2 1.1-0.2 0-0.2-0.3-0.5-0.6-0.8-0.4-0.2-0.9-0.4-1.4-0.4q-0.1 0-0.3 0c-0.9 0.2-0.9 0.4-0.9 0.5q0 0 0 0c0 0.1 0.6 0.6 1.4 0.8z"/>
			<path id="Layer" fill-rule="evenodd" class="s0" d="m102.2 25.2c-1-0.3-1.5-0.8-1.6-0.9q0 0 0-0.1c0-0.2 0.2-0.5 1.1-0.6q0.2-0.1 0.3-0.1c1.1 0.1 2.1 0.8 2.1 1.4q0 0 0 0v0.1q0 0 0 0c0 0-0.5 0.3-1.2 0.3q-0.4 0-0.7-0.1zm0-0.3q0.4 0.1 0.7 0.1c0.5 0 0.9-0.1 1-0.1 0-0.2-0.2-0.5-0.5-0.7-0.4-0.3-0.9-0.4-1.4-0.4q-0.1 0-0.3 0c-0.8 0.1-0.9 0.3-0.9 0.4q0 0 0 0c0.1 0.1 0.7 0.5 1.4 0.7zm0 0v0.1-0.1q0 0 0 0zm1.8 0q0 0 0 0 0 0 0 0 0 0 0 0z"/>
		</g>
		<g id="Layer">
			<path id="Layer" fill-rule="evenodd" class="s0" d="m110.5 24.2c-0.5-0.1-1.2-1.1-1.3-1.5v-0.1c0.2-0.2 0.7-0.3 1.2-0.3q0.2 0 0.4 0c0.6 0.1 1.3 0.5 1.4 0.9q0 0.1-0.1 0.1c-0.1 0.5-0.9 0.9-1.4 0.9q-0.1 0-0.2 0zm0-0.1q0.1 0 0.2 0c0.4 0 1.3-0.5 1.3-0.8q0 0 0-0.1c0.1-0.3-0.6-0.7-1.2-0.8q-0.2 0-0.4 0c-0.5 0-1 0.1-1.1 0.3 0.1 0.4 0.8 1.4 1.2 1.4z"/>
			<path id="Layer" fill-rule="evenodd" class="s0" d="m110.5 24.3c-0.6-0.1-1.2-1.1-1.3-1.6v-0.1c0.1-0.3 0.7-0.4 1.2-0.4q0.2 0 0.4 0c0.7 0.1 1.4 0.5 1.4 1q0 0.1 0 0.2c-0.1 0.4-1 0.9-1.5 0.9q-0.1 0-0.2 0zm0.1-0.2q0 0 0.1 0 0 0 0 0c0.4 0 1.2-0.5 1.3-0.8q0 0 0-0.1 0 0 0 0c0-0.3-0.6-0.7-1.2-0.7q-0.2-0.1-0.4-0.1 0 0 0 0c-0.5 0-0.9 0.2-1 0.3 0.1 0.4 0.8 1.3 1.2 1.4zm-1.3-1.4q0 0 0 0 0 0 0 0z"/>
		</g>
		<g id="Layer">
			<path id="Layer" fill-rule="evenodd" class="s0" d="m110.9 30.7q0 0 0 0c0-0.2 0.1-0.3 0.2-0.3q0.1 0 0.2 0c0.1 0 0.2 0 0.2 0.1q0 0.1 0 0.1c0 0.1-0.1 0.2-0.2 0.3q0 0-0.1 0 0 0 0 0-0.2 0-0.3-0.2zm0.3 0.1q0 0 0.1 0 0.1-0.1 0.1-0.2 0 0 0 0 0-0.1-0.1-0.1-0.1 0-0.1 0-0.2 0.1-0.2 0.2 0 0 0 0 0.1 0.1 0.2 0.1z"/>
			<path id="Layer" fill-rule="evenodd" class="s0" d="m111.2 31c-0.1 0-0.3-0.1-0.3-0.2q0 0 0 0 0-0.1 0-0.1c0-0.2 0.1-0.3 0.2-0.4q0.1 0 0.2 0c0.1 0 0.2 0.1 0.3 0.2q0 0.1 0 0.1c0 0.1-0.1 0.3-0.3 0.3q0 0.1-0.1 0.1zm0-0.3q0 0 0.1 0 0.1 0 0.1-0.1 0 0 0 0 0 0 0 0 0-0.1-0.1-0.1-0.1 0-0.1 0c-0.1 0.1-0.1 0.1-0.1 0.2q0 0 0 0 0 0 0 0 0 0 0.1 0zm0 0.1zm-0.3-0.1z"/>
		</g>
		<g id="Layer">
			<path id="Layer" class="s0" d="m109.7 29.7c0 0 0.2-0.4 0.3-0.7l0.1 0.1c-0.1 0.2-0.3 0.5-0.3 0.6 0.2 0.6 0.6 1.8 0.6 1.8h-0.1c0 0-0.4-1.2-0.6-1.8z"/>
			<path id="Layer" fill-rule="evenodd" class="s0" d="m110.2 31.5c0 0-0.4-1.2-0.6-1.8q0-0.1 0.1-0.1 0 0 0 0 0-0.1 0-0.2c0.1-0.1 0.2-0.3 0.3-0.4q0 0 0 0 0 0 0 0h0.1q0 0.1 0.1 0.1 0 0-0.1 0c-0.1 0.2-0.2 0.5-0.2 0.6 0.1 0.6 0.5 1.6 0.5 1.8q0 0 0 0 0 0 0 0l-0.1 0.1q0 0 0 0-0.1 0-0.1-0.1zm-0.5-1.8q0 0 0 0 0 0 0 0zm0 0z"/>
		</g>
		<g id="Layer">
			<g id="Layer">
				<path id="Layer" fill-rule="evenodd" class="s0" d="m109.9 9.6c-1.4 0-2.5-1.1-2.5-2.5 0-1.3 1.1-2.4 2.5-2.4 1.3 0 2.4 1.1 2.4 2.4 0 1.4-1.1 2.5-2.4 2.5zm2.3-2.5c0-1.3-1-2.3-2.3-2.3-1.3 0-2.4 1-2.4 2.3 0 1.4 1.1 2.4 2.4 2.4 1.3 0 2.3-1 2.3-2.4z"/>
				<path id="Layer" fill-rule="evenodd" class="s0" d="m109.9 9.7c-1.4 0-2.6-1.1-2.6-2.6 0-1.4 1.2-2.5 2.6-2.5 1.4 0 2.5 1.1 2.5 2.5 0 1.5-1.1 2.6-2.5 2.6zm2.3-2.6c0-1.2-1.1-2.3-2.3-2.3-1.3 0-2.3 1.1-2.3 2.3 0 1.3 1 2.4 2.3 2.4 1.2 0 2.3-1.1 2.3-2.4z"/>
			</g>
			<g id="Layer">
				<g id="Layer">
					<path id="Layer" fill-rule="evenodd" class="s0" d="m109.5 7c-0.2 0-0.4-0.1-0.4-0.3 0-0.1 0.2-0.3 0.4-0.3 0.2 0 0.4 0.2 0.4 0.3 0 0.2-0.2 0.3-0.4 0.3zm0.3-0.3c0-0.1-0.2-0.1-0.3-0.1-0.1 0-0.2 0-0.2 0.1 0 0.1 0.1 0.2 0.2 0.2 0.1 0 0.3-0.1 0.3-0.2z"/>
				</g>
				<path id="Layer" fill-rule="evenodd" class="s0" d="m109.5 7c-0.2 0-0.4-0.1-0.4-0.3 0-0.1 0.2-0.3 0.4-0.3 0.2 0 0.4 0.2 0.4 0.3 0 0.2-0.2 0.3-0.4 0.3zm0.4-0.3c0-0.1-0.2-0.3-0.4-0.3-0.2 0-0.4 0.2-0.4 0.3 0 0.2 0.2 0.3 0.4 0.3 0.2 0 0.4-0.1 0.4-0.3zm-0.4 0.2c-0.1 0-0.2-0.1-0.2-0.2 0-0.1 0.1-0.2 0.2-0.2 0.1 0 0.3 0.1 0.3 0.2 0 0.1-0.2 0.2-0.3 0.2zm0.3-0.2c0-0.1-0.2-0.1-0.3-0.1-0.1 0-0.2 0-0.2 0.1 0 0.1 0.1 0.2 0.2 0.2 0.1 0 0.3-0.1 0.3-0.2z"/>
			</g>
			<g id="Layer">
				<g id="Layer">
					<path id="Layer" fill-rule="evenodd" class="s0" d="m110.2 7.8c-0.2 0-0.3-0.2-0.3-0.3 0-0.2 0.1-0.3 0.3-0.3 0.2 0 0.4 0.1 0.4 0.3 0 0.1-0.2 0.3-0.4 0.3zm0.3-0.3c0-0.1-0.1-0.2-0.3-0.2-0.1 0-0.2 0.1-0.2 0.2 0 0.1 0.1 0.2 0.2 0.2 0.2 0 0.3-0.1 0.3-0.2z"/>
				</g>
				<path id="Layer" fill-rule="evenodd" class="s0" d="m110.2 7.8c-0.2 0-0.3-0.2-0.3-0.3 0-0.2 0.1-0.3 0.3-0.3 0.2 0 0.4 0.1 0.4 0.3 0 0.1-0.2 0.3-0.4 0.3zm0.4-0.3c0-0.2-0.2-0.3-0.4-0.3-0.2 0-0.3 0.1-0.3 0.3 0 0.1 0.1 0.3 0.3 0.3 0.2 0 0.4-0.2 0.4-0.3zm-0.4 0.2c-0.1 0-0.2-0.1-0.2-0.2 0-0.1 0.1-0.2 0.2-0.2 0.2 0 0.3 0.1 0.3 0.2 0 0.1-0.1 0.2-0.3 0.2zm0.3-0.2c0-0.1-0.1-0.2-0.3-0.2-0.1 0-0.2 0.1-0.2 0.2 0 0.1 0.1 0.2 0.2 0.2 0.2 0 0.3-0.1 0.3-0.2z"/>
			</g>
		</g>
		<g id="Layer">
			<g id="Layer">
				<path id="Layer" fill-rule="evenodd" class="s0" d="m96.5 9.6c-1.4 0-2.5-1.1-2.5-2.5 0-1.3 1.1-2.4 2.5-2.4 1.3 0 2.4 1.1 2.4 2.4 0 1.4-1.1 2.5-2.4 2.5zm2.3-2.5c0-1.3-1-2.3-2.3-2.3-1.4 0-2.4 1-2.4 2.3 0 1.4 1 2.4 2.4 2.4 1.3 0 2.3-1 2.3-2.4z"/>
				<path id="Layer" fill-rule="evenodd" class="s0" d="m96.5 9.7c-1.4 0-2.6-1.1-2.6-2.6 0-1.4 1.2-2.5 2.6-2.5 1.4 0 2.5 1.1 2.5 2.5 0 1.5-1.1 2.6-2.5 2.6zm2.3-2.6c0-1.2-1.1-2.3-2.3-2.3-1.3 0-2.4 1.1-2.4 2.3 0 1.3 1.1 2.4 2.4 2.4 1.2 0 2.3-1.1 2.3-2.4zm-2.3 2.5v-0.1z"/>
			</g>
			<g id="Layer">
				<g id="Layer">
					<path id="Layer" fill-rule="evenodd" class="s0" d="m96.8 7c-0.2 0-0.3-0.1-0.3-0.3 0-0.1 0.1-0.3 0.3-0.3 0.2 0 0.4 0.2 0.4 0.3 0 0.2-0.2 0.3-0.4 0.3zm0.3-0.3c0-0.1-0.1-0.1-0.3-0.1-0.1 0-0.2 0-0.2 0.1 0 0.1 0.1 0.2 0.2 0.2 0.2 0 0.3-0.1 0.3-0.2z"/>
				</g>
				<path id="Layer" fill-rule="evenodd" class="s0" d="m96.8 7c-0.2 0-0.3-0.1-0.3-0.3 0-0.1 0.1-0.3 0.3-0.3 0.2 0 0.4 0.2 0.4 0.3 0 0.2-0.2 0.3-0.4 0.3zm0.4-0.3c0-0.1-0.2-0.3-0.4-0.3-0.2 0-0.3 0.2-0.3 0.3 0 0.2 0.1 0.3 0.3 0.3 0.2 0 0.4-0.1 0.4-0.3zm-0.6 0c0-0.1 0.1-0.2 0.2-0.2q0.1 0.1 0.2 0.1-0.1 0-0.2 0c-0.1 0-0.2 0-0.2 0.1 0 0.1 0.1 0.2 0.2 0.2 0.2 0 0.3-0.1 0.3-0.2q0 0 0 0 0 0 0 0c0 0.1-0.1 0.2-0.3 0.2-0.1 0-0.2-0.1-0.2-0.2zm0.4-0.1q0 0 0.1 0.1-0.1-0.1-0.1-0.1z"/>
			</g>
			<g id="Layer">
				<g id="Layer">
					<path id="Layer" fill-rule="evenodd" class="s0" d="m96.1 7.8c-0.2 0-0.4-0.2-0.4-0.3 0-0.2 0.2-0.3 0.4-0.3 0.2 0 0.3 0.1 0.3 0.3 0 0.1-0.1 0.3-0.3 0.3zm0.2-0.3c0-0.1-0.1-0.2-0.2-0.2-0.2 0-0.3 0.1-0.3 0.2 0 0.1 0.1 0.2 0.3 0.2 0.1 0 0.2-0.1 0.2-0.2z"/>
				</g>
				<path id="Layer" fill-rule="evenodd" class="s0" d="m95.7 7.5c0-0.2 0.2-0.3 0.4-0.3 0.2 0 0.3 0.1 0.3 0.3 0 0.2-0.1 0.3-0.3 0.3-0.2 0-0.4-0.1-0.4-0.3zm0.7 0c0-0.2-0.1-0.3-0.3-0.3-0.2 0-0.4 0.1-0.4 0.3 0 0.1 0.2 0.3 0.4 0.3 0.2 0 0.3-0.2 0.3-0.3zm-0.6 0c0-0.1 0.1-0.2 0.3-0.2 0.1 0 0.2 0.1 0.2 0.2 0 0.1-0.1 0.2-0.2 0.2 0.1 0 0.2-0.1 0.2-0.2 0-0.1-0.1-0.2-0.2-0.2-0.2 0-0.3 0.1-0.3 0.2 0 0.1 0.1 0.2 0.3 0.2-0.2 0-0.3-0.1-0.3-0.2z"/>
			</g>
		</g>
		<g id="Layer">
			<path id="Layer" fill-rule="evenodd" class="s0" d="m103.3 13.4c-2 0-3.6-1.6-3.6-3.6 0-1.9 1.6-3.5 3.6-3.5 2 0 3.6 1.6 3.6 3.5 0 2-1.6 3.6-3.6 3.6zm3.5-3.6c0-1.9-1.6-3.4-3.5-3.4-1.9 0-3.5 1.5-3.5 3.4 0 1.9 1.6 3.5 3.5 3.5 1.9 0 3.5-1.6 3.5-3.5z"/>
			<path id="Layer" fill-rule="evenodd" class="s0" d="m103.3 13.4c-2 0-3.7-1.6-3.7-3.6 0-2 1.7-3.6 3.7-3.6 2 0 3.7 1.6 3.7 3.6 0 2-1.7 3.6-3.7 3.6zm3.5-3.6c0-1.8-1.6-3.4-3.5-3.4-1.9 0-3.5 1.6-3.5 3.4 0 1.9 1.6 3.4 3.5 3.4 1.9 0 3.5-1.5 3.5-3.4zm-7 0h-0.1z"/>
		</g>
		<g id="Layer">
			<path id="Layer" fill-rule="evenodd" class="s0" d="m103.1 9.4c-0.2 0-0.4-0.1-0.4-0.3 0-0.1 0.2-0.2 0.4-0.2 0.2 0 0.4 0.1 0.4 0.2 0 0.2-0.2 0.3-0.4 0.3zm0.3-0.3c0-0.1-0.2-0.1-0.3-0.1-0.2 0-0.3 0-0.3 0.1 0 0.1 0.1 0.2 0.3 0.2 0.1 0 0.3-0.1 0.3-0.2z"/>
			<path id="Layer" fill-rule="evenodd" class="s0" d="m102.7 9.1c0-0.2 0.2-0.3 0.4-0.3 0.2 0 0.4 0.1 0.4 0.3 0 0.2-0.2 0.3-0.4 0.3-0.2 0-0.4-0.1-0.4-0.3zm0.7 0c0-0.1-0.1-0.2-0.3-0.2-0.2 0-0.4 0.1-0.4 0.2 0 0.2 0.2 0.3 0.4 0.3 0.2 0 0.3-0.1 0.3-0.3zm-0.3 0.2c-0.2 0-0.3-0.1-0.3-0.2 0-0.1 0.1-0.2 0.3-0.2 0.2 0 0.3 0.1 0.3 0.2 0 0.1-0.1 0.2-0.3 0.2zm0 0c0.1 0 0.2-0.1 0.2-0.2 0 0-0.1-0.1-0.2-0.1-0.2 0-0.3 0.1-0.3 0.1 0 0.1 0.1 0.2 0.3 0.2z"/>
		</g>
		<g id="Layer">
			<path id="Layer" fill-rule="evenodd" class="s0" d="m104.1 10.1c-0.3 0-0.4-0.1-0.4-0.3 0-0.2 0.1-0.3 0.4-0.3 0.2 0 0.3 0.1 0.3 0.3 0 0.2-0.1 0.3-0.3 0.3zm0.2-0.3c0-0.1-0.1-0.2-0.2-0.2-0.2 0-0.3 0.1-0.3 0.2 0 0.1 0.1 0.2 0.3 0.2 0.1 0 0.2-0.1 0.2-0.2z"/>
			<path id="Layer" fill-rule="evenodd" class="s0" d="m103.6 9.8c0-0.2 0.2-0.3 0.5-0.3 0.2 0 0.4 0.1 0.4 0.3 0 0.2-0.2 0.3-0.4 0.3-0.3 0-0.5-0.1-0.5-0.3zm0.8 0c0-0.1-0.1-0.3-0.3-0.3-0.3 0-0.4 0.2-0.4 0.3 0 0.1 0.1 0.3 0.4 0.3 0.2 0 0.3-0.2 0.3-0.3zm-0.7 0c0.1-0.1 0.2-0.2 0.4-0.2 0.1 0 0.2 0.1 0.3 0.2 0 0.1-0.2 0.2-0.3 0.2-0.2 0-0.3-0.1-0.4-0.2zm0.4 0.1c0.1 0 0.2 0 0.2-0.1 0-0.1-0.1-0.2-0.2-0.2-0.2 0-0.3 0.1-0.3 0.2 0 0.1 0.1 0.1 0.3 0.1z"/>
		</g>
		<g id="Layer">
			<path id="Layer" fill-rule="evenodd" class="s0" d="m102.4 10.3c-0.2 0-0.4-0.2-0.4-0.3 0-0.2 0.2-0.3 0.4-0.3 0.2 0 0.4 0.1 0.4 0.3 0 0.1-0.2 0.3-0.4 0.3zm0.3-0.3c0-0.1-0.1-0.2-0.3-0.2-0.1 0-0.3 0.1-0.3 0.2 0 0.1 0.2 0.2 0.3 0.2 0.2 0 0.3-0.1 0.3-0.2z"/>
			<path id="Layer" fill-rule="evenodd" class="s0" d="m102 10c0-0.2 0.2-0.3 0.4-0.3 0.2 0 0.4 0.1 0.4 0.3 0 0.2-0.2 0.3-0.4 0.3-0.2 0-0.4-0.1-0.4-0.3zm0.8 0c0-0.1-0.2-0.3-0.4-0.3-0.2 0-0.4 0.2-0.4 0.3 0 0.1 0.2 0.3 0.4 0.3 0.2 0 0.4-0.2 0.4-0.3zm-0.4 0.2c-0.2 0-0.3-0.1-0.3-0.2 0-0.1 0.1-0.2 0.3-0.2 0.2 0 0.3 0.1 0.3 0.2 0 0.1-0.1 0.2-0.3 0.2zm0-0.1c0.2 0 0.3-0.1 0.3-0.1 0-0.1-0.1-0.2-0.3-0.2-0.2 0-0.3 0.1-0.3 0.2 0 0 0.1 0.1 0.3 0.1z"/>
		</g>
		<g id="Layer">
			<path id="Layer" fill-rule="evenodd" class="s0" d="m103.4 10.9c-0.2 0-0.4-0.1-0.4-0.2 0-0.2 0.2-0.3 0.4-0.3 0.2 0 0.4 0.1 0.4 0.3 0 0.1-0.2 0.2-0.4 0.2zm0.3-0.2c0-0.1-0.2-0.2-0.3-0.2-0.2 0-0.3 0.1-0.3 0.2 0 0.1 0.1 0.1 0.3 0.1 0.1 0 0.3 0 0.3-0.1z"/>
			<path id="Layer" fill-rule="evenodd" class="s0" d="m103 10.7c0-0.2 0.2-0.3 0.4-0.3 0.2 0 0.4 0.1 0.4 0.3 0 0.1-0.2 0.3-0.4 0.3-0.2 0-0.4-0.1-0.4-0.3zm0.7 0c0-0.2-0.1-0.3-0.3-0.3-0.2 0-0.4 0.1-0.4 0.3 0 0.1 0.2 0.2 0.4 0.2 0.2 0 0.3-0.1 0.3-0.2zm-0.3 0.2c-0.2 0-0.3-0.1-0.3-0.2 0-0.1 0.1-0.2 0.3-0.2 0.1 0 0.3 0.1 0.3 0.2 0 0.1-0.2 0.2-0.3 0.2zm0-0.1c0.1 0 0.2-0.1 0.2-0.1 0-0.1-0.1-0.2-0.2-0.2-0.2 0-0.3 0.1-0.3 0.2 0 0 0.1 0.1 0.3 0.1z"/>
		</g>
		<g id="Layer">
			<path id="Layer" fill-rule="evenodd" class="s0" d="m103.3 21.4c-1 0-1.9-0.8-1.9-1.8 0-1 0.9-1.8 1.9-1.8 1 0 1.8 0.8 1.8 1.8 0 1-0.8 1.8-1.8 1.8zm1.7-1.8c0-1-0.7-1.7-1.7-1.7-1 0-1.7 0.7-1.7 1.7 0 0.9 0.7 1.7 1.7 1.7 1 0 1.7-0.8 1.7-1.7z"/>
			<path id="Layer" fill-rule="evenodd" class="s0" d="m103.3 21.5c-1.1 0-1.9-0.9-1.9-1.9 0-1.1 0.8-1.9 1.9-1.9 1.1 0 1.9 0.8 1.9 1.9 0 1-0.8 1.9-1.9 1.9zm1.7-1.9c0-0.9-0.8-1.7-1.7-1.7-0.9 0-1.7 0.8-1.7 1.7 0 0.9 0.8 1.6 1.7 1.6 0.9 0 1.7-0.7 1.7-1.6zm-3.4 0h-0.1z"/>
		</g>
		<g id="Layer">
			<path id="Layer" fill-rule="evenodd" class="s0" d="m103 19.2c0-0.1 0.1-0.1 0.2-0.1 0.1 0 0.2 0 0.2 0.1 0 0.1-0.1 0.2-0.2 0.2-0.1 0-0.2-0.1-0.2-0.2zm0.1 0c0 0 0 0.1 0.1 0.1 0.1 0 0.1-0.1 0.1-0.1 0 0 0 0-0.1 0-0.1 0-0.1 0-0.1 0z"/>
			<path id="Layer" fill-rule="evenodd" class="s0" d="m102.9 19.2c0.1-0.1 0.2-0.2 0.3-0.2 0.1 0 0.2 0.1 0.2 0.2 0 0.2-0.1 0.2-0.2 0.2-0.1 0-0.2 0-0.3-0.2zm0.3 0.2c0.1 0 0.2-0.1 0.2-0.2 0-0.1-0.1-0.1-0.2-0.1-0.1 0-0.2 0-0.2 0.1 0 0.1 0.1 0.2 0.2 0.2zm-0.1-0.2q0 0 0.1-0.1 0.1 0.1 0.1 0.1 0 0.1-0.1 0.1-0.1 0-0.1-0.1zm0.1 0.1c0.1 0 0.1-0.1 0.1-0.1 0 0 0 0-0.1 0-0.1 0-0.1 0-0.1 0 0 0 0 0.1 0.1 0.1z"/>
		</g>
		<g id="Layer">
			<path id="Layer" fill-rule="evenodd" class="s0" d="m103.5 19.6c0-0.1 0.1-0.2 0.2-0.2 0.1 0 0.2 0.1 0.2 0.2 0 0.1-0.1 0.1-0.2 0.1-0.1 0-0.2 0-0.2-0.1zm0.1 0c0 0 0 0 0.1 0 0.1 0 0.1 0 0.1 0 0-0.1 0-0.1-0.1-0.1-0.1 0-0.1 0.1-0.1 0.1z"/>
			<path id="Layer" fill-rule="evenodd" class="s0" d="m103.7 19.8c-0.1 0-0.3-0.1-0.3-0.2h0.1-0.1c0-0.2 0.2-0.2 0.3-0.2 0.1 0 0.2 0 0.2 0.2 0 0.1-0.1 0.2-0.2 0.2q0 0 0 0zm0-0.1c0.1 0 0.2 0 0.2-0.1 0-0.1-0.1-0.2-0.2-0.2-0.1 0-0.2 0.1-0.2 0.2 0 0.1 0.1 0.1 0.2 0.1zm-0.2-0.1h0.1-0.1q0-0.1 0.2-0.1 0.1 0 0.1 0.1 0 0-0.1 0.1-0.2-0.1-0.2-0.1zm0.2 0c0 0 0.1 0 0.1 0 0 0-0.1-0.1-0.1-0.1q-0.1 0-0.1 0.1c0 0 0 0 0.1 0z"/>
		</g>
		<g id="Layer">
			<path id="Layer" fill-rule="evenodd" class="s0" d="m102.6 19.7c0-0.1 0.1-0.2 0.2-0.2 0.2 0 0.3 0.1 0.3 0.2 0 0.1-0.1 0.1-0.3 0.1-0.1 0-0.2 0-0.2-0.1zm0.1 0c0 0 0.1 0 0.1 0 0.1 0 0.2 0 0.2 0 0-0.1-0.1-0.1-0.2-0.1 0 0-0.1 0-0.1 0.1z"/>
			<path id="Layer" fill-rule="evenodd" class="s0" d="m102.6 19.7c0-0.2 0.1-0.2 0.2-0.2 0.2 0 0.3 0 0.3 0.2 0 0.1-0.1 0.2-0.3 0.2-0.1 0-0.2-0.1-0.2-0.2zm0.2 0.1c0.2 0 0.2 0 0.2-0.1 0-0.1 0-0.2-0.2-0.2-0.1 0-0.1 0.1-0.2 0.2 0.1 0.1 0.1 0.1 0.2 0.1zm-0.1-0.1q0-0.1 0.1-0.1 0.2 0 0.2 0.1 0 0-0.2 0-0.1 0-0.1 0zm0.2 0q0 0 0 0c0 0 0-0.1-0.1-0.1 0 0 0 0.1 0 0.1 0 0 0 0 0 0q0.1 0 0.1 0z"/>
		</g>
		<g id="Layer">
			<path id="Layer" fill-rule="evenodd" class="s0" d="m103.1 20c0-0.1 0.1-0.2 0.2-0.2 0.1 0 0.3 0.1 0.3 0.2 0 0.1-0.2 0.2-0.3 0.2-0.1 0-0.2-0.1-0.2-0.2zm0.1 0c0 0 0.1 0.1 0.1 0.1 0.1 0 0.2-0.1 0.2-0.1 0 0-0.1-0.1-0.2-0.1 0 0-0.1 0.1-0.1 0.1z"/>
			<path id="Layer" fill-rule="evenodd" class="s0" d="m103.1 20c0-0.1 0.1-0.2 0.2-0.2 0.1 0 0.3 0.1 0.3 0.2 0 0.1-0.1 0.2-0.3 0.2-0.1 0-0.2-0.1-0.2-0.2zm0.2 0.1c0.1 0 0.2 0 0.2-0.1 0-0.1-0.1-0.1-0.2-0.1-0.1 0-0.2 0-0.2 0.1 0 0.1 0.1 0.1 0.2 0.1zm-0.1-0.1q0-0.1 0.1-0.1 0.2 0 0.2 0.1 0 0.1-0.2 0.1-0.1 0-0.1-0.1zm0.1 0c0.1 0 0.1 0 0.1 0 0 0 0 0-0.1 0 0 0-0.1 0-0.1 0 0 0 0.1 0 0.1 0z"/>
		</g>
		<g id="Layer">
			<g id="Layer">
				<path id="Layer" class="s0" d="m96.9 12.8c-0.6-0.1-2.8-1.3-3.9-1.9-1.1-0.6-2.8-1.8-3-1.9v-0.1c0.1-0.1 0.2-0.5 0.4-0.5q0 0 0 0c0.2 0 2 0.8 3.1 1.5 1.1 0.6 3.4 1.8 3.7 2.2 0.3 0.1 2.9 1.6 6 3.4v0.1c-3.2-1.8-5.8-3.3-6.1-3.4-0.2-0.4-2.5-1.6-3.6-2.2-1.1-0.7-2.9-1.5-3.1-1.5 0 0-0.2 0.3-0.3 0.4 0.2 0.2 1.9 1.3 3 1.9 1.1 0.6 3.3 1.8 3.8 1.9 0.2 0.1 2.7 1.5 5.8 3.1l-0.1 0.1c-3.1-1.6-5.5-3-5.7-3.1z"/>
				<path id="Layer" fill-rule="evenodd" class="s0" d="m102.6 16c-3-1.7-5.5-3-5.8-3.2-0.5 0-2.7-1.2-3.8-1.8-1.1-0.7-2.9-1.8-3-2v-0.1c0-0.2 0.2-0.5 0.4-0.6q0.1 0 0.1 0 0 0 0 0c0.2 0.1 2 0.9 3.1 1.5 1.1 0.7 3.3 1.8 3.7 2.2 0.2 0.2 2.8 1.7 6 3.5q0 0 0 0.1h-0.1q0 0.1 0 0.1 0 0 0 0c-3.2-1.9-5.8-3.3-6.1-3.5-0.2-0.3-2.6-1.6-3.6-2.2-1.1-0.6-2.9-1.4-3.1-1.5q0 0 0 0 0 0 0 0 0 0.1 0 0.1 0 0-0.1 0.1 0 0.1-0.1 0.2c0.3 0.2 1.9 1.3 2.9 1.9 1.1 0.6 3.4 1.8 3.8 1.8 0.3 0.2 2.7 1.5 5.8 3.2q0 0 0 0 0 0.1 0 0.1v0.1q0 0 0 0-0.1 0-0.1 0 0 0 0 0zm-12.3-7.4q0 0-0.1 0 0.1 0 0.1 0zm6.6 4.2h-0.1 0.1v-0.1zm-6.8-3.8q0 0 0 0 0 0 0 0 0 0 0 0zm0.4-0.4q0 0 0 0 0 0 0 0z"/>
			</g>
			<g id="Layer">
				<path id="Layer" fill-rule="evenodd" class="s0" d="m103.8 15.9q-0.3-0.1-0.6-0.3h-0.1l0.1-0.1c3.2-1.8 5.8-3.3 6-3.4 0.3-0.4 2.6-1.6 3.7-2.2 1.1-0.7 2.9-1.5 3.1-1.5q0 0 0 0 0 0 0 0c0.2 0 0.4 0.4 0.4 0.5v0.1c-0.1 0.1-1.9 1.3-3 1.9-1.1 0.6-3.3 1.8-3.8 1.9-0.3 0.1-2.7 1.5-5.8 3.1v0.1zm0-0.2c3.1-1.6 5.6-3 5.8-3.1 0.5 0 2.7-1.3 3.8-1.9 1.1-0.5 2.8-1.7 2.9-1.9 0-0.1-0.2-0.4-0.3-0.4q0 0 0 0c-0.1 0-1.9 0.8-3 1.5-1.1 0.6-3.4 1.8-3.7 2.2-0.2 0.1-2.8 1.6-5.9 3.4q0.2 0.1 0.4 0.2z"/>
				<path id="Layer" fill-rule="evenodd" class="s0" d="m103.8 16h-0.1q-0.2-0.2-0.5-0.3l-0.1-0.1q0 0 0 0 0-0.1 0-0.1h0.1c3.1-1.8 5.7-3.3 6-3.4 0.3-0.5 2.6-1.6 3.7-2.3 1.1-0.6 2.8-1.4 3.1-1.5q0 0 0 0 0 0 0 0c0.3 0.1 0.4 0.4 0.5 0.6v0.1h-0.1c-0.1 0.2-1.8 1.3-3 2-1.1 0.5-3.2 1.7-3.8 1.8-0.3 0.2-2.7 1.5-5.8 3.2q0 0 0 0 0 0 0 0zm0-0.1q0 0 0 0 0 0 0 0 0 0 0 0zm0-0.1c3.1-1.7 5.5-3 5.7-3.2q0.1 0 0.1 0 0 0 0 0c0.4 0 2.7-1.2 3.8-1.8 1-0.6 2.6-1.7 2.8-1.9 0-0.1-0.1-0.3-0.2-0.4q0 0 0 0 0 0 0 0 0 0 0 0c-0.1 0.1-2 0.9-3 1.5-1.1 0.6-3.4 1.9-3.7 2.2-0.2 0.2-2.7 1.6-5.9 3.4q0.2 0.1 0.4 0.2zm-0.5-0.2q0 0 0 0 0 0 0-0.1 0 0.1-0.1 0.1 0.1 0 0.1 0zm0.5 0.3zm0-0.1zm12.6-6.9q0 0 0 0 0 0 0 0 0 0 0 0z"/>
			</g>
			<g id="Layer">
				<g id="Layer">
					<path id="Layer" class="s0" d="m90.5 23.1c0 0 7.2-3.9 12.8-6.9l-0.1 0.1c-2.7 1.5-5.9 3.2-8.4 4.6-2.4 1.3-4.2 2.3-4.2 2.3l-0.7 0.1 0.5-0.5v0.1-0.1c0 0 6.8-3.8 12.2-6.9l0.1-0.1v0.1q0 0 0 0c-5.4 3.1-12.3 7-12.3 7l-0.3 0.3z"/>
					<path id="Layer" class="s0" d="m89.9 23.3q0 0 0 0l0.4-0.5q0 0 0 0 0 0 0.1 0c0 0 6.8-3.9 12.2-7q0.1 0 0.1 0 0 0 0 0 0.1 0 0.1 0.1 0 0-0.1 0c-5.3 3.1-12 6.9-12.3 7l-0.2 0.2h0.3c0.3-0.1 7.3-4 12.8-7q0 0 0 0l0.1 0.1q0 0 0 0 0 0 0 0.1h-0.1c-2.8 1.5-6 3.3-8.4 4.6-2.5 1.4-4.3 2.3-4.3 2.4l-0.7 0.1q0 0 0 0 0 0 0-0.1z"/>
				</g>
				<g id="Layer">
					<path id="Layer" class="s0" d="m90.4 22.9c0 0 6.9-3.9 12.3-7q0.2 0.1 0.5 0.2l-0.2 0.1q-0.1-0.1-0.3-0.2c-5.4 3-12 6.8-12.3 6.9l-0.2 0.2-0.1 0.1z"/>
					<path id="Layer" class="s0" d="m90 23.3q0-0.1 0-0.1l0.4-0.4c0 0 1.7-0.9 4.1-2.3 2.4-1.4 5.5-3.1 8.2-4.7q0 0 0 0 0.3 0.1 0.5 0.3 0 0 0 0 0 0 0 0.1h-0.1q0 0-0.1 0-0.2-0.1-0.3-0.2c-5.3 3-11.9 6.8-12.2 7l-0.2 0.2q0 0 0 0l-0.2 0.1v-0.1 0.1q0 0 0 0 0 0-0.1 0z"/>
				</g>
				<g id="Layer">
					<path id="Layer" class="s0" d="m103.3 16.2c-5.6 3-12.7 6.9-12.7 6.9l-0.5 0.1 0.1-0.1h0.3c0 0 7.1-3.9 12.6-6.9q0 0-0.1 0l0.2-0.1q0 0 0.1 0.1z"/>
					<path id="Layer" fill-rule="evenodd" class="s0" d="m90 23.2q0 0 0.1 0l0.1-0.1 0.3-0.1c0.3-0.1 7.1-3.8 12.5-6.8q0 0 0 0 0-0.1 0-0.1h0.1q0.1-0.1 0.1 0 0 0 0.1 0 0 0 0 0.1 0 0 0 0c-4.2 2.3-9.2 5.1-11.5 6.3-0.8 0.4-1.2 0.7-1.2 0.7l-0.5 0.1q0 0 0 0 0 0-0.1-0.1zm13.2-7q0 0 0 0 0 0 0 0 0 0 0 0zm-0.1 0l0.1-0.1z"/>
				</g>
			</g>
			<g id="Layer">
				<path id="Layer" class="s0" d="m102.6 15.9l0.1-0.1q0.3 0.2 0.5 0.4v0.1q-0.3-0.2-0.6-0.4z"/>
				<path id="Layer" class="s0" d="m103.2 16.3q-0.3-0.2-0.6-0.3v-0.1 0.1q0 0 0-0.1 0 0 0 0v-0.1q0 0 0.1 0 0 0 0 0 0.3 0.2 0.6 0.3 0 0 0 0 0 0.1 0 0.1l-0.1 0.1q0 0 0 0 0 0 0 0z"/>
			</g>
			<g id="Layer">
				<path id="Layer" class="s0" d="m103.2 15.6v-0.1q0.3 0.2 0.6 0.4-0.3-0.1-0.6-0.3z"/>
				<path id="Layer" class="s0" d="m103.7 16q-0.2-0.2-0.5-0.3v-0.1 0.1q-0.1-0.1 0-0.1v-0.1q0 0 0.1 0 0.3 0.1 0.5 0.3 0.1 0 0.1 0.1l-0.1 0.1q0 0 0 0 0 0 0 0-0.1 0-0.1 0z"/>
			</g>
			<g id="Layer">
				<path id="Layer" class="s0" d="m115.9 23.2c0 0-7.2-3.9-12.7-6.9v-0.1c5.6 3 12.7 6.9 12.7 6.9h0.3l-0.2-0.2c0 0-6.8-3.9-12.2-7v-0.1c5.5 3.2 12.3 7 12.3 7l0.4 0.5z"/>
				<path id="Layer" fill-rule="evenodd" class="s0" d="m116.5 23.4l-0.6-0.2h-0.1c0 0-7.1-3.9-12.6-6.9q-0.1 0 0-0.1v-0.1q0 0 0 0 0.1 0 0.1 0c5.3 2.9 12.2 6.7 12.6 6.9l0.2 0.1-0.1-0.1c-0.3-0.2-6.9-4-12.3-7q0 0 0-0.1l0.1-0.1q0 0 0 0 0 0 0 0c5.5 3.1 12.3 7 12.3 7l0.5 0.5q0 0 0 0-0.1 0.1-0.1 0.1 0 0 0 0zm-0.1-0.2l-0.1-0.1q0 0.1 0 0.1-0.1 0-0.1 0zm-0.4-0.1q0 0 0 0 0 0 0 0zm0 0q0 0 0 0 0 0 0 0zm0-0.1q0 0 0 0 0 0 0 0z"/>
			</g>
		</g>
		<g id="Layer">
			<path id="Layer" fill-rule="evenodd" class="s0" d="m99.6 35.4c0-0.5 0.6-0.9 1.4-1.2h0.1v0.1q0 0.2 0 0.2c0.2 0.4 0.7 0.8 2.1 0.8 1.3 0 2.1-0.5 2.1-0.7q0.1-0.1 0.1-0.3v-0.1c0.9 0.3 1.4 0.7 1.4 1.2 0 0.9-1.6 1.5-3.6 1.5-2 0-3.6-0.6-3.6-1.5zm0.1 0c0 0.3 0.3 0.7 1 0.9 0.6 0.3 1.5 0.5 2.5 0.5 1 0 1.9-0.2 2.5-0.5 0.7-0.2 1-0.6 1-0.9 0-0.4-0.4-0.8-1.2-1.1q0 0.3-0.1 0.3c-0.1 0.4-0.8 0.8-2.2 0.8-1.4 0-2-0.5-2.2-0.8q0 0 0-0.3c-0.8 0.3-1.3 0.7-1.3 1.1zm5.7-1.1z"/>
			<path id="Layer" fill-rule="evenodd" class="s0" d="m99.5 35.4h0.1-0.1c0-0.6 0.6-1 1.5-1.3h0.1q0 0 0 0 0.1 0.1 0.1 0.1v0.1q0 0.2 0 0.2c0.2 0.3 0.6 0.7 2 0.7q0 0 0 0c1.3 0 2.1-0.4 2.1-0.6 0 0 0-0.2 0-0.3v-0.1q0 0 0 0 0-0.1 0.1 0c0.9 0.2 1.5 0.6 1.5 1.2-0.1 0.9-1.7 1.5-3.7 1.5-2 0-3.6-0.6-3.7-1.5zm0.2 0c0 0.3 0.4 0.6 1 0.9 0.6 0.2 1.5 0.4 2.5 0.4 1 0 1.9-0.2 2.5-0.4 0.6-0.3 1-0.6 1-0.9q0 0 0 0 0 0 0 0c0-0.4-0.4-0.7-1.2-1q0 0.2 0 0.2c-0.1 0.4-0.9 0.8-2.3 0.8q0 0 0 0c-1.4 0-2-0.4-2.2-0.8q0 0 0-0.2c-0.8 0.3-1.3 0.6-1.3 1zm1.3-1.1q0 0 0 0 0 0 0 0 0 0 0 0 0 0 0 0z"/>
		</g>
		<g id="Layer">
			<path id="Layer" class="s0" d="m101.2 29.8c0 0 0-0.4 0-0.5 0.3-0.3 1.1-0.5 1.9-0.5q0 0 0.1 0c0.8 0.1 1.7 0.2 1.9 0.5q0.1 0.4 0.1 0.4l-0.1 0.1c0 0 0-0.2-0.1-0.4-0.1-0.2-1.1-0.5-1.8-0.5q-0.1 0-0.1 0c-0.7 0-1.5 0.2-1.8 0.5 0 0.1 0 0.4 0 0.4z"/>
			<path id="Layer" fill-rule="evenodd" class="s0" d="m101.2 29.9q-0.1 0-0.1-0.1c0-0.1 0.1-0.4 0.1-0.5 0.3-0.4 1.1-0.5 1.8-0.5q0.1 0 0.2 0c0.8 0 1.7 0.1 1.9 0.5q0.2 0.4 0.2 0.4 0 0 0 0 0 0.1-0.1 0.1h-0.1q0 0 0 0 0 0 0 0c0 0-0.1-0.1-0.2-0.4 0-0.1-0.2-0.2-0.6-0.3-0.3 0-0.7-0.1-1.1-0.1q-0.1 0-0.2 0 0 0 0 0c-0.6 0-1.4 0.2-1.6 0.4 0 0.1-0.1 0.4-0.1 0.4q0 0.1 0 0.1 0 0 0 0zm3.4-0.8q-0.1 0-0.1-0.1 0 0.1 0.1 0.1zm-3.3 0.3q0 0 0 0 0 0 0 0z"/>
		</g>
		<g id="Layer">
			<path id="Layer" fill-rule="evenodd" class="s0" d="m101.6 29.4q0 0 0 0c0.1-0.3 0.8-0.5 1.6-0.5 0.9 0 1.5 0.2 1.6 0.5h-0.1 0.1c-0.1 0.4-0.8 0.5-1.6 0.6-0.9-0.1-1.6-0.2-1.6-0.6zm0.5 0.3c0.3 0.1 0.7 0.1 1.1 0.1 0.4 0 0.8 0 1.1-0.1 0.2-0.1 0.4-0.2 0.4-0.3q0 0 0 0c0-0.1-0.2-0.2-0.4-0.3-0.3 0-0.7-0.1-1.1-0.1-0.4 0-0.8 0.1-1.1 0.1-0.2 0.1-0.4 0.2-0.4 0.3q0 0 0 0c0 0.1 0.2 0.2 0.4 0.3z"/>
			<path id="Layer" fill-rule="evenodd" class="s0" d="m101.6 29.4q0 0 0 0 0 0 0 0c0.1-0.4 0.8-0.5 1.6-0.6 0.9 0.1 1.6 0.2 1.6 0.6q0 0 0 0 0 0 0 0c0 0.5-0.8 0.6-1.6 0.6-0.9 0-1.6-0.1-1.6-0.6zm1.6 0.4c0.4 0 0.8-0.1 1-0.1 0.3-0.1 0.4-0.2 0.4-0.3q0 0 0 0 0 0 0 0c0 0-0.1-0.1-0.3-0.2-0.3-0.1-0.7-0.1-1.1-0.1-0.4 0-0.8 0-1 0.1-0.3 0.1-0.4 0.2-0.4 0.2q0 0 0 0 0 0 0 0c0 0.1 0.1 0.2 0.3 0.3 0.3 0 0.7 0.1 1.1 0.1z"/>
		</g>
		<g id="Layer">
			<path id="Layer" fill-rule="evenodd" class="s0" d="m81.7 22q0 0 0 0c0-0.1 0.1-0.3 0.7-0.8 0.8-0.6 5.1-2 7.6-3 1.8-0.7 2.8-1.3 3.4-1.9-0.4-0.8-3.5-2.8-4-3.2-0.6-0.4-4.6-3.5-4.9-3.8-0.3-0.3-0.9-1.1-1.4-1.9q-0.1-0.3-0.1-0.7c0-0.9 0.4-1.8 0.9-1.8 0 0 1.3 1.5 1.8 1.9 0.5 0.5 2.9 2.3 3.4 2.6 0.5 0.3 4.2 3 4.6 3.5 0.3 0.3 0.9 1.1 0.9 1.8q0 0.4-0.3 0.8-0.3 0.4-0.8 0.8 0.1 0 0.1 0l0.3 2.9h-0.1l-0.3-2.8c-0.7 0.6-1.7 1.3-3.4 1.9-2.6 1-6.9 2.4-7.6 3-0.6 0.4-0.7 0.6-0.7 0.7 0.1 1 0.2 2.8 0.3 3.1l-0.1 0.1c-0.1-0.4-0.2-2.1-0.3-3.2zm1.7-16.5c-0.2 0.3-0.3 0.8-0.3 1.2q0 0.3 0.1 0.6c0.5 0.9 1.1 1.7 1.4 2 0.3 0.3 4.3 3.3 4.8 3.7 0.6 0.4 3.6 2.3 4.1 3.2q0.4-0.4 0.7-0.8 0.3-0.3 0.3-0.7c0-0.7-0.5-1.4-0.8-1.7-0.5-0.5-4.1-3.2-4.6-3.5-0.5-0.3-2.9-2.2-3.5-2.6-0.5-0.4-1.6-1.7-1.7-1.9-0.2 0-0.4 0.2-0.5 0.5z"/>
			<path id="Layer" fill-rule="evenodd" class="s0" d="m82 25.2q0 0 0 0c-0.1-0.4-0.3-2.1-0.3-3.2q0 0 0 0 0 0 0 0c0-0.2 0.1-0.4 0.7-0.9 0.8-0.6 5.1-2 7.6-2.9 1.7-0.7 2.7-1.3 3.4-2-0.5-0.7-3.5-2.7-4.1-3.1-0.5-0.4-4.5-3.4-4.8-3.7-0.3-0.3-1-1.1-1.4-2q-0.2-0.3-0.2-0.7c0-0.9 0.5-1.8 1-1.9h0.1v0.1c0 0 1.2 1.5 1.7 1.9 0.6 0.4 3 2.2 3.5 2.5 0.5 0.3 4.1 3 4.6 3.6 0.3 0.3 0.8 1 0.8 1.8q0 0.4-0.3 0.8-0.3 0.4-0.7 0.8 0 0 0 0l0.4 2.9q0 0 0 0.1 0 0-0.1 0h-0.1q0 0 0 0 0 0 0-0.1l-0.4-2.7c-0.7 0.6-1.6 1.2-3.3 1.9-2.5 0.9-6.8 2.3-7.6 2.9-0.5 0.4-0.6 0.6-0.6 0.7 0.1 1 0.2 2.8 0.3 3.1q0 0 0 0 0 0.1 0 0.1h-0.1q-0.1 0-0.1 0 0 0 0 0zm11.5-8.9q0 0 0 0 0 0 0 0 0 0 0-0.1 0 0 0 0 0 0 0 0 0 0 0 0 0 0.1 0 0.1 0 0-0.1 0 0.1 0 0.1 0 0 0 0 0zm-10.4-9.6q0 0.3 0.2 0.6c0.4 0.8 1.1 1.6 1.3 1.9 0.3 0.3 4.3 3.3 4.9 3.8 0.5 0.4 3.4 2.2 4 3.1q0.4-0.4 0.7-0.7 0.2-0.3 0.2-0.7c0-0.6-0.5-1.4-0.8-1.7-0.4-0.5-4.1-3.2-4.6-3.5-0.5-0.3-2.9-2.1-3.4-2.5-0.5-0.4-1.5-1.7-1.7-1.9-0.2 0-0.4 0.2-0.5 0.4-0.1 0.4-0.3 0.8-0.3 1.2zm0.8-1.8q0 0 0 0 0 0 0 0zm-2.2 17.1h0.1z"/>
		</g>
		<g id="Layer">
			<path id="Layer" class="s0" d="m84.7 26.2c-1-0.1-1.2-0.1-2.5-0.7q-0.2-0.1-0.2-0.3c0.1-0.5 1.8-1.2 3.8-2.1 2-0.8 4.2-1.6 5.1-1.9 2-0.8 2.9-2.1 3.1-2.4 0.1-0.1 0.2-1.1 0.3-2.1 0.1-0.9 0.1-1.8 0.1-1.8h0.1c0 0-0.1 3.6-0.4 3.9-0.2 0.3-1.2 1.7-3.2 2.5-0.9 0.3-3.1 1.1-5.1 1.9-1.9 0.8-3.7 1.7-3.7 2q0 0.1 0.1 0.2c1.3 0.6 1.5 0.6 2.5 0.7 1 0.2 2.8 0.3 2.8 0.3v0.1c0 0-1.8-0.1-2.8-0.3z"/>
			<path id="Layer" fill-rule="evenodd" class="s0" d="m84.7 26.3c-1-0.1-1.3-0.2-2.5-0.8q-0.2-0.1-0.2-0.3 0 0 0 0c0-0.6 1.8-1.3 3.8-2.1 1.9-0.8 4.2-1.6 5.1-2 1.9-0.8 2.8-2.1 3.1-2.4 0 0 0.1-0.3 0.1-0.7 0.1-0.3 0.1-0.8 0.2-1.3 0-0.9 0.1-1.8 0.1-1.8q0-0.1 0-0.1 0 0 0 0 0 0 0 0h0.1q0.1 0 0.1 0 0 0.1 0 0.1 0 0 0 0 0 0 0 0 0 0 0 0 0 0.1 0 0.1 0 0.2 0 0.4c-0.1 0.4-0.1 0.8-0.1 1.3-0.1 1-0.2 1.9-0.4 2.2-0.2 0.3-1.1 1.6-3.1 2.4-1 0.4-3.2 1.2-5.2 2-0.9 0.4-1.8 0.8-2.5 1.1-0.7 0.4-1.1 0.7-1.1 0.8q0 0 0 0c0 0 0 0.1 0.1 0.1 1.2 0.6 1.4 0.7 2.4 0.8 1 0.1 2.8 0.2 2.8 0.2q0.1 0 0.1 0 0 0.1 0 0.1v0.1q0 0-0.1 0c0 0-1.8-0.1-2.8-0.2zm-2-1.6q0.2-0.2 0.5-0.3-0.3 0.1-0.5 0.3z"/>
		</g>
		<g id="Layer">
			<path id="Layer" class="s0" d="m82.3 29.6q0 0 0 0c0.1-0.4 0.9-1.1 1.4-1.4 0.5-0.2 4-1.8 4.7-2 0.4-0.1 1.4-0.4 2.3-0.7 0.9-0.3 1.8-0.7 1.8-0.8q0 0 0 0c0 0-0.1-0.1-0.3-0.1q-0.3-0.1-0.8-0.2c-0.5 0-1.2-0.1-1.5-0.1-0.4 0-2.7-0.4-4-0.5-0.5-0.1-0.8-0.2-0.9-0.2l0.1-0.1c0 0 0.3 0.1 0.8 0.2 1.3 0.1 3.7 0.5 4.1 0.5 0.2 0 0.9 0.1 1.5 0.1 0.5 0.1 1.1 0.2 1.1 0.4q0 0 0 0c-0.1 0.3-0.9 0.6-1.8 0.9-1 0.3-2 0.6-2.3 0.7-0.8 0.2-4.2 1.8-4.8 2-0.5 0.2-1.3 1-1.3 1.3q0 0 0.1 0c0 0.2 0.6 3.1 0.6 3.1h-0.1c0 0-0.6-2.9-0.7-3.1z"/>
			<path id="Layer" fill-rule="evenodd" class="s0" d="m83 32.8c-0.1-0.1-0.6-2.9-0.7-3.2q0 0 0 0c0-0.4 0.8-1.2 1.4-1.5 0.5-0.2 4-1.7 4.7-2 0.4-0.1 1.4-0.4 2.3-0.7 0.8-0.2 1.7-0.6 1.7-0.7q0 0 0 0 0 0 0 0-0.1-0.1-0.2-0.1c-0.2 0-0.5-0.1-0.8-0.1-0.5-0.1-1.2-0.1-1.5-0.1-0.4-0.1-2.7-0.4-4-0.6-0.5-0.1-0.8-0.1-0.9-0.1q0 0 0 0 0 0 0 0 0 0 0-0.1 0 0 0 0v-0.1q0 0 0.1 0c0 0 0.3 0 0.8 0.1 1.3 0.2 3.7 0.5 4.1 0.5 0.2 0.1 0.9 0.1 1.5 0.2 0.5 0.1 1.1 0.1 1.2 0.4q-0.1 0-0.1 0.1c-0.1 0.3-0.9 0.5-1.8 0.8-1 0.3-2 0.6-2.3 0.7-0.7 0.3-4.2 1.8-4.7 2-0.5 0.2-1.3 1.1-1.3 1.2v0.1q0-0.1 0 0c0.1 0.2 0.7 3.1 0.7 3.1q0 0.1-0.1 0.1h-0.1q0 0 0 0 0 0 0 0zm-0.7-3.2h0.1q0 0 0 0zm9.6-4.5q0.2-0.1 0.4-0.2-0.2 0.1-0.4 0.2z"/>
		</g>
		<g id="Layer">
			<path id="Layer" class="s0" d="m83.4 32.9q-0.5 0-0.5-0.3c0-0.5 1.2-1.3 1.6-1.4 0.5-0.2 4.6-1.8 5.4-2 0.7-0.3 2.8-1.1 3-1.2 0 0 0-0.1 0-0.3 0-0.8-0.4-3-0.4-3h0.1c0 0 0.4 2.2 0.4 3 0 0.2 0 0.3-0.1 0.3-0.2 0.2-2.3 1-3 1.3-0.7 0.2-4.9 1.8-5.4 2-0.3 0.1-1.5 1-1.5 1.3 0 0.1 0.1 0.2 0.4 0.2h1.3v0.1h-1.3z"/>
			<path id="Layer" class="s0" d="m83.4 33v-0.1 0.1c-0.3 0-0.5-0.1-0.5-0.4 0-0.5 1.2-1.3 1.6-1.5 0.5-0.2 4.6-1.7 5.4-2 0.7-0.2 2.7-1 2.9-1.2q0 0 0 0 0.1-0.1 0.1-0.2 0 0 0 0 0 0 0 0c0-0.8-0.4-2.9-0.5-2.9q0-0.1 0-0.1 0.1 0 0.1 0h0.1q0 0 0 0 0 0 0.1 0 0 0 0 0 0 0.1 0 0.1 0 0.1 0 0.3 0.1 0.3 0.2 0.8c0.1 0.6 0.2 1.4 0.2 1.8 0 0.2 0 0.3-0.1 0.4-0.3 0.2-2.3 1-3.1 1.2-0.7 0.3-4.9 1.8-5.4 2-0.3 0.1-1.5 1-1.4 1.3q0 0 0 0c0 0.1 0 0.1 0.3 0.1h1.4q0 0 0 0.1 0 0 0 0v0.1q0 0 0 0 0 0.1 0 0.1h-1.4z"/>
		</g>
		<g id="Layer">
			<path id="Layer" class="s0" d="m88.9 32.8c0.1-0.3 1.3-1.1 2.5-1.5l-1.1-2.1 0.1-0.1 1.1 2.3c-1.2 0.3-2.4 1.3-2.5 1.4z"/>
			<path id="Layer" fill-rule="evenodd" class="s0" d="m89 32.9l-0.1-0.1q0 0 0 0 0 0 0 0c0.1-0.3 1.2-1.1 2.4-1.5l-1-2.1q0 0 0-0.1h0.1q0 0 0 0 0.1 0 0.1 0l1.1 2.2q0 0.1 0 0.1 0 0-0.1 0c-1.1 0.4-2.3 1.2-2.4 1.4q0 0 0 0 0 0 0 0.1-0.1 0-0.1 0 0 0 0 0zm2.4-1.6q0 0 0 0 0 0 0.1 0h-0.1q0 0 0 0z"/>
		</g>
		<g id="Layer">
			<path id="Layer" fill-rule="evenodd" class="s0" d="m84.6 33.1c0.5-0.5 2.8-3.1 2.8-3.1l0.1 0.1c0 0-2.3 2.6-2.8 3z"/>
			<path id="Layer" class="s0" d="m84.7 33.2q-0.1 0-0.1 0v-0.1q-0.1 0-0.1 0 0-0.1 0.1-0.1c0.4-0.4 2.8-3 2.8-3q0 0 0.1 0v0.1q0.1 0 0.1 0 0 0-0.1 0 0 0.1 0 0.1 0 0-0.1 0.1-0.1 0.1-0.2 0.3c-0.3 0.2-0.6 0.5-0.9 0.9-0.6 0.7-1.3 1.4-1.6 1.7q0 0 0 0z"/>
		</g>
		<g id="Layer">
			<path id="Layer" class="s0" d="m83.7 8.2l1.1-2.1 0.1 0.1-1.1 2.1-0.1-0.1z"/>
			<path id="Layer" class="s0" d="m83.8 8.3h-0.1v-0.1l0.1 0.1-0.1-0.1v0.1q0 0 0 0 0-0.1 0-0.1l1-2.1q0 0 0.1 0h0.1q0 0 0 0.1l-1 2.1q0 0 0 0-0.1 0-0.1 0 0 0 0 0z"/>
		</g>
		<g id="Layer">
			<path id="Layer" class="s0" d="m85.7 10.1l1.3-2.2 0.1 0.1-1.3 2.2-0.1-0.1z"/>
			<path id="Layer" class="s0" d="m85.7 10.2h-0.1l0.1-0.1-0.1 0.1q0 0 0-0.1 0 0 0 0l1.4-2.2q0 0 0 0h0.1q0 0.1 0 0.1 0.1 0 0 0l-1.3 2.2q0 0 0 0 0 0 0 0 0 0-0.1 0z"/>
		</g>
		<g id="Layer">
			<path id="Layer" class="s0" d="m88.2 12.1l1.5-2.2h0.1l-1.5 2.2h-0.1z"/>
			<path id="Layer" class="s0" d="m88.3 12.2l-0.1-0.1v-0.1l0.1 0.1-0.1-0.1v0.1q-0.1 0 0-0.1l1.5-2.2q0 0 0.1 0v0.1q0.1 0 0.1 0 0 0 0 0.1l-1.6 2.1q0 0.1 0 0.1 0 0 0 0 0 0 0 0z"/>
		</g>
		<g id="Layer">
			<path id="Layer" class="s0" d="m90.8 13.9l1.3-2.1 0.1 0.1-1.3 2.1-0.1-0.1z"/>
			<path id="Layer" class="s0" d="m90.9 14h-0.1v-0.1l0.1 0.1-0.1-0.1v0.1q0 0 0-0.1-0.1 0 0 0l1.3-2.1q0-0.1 0.1 0h0.1q0 0.1 0 0.1l-1.4 2.1q0 0 0 0 0 0 0 0z"/>
		</g>
		<g id="Layer">
			<path id="Layer" class="s0" d="m90.9 17.9h0.1l0.9 2.8-0.1 0.1-0.9-2.9z"/>
			<path id="Layer" class="s0" d="m91.7 20.8l-0.9-2.9h0.1v0.1-0.1h-0.1q0 0 0 0l0.2-0.1q0 0 0 0.1l0.9 2.8q0 0 0 0.1 0 0 0 0h-0.1q0 0 0 0-0.1 0-0.1 0z"/>
		</g>
		<g id="Layer">
			<path id="Layer" class="s0" d="m87.4 19.2h0.1l1.2 2.9-0.1 0.1-1.2-3z"/>
			<path id="Layer" class="s0" d="m88.5 22.2l-1.1-2.9v-0.1 0.1-0.1 0.1q0-0.1 0-0.1 0 0 0 0h0.1q0.1-0.1 0.1 0l1.1 2.9q0 0 0 0 0 0.1 0 0.1h-0.1q0 0 0 0-0.1 0-0.1 0z"/>
		</g>
		<g id="Layer">
			<path id="Layer" class="s0" d="m84.3 20.4h0.1l0.9 2.9-0.1 0.1-0.9-3z"/>
			<path id="Layer" class="s0" d="m85.2 23.4q-0.1 0-0.1 0l-0.8-3h0.1-0.1q0 0 0-0.1h0.1q0.1 0 0.1 0l0.8 3q0.1 0.1 0 0.1h-0.1q0 0 0 0 0 0 0 0z"/>
		</g>
		<g id="Layer">
			<path id="Layer" class="s0" d="m89 26.1h0.1l1 3h-0.1l-1-3z"/>
			<path id="Layer" class="s0" d="m90 29.2q0 0 0-0.1l-1.1-2.9 0.1-0.1v0.1-0.1l-0.1 0.1q0-0.1 0.1-0.1h0.1q0-0.1 0 0l1.1 3q0 0-0.1 0l-0.1 0.1q0 0 0 0 0 0 0 0z"/>
		</g>
		<g id="Layer">
			<path id="Layer" class="s0" d="m85.7 27.5l0.1-0.1 0.9 2.9h-0.1l-0.9-2.8z"/>
			<path id="Layer" class="s0" d="m86.6 30.3l-1-2.8h0.1-0.1q0 0 0 0 0-0.1 0.1-0.1h0.1q0 0 0 0l1 2.9q0 0 0 0 0 0 0 0l-0.1 0.1q-0.1 0-0.1 0 0 0 0-0.1z"/>
		</g>
		<g id="Layer">
			<path id="Layer" class="s0" d="m91.8 25.2h0.1l0.6 3h-0.1l-0.6-3z"/>
			<path id="Layer" class="s0" d="m92.4 28.2q0 0 0 0l-0.6-3v0.1-0.1q0 0 0 0h0.1q0-0.1 0.1 0 0 0 0 0l0.6 3q0 0 0 0 0 0-0.1 0l-0.1 0.1q0 0 0 0 0 0 0-0.1z"/>
		</g>
		<g id="Layer">
			<path id="Layer" class="s0" d="m83 28.7h0.1l0.8 2.9-0.1 0.1-0.8-3z"/>
			<path id="Layer" class="s0" d="m83.8 31.7q-0.1 0-0.1 0l-0.7-3q-0.1-0.1 0-0.1h0.1q0.1 0 0.1 0l0.8 3q0 0-0.1 0.1 0 0 0 0h-0.1q0 0 0 0 0 0 0 0z"/>
		</g>
		<g id="Layer">
			<path id="Layer" class="s0" d="m89.5 29.4h0.1l1.9 1.9-0.1 0.1-1.9-2z"/>
			<path id="Layer" class="s0" d="m91.4 31.4q0 0 0 0l-1.9-1.9v-0.1l0.1 0.1-0.1-0.1v0.1q0 0 0-0.1 0 0 0 0l0.1-0.1q0 0 0.1 0l1.8 2q0.1 0 0.1 0 0 0-0.1 0v0.1q-0.1 0-0.1 0z"/>
		</g>
		<g id="Layer">
			<path id="Layer" class="s0" d="m86.8 30.9l0.1-0.1 2.5 1.5v0.1l-2.6-1.5z"/>
			<path id="Layer" class="s0" d="m89.4 32.5l-2.6-1.6h0.1-0.1q0 0 0 0 0 0 0 0v-0.1q0.1-0.1 0.1 0l2.6 1.5q0 0 0 0 0 0 0 0l-0.1 0.1q0 0.1 0 0.1 0 0 0 0z"/>
		</g>
		<g id="Layer">
			<path id="Layer" class="s0" d="m85.5 26.2l0.3-2.5h0.2l-0.4 2.6-0.1-0.1z"/>
			<path id="Layer" class="s0" d="m85.6 26.3h-0.1v-0.1 0.1-0.1 0.1q-0.1 0-0.1-0.1l0.4-2.5q0-0.1 0.1-0.1l0.1 0.1q0 0 0 0l-0.4 2.6q0 0 0 0 0 0 0 0 0 0 0 0z"/>
		</g>
		<g id="Layer">
			<path id="Layer" class="s0" d="m88.8 26.1l0.3-1.9h0.1l-0.3 1.9h-0.1z"/>
			<path id="Layer" class="s0" d="m88.8 26.1h-0.1 0.1-0.1q0 0 0 0 0 0 0 0l0.4-1.9q0-0.1 0-0.1h0.1q0 0.1 0.1 0.1 0 0 0 0l-0.4 1.9q0 0 0 0 0 0-0.1 0z"/>
		</g>
		<g id="Layer">
			<path id="Layer" fill-rule="evenodd" class="s0" d="m124 25.1c0.1-0.3 0.2-2.1 0.3-3.1 0-0.1-0.1-0.3-0.7-0.7-0.7-0.6-5-2-7.6-3-1.7-0.6-2.7-1.3-3.4-1.9l-0.3 2.7h-0.1l0.4-2.8q0 0 0 0-0.5-0.4-0.8-0.8-0.3-0.4-0.3-0.8c0-0.7 0.6-1.5 0.9-1.8 0.4-0.5 4.1-3.2 4.6-3.5 0.5-0.3 2.9-2.1 3.4-2.6 0.6-0.4 1.8-1.9 1.8-1.9 0.5 0 0.9 0.9 0.9 1.8q0 0.4-0.1 0.7c-0.4 0.8-1.1 1.6-1.4 1.9-0.3 0.3-4.3 3.4-4.9 3.8-0.5 0.4-3.6 2.4-4 3.2 0.7 0.6 1.6 1.2 3.4 1.9 2.5 1 6.8 2.4 7.6 3 0.6 0.5 0.7 0.7 0.7 0.8q0 0 0 0c-0.1 1.1-0.2 2.8-0.3 3.2zm-3.5-18.2c-0.6 0.4-3 2.2-3.5 2.5-0.4 0.3-4.1 3-4.5 3.5-0.3 0.3-0.9 1.1-0.9 1.7q0 0.4 0.3 0.8 0.3 0.3 0.7 0.7c0.5-0.8 3.6-2.7 4.1-3.2 0.5-0.4 4.5-3.4 4.8-3.7 0.3-0.3 1-1.1 1.4-1.9q0.1-0.3 0.1-0.7c0-0.4-0.1-0.8-0.2-1.1-0.2-0.4-0.4-0.6-0.6-0.6-0.1 0.2-1.2 1.5-1.7 2z"/>
			<path id="Layer" fill-rule="evenodd" class="s0" d="m124 25.2h-0.1q0 0 0 0 0-0.1 0-0.1c0.1-0.3 0.3-2.1 0.3-3.1 0 0 0-0.3-0.6-0.7-0.7-0.6-5.1-2-7.6-2.9-1.7-0.7-2.6-1.3-3.3-1.9l-0.3 2.7q0 0-0.1 0 0 0 0 0h-0.1q0 0 0 0 0-0.1 0-0.1l0.3-2.8q-0.4-0.4-0.7-0.8-0.3-0.4-0.3-0.8c0-0.8 0.5-1.5 0.8-1.8 0.5-0.6 4.2-3.3 4.7-3.6 0.4-0.3 2.9-2.1 3.4-2.5 0.5-0.4 1.6-1.8 1.7-1.9q0 0 0 0v-0.1h0.1c0.6 0.1 1 1 1 1.9q0 0.4-0.2 0.7c-0.4 0.9-1.1 1.7-1.4 2-0.3 0.3-4.3 3.3-4.8 3.7-0.5 0.4-3.6 2.4-4 3.1 0.6 0.7 1.6 1.3 3.3 2 2.5 0.9 6.8 2.3 7.6 2.9 0.6 0.5 0.7 0.7 0.7 0.9q0 0 0 0c0 1.1-0.1 2.8-0.3 3.2q0 0 0 0 0 0 0 0 0 0-0.1 0zm-1.9-20.3q0 0 0 0 0 0 0 0zm-9.5 11.4q0 0 0 0 0.1 0 0.1 0 0 0-0.1 0 0 0 0-0.1 0 0 0 0 0 0 0 0 0 0 0 0 0 0.1 0 0.1 0 0 0 0zm-0.9-1.6q0 0.3 0.3 0.7 0.2 0.3 0.6 0.7c0.6-0.9 3.5-2.8 4-3.2 0.6-0.4 4.6-3.4 4.9-3.7 0.3-0.3 0.9-1.1 1.3-1.9q0.2-0.3 0.2-0.7c0-0.3-0.1-0.8-0.3-1.1-0.1-0.3-0.3-0.4-0.4-0.5-0.3 0.3-1.3 1.5-1.8 1.9-0.5 0.5-2.9 2.3-3.4 2.6-0.5 0.3-4.2 3-4.6 3.5-0.3 0.3-0.8 1-0.8 1.7zm10.5-9.8q0 0 0 0 0 0 0 0 0 0 0 0zm-0.1-0.1zm0 0q0 0 0 0z"/>
		</g>
		<g id="Layer">
			<path id="Layer" class="s0" d="m118.4 26.4c0 0 2-0.1 3-0.3 1-0.1 1.2-0.1 2.5-0.7q0.1-0.1 0.1-0.2c0-0.3-1.7-1.2-3.7-2-2-0.8-4.2-1.6-5.1-1.9-2-0.8-2.9-2.2-3.2-2.5-0.3-0.3-0.4-3.9-0.4-3.9h0.1c0 0 0 0.9 0.1 1.8 0.1 1 0.2 2 0.3 2.1 0.2 0.3 1.1 1.6 3.1 2.4 0.9 0.3 3.1 1.1 5.1 1.9 2 0.9 3.7 1.6 3.8 2.1q0 0.2-0.2 0.3c-1.2 0.6-1.5 0.6-2.5 0.7-0.9 0.2-3 0.3-3 0.3z"/>
			<path id="Layer" fill-rule="evenodd" class="s0" d="m118.4 26.6q-0.1 0-0.1-0.1v-0.1q0 0 0.1 0c0 0 2-0.2 3-0.3 1-0.1 1.2-0.2 2.4-0.8 0.1 0 0.1 0 0.1-0.1q0 0 0 0c0-0.1-0.4-0.4-1.1-0.8-0.6-0.3-1.6-0.7-2.5-1.1-2-0.8-4.2-1.6-5.1-2-2.1-0.8-3-2.1-3.2-2.4-0.2-0.2-0.3-1.2-0.4-2.1 0-1-0.1-1.9-0.1-1.9q0 0 0 0 0 0 0-0.1 0 0 0.1 0h0.1q0 0 0 0c0 0.1 0.1 1 0.2 1.9 0 0.5 0 1 0.1 1.3 0 0.4 0.1 0.7 0.1 0.7 0.3 0.3 1.2 1.6 3.1 2.4 1 0.4 3.2 1.2 5.1 2 2 0.8 3.8 1.5 3.8 2.1q0 0 0 0 0 0.2-0.2 0.3c-1.2 0.6-1.5 0.7-2.5 0.8-0.9 0.1-3 0.3-3 0.3q0 0 0 0 0 0 0 0zm5.1-1.9q-0.3-0.2-0.6-0.3 0.3 0.1 0.6 0.3z"/>
		</g>
		<g id="Layer">
			<path id="Layer" class="s0" d="m123 32.7c0 0 0.6-2.9 0.7-3.1q0 0 0 0c0-0.3-0.8-1.1-1.3-1.3-0.6-0.2-4-1.8-4.7-2-0.4-0.1-1.4-0.4-2.3-0.7-1-0.3-1.8-0.6-1.9-0.8q0-0.1 0-0.1c0.1-0.2 0.6-0.3 1.2-0.4 0.5 0 1.2-0.1 1.5-0.1 0.3 0 2.7-0.4 4-0.6 0.5 0 0.8-0.1 0.8-0.1l0.1 0.1c0 0-0.4 0.1-0.9 0.2-1.3 0.1-3.6 0.5-4 0.5-0.4 0-1.7 0.1-2.3 0.3-0.2 0-0.3 0.1-0.3 0.1 0 0.1 0.9 0.5 1.8 0.8 0.9 0.3 1.9 0.6 2.3 0.7 0.7 0.2 4.2 1.8 4.7 2 0.6 0.2 1.4 1 1.4 1.4q0 0 0 0c-0.1 0.2-0.7 3.1-0.7 3.1z"/>
			<path id="Layer" fill-rule="evenodd" class="s0" d="m123.1 32.8h-0.1q0 0-0.1-0.1 0 0 0 0 0 0 0 0 0 0 0 0 0 0 0 0 0.1-0.1 0.1-0.1 0-0.1 0-0.3c0.1-0.3 0.2-0.7 0.3-1.1 0.1-0.7 0.3-1.5 0.3-1.6q0 0 0 0c0-0.2-0.8-1.1-1.3-1.2-0.5-0.3-3.9-1.8-4.7-2-0.3-0.2-1.3-0.5-2.3-0.8-0.9-0.3-1.7-0.5-1.8-0.8q0-0.1 0-0.1c0-0.3 0.6-0.3 1.2-0.4 0.5-0.1 1.2-0.1 1.5-0.2 0.3 0 2.7-0.3 4-0.5 0.5-0.1 0.8-0.1 0.9-0.1q0 0 0 0v0.1q0 0.1 0 0.1c0 0-0.4 0-0.9 0.1-1.3 0.2-3.6 0.5-4 0.6-0.4 0-1.7 0.1-2.3 0.2q-0.2 0.1-0.2 0.1 0 0 0 0 0 0.1 0.1 0.1 0.1 0.1 0.4 0.2c0.3 0.1 0.8 0.3 1.2 0.4 0.9 0.3 1.9 0.6 2.3 0.8 0.8 0.2 4.2 1.7 4.7 2 0.6 0.2 1.4 1 1.4 1.4q0 0 0 0c0 0.2-0.6 3.2-0.6 3.2q0 0-0.1 0 0 0 0 0 0 0 0 0zm-8.9-7.7q-0.3-0.1-0.4-0.2 0.1 0.1 0.4 0.2zm-0.5-0.2q0 0 0 0 0 0 0 0zm0-0.3q0.1-0.1 0.1-0.1 0 0-0.1 0.1z"/>
		</g>
		<g id="Layer">
			<path id="Layer" class="s0" d="m121.4 32.9v-0.1h1.3c0.3 0 0.4-0.1 0.4-0.2 0-0.3-1.2-1.2-1.5-1.3-0.5-0.2-4.7-1.8-5.4-2-0.7-0.3-2.8-1.1-3-1.3-0.1 0-0.1-0.1-0.1-0.3 0-0.8 0.4-3 0.4-3h0.1c0 0.1-0.4 2.2-0.4 3 0 0.2 0 0.3 0 0.3 0.3 0.1 2.3 0.9 3 1.2 0.8 0.2 4.9 1.8 5.4 2 0.4 0.1 1.6 0.9 1.6 1.4q0 0.3-0.5 0.3h-1.3z"/>
			<path id="Layer" class="s0" d="m122.7 33h-1.3v-0.1 0.1q-0.1 0-0.1-0.1 0 0 0 0v-0.1q0 0 0 0 0-0.1 0.1-0.1h1.3c0.3 0 0.3 0 0.3-0.1q0 0 0 0c0.1-0.3-1.1-1.2-1.4-1.3-0.5-0.2-4.7-1.7-5.4-2-0.8-0.2-2.8-1-3.1-1.2-0.1-0.1-0.1-0.2-0.1-0.4 0-0.8 0.4-2.8 0.5-3q0 0 0 0 0 0 0 0h0.1q0.1 0 0.1 0c0 0.1-0.4 2.2-0.4 3h-0.1 0.1q0 0 0 0 0 0.2 0 0.2c0.2 0.2 2.3 1 3 1.2 0.7 0.3 4.9 1.8 5.3 2 0.4 0.2 1.6 1 1.7 1.5 0 0.3-0.3 0.4-0.6 0.4q0 0 0 0z"/>
		</g>
		<g id="Layer">
			<path id="Layer" class="s0" d="m114.6 31.4l1.1-2.3 0.1 0.1-1.1 2.1c1.2 0.4 2.4 1.2 2.5 1.5h-0.1c0-0.1-1.3-1.1-2.5-1.4z"/>
			<path id="Layer" fill-rule="evenodd" class="s0" d="m117.1 32.9q-0.1-0.1-0.1-0.1 0 0 0 0 0 0 0 0-0.1-0.1-0.2-0.2-0.2-0.2-0.5-0.4c-0.5-0.3-1.1-0.6-1.7-0.8q-0.1 0-0.1 0 0 0 0-0.1l1.1-2.2q0.1 0 0.1 0h0.1q0 0 0 0.1 0 0 0 0l-1 2.1c1.2 0.4 2.3 1.2 2.4 1.5q0 0 0 0 0 0 0 0l-0.1 0.1q0 0 0 0 0 0 0 0zm-2.4-1.6q0 0 0 0 0 0 0 0 0 0 0 0z"/>
		</g>
		<g id="Layer">
			<path id="Layer" class="s0" d="m118.6 30.1l0.1-0.1c0 0 2.3 2.6 2.8 3.1h-0.1c-0.4-0.4-2.8-3-2.8-3z"/>
			<path id="Layer" fill-rule="evenodd" class="s0" d="m121.4 33.2c-0.5-0.5-2.8-3-2.8-3.1q-0.1 0 0 0v-0.1q0.1 0 0.1 0c0 0 2.4 2.6 2.8 3q0.1 0 0.1 0 0 0.1 0 0.1l-0.1 0.1q0 0-0.1 0 0 0 0 0 0 0 0 0zm-2.8-3.1q0 0 0 0z"/>
		</g>
		<g id="Layer">
			<path id="Layer" class="s0" d="m121.3 6.2v-0.1l1.1 2.1-0.1 0.1-1-2.1z"/>
			<path id="Layer" class="s0" d="m122.3 8.3q-0.1 0-0.1 0l-1-2.1h0.1-0.1q0-0.1 0-0.1h0.1q0 0 0.1 0 0 0 0 0l1 2.1q0 0 0 0.1 0 0 0 0h-0.1q0 0 0 0 0 0 0 0z"/>
		</g>
		<g id="Layer">
			<path id="Layer" class="s0" d="m119 8l0.1-0.1 1.3 2.2-0.1 0.1-1.3-2.2z"/>
			<path id="Layer" class="s0" d="m120.3 10.2q0 0 0 0l-1.3-2.2q-0.1 0 0-0.1h0.1q0 0 0 0 0 0 0.1 0l1.3 2.2q0 0 0 0 0 0.1 0 0.1h-0.1q0 0-0.1 0 0 0 0 0z"/>
		</g>
		<g id="Layer">
			<path id="Layer" class="s0" d="m116.3 9.9h0.1l1.5 2.2h-0.1l-1.5-2.2z"/>
			<path id="Layer" class="s0" d="m117.8 12.2q0 0 0-0.1l-1.5-2.1v-0.1 0.1-0.1 0.1q-0.1-0.1 0-0.1l0.1-0.1q0 0 0 0l1.5 2.2q0.1 0 0.1 0.1-0.1 0-0.1 0l-0.1 0.1q0 0 0 0 0 0 0 0z"/>
		</g>
		<g id="Layer">
			<path id="Layer" class="s0" d="m113.9 11.9l0.1-0.1 1.3 2.1-0.1 0.1-1.3-2.1z"/>
			<path id="Layer" class="s0" d="m115.2 14q0 0 0 0l-1.4-2.1h0.1-0.1q0 0 0.1-0.1 0.1 0 0.1 0 0 0 0 0l1.4 2.1q0 0-0.1 0.1h-0.1q0 0 0 0 0 0 0 0z"/>
		</g>
		<g id="Layer">
			<path id="Layer" class="s0" d="m114.2 20.7l0.9-2.8h0.1l-0.9 2.9-0.1-0.1z"/>
			<path id="Layer" class="s0" d="m114.3 20.8h-0.1v-0.1h0.1-0.1v0.1q0 0 0-0.1l0.9-2.8q0-0.1 0-0.1 0 0 0.1 0l0.1 0.1q0 0 0 0l-0.9 2.9q0 0 0 0 0 0-0.1 0 0 0 0 0z"/>
		</g>
		<g id="Layer">
			<path id="Layer" class="s0" d="m117.4 22.1l1.2-2.9h0.1l-1.2 3-0.1-0.1z"/>
			<path id="Layer" class="s0" d="m117.5 22.2h-0.1v-0.1h0.1-0.1v0.1q0 0 0-0.1 0 0 0 0l1.1-2.9q0.1-0.1 0.1 0h0.1q0.1 0 0 0.1l-1.1 2.9q0 0-0.1 0 0 0 0 0z"/>
		</g>
		<g id="Layer">
			<path id="Layer" class="s0" d="m120.8 23.3l0.9-2.9h0.1l-0.9 3-0.1-0.1z"/>
			<path id="Layer" class="s0" d="m120.9 23.4h-0.1v-0.1h0.1-0.1v0.1q0 0 0 0 0-0.1 0-0.1l0.8-3q0 0 0.1 0h0.1q0 0 0 0.1 0 0 0 0l-0.8 3q0 0-0.1 0 0 0 0 0z"/>
		</g>
		<g id="Layer">
			<path id="Layer" class="s0" d="m116 29.1l1-3h0.1l-1 3h-0.1z"/>
			<path id="Layer" class="s0" d="m116.1 29.2l-0.1-0.1q-0.1 0-0.1 0l1.1-3q0 0 0 0 0 0 0 0h0.1q0.1 0 0.1 0.1l-1.1 2.9q0 0.1 0 0.1 0 0 0 0 0 0 0 0z"/>
		</g>
		<g id="Layer">
			<path id="Layer" class="s0" d="m119.4 30.3l0.9-2.9 0.1 0.1-0.9 2.8h-0.1z"/>
			<path id="Layer" class="s0" d="m119.5 30.4l-0.1-0.1q-0.1 0-0.1 0 0 0 0 0l1-2.9q0 0 0.1 0h0.1q0 0 0 0.1 0 0 0 0l-1 2.8q0 0.1 0 0.1 0 0 0 0 0 0 0 0z"/>
		</g>
		<g id="Layer">
			<path id="Layer" class="s0" d="m113.6 28.2l0.6-3h0.1l-0.6 3h-0.1z"/>
			<path id="Layer" class="s0" d="m113.7 28.3l-0.1-0.1q-0.1 0-0.1 0 0 0 0 0l0.6-3q0 0 0 0 0.1-0.1 0.1 0h0.1q0 0 0 0l-0.6 3q0 0 0 0 0 0.1 0 0.1 0 0 0 0z"/>
		</g>
		<g id="Layer">
			<path id="Layer" class="s0" d="m122.2 31.6l0.8-2.9h0.1l-0.8 3-0.1-0.1z"/>
			<path id="Layer" class="s0" d="m122.3 31.7h-0.1v-0.1h0.1-0.1v0.1q0 0 0-0.1l0.7-3q0.1 0 0.1 0h0.1q0 0 0 0.1 0.1 0 0.1 0l-0.8 3q0 0-0.1 0 0 0 0 0 0 0 0 0z"/>
		</g>
		<g id="Layer">
			<path id="Layer" class="s0" d="m114.6 31.3l1.9-1.9h0.1l-1.9 2-0.1-0.1z"/>
			<path id="Layer" class="s0" d="m114.7 31.4l-0.1-0.1h0.1-0.1q-0.1 0 0 0l1.8-2q0.1 0 0.1 0l0.1 0.1q0 0 0 0 0 0.1 0 0.1l-1.9 1.9q0 0 0 0 0 0 0 0 0 0 0 0z"/>
		</g>
		<g id="Layer">
			<path id="Layer" class="s0" d="m116.7 32.3l2.5-1.5 0.1 0.1-2.6 1.5v-0.1z"/>
			<path id="Layer" class="s0" d="m116.7 32.4l-0.1-0.1h0.1v0.1-0.1h-0.1q0 0 0 0 0 0 0 0l2.6-1.5q0-0.1 0.1 0v0.1q0 0 0 0 0 0 0 0l-2.5 1.6q0 0-0.1 0 0 0 0-0.1z"/>
		</g>
		<g id="Layer">
			<path id="Layer" class="s0" d="m120.2 23.7h0.1l0.3 2.5-0.1 0.1-0.3-2.6z"/>
			<path id="Layer" class="s0" d="m120.5 26.3q0 0 0 0l-0.4-2.6h0.1v0.1-0.1h-0.1q0 0 0.1 0l0.1-0.1q0 0 0 0.1l0.4 2.5q0 0.1 0 0.1 0 0-0.1 0h-0.1q0 0 0 0 0 0 0 0z"/>
		</g>
		<g id="Layer">
			<path id="Layer" class="s0" d="m116.9 24.2h0.1l0.4 1.9h-0.1l-0.4-1.9z"/>
			<path id="Layer" class="s0" d="m117.2 26.1q0 0 0 0l-0.4-1.9h0.1v0.1-0.1h-0.1q0 0 0.1-0.1h0.1q0 0 0.1 0.1l0.3 1.8q0 0.1 0 0.1 0 0 0 0h-0.1q0 0 0 0-0.1 0-0.1 0z"/>
		</g>
		<g id="Layer">
			<path id="Layer" fill-rule="evenodd" class="s0" d="m101 34.6c0-0.7 0-2.5 0-3.2q0-0.2 0-0.2 0-0.1 0-0.1c0-0.3-0.1-0.6-0.1-0.9 0-0.2 0-0.4 0.2-0.4q0.1 0 0.1 0c0.1 0.6 0.6 0.7 2 0.7q0 0 0.1 0c1.2 0 1.7-0.4 1.9-0.8v-0.1 0.1c0 0 0.1 0.1 0.2 0.2v0.1c0 0 0.1 1.8 0.1 3.3q0 0.5-0.1 1h0.1q0 0 0 0 0 0.2-0.1 0.3c-0.1 0.4-0.8 0.8-2.2 0.8q0 0 0 0c-1.4 0-2-0.5-2.2-0.8zm2.2 0.7c1.3 0 2.1-0.5 2.1-0.7 0-0.3 0-0.8 0-1.3 0-1.4 0-3.1 0-3.3q0-0.1-0.1-0.2c-0.2 0.4-0.7 0.8-1.9 0.8q-0.1 0-0.1 0c-1.4 0-2-0.1-2.1-0.7q-0.1 0-0.1 0.3c0 0.3 0.1 0.6 0.1 0.9q0 0 0 0.1 0 0 0 0.2c0 0.6 0 2.1 0 2.9v0.2c0.2 0.4 0.7 0.8 2.1 0.8z"/>
			<path id="Layer" fill-rule="evenodd" class="s0" d="m101 34.6c-0.1-0.7-0.1-2.5-0.1-3.2q0-0.2 0-0.2 0-0.1 0-0.1c0-0.3 0-0.6 0-0.9 0-0.2 0-0.5 0.2-0.5q0.1 0 0.1 0 0.1 0 0.1 0.1c0 0.3 0.1 0.4 0.4 0.5 0.3 0.1 0.8 0.1 1.5 0.2q0 0 0.1 0c1.2-0.1 1.7-0.5 1.8-0.8v-0.1q0 0 0.1 0 0 0 0 0l0.1 0.1q0 0 0 0 0 0 0 0 0 0 0 0 0 0 0 0 0.1 0.1 0.2 0.2v0.1c0 0 0 1.8 0 3.3q0 0.5 0 0.9 0 0.1 0 0.1 0 0.2 0 0.3c-0.2 0.4-0.9 0.8-2.3 0.8q0 0 0 0-0.1 0-0.1 0c-1.3 0-1.9-0.4-2.1-0.8zm4.3-4.9q0 0 0 0 0 0 0 0zm-2.1 5.6v-0.1q0 0 0 0v0.1zm0-0.1q0 0 0 0c1.3 0 2-0.4 2.1-0.6 0-0.3 0-0.8 0-1.3 0-1.4 0-3 0-3.3q-0.1 0-0.1-0.1c-0.2 0.4-0.8 0.8-1.9 0.8q-0.1 0-0.1 0c-1.3 0-1.9-0.1-2.1-0.7q0 0.1 0 0.2c0 0.3 0 0.6 0 0.9q0 0 0 0.1 0 0 0 0.2c0 0.6 0 2 0.1 2.8q0 0 0 0.1v0.2c0.2 0.3 0.6 0.7 2 0.7zm2.2-0.6q0-0.1 0-0.3 0 0 0 0 0 0.2 0 0.3zm-4.4 0zm0-4.7q0.1 0 0.1-0.1 0 0.1-0.1 0.1zm0.2-0.1q0 0 0 0 0 0 0 0 0 0 0 0 0 0 0 0zm4 0q0 0 0 0 0 0 0.1 0-0.1 0-0.1-0.1 0 0.1 0 0.1zm-4.1 4.8q0 0 0 0 0 0 0 0zm4.3-4.6q0 0 0 0 0 0 0 0zm-0.2-0.3q0 0 0 0 0 0 0 0zm0.1 0z"/>
		</g>
		<path id="Layer" class="s0" d="m110.8 11.7c0.7-0.7 3.3-2.1 4.5-2.6"/>
		<path id="Layer" class="s0" d="m95.6 11.7c-0.7-0.7-3-2-4.2-2.4"/>
		<path id="Layer" class="s0" d="m113 10.4c0.3-0.1 2-0.7 2.3-1.3"/>
		<path id="Layer" class="s0" d="m93.3 10.3c-0.3 0-2-0.7-2.3-1.2"/>
	</g>
	<g id="Layer">
		<path id="Layer" class="s1" d="m22.8 65.4v-12h-5.7v-1.6h13.1v1.6h-5.7v12z"/>
		<path id="Layer" class="s1" d="m32.6 65.4v-13.6h1.7v5.4h8v-5.4h1.7v13.6h-1.7v-6.7h-8v6.7z"/>
		<path id="Layer" class="s1" d="m48.6 51.7h1.8l-0.1 13.7h-1.7z"/>
		<path id="Layer" class="s1" d="m55 65.4v-13.6h0.9l8.8 10.1v-10.1h1.7v13.6h-0.9l-8.8-10.2v10.2z"/>
		<path id="Layer" fill-rule="evenodd" class="s1" d="m81.4 65.4v-13.6h7.8q2 0 3.1 1 1.1 1 1.1 2.8 0 1.4-0.8 2.5-0.9 1.1-2.4 1.3l3.4 6h-1.9l-3.3-6h-5.3v6c0 0-1.7 0-1.7 0zm1.7-7.6h6q1.3 0 1.9-0.5 0.7-0.6 0.7-1.7 0-1.1-0.7-1.7-0.6-0.6-1.8-0.6h-6.1z"/>
		<path id="Layer" class="s1" d="m97.2 65.4v-13.6h10.7v1.6h-9v3.9h5.4v1.6h-5.4v4.9h9.5v1.6z"/>
		<path id="Layer" fill-rule="evenodd" class="s1" d="m117.4 51.8q3.2 0 5.1 1.9 2 1.9 2 4.9 0 3.1-1.9 4.9-2 1.9-5.2 1.9h-5.8v-13.6zm0 1.6h-4.2v10.4h4.2q2.5 0 3.9-1.4 1.4-1.4 1.4-3.8 0-2.4-1.4-3.8-1.5-1.4-3.9-1.4z"/>
		<path id="Layer" class="s1" d="m138.6 65.4v-13.6h1.6v12h8.9v1.6z"/>
		<path id="Layer" class="s1" d="m152 51.7h1.7v13.7h-1.7z"/>
		<path id="Layer" class="s1" d="m158.4 65.4v-13.6h0.8l8.8 10.1v-10.1h1.7v13.6h-0.8l-8.9-10.2v10.2z"/>
		<path id="Layer" class="s1" d="m174.4 65.4v-13.6h10.6v1.6h-9v3.9h5.5v1.6h-5.5v4.9h9.6v1.6z"/>
	</g>
	<g id="Layer">
		<path id="Layer" class="s1" d="m80.7 76.4h2.1v0.6h-2.1v1.5h2.4v0.7h-3.2v-4.9h3.2v0.6h-2.4z"/>
		<path id="Layer" class="s1" d="m84.2 78.1q0.7 0.5 1.6 0.5 1.2 0 1.2-0.7 0-0.3-0.2-0.4-0.2-0.2-0.5-0.3-0.3-0.1-0.6-0.1-0.3-0.1-0.6-0.2-0.4-0.1-0.7-0.2-0.2-0.2-0.4-0.5-0.2-0.2-0.2-0.6 0-0.5 0.3-0.8 0.3-0.4 0.7-0.5 0.4-0.1 0.8-0.1 1.1 0 1.8 0.5l-0.4 0.6q-0.6-0.5-1.4-0.5-0.4 0-0.8 0.2-0.3 0.2-0.3 0.6 0 0.2 0.2 0.4 0.2 0.1 0.5 0.2 0.2 0.1 0.6 0.1 0.3 0.1 0.6 0.2 0.4 0.1 0.6 0.3 0.3 0.1 0.5 0.4 0.2 0.3 0.2 0.7 0 0.7-0.5 1-0.5 0.4-1.3 0.4-0.6 0-1.2-0.2-0.5-0.2-0.9-0.5l0.4-0.5z"/>
		<path id="Layer" class="s1" d="m90.4 74.9v4.3h-0.7v-4.3h-1.5v-0.6h3.7v0.6z"/>
		<path id="Layer" class="s1" d="m92.6 79.2q-0.1 0-0.3-0.1-0.1-0.1-0.1-0.3 0-0.2 0.1-0.3 0.2-0.2 0.3-0.2 0.2 0 0.4 0.2 0.1 0.1 0.1 0.3 0 0.2-0.1 0.3-0.2 0.1-0.4 0.1z"/>
		<path id="Layer" class="s1" d="m99.5 79.2h-3.2v-4.9h0.7v4.2h2.5z"/>
		<path id="Layer" fill-rule="evenodd" class="s1" d="m100.7 78.6q-0.7-0.8-0.7-1.9 0-1.1 0.7-1.8 0.7-0.7 1.9-0.7 1.1 0 1.8 0.7 0.7 0.7 0.7 1.8 0 1.1-0.7 1.9-0.7 0.7-1.8 0.7-1.2 0-1.9-0.7zm1.9-3.8q-0.8 0-1.3 0.6-0.5 0.5-0.5 1.3 0 0.8 0.5 1.4 0.5 0.5 1.3 0.5 0.8 0 1.3-0.5 0.5-0.6 0.5-1.4 0-0.8-0.5-1.3-0.5-0.6-1.3-0.6z"/>
		<path id="Layer" class="s1" d="m110.3 74.3v4.9h-0.7l-2.7-3.7v3.7h-0.7v-4.9h0.7l2.6 3.6v-3.6z"/>
		<path id="Layer" fill-rule="evenodd" class="s1" d="m111.7 74.3h1.4q1.3-0.1 2 0.6 0.7 0.7 0.7 1.8 0 1.1-0.7 1.8-0.7 0.7-2 0.7h-1.4zm1.4 4.3q1 0 1.5-0.5 0.5-0.5 0.5-1.4 0-0.8-0.5-1.3-0.5-0.5-1.5-0.5h-0.7v3.7c0 0 0.7 0 0.7 0z"/>
		<path id="Layer" fill-rule="evenodd" class="s1" d="m117.4 78.6q-0.7-0.8-0.7-1.9 0-1.1 0.7-1.8 0.7-0.7 1.8-0.7 1.2 0 1.9 0.7 0.7 0.7 0.7 1.8 0 1.1-0.7 1.9-0.8 0.7-1.9 0.7-1.1 0-1.8-0.7zm1.8-3.8q-0.8 0-1.3 0.6-0.5 0.5-0.5 1.3 0 0.8 0.5 1.4 0.5 0.5 1.3 0.5 0.8 0 1.3-0.5 0.5-0.6 0.5-1.4 0-0.8-0.5-1.3-0.5-0.6-1.3-0.6z"/>
		<path id="Layer" class="s1" d="m126.9 74.3v4.9h-0.7l-2.6-3.7v3.7h-0.7v-4.9h0.7l2.6 3.6v-3.6z"/>
	</g>
</svg>