<svg version="1.2" xmlns="http://www.w3.org/2000/svg" viewBox="0 0 30 30" width="30" height="30">
	<title>shirt-header-dropdown-arrow (2)-svg</title>
	<style>
		.s0 { fill: #000000 } 
	</style>
	<g id="Icon_ionic-ios-arrow-dropright">
		<path id="Path_545" class="s0" d="m11.4 7q0.2-0.2 0.5-0.3 0.2-0.1 0.5-0.1 0.3 0 0.5 0.1 0.3 0.1 0.5 0.3l6.7 6.7q0.2 0.2 0.3 0.5 0.1 0.2 0.1 0.5 0 0.2-0.1 0.5-0.1 0.2-0.3 0.4l-6.6 6.6c-0.3 0.3-0.6 0.4-1 0.4-0.3 0.1-0.7-0.1-0.9-0.3-0.3-0.3-0.4-0.7-0.4-1 0-0.4 0.1-0.7 0.4-1l5.6-5.7-5.8-5.7q-0.2-0.2-0.3-0.4-0.1-0.3-0.1-0.5 0-0.3 0.1-0.6 0.1-0.2 0.3-0.4z"/>
		<rect width="30" height="30" id="Color Fill 2" style="fill: #ffffff"/>
		<path id="Path_546" fill-rule="evenodd" class="s0" d="m1.1 9c0.7-1.7 1.8-3.4 3.2-4.7 1.3-1.4 3-2.5 4.7-3.2 1.8-0.7 3.7-1.1 5.6-1.1 5.9 0 11.3 3.6 13.5 9 2.3 5.5 1 11.8-3.1 16-4.2 4.1-10.5 5.4-16 3.1-5.4-2.2-9-7.6-9-13.5 0-1.9 0.4-3.8 1.1-5.6zm1.4 8q0.2 1.2 0.7 2.4 0.5 1.1 1.1 2.1 0.7 1 1.6 1.9c2.3 2.3 5.4 3.6 8.7 3.6 3.3 0 6.5-1.3 8.8-3.6 2.3-2.3 3.6-5.5 3.6-8.8 0-3.3-1.3-6.4-3.6-8.7-1.8-1.8-4-2.9-6.4-3.4-2.4-0.5-4.9-0.2-7.1 0.7-2.3 0.9-4.2 2.5-5.6 4.5-1.3 2.1-2.1 4.5-2.1 6.9q0 1.2 0.3 2.4z"/>
		<rect width="30" height="30" id="Color Fill 1" style="fill: #ffffff"/>
	</g>
</svg>