<svg version="1.2" xmlns="http://www.w3.org/2000/svg" viewBox="0 0 35 37" width="35" height="37">
	<title>quality-svg</title>
	<defs>
		<clipPath clipPathUnits="userSpaceOnUse" id="cp1">
			<path d="m0 0h34.43v36.47h-34.43z"/>
		</clipPath>
	</defs>
	<style>
		.s0 { fill: none;stroke: #444444;stroke-linecap: round;stroke-width: 1.1 } 
		.s1 { fill: none;stroke: #444444;stroke-linecap: round;stroke-linejoin: round;stroke-width: 1.1 } 
	</style>
	<g id="Clip-Path: Group_15" clip-path="url(#cp1)">
		<g id="Group_15">
			<path id="Path_535" class="s0" d="m0.8 13.9h7.7v21.8h-7.7z"/>
			<path id="Path_536" class="s1" d="m22.7 13.9h8.8q0.4 0 0.8 0.2 0.4 0.1 0.7 0.4 0.3 0.3 0.5 0.7 0.1 0.4 0.1 0.9v1q0 0.5-0.1 0.9-0.2 0.4-0.5 0.7-0.3 0.3-0.7 0.4-0.4 0.2-0.8 0.2h-0.1"/>
			<path id="Path_537" class="s1" d="m8.5 16.1c2.2-1.3 6.5-4.4 8-7.4 0.5-1.1 0.6-3.8 0.6-5.8q0-0.4 0.1-0.8 0.1-0.3 0.4-0.6 0.2-0.3 0.6-0.5 0.3-0.2 0.7-0.2h0.2c2.6 0 4.7 2.3 4.7 5.2v0.2c0 1-1.1 7.7-1.1 7.7"/>
			<path id="Path_538" class="s1" d="m31.4 19.3h0.1q0.4 0 0.8 0.2 0.4 0.2 0.7 0.5 0.3 0.3 0.4 0.6 0.2 0.4 0.2 0.9v1.1q0 0.5-0.2 0.8-0.1 0.4-0.4 0.7-0.3 0.3-0.7 0.5-0.4 0.2-0.8 0.2h-1.2"/>
			<path id="Path_539" class="s1" d="m30.3 24.8h0.1q0.4 0 0.8 0.1 0.4 0.2 0.7 0.5 0.3 0.3 0.5 0.7 0.1 0.4 0.1 0.8v1.2q0 0.4-0.1 0.8-0.2 0.4-0.5 0.7-0.3 0.3-0.7 0.4-0.4 0.2-0.8 0.2h-1.2"/>
			<path id="Path_540" class="s1" d="m29.3 30.2q0.4 0 0.8 0.2 0.4 0.2 0.7 0.5 0.3 0.3 0.5 0.7 0.1 0.4 0.1 0.8v1.1q0 0.4-0.1 0.8-0.2 0.4-0.5 0.7-0.3 0.3-0.7 0.5-0.4 0.1-0.8 0.2h-1.7l-14.5-0.1q-0.6 0-1.1 0-0.6-0.1-1.2-0.2-0.5-0.1-1-0.3-0.6-0.2-1.1-0.4"/>
		</g>
	</g>
</svg>