<svg id="Group_14" data-name="Group 14" xmlns="http://www.w3.org/2000/svg" xmlns:xlink="http://www.w3.org/1999/xlink" width="65.104" height="55.6" viewBox="0 0 74.104 66.6">
  <defs>
    <clipPath id="clip-path">
      <rect id="Rectangle_33" data-name="Rectangle 33" width="74.104" height="66.6" fill="none"/>
    </clipPath>
  </defs>
  <g id="Group_13" data-name="Group 13" clip-path="url(#clip-path)">
    <rect id="Rectangle_32" data-name="Rectangle 32" width="45.025" height="26.265" transform="translate(22.044 1.407)" fill="none" stroke="#444" stroke-linecap="round" stroke-linejoin="round" stroke-width="1.5"/>
    <circle id="Ellipse_3" data-name="Ellipse 3" cx="7.504" cy="7.504" r="7.504" transform="translate(37.052 7.035)" fill="none" stroke="#444" stroke-linecap="round" stroke-linejoin="round" stroke-width="1.5"/>
    <path id="Path_528" data-name="Path 528" d="M35.5,6.5A3.606,3.606,0,0,1,31.75,2.75" transform="translate(27.815 2.409)" fill="none" stroke="#444" stroke-linecap="round" stroke-linejoin="round" stroke-width="1.5"/>
    <path id="Path_529" data-name="Path 529" d="M13.75,10.75A3.606,3.606,0,0,1,17.5,14.5" transform="translate(12.046 9.418)" fill="none" stroke="#444" stroke-linecap="round" stroke-linejoin="round" stroke-width="1.5"/>
    <path id="Path_530" data-name="Path 530" d="M13.75,6.5A3.606,3.606,0,0,0,17.5,2.75" transform="translate(12.046 2.409)" fill="none" stroke="#444" stroke-linecap="round" stroke-linejoin="round" stroke-width="1.5"/>
    <path id="Path_531" data-name="Path 531" d="M35.5,10.75A3.606,3.606,0,0,0,31.75,14.5" transform="translate(27.815 9.418)" fill="none" stroke="#444" stroke-linecap="round" stroke-linejoin="round" stroke-width="1.5"/>
    <path id="Path_532" data-name="Path 532" d="M44.665,25.966l14.678-3.127a3.3,3.3,0,0,1,3.752,1.78c.632,1.535-.452,3.084-1.876,3.848L35.6,39.245a40.332,40.332,0,0,1-13.6,2.266A32.147,32.147,0,0,1,13.654,40.5l-2.9-.869" transform="translate(9.418 19.93)" fill="none" stroke="#444" stroke-linecap="round" stroke-linejoin="round" stroke-width="1.5"/>
    <path id="Path_533" data-name="Path 533" d="M19.511,44.139l-5.628,3.752L.75,23.5,6.378,19.75Z" transform="translate(0.657 17.302)" fill="none" stroke="#444" stroke-linecap="round" stroke-linejoin="round" stroke-width="1.5"/>
    <path id="Path_534" data-name="Path 534" d="M27.263,33.758H45.085a4.69,4.69,0,1,0,0-9.38H32.891l-1.6-1.2A22.144,22.144,0,0,0,9.215,20.57L4.75,22.5" transform="translate(4.161 16.426)" fill="none" stroke="#444" stroke-linecap="round" stroke-linejoin="round" stroke-width="1.5"/>
  </g>
</svg>
