<svg id="Group_12" data-name="Group 12" xmlns="http://www.w3.org/2000/svg" xmlns:xlink="http://www.w3.org/1999/xlink" width="45.36" height="30.058" viewBox="0 0 45.36 30.058">
  <defs>
    <clipPath id="clip-path">
      <rect id="Rectangle_31" data-name="Rectangle 31" width="45.36" height="30.058" fill="none" stroke="#707070" stroke-width="0.8"/>
    </clipPath>
  </defs>
  <g id="Group_11" data-name="Group 11" clip-path="url(#clip-path)">
    <path id="Path_524" data-name="Path 524" d="M37.959,24.424h3.156a1.216,1.216,0,0,0,1.217-1.217V13.787a1.21,1.21,0,0,0-.134-.555L38.176,5.41a1.217,1.217,0,0,0-1.082-.66H23.75V24.424" transform="translate(2.209 0.442)" fill="none" stroke="#444" stroke-linecap="round" stroke-linejoin="round" stroke-width="0.8"/>
    <path id="Path_525" data-name="Path 525" d="M38.621,14.308,35.365,7.75H27.75v6.558Z" transform="translate(2.581 0.721)" fill="none" stroke="#444" stroke-linecap="round" stroke-linejoin="round" stroke-width="0.8"/>
    <path id="Path_526" data-name="Path 526" d="M12.75,22.75h16.4" transform="translate(1.186 2.116)" fill="none" stroke="#444" stroke-linecap="round" stroke-linejoin="round" stroke-width="0.8"/>
    <path id="Path_527" data-name="Path 527" d="M5.122,24.8H.75V2.511A1.76,1.76,0,0,1,2.511.75H24.128a1.76,1.76,0,0,1,1.761,1.761V6.944" transform="translate(0.07 0.07)" fill="none" stroke="#444" stroke-linecap="round" stroke-linejoin="round" stroke-width="0.8"/>
    <line id="Line_1" data-name="Line 1" x2="10.93" transform="translate(15.029 20.494)" fill="none" stroke="#444" stroke-linecap="round" stroke-linejoin="round" stroke-width="0.8"/>
    <line id="Line_2" data-name="Line 2" x2="2.186" transform="translate(0.82 20.494)" fill="none" stroke="#444" stroke-linecap="round" stroke-linejoin="round" stroke-width="0.8"/>
    <circle id="Ellipse_1" data-name="Ellipse 1" cx="4.372" cy="4.372" r="4.372" transform="translate(5.192 20.494)" fill="none" stroke="#444" stroke-linecap="round" stroke-linejoin="round" stroke-width="0.8"/>
    <circle id="Ellipse_2" data-name="Ellipse 2" cx="4.372" cy="4.372" r="4.372" transform="translate(31.424 20.494)" fill="none" stroke="#444" stroke-linecap="round" stroke-linejoin="round" stroke-width="0.8"/>
  </g>
</svg>
