<svg id="Group_9" data-name="Group 9" xmlns="http://www.w3.org/2000/svg" xmlns:xlink="http://www.w3.org/1999/xlink" width="223.242" height="92.874" viewBox="0 0 223.242 92.874">
  <defs>
    <clipPath id="clip-path">
      <rect id="Rectangle_29" data-name="Rectangle 29" width="200.959" height="85.874" fill="none"/>
    </clipPath>
  </defs>
  <path id="Path_353" data-name="Path 353" d="M136.67,51.207l.846-3.932.134.029-.847,3.934Z" transform="translate(-39.241 -13.574)" fill="#b6001c"/>
  <g id="Group_8" data-name="Group 8">
    <g id="Group_7" data-name="Group 7" clip-path="url(#clip-path)">
      <path id="Path_354" data-name="Path 354" d="M136.759,51.277l-.133-.029.016-.07.068.015-.068-.015-.016.07a.072.072,0,0,1-.054-.083l.848-3.934a.07.07,0,0,1,.03-.045.075.075,0,0,1,.053-.009l.134.029a.071.071,0,0,1,.054.083l-.848,3.933a.073.073,0,0,1-.031.046.077.077,0,0,1-.037.011h-.016" transform="translate(-39.212 -13.545)" fill="#b6001c"/>
      <path id="Path_355" data-name="Path 355" d="M157.074,35.265a4.9,4.9,0,0,0,.8-.545.181.181,0,0,0,.012-.062c0-.1-.1-.4-1.194-.59a2.452,2.452,0,0,0-.423-.036,2.589,2.589,0,0,0-.308.019l-.016-.135a2.73,2.73,0,0,1,.324-.02,2.584,2.584,0,0,1,.446.038c1.1.187,1.3.513,1.306.724a.249.249,0,0,1-.041.145,4.65,4.65,0,0,1-.843.582Zm-1.111-1.213h0Z" transform="translate(-44.776 -9.732)" fill="#b6001c"/>
      <path id="Path_356" data-name="Path 356" d="M157.05,35.39l-.066-.12.061-.034.034.062-.034-.062-.061.034a.065.065,0,0,1-.006-.053.064.064,0,0,1,.034-.043,4.845,4.845,0,0,0,.773-.523c0-.006,0,0,0-.021v-.006c.007-.043-.061-.328-1.135-.514a2.379,2.379,0,0,0-.411-.036,2.486,2.486,0,0,0-.3.019h-.019a.07.07,0,0,1-.04-.019.071.071,0,0,1-.021-.05v0l-.014-.126a.07.07,0,0,1,.061-.078,2.846,2.846,0,0,1,.332-.02,2.645,2.645,0,0,1,.458.038c1.11.187,1.357.525,1.365.794a.312.312,0,0,1-.06.192,4.549,4.549,0,0,1-.86.6.081.081,0,0,1-.035.009.07.07,0,0,1-.061-.037" transform="translate(-44.748 -9.704)" fill="#b6001c"/>
      <path id="Path_357" data-name="Path 357" d="M138.3,32.9l.066-.016.066-.016c.082.413,1.13,1.034,1.76,1.024a.971.971,0,0,0,.141-.011c.574-.084,1.417-1.3,1.54-1.839a1.774,1.774,0,0,0-1.332-.394,3.455,3.455,0,0,0-.544.042c-.755.113-1.6.626-1.578,1.079a.4.4,0,0,0,.013.1l-.066.016-.066.016a.527.527,0,0,1-.016-.131c.017-.6.908-1.081,1.692-1.214a3.642,3.642,0,0,1,.565-.043c.665.006,1.292.158,1.465.493l.01.021,0,.023c-.136.591-.952,1.829-1.655,1.967a1.1,1.1,0,0,1-.163.012A2.337,2.337,0,0,1,138.3,32.9" transform="translate(-39.706 -9.047)" fill="#b6001c"/>
      <path id="Path_358" data-name="Path 358" d="M138.211,32.893l0-.009a.66.66,0,0,1-.016-.15c.034-.673.953-1.14,1.751-1.28a3.61,3.61,0,0,1,.577-.046c.674.011,1.317.147,1.528.535l.01.021,0,.043,0,.025c-.153.619-.951,1.858-1.713,2.02a1.1,1.1,0,0,1-.177.014,2.4,2.4,0,0,1-1.956-1.173m1.958.9a1.067,1.067,0,0,0,.132-.01c.5-.055,1.348-1.234,1.475-1.759a1.867,1.867,0,0,0-1.228-.336h-.03a3.344,3.344,0,0,0-.534.043c-.729.1-1.539.625-1.518,1v.014a.355.355,0,0,0,.011.083v.01a2.26,2.26,0,0,0,1.674.958h.016m1.748-1.778,0-.009,0-.009Z" transform="translate(-39.678 -9.018)" fill="#b6001c"/>
      <path id="Path_359" data-name="Path 359" d="M139.83,46.655a.471.471,0,0,1-.155-.026.4.4,0,0,1-.273-.35.233.233,0,0,1,.018-.095.335.335,0,0,1,.326-.2.437.437,0,0,1,.156.027.39.39,0,0,1,.27.346.288.288,0,0,1-.016.095l-.065-.021.065.024a.336.336,0,0,1-.322.2Zm-.284-.422a.143.143,0,0,0-.007.046.257.257,0,0,0,.182.221.326.326,0,0,0,.11.021.2.2,0,0,0,.2-.117.144.144,0,0,0,.009-.05.253.253,0,0,0-.182-.219.294.294,0,0,0-.108-.021.21.21,0,0,0-.2.118" transform="translate(-40.025 -13.202)" fill="#b6001c"/>
      <path id="Path_360" data-name="Path 360" d="M139.8,46.7v0a.536.536,0,0,1-.18-.033.46.46,0,0,1-.319-.415.306.306,0,0,1,.023-.12.406.406,0,0,1,.389-.249h.011a.52.52,0,0,1,.173.031.461.461,0,0,1,.316.414.364.364,0,0,1-.017.11l0,.013a.408.408,0,0,1-.389.249Zm-.086-.292a.264.264,0,0,0,.084.016.136.136,0,0,0,.132-.066.1.1,0,0,0,0-.029v0a.19.19,0,0,0-.138-.15.243.243,0,0,0-.081-.015.137.137,0,0,0-.135.071l-.066-.024.064.028v.024a.2.2,0,0,0,.136.148" transform="translate(-39.997 -13.173)" fill="#b6001c"/>
      <path id="Path_361" data-name="Path 361" d="M141.5,46.719s.479-1.518.709-2.262c-.044-.1-.224-.506-.38-.783l.118-.068c.185.329.4.82.4.821l.011.024-.009.024c-.227.736-.716,2.288-.716,2.289Zm.328-3.046h0Z" transform="translate(-40.629 -12.52)" fill="#b6001c"/>
      <path id="Path_362" data-name="Path 362" d="M141.582,46.8l-.13-.042.023-.068h0l-.023.068a.072.072,0,0,1-.049-.068c.008-.047.472-1.494.705-2.257-.056-.128-.221-.5-.364-.751a.067.067,0,0,1-.011-.038h0a.069.069,0,0,1,.045-.066l.108-.062a.07.07,0,0,1,.053-.007.073.073,0,0,1,.043.034c.182.322.386.793.4.823l0,0,.01.024v.051l-.007.022c-.213.691-.656,2.1-.711,2.272h0a.066.066,0,0,1-.029.053.069.069,0,0,1-.063.01m.668-2.365a.034.034,0,0,1,0-.012l0-.011Z" transform="translate(-40.6 -12.492)" fill="#b6001c"/>
      <path id="Path_363" data-name="Path 363" d="M132.165,54.263l-.247-.092,1.542-8-7.6,6.614-.043-.029-.3-.2,8.8-10.248,1.193-5.265-.195-.072.014-.058a5.234,5.234,0,0,0,.119-1.045,2.1,2.1,0,0,0-.111-.741,15.584,15.584,0,0,0-1.141-2.452,1.148,1.148,0,0,1-.227-.7,2.1,2.1,0,0,1,1.815-1.848,4.534,4.534,0,0,1,.916-.093,3.136,3.136,0,0,1,2.118.706c.481.039.6.452.594.8a3.331,3.331,0,0,1-.057.544s-.816,1.829-.976,2.274-.551,2.566-.788,2.983a2.1,2.1,0,0,1-.494.236c-.009.109-.032.411-.032.761a2.475,2.475,0,0,0,.25,1.332,8.188,8.188,0,0,0,3.005-2.023.306.306,0,0,1-.025-.13c.014-.475.761-1.16,1.057-1.451.115-.108.551-.525,1.076-1.042l.048-.047.048.049a1.661,1.661,0,0,0,.768.477,13.631,13.631,0,0,1,2.65.791l.134.061-.134.061c-.12.056-.237.114-.345.175a18.553,18.553,0,0,0-3.295,2.066l-.018.026-.032,0a1.18,1.18,0,0,1-.122.006,1.729,1.729,0,0,1-.5-.081l-4.594,4.263-4.815,11.416Zm-.091-.179.077.028,4.781-11.319,4.671-4.341.039.014s.059.02.15.043a1.578,1.578,0,0,0,.341.043c.026,0,.052,0,.079,0a19.188,19.188,0,0,1,3.321-2.08c.071-.041.146-.079.222-.115a14.16,14.16,0,0,0-2.493-.721,1.759,1.759,0,0,1-.784-.468c-.5.494-.918.889-1.029,1-.3.273-1.029,1.005-1.016,1.352a.178.178,0,0,0,.027.1l.026.041-.031.037a8.155,8.155,0,0,1-3.134,2.115l-.036.012-.029-.026c-.284-.255-.322-.91-.326-1.46,0-.447.036-.817.036-.818l0-.046.043-.011a2.411,2.411,0,0,0,.478-.21c.192-.338.593-2.479.758-2.941s.98-2.283.975-2.266a3.273,3.273,0,0,0,.051-.506c-.007-.34-.086-.635-.492-.663l-.026,0-.018-.018a2.984,2.984,0,0,0-2.04-.684,4.432,4.432,0,0,0-.889.092,1.972,1.972,0,0,0-1.707,1.714,1.015,1.015,0,0,0,.2.617,15.617,15.617,0,0,1,1.159,2.485,2.221,2.221,0,0,1,.12.789,5.279,5.279,0,0,1-.11,1.017l.193.07-1.227,5.417L125.72,52.529l.128.086,7.817-6.8ZM142.43,35.116l.048-.048Z" transform="translate(-36.039 -8.623)" fill="#b6001c"/>
      <path id="Path_364" data-name="Path 364" d="M132.173,54.324l-.061-.023.024-.066v0l-.024.066-.247-.093a.072.072,0,0,1-.045-.08l1.5-7.8-7.447,6.481a.067.067,0,0,1-.086,0l-.043-.029-.3-.2a.072.072,0,0,1-.031-.049.068.068,0,0,1,.016-.056l8.79-10.236,1.176-5.188-.136-.05a.071.071,0,0,1-.043-.083l.014-.059a5.323,5.323,0,0,0,.117-1.029,2.051,2.051,0,0,0-.106-.716,15.832,15.832,0,0,0-1.133-2.435,1.216,1.216,0,0,1-.242-.736s0,0,0-.006a2.169,2.169,0,0,1,1.871-1.916,4.43,4.43,0,0,1,.93-.1,3.227,3.227,0,0,1,2.149.707.744.744,0,0,1,.634.834v.031a3.473,3.473,0,0,1-.061.569c0,.009-.818,1.831-.977,2.273s-.544,2.547-.793,2.993l-.02.023a2.077,2.077,0,0,1-.469.23c-.01.134-.029.4-.029.712v.051a2.681,2.681,0,0,0,.2,1.2,8.234,8.234,0,0,0,2.9-1.956.407.407,0,0,1-.016-.109v-.009c.026-.534.784-1.2,1.079-1.5.114-.11.55-.525,1.074-1.042l.048-.046a.071.071,0,0,1,.1,0l.047.049a1.609,1.609,0,0,0,.735.458,13.5,13.5,0,0,1,2.663.8l.134.06a.069.069,0,0,1,.041.064.068.068,0,0,1-.041.063l-.133.063c-.119.056-.235.113-.339.173a18.986,18.986,0,0,0-3.272,2.044l-.018.026-.052.031-.033,0c-.042,0-.086.006-.128.006a1.769,1.769,0,0,1-.479-.072l-4.555,4.225-4.808,11.4a.072.072,0,0,1-.066.042.058.058,0,0,1-.024,0m-.014-.155.016-.038a.074.074,0,0,1-.054.024Zm-.189-.071.028.011a.071.071,0,0,1-.021-.04Zm1.7-8.374a.072.072,0,0,1,.034.074l-1.541,8,4.673-11.062.016-.024,4.671-4.341a.071.071,0,0,1,.073-.014l.038.014c.035.009.062.021.143.041a1.476,1.476,0,0,0,.325.041h.044a19.866,19.866,0,0,1,3.321-2.074l.088-.048a15.139,15.139,0,0,0-2.342-.66,1.752,1.752,0,0,1-.766-.437c-.482.472-.873.846-.983.95-.292.257-1.007,1.009-.993,1.29h0l0,.01a.1.1,0,0,0,.016.064l.025.041a.067.067,0,0,1,0,.081l-.031.038a8.227,8.227,0,0,1-3.167,2.138l-.036.013a.073.073,0,0,1-.068-.016l-.029-.024a2.28,2.28,0,0,1-.349-1.513c0-.447.037-.818.037-.826l0-.046a.069.069,0,0,1,.051-.061l.043-.011.01,0,.038-.013.123-.045a1.626,1.626,0,0,0,.274-.13c.182-.354.58-2.45.744-2.916.126-.347.609-1.445.845-1.978.069-.153.1-.238.128-.285a3.376,3.376,0,0,0,.048-.483c-.016-.339-.066-.566-.428-.595l-.026,0-.044-.02-.016-.016a2.914,2.914,0,0,0-1.989-.665h0a4.339,4.339,0,0,0-.875.09,1.9,1.9,0,0,0-1.651,1.641H134.1l.048,0a.942.942,0,0,0,.188.575,15.69,15.69,0,0,1,1.168,2.5,2.3,2.3,0,0,1,.125.815,5.407,5.407,0,0,1-.1.972l.136.05a.068.068,0,0,1,.043.081l-1.226,5.418-.015.03-8.672,10.1.019.011,7.775-6.766a.067.067,0,0,1,.046-.019.073.073,0,0,1,.036.01m-7.849,6.947.017-.016a.08.08,0,0,1-.039,0Zm-.229-.158.038.026a.063.063,0,0,1-.011-.03.057.057,0,0,1,0-.033Zm7.87-6.429a.064.064,0,0,1,.034.046l.031-.16-.122.107a.061.061,0,0,1,.024,0,.058.058,0,0,1,.034.01m3.81-6.373.013,0a.056.056,0,0,1-.022,0l.009.008m4.924-1.125h.02a.107.107,0,0,1,.011-.014Zm-.617-.073a.076.076,0,0,1,.022,0h0l-.009,0Zm-1.22-.88a.092.092,0,0,1,.01-.012l-.006-.012a.071.071,0,0,1,0,.024m-3.353-.12a.063.063,0,0,1,.017-.024l-.014,0h0a.112.112,0,0,0,0,.018M135.552,37l.007-.03-.031-.011a.063.063,0,0,1,.024.041m-.15-.091a.081.081,0,0,1-.023-.043.225.225,0,0,0-.006.029h0v0Zm-.027-.026h0Zm10.422-.56a.067.067,0,0,1-.019.049l.1-.05-.106-.048a.07.07,0,0,1,.021.048m-7.024-5.549-.017-.007.007.006h.01m-2.094-.564v0Z" transform="translate(-36.01 -8.595)" fill="#b6001c"/>
      <path id="Path_365" data-name="Path 365" d="M157.439,35.383c-.764-.754-1.727-1.72-2.194-2.275l.051-.043-.053.043a1.831,1.831,0,0,1-.279-.4c-.137-.383-.336-.333-.937-.541l-.181-.064.18-.063c.051-.018.081-.024.127-.042a16.494,16.494,0,0,1,2.373-.463,14.016,14.016,0,0,1,2.876-.581,1.88,1.88,0,0,1,.636.093l.024.009.013.026a2.426,2.426,0,0,1,.248,1.017,1.133,1.133,0,0,1-.015.2l-.015.077-.074-.027c-.307-.113-.389-.2-.518-.2a1.1,1.1,0,0,0-.349.086c-.5.16-1.3.49-1.259.685l0,.011c.007.088.015.258.015.465a3.581,3.581,0,0,1-.259,1.625,4,4,0,0,1-.315.349l-.048.048Zm.05-.146c.093-.1.179-.195.256-.289a3.626,3.626,0,0,0,.23-1.54c0-.2-.009-.371-.015-.448a.178.178,0,0,1,0-.028c.04-.4.856-.621,1.351-.813a1.175,1.175,0,0,1,.394-.094c.176,0,.261.083.483.173a.939.939,0,0,0,0-.1,2.292,2.292,0,0,0-.224-.934,1.844,1.844,0,0,0-.562-.076,13.954,13.954,0,0,0-2.848.58,18.655,18.655,0,0,0-2.289.432c.435.131.682.158.828.56a1.8,1.8,0,0,0,.257.356c.451.535,1.384,1.473,2.141,2.217m-2.246-2.129h0Z" transform="translate(-44.172 -8.888)" fill="#b6001c"/>
      <path id="Path_366" data-name="Path 366" d="M157.409,35.451l-.048-.046.05-.05-.05.05c-.763-.752-1.72-1.713-2.194-2.273l-.007-.008a1.8,1.8,0,0,1-.29-.418c-.125-.343-.272-.281-.9-.5l-.18-.063a.071.071,0,0,1-.047-.067.071.071,0,0,1,.047-.066l.18-.064c.056-.019.084-.024.125-.041a16.431,16.431,0,0,1,2.384-.466,14.077,14.077,0,0,1,2.891-.583,1.935,1.935,0,0,1,.659.1l.025.009L160.1,31l.014.027a2.508,2.508,0,0,1,.255,1.047,1.241,1.241,0,0,1-.016.218l-.017.076a.071.071,0,0,1-.034.048.078.078,0,0,1-.059,0l-.073-.027c-.307-.116-.4-.2-.483-.192h-.009a1.076,1.076,0,0,0-.327.083,4.67,4.67,0,0,0-1.111.494.257.257,0,0,0-.1.108v0h-.009l.01.014h0l0,.006c.007.091.016.262.016.471a3.6,3.6,0,0,1-.275,1.67,4.14,4.14,0,0,1-.321.354l-.048.048a.07.07,0,0,1-.1,0m.049-.149.029-.029a.06.06,0,0,1-.027.006.087.087,0,0,1-.031-.006c.009.01.02.019.029.029m0-.093.05-.05Zm-2.328-2.6a1.733,1.733,0,0,0,.243.333c.437.52,1.338,1.427,2.083,2.163.073-.078.143-.158.205-.235a3.559,3.559,0,0,0,.212-1.441v-.054c0-.2-.008-.369-.014-.437a.319.319,0,0,1,0-.047c.076-.486.911-.67,1.4-.871a1.236,1.236,0,0,1,.418-.1.939.939,0,0,1,.415.138,2.2,2.2,0,0,0-.2-.866,1.88,1.88,0,0,0-.514-.064h0a13.973,13.973,0,0,0-2.829.578c-.565.119-1.421.182-2.062.361a.811.811,0,0,1,.653.54m2.864.305h0Zm.261-.323c.063-.037.135-.073.211-.113a2.063,2.063,0,0,0-.211.113m1.955-.336s0-.025.007-.058a.069.069,0,0,1-.026.028.071.071,0,0,1-.036.01l.055.021m-6.02-.129a.07.07,0,0,1-.025-.053.067.067,0,0,1,.024-.055l-.038.015c-.048.019-.081.026-.123.04l.163.053m5.8-1.029-.007-.014h0l-.016-.006Z" transform="translate(-44.144 -8.86)" fill="#b6001c"/>
      <path id="Path_367" data-name="Path 367" d="M163.012,42.892,158.4,38.607a1.8,1.8,0,0,1-.5.082,1.164,1.164,0,0,1-.122-.007l-.032,0-.018-.026a18.533,18.533,0,0,0-3.295-2.064c-.109-.062-.227-.12-.345-.175h0l.058-.123c.12.056.24.115.354.18a19.061,19.061,0,0,1,3.321,2.08c.026,0,.051,0,.078,0a1.641,1.641,0,0,0,.49-.086h0l.038-.014,4.689,4.363,4.764,11.3.077-.029-1.593-8.271,7.816,6.8.128-.088L165.592,42.37l-1.229-5.416.057-.02.139-.051a5.311,5.311,0,0,1-.111-1.022,2.215,2.215,0,0,1,.119-.786,16.048,16.048,0,0,1,1.161-2.484,1.027,1.027,0,0,0,.2-.619,1.971,1.971,0,0,0-1.707-1.714,4.443,4.443,0,0,0-.889-.092,2.979,2.979,0,0,0-2.041.684l-.016.017-.026,0c-.407.029-.485.322-.493.661a3.525,3.525,0,0,0,.048.491s.808,1.824.975,2.284.567,2.6.743,2.919a1.991,1.991,0,0,0,.5.228l.044.014.006.046s.033.364.033.8a2.3,2.3,0,0,1-.326,1.478l-.029.024-.036-.012a8.247,8.247,0,0,1-3.136-2.114l-.029-.037.026-.041a.213.213,0,0,0,.026-.1c.014-.348-.716-1.077-1.014-1.35-.115-.109-.55-.525-1.074-1.042l.1-.1c.522.516.957.932,1.071,1.042.3.289,1.044.974,1.058,1.449a.351.351,0,0,1-.024.13,8.224,8.224,0,0,0,3,2.025,2.5,2.5,0,0,0,.253-1.347c0-.341-.022-.637-.031-.746a1.907,1.907,0,0,1-.513-.257c-.222-.4-.61-2.518-.773-2.961s-.971-2.272-.977-2.292a3.552,3.552,0,0,1-.053-.529c-.006-.345.113-.755.595-.795a3.134,3.134,0,0,1,2.117-.705,4.679,4.679,0,0,1,.917.093,2.106,2.106,0,0,1,1.815,1.848,1.156,1.156,0,0,1-.229.7,16.063,16.063,0,0,0-1.143,2.451,2.079,2.079,0,0,0-.111.736,5.169,5.169,0,0,0,.121,1.049h0l.014.058-.058.021-.136.051,1.194,5.267,8.8,10.249-.063.043-.28.187-7.6-6.614,1.542,8-.055.02-.253.094Z" transform="translate(-44.243 -8.623)" fill="#b6001c"/>
      <path id="Path_368" data-name="Path 368" d="M167.716,54.285,162.924,42.9l-4.572-4.247a1.8,1.8,0,0,1-.477.072c-.043,0-.087,0-.131-.007l-.033,0-.051-.033-.016-.024a18.942,18.942,0,0,0-3.271-2.042c-.107-.061-.222-.118-.339-.173a.071.071,0,0,1-.039-.079.062.062,0,0,1,.011-.025l.053-.113a.07.07,0,0,1,.093-.034c.121.056.243.117.359.184a19.737,19.737,0,0,1,3.321,2.073h.044a1.6,1.6,0,0,0,.465-.081l.038-.015a.07.07,0,0,1,.073.015l4.689,4.363.017.024L167.812,53.8l-1.541-8a.072.072,0,0,1,.034-.074.071.071,0,0,1,.082.009l7.774,6.766.019-.011-8.669-10.1-.017-.03-1.228-5.416a.072.072,0,0,1,.045-.082l.056-.02.082-.03a5.459,5.459,0,0,1-.1-.976,2.294,2.294,0,0,1,.123-.811,16.19,16.19,0,0,1,1.171-2.5.945.945,0,0,0,.187-.577v0a1.9,1.9,0,0,0-1.65-1.642,4.413,4.413,0,0,0-.876-.091,2.909,2.909,0,0,0-1.99.664l-.018.017-.044.02h-.025c-.36.031-.409.254-.428.591a3.287,3.287,0,0,0,.046.47l.006.014.026.058c.024.051.054.123.093.213.08.178.185.421.3.678.223.514.467,1.082.554,1.317.165.466.562,2.561.729,2.895a1.933,1.933,0,0,0,.448.2h0a.072.072,0,0,1,.022,0l.038.013a.073.073,0,0,1,.05.058l0,.054s.033.364.033.8a2.333,2.333,0,0,1-.35,1.53l-.03.025a.071.071,0,0,1-.068.014l-.036-.013a8.31,8.31,0,0,1-3.168-2.137l-.03-.038a.07.07,0,0,1,0-.082l.025-.039a.141.141,0,0,0,.017-.068v-.01c.016-.282-.7-1.032-.993-1.289-.115-.11-.551-.528-1.076-1.044a.071.071,0,0,1,0-.1l.1-.1a.069.069,0,0,1,.1,0c.523.516.957.931,1.071,1.04.3.3,1.053.962,1.079,1.5a.423.423,0,0,1-.015.115,8.257,8.257,0,0,0,2.9,1.958,2.713,2.713,0,0,0,.2-1.213v-.052c0-.3-.016-.562-.026-.694a1.954,1.954,0,0,1-.489-.252l-.019-.021c-.233-.426-.617-2.541-.776-2.972s-.967-2.258-.98-2.305a3.376,3.376,0,0,1-.056-.538v-.03a.744.744,0,0,1,.635-.835,3.219,3.219,0,0,1,2.146-.708,4.725,4.725,0,0,1,.932.1,2.169,2.169,0,0,1,1.87,1.916,1.226,1.226,0,0,1-.242.742,16.046,16.046,0,0,0-1.133,2.436,2.024,2.024,0,0,0-.106.71,5.2,5.2,0,0,0,.118,1.033l.014.059a.071.071,0,0,1-.044.083l-.058.021-.079.029,1.177,5.189,8.788,10.236a.077.077,0,0,1,.016.056.075.075,0,0,1-.031.049l-.063.042-.279.187a.07.07,0,0,1-.086,0l-7.444-6.481,1.5,7.8a.072.072,0,0,1-.045.079l-.054.021-.254.094a.06.06,0,0,1-.025,0,.069.069,0,0,1-.064-.043m.1-.117.036-.015a.071.071,0,0,1-.053-.024Zm.159-.06.03-.011L168,54.069a.066.066,0,0,1-.025.039m6.172-1.439.021-.015a.073.073,0,0,1-.039,0Zm.2-.161a.062.062,0,0,1-.015.034l.043-.029-.033-.037a.063.063,0,0,1,0,.033m-7.877-6.382a.077.077,0,0,1,.033-.046.073.073,0,0,1,.058-.006l-.121-.1Zm-3.5-3.264-.064.028.064-.028.041-.044Zm-.277-3.153.011-.01a.1.1,0,0,1-.026.006l.015,0m-4.925-1.125-.03-.015a.067.067,0,0,1,.01.014h.02m.613-.073-.007-.007h0l-.006,0,.016,0m1.223-.877a.082.082,0,0,1,0-.026s0,.008-.006.012l.011.014m3.357-.123v-.019l-.014,0-.009,0a.072.072,0,0,1,.022.026m-.032-.038h0Zm.105,0a.03.03,0,0,0,.009-.015.041.041,0,0,1-.009.015m-.054-.114h0ZM164.425,37a.064.064,0,0,1,.024-.046l-.033.011Zm.15-.1.031-.011v-.007a.047.047,0,0,0,0-.016v-.007a.072.072,0,0,1-.025.041m-3.728-4.914,0-.02c0,.007,0,.014,0,.02m0-.024h0Zm.362-1.2h.01l.008-.007Zm-2.822,7.733h0Z" transform="translate(-44.214 -8.594)" fill="#b6001c"/>
      <path id="Path_369" data-name="Path 369" d="M147.8,35.032a3.517,3.517,0,0,1-.262-1.617,4.567,4.567,0,0,1,.018-.469V32.93c.039-.194-.762-.524-1.258-.684a1.088,1.088,0,0,0-.349-.087c-.128,0-.212.083-.517.2l-.074.027-.016-.076a1,1,0,0,1-.016-.2,2.45,2.45,0,0,1,.25-1.019l.012-.026.026-.009a1.832,1.832,0,0,1,.635-.094,14.142,14.142,0,0,1,2.876.582A16.564,16.564,0,0,1,151.5,32c.043.017.076.024.127.043l-.048.128c-.039-.016-.073-.023-.129-.044a16.681,16.681,0,0,0-2.35-.455,14.1,14.1,0,0,0-2.848-.58,1.763,1.763,0,0,0-.561.076,2.3,2.3,0,0,0-.225.936c0,.038,0,.069,0,.1.222-.092.308-.172.484-.175a1.176,1.176,0,0,1,.394.094c.493.192,1.31.414,1.349.812,0,.009,0,.016,0,.027a4.524,4.524,0,0,0-.018.458,3.567,3.567,0,0,0,.233,1.532c.09.111.194.228.3.339l-.1.095c-.113-.115-.22-.233-.314-.349" transform="translate(-41.728 -8.888)" fill="#b6001c"/>
      <path id="Path_370" data-name="Path 370" d="M148.04,35.4c-.114-.116-.222-.236-.318-.355l.054-.045-.056.044a3.527,3.527,0,0,1-.275-1.66c0-.213.007-.385.018-.475v-.024a.251.251,0,0,0-.1-.108,2.034,2.034,0,0,0-.309-.179,6.753,6.753,0,0,0-.8-.317,1.021,1.021,0,0,0-.331-.083v0c-.085,0-.179.075-.485.193l-.074.027a.064.064,0,0,1-.058,0,.066.066,0,0,1-.035-.047l-.017-.077a1.326,1.326,0,0,1-.017-.217,2.535,2.535,0,0,1,.257-1.05L145.5,31l.038-.035.026-.009a1.9,1.9,0,0,1,.659-.1,14.09,14.09,0,0,1,2.891.584,16.4,16.4,0,0,1,2.385.466c.037.014.068.021.125.042a.067.067,0,0,1,.039.037.075.075,0,0,1,0,.054l-.05.128a.074.074,0,0,1-.036.04.075.075,0,0,1-.054,0c-.031-.013-.068-.02-.128-.043a16.816,16.816,0,0,0-2.34-.453,14.17,14.17,0,0,0-2.834-.577,1.763,1.763,0,0,0-.509.063,2.227,2.227,0,0,0-.206.868.948.948,0,0,1,.417-.14,1.234,1.234,0,0,1,.419.1c.483.2,1.32.385,1.394.878,0,.016,0,.021,0,.035a4.348,4.348,0,0,0-.017.451c0,.016,0,.032,0,.049a3.469,3.469,0,0,0,.219,1.437,4.343,4.343,0,0,0,.3.334.071.071,0,0,1,.02.05.07.07,0,0,1-.021.05l-.1.095a.072.072,0,0,1-.1,0m-.739-2.831c-.044-.026-.093-.051-.145-.076l.145.076m-1.914-.311.053-.02a.1.1,0,0,1-.036-.011.081.081,0,0,1-.026-.029c0,.031.007.052.009.06m.22-1.158.026-.024-.017.006a.077.077,0,0,0-.009.017" transform="translate(-41.699 -8.859)" fill="#b6001c"/>
      <path id="Path_371" data-name="Path 371" d="M170.219,47.3l.133-.029.849,3.933-.134.029Z" transform="translate(-48.874 -13.573)" fill="#b6001c"/>
      <path id="Path_372" data-name="Path 372" d="M171,51.268a.072.072,0,0,1-.031-.046l-.848-3.933.069-.014.015.068-.015-.068-.069.014a.07.07,0,0,1,.053-.083l.133-.029a.068.068,0,0,1,.083.053l.85,3.933a.067.067,0,0,1-.009.053.071.071,0,0,1-.044.031l-.134.029h-.015a.08.08,0,0,1-.038-.011" transform="translate(-48.845 -13.545)" fill="#b6001c"/>
      <path id="Path_373" data-name="Path 373" d="M151.337,35.815a4.951,4.951,0,0,1-1.91-1.028.277.277,0,0,1-.031-.13c0-.212.2-.536,1.313-.724a2.559,2.559,0,0,1,.446-.038c1.358.01,2.593.967,2.611,1.66,0,.016,0,.033,0,.048l0,.041-.037.016a4.073,4.073,0,0,1-1.473.273,3.484,3.484,0,0,1-.914-.118m.037-.131a3.327,3.327,0,0,0,.877.114,4.068,4.068,0,0,0,1.379-.246,1.473,1.473,0,0,0-.744-.969,3.153,3.153,0,0,0-1.731-.552,2.372,2.372,0,0,0-.423.037c-1.1.19-1.2.49-1.2.589a.412.412,0,0,0,0,.051,4.963,4.963,0,0,0,1.836.975" transform="translate(-42.895 -9.732)" fill="#b6001c"/>
      <path id="Path_374" data-name="Path 374" d="M151.291,35.854l.019-.068-.019.068a4.873,4.873,0,0,1-1.955-1.065.351.351,0,0,1-.037-.163c.008-.267.257-.6,1.369-.791a2.533,2.533,0,0,1,.461-.039c1.387.019,2.645.964,2.68,1.73a.513.513,0,0,1,0,.055l0,.041a.076.076,0,0,1-.043.058l-.036.015a4.147,4.147,0,0,1-1.5.279,3.544,3.544,0,0,1-.932-.121m.038-.136.018-.063.019-.068a3.227,3.227,0,0,0,.858.111,3.97,3.97,0,0,0,1.305-.224,1.546,1.546,0,0,0-.71-.862,3.086,3.086,0,0,0-1.691-.54,2.359,2.359,0,0,0-.411.036c-1.058.181-1.144.462-1.141.511v0h-.034l.034.006v.014a4.861,4.861,0,0,0,1.788.944l-.019.068Zm2.32-.143.019-.007v-.019a.065.065,0,0,1-.019.026m-4.068-.907h0Z" transform="translate(-42.867 -9.704)" fill="#b6001c"/>
      <path id="Path_375" data-name="Path 375" d="M166.4,34.012c-.7-.138-1.522-1.375-1.654-1.968l0-.022.011-.02c.17-.336.8-.488,1.464-.494a3.779,3.779,0,0,1,.567.043c.778.133,1.67.612,1.688,1.214a.529.529,0,0,1-.015.131,2.344,2.344,0,0,1-1.893,1.128,1.1,1.1,0,0,1-.163-.013m.023-.134a.936.936,0,0,0,.14.011c.63.011,1.676-.611,1.762-1.024a.459.459,0,0,0,.011-.1c.016-.453-.826-.966-1.575-1.079a3.566,3.566,0,0,0-.545-.042,1.765,1.765,0,0,0-1.332.394c.117.54.963,1.755,1.538,1.839" transform="translate(-47.301 -9.047)" fill="#b6001c"/>
      <path id="Path_376" data-name="Path 376" d="M166.359,34.052l.012-.069-.014.069c-.759-.162-1.561-1.4-1.709-2.02l0-.024.006-.046.009-.021c.207-.386.851-.521,1.528-.532a3.674,3.674,0,0,1,.578.045c.791.14,1.713.607,1.749,1.283a.636.636,0,0,1-.019.15,2.394,2.394,0,0,1-1.961,1.179,1.2,1.2,0,0,1-.175-.014m.045-.273-.01.07.011-.07a.98.98,0,0,0,.129.01h.016c.591.014,1.627-.626,1.677-.97a.376.376,0,0,0,.009-.084v-.012c.021-.369-.792-.9-1.516-1a3.421,3.421,0,0,0-.536-.043h-.029a1.857,1.857,0,0,0-1.225.336c.12.522.972,1.7,1.474,1.758m-1.616-1.769,0-.015,0,.007v.008" transform="translate(-47.273 -9.018)" fill="#b6001c"/>
      <path id="Path_377" data-name="Path 377" d="M167.8,46.454h0a.257.257,0,0,1-.018-.1.388.388,0,0,1,.272-.344.392.392,0,0,1,.156-.03.337.337,0,0,1,.327.205.291.291,0,0,1,.016.1.388.388,0,0,1-.273.347.494.494,0,0,1-.155.026h0a.328.328,0,0,1-.319-.2m.322.066a.348.348,0,0,0,.11-.019.256.256,0,0,0,.182-.219.142.142,0,0,0-.008-.051.2.2,0,0,0-.2-.115.261.261,0,0,0-.107.021.255.255,0,0,0-.185.217.1.1,0,0,0,.01.048l-.063.026.063-.024a.2.2,0,0,0,.2.115" transform="translate(-48.173 -13.202)" fill="#b6001c"/>
      <path id="Path_378" data-name="Path 378" d="M168.089,46.7a.4.4,0,0,1-.379-.232.062.062,0,0,1-.007-.014.325.325,0,0,1-.022-.128.452.452,0,0,1,.313-.408.444.444,0,0,1,.183-.036.41.41,0,0,1,.395.253.357.357,0,0,1,.019.12.46.46,0,0,1-.321.414.568.568,0,0,1-.178.031Zm0-.14v0Zm-.389-.108.064-.023Zm.389-.029a.3.3,0,0,0,.086-.014.2.2,0,0,0,.136-.15v0a.013.013,0,0,1,0-.006.079.079,0,0,0,0-.022.133.133,0,0,0-.133-.068.226.226,0,0,0-.083.017.2.2,0,0,0-.139.148h0a.034.034,0,0,0,0,.02l0,.009a.133.133,0,0,0,.13.066" transform="translate(-48.145 -13.173)" fill="#b6001c"/>
      <path id="Path_379" data-name="Path 379" d="M165.573,44.473l-.008-.024.011-.022s.207-.492.395-.821h0l.118.066c-.158.277-.335.684-.379.785.224.743.706,2.26.707,2.262l-.13.041s-.493-1.551-.714-2.288" transform="translate(-47.537 -12.52)" fill="#b6001c"/>
      <path id="Path_380" data-name="Path 380" d="M166.192,46.754s-.492-1.547-.711-2.287h0l-.009-.024,0-.053.009-.022v0l.006-.018c.006-.014.016-.035.026-.061.023-.051.055-.124.093-.205.074-.166.174-.372.269-.539a.071.071,0,0,1,.1-.024l0,0,.117.067a.068.068,0,0,1,.032.043.064.064,0,0,1-.006.053c-.143.254-.309.625-.364.754.212.7.639,2.05.693,2.22v0a.077.077,0,0,1,.006.061.074.074,0,0,1-.046.042l-.13.041a.069.069,0,0,1-.02,0,.073.073,0,0,1-.069-.05m-.645-2.309.024-.009Zm.069-.01v-.019l0,.007h0v0h0l0,.01" transform="translate(-47.51 -12.492)" fill="#b6001c"/>
      <path id="Path_381" data-name="Path 381" d="M161.469,3.269a3.149,3.149,0,1,1,3.15,3.168,3.16,3.16,0,0,1-3.15-3.168m.136,0A3.013,3.013,0,1,0,164.618.236a3.027,3.027,0,0,0-3.013,3.033" transform="translate(-46.361 -0.029)" fill="#b6001c"/>
      <path id="Path_382" data-name="Path 382" d="M161.369,3.24a3.22,3.22,0,1,1,3.221,3.239,3.232,3.232,0,0,1-3.221-3.239M164.588,6.2a2.962,2.962,0,1,0-2.943-2.961A2.958,2.958,0,0,0,164.588,6.2" transform="translate(-46.333)" fill="#b6001c"/>
      <path id="Path_383" data-name="Path 383" d="M164.6,3.663a.46.46,0,0,1,.905,0,.461.461,0,0,1-.905,0m.134,0a.294.294,0,0,0,.322.24.288.288,0,0,0,.314-.24.288.288,0,0,0-.314-.241.294.294,0,0,0-.322.241" transform="translate(-47.26 -0.943)" fill="#b6001c"/>
      <path id="Path_384" data-name="Path 384" d="M164.6,3.661a.464.464,0,0,1,.912,0,.464.464,0,0,1-.912,0m.005,0a.42.42,0,0,0,.454.374.415.415,0,0,0,.447-.374.458.458,0,0,0-.9,0m.13,0a.3.3,0,0,1,.324-.244.289.289,0,0,1,.316.244.29.29,0,0,1-.316.243.3.3,0,0,1-.324-.243m.324.237a.286.286,0,0,0,.311-.237.284.284,0,0,0-.311-.238.292.292,0,0,0-.318.238.292.292,0,0,0,.318.237" transform="translate(-47.259 -0.942)" fill="#b6001c"/>
      <path id="Path_385" data-name="Path 385" d="M165.924,4.987a.462.462,0,0,1,.908,0,.462.462,0,0,1-.908,0m.135,0a.289.289,0,0,0,.317.241.292.292,0,0,0,.32-.241.331.331,0,0,0-.637,0" transform="translate(-47.64 -1.324)" fill="#b6001c"/>
      <path id="Path_386" data-name="Path 386" d="M165.919,4.986a.464.464,0,0,1,.912,0,.464.464,0,0,1-.912,0m0,0a.459.459,0,0,0,.9,0,.46.46,0,0,0-.9,0m.129,0a.335.335,0,0,1,.644,0,.334.334,0,0,1-.644,0m.321.238a.288.288,0,0,0,.317-.238.328.328,0,0,0-.63,0,.287.287,0,0,0,.314.238" transform="translate(-47.639 -1.323)" fill="#b6001c"/>
      <path id="Path_387" data-name="Path 387" d="M137.48,3.269a3.148,3.148,0,1,1,3.148,3.168,3.159,3.159,0,0,1-3.148-3.168M140.628,6.3a3.033,3.033,0,1,0-3.012-3.032A3.027,3.027,0,0,0,140.628,6.3" transform="translate(-39.474 -0.029)" fill="#b6001c"/>
      <path id="Path_388" data-name="Path 388" d="M137.381,3.24A3.219,3.219,0,1,1,140.6,6.479a3.231,3.231,0,0,1-3.219-3.239m3.219,3.1v0Zm-2.942-3.1A2.942,2.942,0,1,0,140.6.277a2.958,2.958,0,0,0-2.942,2.963" transform="translate(-39.445)" fill="#b6001c"/>
      <path id="Path_389" data-name="Path 389" d="M141.907,3.663a.462.462,0,0,1,.909,0,.463.463,0,0,1-.909,0m.454.24a.29.29,0,0,0,.318-.24.33.33,0,0,0-.636,0,.292.292,0,0,0,.318.24" transform="translate(-40.745 -0.943)" fill="#b6001c"/>
      <path id="Path_390" data-name="Path 390" d="M141.9,3.661a.466.466,0,0,1,.915,0,.466.466,0,0,1-.915,0m.006,0a.46.46,0,0,0,.9,0,.459.459,0,0,0-.9,0m.453.24v0a.3.3,0,0,1-.322-.244.3.3,0,0,1,.322-.243.293.293,0,0,1,.32.243.292.292,0,0,1-.32.244Zm-.316-.24a.328.328,0,0,0,.631,0,.328.328,0,0,0-.631,0" transform="translate(-40.743 -0.942)" fill="#b6001c"/>
      <path id="Path_391" data-name="Path 391" d="M140.586,4.988a.461.461,0,0,1,.908,0,.462.462,0,0,1-.908,0m.453.24a.292.292,0,0,0,.319-.24.33.33,0,0,0-.635,0,.29.29,0,0,0,.317.24" transform="translate(-40.365 -1.324)" fill="#b6001c"/>
      <path id="Path_392" data-name="Path 392" d="M140.583,4.987h0a.464.464,0,0,1,.912,0,.464.464,0,0,1-.912,0m.456.373a.42.42,0,0,0,.452-.373.459.459,0,0,0-.9,0,.418.418,0,0,0,.451.374m-.32-.374a.332.332,0,0,1,.641,0,.293.293,0,0,1-.321.243V5.223a.287.287,0,0,0,.315-.237.327.327,0,0,0-.629,0,.286.286,0,0,0,.314.237V5.23a.294.294,0,0,1-.32-.244" transform="translate(-40.364 -1.322)" fill="#b6001c"/>
      <path id="Path_393" data-name="Path 393" d="M147.662,7.506a4.614,4.614,0,0,1,9.227,0,4.614,4.614,0,0,1-9.227,0m.135,0a4.479,4.479,0,0,0,8.955,0,4.479,4.479,0,0,0-8.955,0" transform="translate(-42.397 -0.859)" fill="#b6001c"/>
      <path id="Path_394" data-name="Path 394" d="M147.563,7.478a4.685,4.685,0,0,1,9.367,0,4.685,4.685,0,0,1-9.367,0m4.684,4.311a4.364,4.364,0,0,0,4.407-4.311,4.408,4.408,0,0,0-8.814,0,4.363,4.363,0,0,0,4.407,4.311m-4.478-4.311h0Z" transform="translate(-42.369 -0.83)" fill="#b6001c"/>
      <path id="Path_395" data-name="Path 395" d="M153.065,7.94c.007-.221.239-.358.494-.358s.484.138.491.358-.237.355-.491.356-.487-.138-.494-.356m.137,0c0,.1.143.219.357.219s.354-.12.356-.219-.143-.221-.356-.221-.357.12-.357.221" transform="translate(-43.948 -2.177)" fill="#b6001c"/>
      <path id="Path_396" data-name="Path 396" d="M153.024,7.929h0c.011-.244.259-.386.523-.386s.51.144.52.388a.469.469,0,0,1-.52.383c-.262,0-.511-.142-.522-.383m.522.326c.247,0,.459-.133.464-.326s-.217-.33-.463-.331-.461.132-.465.33.219.326.465.327m-.385-.327c0-.127.163-.249.386-.25s.379.123.383.25-.161.245-.383.247-.381-.124-.386-.247m.386.19c.2,0,.326-.12.326-.19s-.123-.2-.326-.195-.329.12-.329.195.125.19.329.19" transform="translate(-43.937 -2.165)" fill="#b6001c"/>
      <path id="Path_397" data-name="Path 397" d="M154.79,9.126c.009-.219.242-.352.5-.353s.483.134.49.353-.237.359-.49.36-.488-.138-.5-.36m.137,0c0,.1.145.224.359.224s.355-.121.355-.224-.143-.217-.355-.217-.358.12-.359.217" transform="translate(-44.444 -2.519)" fill="#b6001c"/>
      <path id="Path_398" data-name="Path 398" d="M154.751,9.115h0c.009-.241.262-.379.524-.379s.509.138.518.381c-.007.245-.256.386-.518.387s-.515-.142-.524-.387m.524.331c.245,0,.459-.133.463-.331s-.218-.324-.463-.325-.462.128-.468.324.222.331.468.331m-.389-.331h0c.006-.123.164-.244.389-.245s.378.121.381.245-.16.25-.381.251-.383-.123-.389-.251m.389.195c.2,0,.326-.118.326-.195s-.123-.189-.326-.189-.331.119-.331.189.126.2.331.195" transform="translate(-44.432 -2.508)" fill="#b6001c"/>
      <path id="Path_399" data-name="Path 399" d="M151.847,9.479c.008-.22.24-.356.495-.357s.485.138.492.357-.239.355-.492.356-.487-.135-.495-.356m.137,0c0,.1.144.22.358.22s.356-.121.356-.22-.143-.22-.356-.22-.358.122-.358.22" transform="translate(-43.599 -2.619)" fill="#b6001c"/>
      <path id="Path_400" data-name="Path 400" d="M151.808,9.469h0c.009-.242.259-.384.523-.384s.51.142.52.386c-.009.241-.258.383-.52.383s-.513-.14-.523-.383m.523.327c.246,0,.458-.133.463-.327s-.217-.328-.463-.329-.461.131-.468.329.221.326.468.328m-.386-.328c0-.126.163-.247.386-.248s.379.122.383.248-.161.247-.383.249-.383-.125-.386-.249m.386.192c.2,0,.327-.119.327-.192s-.123-.192-.327-.192-.33.12-.33.192.127.191.33.192" transform="translate(-43.587 -2.608)" fill="#b6001c"/>
      <path id="Path_401" data-name="Path 401" d="M153.575,10.667c.009-.222.242-.357.5-.359s.484.139.491.359-.238.354-.491.355-.488-.135-.5-.355m.137,0c0,.1.145.219.359.22s.355-.122.355-.22-.143-.222-.355-.222-.359.12-.359.222" transform="translate(-44.095 -2.96)" fill="#b6001c"/>
      <path id="Path_402" data-name="Path 402" d="M153.535,10.656h0c.011-.244.26-.385.524-.386s.51.144.519.388c-.01.242-.257.382-.519.383s-.513-.14-.524-.383m.524.326c.245,0,.458-.132.463-.326s-.217-.33-.463-.331-.462.133-.468.33.221.326.468.327m-.387-.327c0-.128.164-.249.387-.25s.379.123.382.25-.16.246-.382.248-.383-.123-.387-.248m.387.191c.2,0,.326-.12.326-.191s-.123-.194-.326-.194-.331.12-.331.194.126.192.331.191" transform="translate(-44.083 -2.948)" fill="#b6001c"/>
      <path id="Path_403" data-name="Path 403" d="M150.822,25.8a2.361,2.361,0,1,1,2.362,2.31,2.339,2.339,0,0,1-2.362-2.31m.136,0a2.225,2.225,0,1,0,2.226-2.176,2.2,2.2,0,0,0-2.226,2.176" transform="translate(-43.304 -6.745)" fill="#b6001c"/>
      <path id="Path_404" data-name="Path 404" d="M150.724,25.775a2.43,2.43,0,1,1,2.432,2.38,2.408,2.408,0,0,1-2.432-2.38m2.432,2.1a2.105,2.105,0,1,0-2.156-2.1,2.13,2.13,0,0,0,2.156,2.1m-2.226-2.1h0Z" transform="translate(-43.276 -6.717)" fill="#b6001c"/>
      <path id="Path_405" data-name="Path 405" d="M153.547,26.019a.253.253,0,0,1,.281-.212c.14,0,.277.073.283.212s-.143.214-.283.215a.253.253,0,0,1-.281-.215m.136,0c0,.022.049.078.145.078s.146-.055.146-.078-.047-.077-.146-.077-.145.056-.145.077" transform="translate(-44.087 -7.41)" fill="#b6001c"/>
      <path id="Path_406" data-name="Path 406" d="M153.508,26.009h0a.318.318,0,1,1,.309.244.28.28,0,0,1-.309-.244m.309.185c.132,0,.25-.069.253-.185s-.121-.185-.252-.186-.248.066-.253.185.123.185.252.186m-.173-.186c.006-.051.066-.1.173-.106s.168.056.173.106-.063.1-.173.106-.168-.054-.173-.106m.173.049a.069.069,0,1,0,0-.1.14.14,0,0,0-.117.05.137.137,0,0,0,.117.049" transform="translate(-44.076 -7.398)" fill="#b6001c"/>
      <path id="Path_407" data-name="Path 407" d="M154.418,26.621a.292.292,0,0,1,.563,0c-.006.14-.143.211-.281.211s-.275-.071-.282-.211m.136,0c0,.019.048.076.146.076s.145-.055.145-.076-.046-.078-.145-.078-.146.058-.146.078" transform="translate(-44.337 -7.582)" fill="#b6001c"/>
      <path id="Path_408" data-name="Path 408" d="M154.689,26.849a.281.281,0,0,1-.309-.238h0a.318.318,0,0,1,.619,0,.279.279,0,0,1-.306.238Zm0-.056c.13,0,.248-.066.253-.182s-.123-.186-.253-.188-.249.067-.254.187.124.181.254.183m-.175-.182h0c.008-.048.066-.1.175-.1s.168.055.173.106-.063.1-.173.1-.167-.056-.175-.1m.175.046a.133.133,0,0,0,.116-.047.13.13,0,0,0-.116-.05.135.135,0,0,0-.118.05.138.138,0,0,0,.118.047" transform="translate(-44.326 -7.57)" fill="#b6001c"/>
      <path id="Path_409" data-name="Path 409" d="M152.935,26.8c.007-.14.143-.212.282-.214s.277.073.283.214-.145.213-.283.214a.253.253,0,0,1-.282-.214m.136,0c0,.022.047.078.146.078s.145-.056.148-.078a.146.146,0,0,0-.148-.078c-.1,0-.145.058-.146.078" transform="translate(-43.911 -7.632)" fill="#b6001c"/>
      <path id="Path_410" data-name="Path 410" d="M152.9,26.785h0a.321.321,0,1,1,.31.244h0a.279.279,0,0,1-.307-.241m.31.185c.131,0,.25-.066.254-.184s-.123-.185-.254-.187-.247.066-.253.185.122.185.253.185m-.174-.185h0c.006-.046.064-.1.174-.1s.168.058.175.108-.066.1-.175.1-.168-.056-.174-.1m.266.024a.219.219,0,0,0,.027-.024.13.13,0,0,0-.119-.051.125.125,0,0,0-.117.05.128.128,0,0,0,.117.049.155.155,0,0,0,.092-.024" transform="translate(-43.9 -7.621)" fill="#b6001c"/>
      <path id="Path_411" data-name="Path 411" d="M153.807,27.4a.252.252,0,0,1,.282-.213.222.222,0,1,1-.282.213m.136,0c0,.024.048.078.145.078s.147-.058.147-.078-.048-.076-.147-.078-.145.057-.145.078" transform="translate(-44.161 -7.805)" fill="#b6001c"/>
      <path id="Path_412" data-name="Path 412" d="M153.769,27.386h0a.319.319,0,1,1,.309.245.281.281,0,0,1-.309-.245m.309.185c.131,0,.249-.068.255-.185s-.124-.185-.255-.186-.248.067-.254.185.123.185.254.187m-.173-.187c0-.051.063-.1.173-.1s.169.054.174.1-.066.1-.174.107-.17-.056-.173-.107m.173.051a.142.142,0,0,0,.12-.051.147.147,0,0,0-.12-.05.07.07,0,1,0,0,.1" transform="translate(-44.15 -7.793)" fill="#b6001c"/>
      <path id="Path_413" data-name="Path 413" d="M139.1,12.343a34.3,34.3,0,0,1-4.88-2.38,29.552,29.552,0,0,1-3.8-2.486l-.019-.027.009-.029c.066-.2.234-.652.513-.682.01,0,.014,0,.01,0a29.035,29.035,0,0,1,3.949,1.9c1.392.8,4.307,2.315,4.681,2.813.314.184,3.628,2.07,7.7,4.386l-.067.118c-4.071-2.315-7.381-4.2-7.719-4.4a38.9,38.9,0,0,0-4.661-2.8,31.193,31.193,0,0,0-3.888-1.88h0c-.095-.024-.319.352-.373.545a33.438,33.438,0,0,0,3.732,2.423,35.382,35.382,0,0,0,4.854,2.372c.316.165,3.467,1.883,7.4,4.031l-.065.119L139.1,12.343" transform="translate(-37.441 -1.935)" fill="#b6001c"/>
      <path id="Path_414" data-name="Path 414" d="M146.41,16.4l-7.362-4.016A34.523,34.523,0,0,1,134.157,10a28.9,28.9,0,0,1-3.822-2.507l-.019-.026-.01-.059.009-.032c.074-.2.222-.677.58-.731h.021l.01,0a29.344,29.344,0,0,1,3.962,1.9c1.385.806,4.252,2.28,4.694,2.821.374.218,3.66,2.089,7.683,4.378a.07.07,0,0,1,.026.1l-.066.118a.073.073,0,0,1-.1.026c-4.071-2.315-7.38-4.2-7.72-4.4l-.021-.019a40.1,40.1,0,0,0-4.639-2.776A33.847,33.847,0,0,0,130.9,6.917h-.014l-.006,0a.179.179,0,0,0-.037.032.946.946,0,0,0-.1.133,1.542,1.542,0,0,0-.142.283,34.94,34.94,0,0,0,3.683,2.383,36.082,36.082,0,0,0,4.828,2.364l.026.007c.317.168,3.467,1.886,7.4,4.033a.078.078,0,0,1,.035.042.076.076,0,0,1-.006.054l-.066.119a.076.076,0,0,1-.042.034.064.064,0,0,1-.02,0,.071.071,0,0,1-.035-.009m-7.339-4.084-.034.061.034-.061.006-.061Zm-8.614-4.9a.043.043,0,0,1,0-.013v.006l0,.007m.193-.436.02-.029-.02.029m.22-.068Zm.087-.026.006-.011-.006.011" transform="translate(-37.414 -1.906)" fill="#b6001c"/>
      <path id="Path_415" data-name="Path 415" d="M154.637,16.365l-.724-.411-.1-.06.1-.058c4.068-2.315,7.382-4.2,7.677-4.367.394-.515,3.31-2.027,4.7-2.831a30.362,30.362,0,0,1,3.934-1.9.047.047,0,0,1,.02,0h0c.28.029.455.48.517.684l.006.028-.016.026a29.638,29.638,0,0,1-3.8,2.487,35.189,35.189,0,0,1-4.863,2.377c-.364.192-3.494,1.9-7.391,4.026l-.033.019Zm.033-.137c3.922-2.139,7.056-3.847,7.37-4.014l.032.061-.006-.068a35.461,35.461,0,0,0,4.825-2.365,33.22,33.22,0,0,0,3.734-2.422c-.05-.183-.264-.543-.367-.545h-.012a31.5,31.5,0,0,0-3.886,1.88,38.247,38.247,0,0,0-4.68,2.812c-.314.184-3.572,2.04-7.594,4.326l.585.334" transform="translate(-44.162 -1.934)" fill="#b6001c"/>
      <path id="Path_416" data-name="Path 416" d="M154.6,16.415l-.031-.018-.723-.411-.1-.059a.069.069,0,0,1-.035-.061.07.07,0,0,1,.035-.061l.1-.06c4.02-2.286,7.3-4.155,7.665-4.359.461-.56,3.328-2.035,4.713-2.839a30.309,30.309,0,0,1,3.948-1.9.1.1,0,0,1,.036-.006.066.066,0,0,1,.031.006c.339.065.49.526.56.734l.006.028-.009.055-.019.028a28.873,28.873,0,0,1-3.821,2.507,35.767,35.767,0,0,1-4.875,2.385c-.408.217-3.519,1.913-7.377,4.018l-.035.019a.071.071,0,0,1-.034.009.065.065,0,0,1-.036-.01m0-.079.011-.019h0Zm.033-.062.01-.006h-.02a.041.041,0,0,1,.01.006m0-.075.035-.061Zm0-.081c3.9-2.129,7.02-3.829,7.335-3.994a.058.058,0,0,1,.026-.009.074.074,0,0,1,.028-.008,36.519,36.519,0,0,0,4.8-2.356,34.775,34.775,0,0,0,3.686-2.384,1.254,1.254,0,0,0-.282-.447l0,0h-.02a34.189,34.189,0,0,0-3.842,1.871,39.3,39.3,0,0,0-4.659,2.794l-.021.019c-.312.184-3.515,2.007-7.487,4.266l.444.252M154,15.912a.066.066,0,0,1-.016-.046.069.069,0,0,1,.016-.045l-.08.045.081.046m16.659-8.5,0-.006h0l0-.006v.012" transform="translate(-44.134 -1.906)" fill="#b6001c"/>
      <path id="Path_417" data-name="Path 417" d="M130.431,29.456l.4-.445s8.746-4.972,15.694-8.923l-.037-.021-.034-.019-.033.019c-6.936,3.945-15.608,8.875-15.624,8.883l.034.06-.051-.046-.541.593.79-.146c.026-.011,2.295-1.249,5.451-2.974l10.73-5.858.109-.058-.069-.039c-7.075,3.86-16.233,8.863-16.233,8.863Z" transform="translate(-37.396 -5.757)" fill="#b6001c"/>
      <path id="Path_418" data-name="Path 418" d="M130.153,29.564a.072.072,0,0,1,.009-.082l.542-.593a.083.083,0,0,1,.017-.014.089.089,0,0,1,.019-.014c.014-.008,8.687-4.937,15.622-8.882l.033-.019a.065.065,0,0,1,.069,0l.033.017.038.021a.073.073,0,0,1,.036.062.071.071,0,0,1-.036.061l-15.685,8.918-.255.28.371-.07c.322-.175,9.277-5.066,16.224-8.857a.068.068,0,0,1,.068,0l.069.038a.07.07,0,0,1,0,.124l-.108.059c-3.532,1.928-7.572,4.133-10.73,5.858s-5.418,2.959-5.473,2.98l-.79.147h-.011a.072.072,0,0,1-.063-.036" transform="translate(-37.367 -5.728)" fill="#b6001c"/>
      <path id="Path_419" data-name="Path 419" d="M130.506,29.472l.195-.106h-.009l.262-.287c.326-.185,8.786-4.993,15.582-8.859l.5.273.143-.078L146.6,20.1c-6.948,3.951-15.694,8.923-15.694,8.923Z" transform="translate(-37.471 -5.772)" fill="#b6001c"/>
      <path id="Path_420" data-name="Path 420" d="M130.423,29.487a.07.07,0,0,1,0-.091l.4-.445.017-.014,5.242-2.98,10.453-5.943a.067.067,0,0,1,.068,0l.574.312a.07.07,0,0,1,.036.062.069.069,0,0,1-.036.061l-.143.078a.076.076,0,0,1-.068,0l-.465-.254-15.539,8.835-.232.253a.066.066,0,0,1-.032.038l-.194.106-.034-.061.034.061a.07.07,0,0,1-.088-.018" transform="translate(-37.443 -5.744)" fill="#b6001c"/>
      <path id="Path_421" data-name="Path 421" d="M147.179,20.541l-.142.078.078.043c-7.049,3.847-16.053,8.764-16.053,8.764l-.362.066-.195.106.591-.111s9.158-5,16.233-8.863l-.04-.022-.111-.061" transform="translate(-37.471 -5.898)" fill="#b6001c"/>
      <path id="Path_422" data-name="Path 422" d="M130.411,29.593a.069.069,0,0,1,.034-.086l.193-.106.021-.006.352-.063c.344-.187,9.044-4.94,15.938-8.7a.065.065,0,0,1-.012-.038.071.071,0,0,1,.036-.063l.143-.077a.071.071,0,0,1,.068,0c.036.021.073.041.111.061l.039.021a.069.069,0,0,1,.036.061.07.07,0,0,1-.036.062c-5.307,2.9-11.784,6.434-14.691,8.021l-1.542.841-.02.008-.59.11h-.013a.072.072,0,0,1-.067-.046m16.736-9,.006,0,0,0,0,0v0m-.03-.028.033-.057Z" transform="translate(-37.443 -5.87)" fill="#b6001c"/>
      <path id="Path_423" data-name="Path 423" d="M152.945,20.195h0l.064-.12c.239.129.478.262.723.395l-.065.118-.723-.393" transform="translate(-43.914 -5.764)" fill="#b6001c"/>
      <path id="Path_424" data-name="Path 424" d="M153.605,20.62c-.242-.133-.484-.262-.723-.391l.034-.063-.034.063a.071.071,0,0,1-.034-.081.081.081,0,0,1,.012-.025l.059-.11a.076.076,0,0,1,.041-.035.074.074,0,0,1,.055.006l.724.395a.072.072,0,0,1,.028.1l-.066.118a.07.07,0,0,1-.061.036.069.069,0,0,1-.035-.009" transform="translate(-43.885 -5.735)" fill="#b6001c"/>
      <path id="Path_425" data-name="Path 425" d="M153.956,19.619l.067-.118.724.41h0l-.068.118-.723-.411" transform="translate(-44.204 -5.599)" fill="#b6001c"/>
      <path id="Path_426" data-name="Path 426" d="M154.615,20.062l-.723-.411.035-.061.061.034-.061-.034-.035.061a.069.069,0,0,1-.026-.1l.067-.118a.07.07,0,0,1,.1-.027l.723.411a.07.07,0,0,1,.036.061h0l-.009.035-.067.118a.076.076,0,0,1-.043.034l-.018,0a.065.065,0,0,1-.035-.01" transform="translate(-44.176 -5.57)" fill="#b6001c"/>
      <path id="Path_427" data-name="Path 427" d="M170.119,29.413s-9.1-4.969-16.16-8.823l.064-.12c7.059,3.852,16.147,8.816,16.141,8.816l.391.073-.252-.282s-8.688-4.937-15.624-8.882l.067-.119c6.936,3.946,15.609,8.875,15.641,8.9l.543.6Z" transform="translate(-44.205 -5.764)" fill="#b6001c"/>
      <path id="Path_428" data-name="Path 428" d="M170.887,29.611l-.811-.158.014-.069.031-.058-.031.058-.014.069-.02-.008s-9.1-4.969-16.159-8.823a.071.071,0,0,1-.029-.095l.066-.12a.065.065,0,0,1,.041-.034.073.073,0,0,1,.053,0c6.849,3.739,15.574,8.5,16.127,8.81l.18.034-.105-.119c-.334-.19-8.817-5.009-15.615-8.877a.068.068,0,0,1-.026-.095l.066-.119a.07.07,0,0,1,.043-.034.077.077,0,0,1,.053.006c6.94,3.949,15.6,8.872,15.659,8.911l.542.6a.071.071,0,0,1,.01.081.073.073,0,0,1-.061.036h-.015m-.18-.18-.116-.128a.067.067,0,0,1,0,.061.07.07,0,0,1-.048.035Zm-.5-.175-.006.027a.036.036,0,0,0,0-.041.068.068,0,0,1,0,.014m-.018-.048h0" transform="translate(-44.176 -5.736)" fill="#b6001c"/>
      <path id="Path_429" data-name="Path 429" d="M147.461,54.332c.009-.655.765-1.182,1.884-1.516l.086-.026,0,.091c0,.193.007.325.009.374.262.407.878.935,2.606.937,1.744.007,2.7-.568,2.772-.876a2.606,2.606,0,0,0,.029-.406l0-.091.086.027c1.064.335,1.779.85,1.789,1.486-.029,1.091-2.1,1.867-4.632,1.878-2.529-.011-4.6-.786-4.634-1.878m.137,0c-.006.446.475.893,1.294,1.214a9.983,9.983,0,0,0,6.4,0c.819-.322,1.3-.768,1.295-1.214.009-.5-.605-1-1.608-1.328a2.006,2.006,0,0,1-.031.347c-.145.441-1.13.967-2.9.975s-2.448-.56-2.731-1.014l-.011-.016v-.019s0-.113-.006-.3c-1.059.326-1.712.841-1.7,1.359m7.3-1.354.021-.065Z" transform="translate(-42.339 -15.157)" fill="#b6001c"/>
      <path id="Path_430" data-name="Path 430" d="M147.362,54.305h0c.018-.716.809-1.244,1.935-1.582l.085-.026a.07.07,0,0,1,.091.066l0,.091c0,.169.007.293.009.352.255.384.845.883,2.536.889h.036c1.7.01,2.636-.592,2.668-.826a2.632,2.632,0,0,0,.028-.386V52.79a.069.069,0,0,1,.029-.056.073.073,0,0,1,.063-.01l.087.026c1.07.339,1.82.857,1.836,1.555-.058,1.183-2.164,1.927-4.7,1.947-2.537-.02-4.645-.763-4.7-1.947m.277,0v0c-.006.389.443.826,1.25,1.143a9.917,9.917,0,0,0,6.353,0c.807-.317,1.255-.754,1.25-1.144,0,0,0,0,0-.01v0c.009-.425-.536-.9-1.469-1.222a1.527,1.527,0,0,1-.033.272c-.178.5-1.183,1.009-2.97,1.022h-.011c-1.779,0-2.486-.57-2.78-1.045l-.011-.017-.011-.038v-.019l-.006-.21c-.989.319-1.573.817-1.563,1.255v0l-.07.007Zm1.709-1.062v0Zm-.036-.357a.069.069,0,0,1,.023.027c0-.019,0-.038,0-.058a.494.494,0,0,0-.058.018.062.062,0,0,1,.037.013" transform="translate(-42.311 -15.129)" fill="#b6001c"/>
      <path id="Path_431" data-name="Path 431" d="M150.329,44.509c0-.1.073-.613.073-.616v-.018l.012-.016a3.436,3.436,0,0,1,2.316-.636c.061,0,.123,0,.184,0,.965.045,2.223.229,2.417.653.128.349.17.494.173.5l-.132.039s-.041-.142-.169-.488c-.068-.272-1.357-.55-2.3-.564-.058,0-.117,0-.178,0a3.461,3.461,0,0,0-2.2.57c-.011.091-.069.517-.069.583h0Z" transform="translate(-43.163 -12.411)" fill="#b6001c"/>
      <path id="Path_432" data-name="Path 432" d="M150.435,44.554l-.137,0,0-.071h0l0,.071a.071.071,0,0,1-.068-.073c0-.106.065-.557.072-.617l.023,0-.022-.01,0-.017.014-.034.014-.018a3.479,3.479,0,0,1,2.371-.661c.06,0,.123,0,.187,0,.974.056,2.225.2,2.48.7.113.307.163.465.17.49a.071.071,0,0,1,0,.05.069.069,0,0,1-.047.048l-.133.04a.076.076,0,0,1-.054-.006.07.07,0,0,1-.033-.043s-.04-.137-.17-.49c.009-.06-.327-.233-.769-.327a7.419,7.419,0,0,0-1.461-.184c-.056,0-.115,0-.178,0h-.024a3.488,3.488,0,0,0-2.1.531c-.016.122-.066.5-.065.552h0a.068.068,0,0,1-.021.05.067.067,0,0,1-.048.02Zm.007-.675,0-.007h0v0m4.19-.359c-.049-.014-.1-.029-.155-.042l.155.042" transform="translate(-43.134 -12.382)" fill="#b6001c"/>
      <path id="Path_433" data-name="Path 433" d="M151.129,44.034s0,0,0-.01c.058-.438.956-.657,2.042-.672,1.074.016,1.95.229,1.992.668h-.036l-.031.007.067,0c-.054.438-.952.657-2.039.672-1.076-.016-1.953-.23-1.995-.668m.65.359a4.718,4.718,0,0,0,1.344.173,4.827,4.827,0,0,0,1.364-.175c.346-.1.538-.257.54-.359a.031.031,0,0,1,0-.012c.011-.1-.171-.257-.513-.359a4.688,4.688,0,0,0-1.343-.172,4.9,4.9,0,0,0-1.366.173c-.337.1-.528.25-.544.372h0s0,0,0,.008c0,.1.182.251.515.351" transform="translate(-43.392 -12.447)" fill="#b6001c"/>
      <path id="Path_434" data-name="Path 434" d="M151.03,44.012l.071-.007-.071.007V44a.105.105,0,0,1,.006-.029c.114-.515,1.028-.691,2.109-.717,1.076.026,1.98.2,2.061.731v.006a.044.044,0,0,1,0,.019c-.1.528-1.017.707-2.11.735-1.079-.028-1.983-.2-2.064-.732m2.065.455a4.8,4.8,0,0,0,1.344-.172.872.872,0,0,0,.491-.277.052.052,0,0,1,0-.024v-.01h0c.008-.028-.138-.194-.464-.284a4.647,4.647,0,0,0-1.322-.169,4.826,4.826,0,0,0-1.347.172.776.776,0,0,0-.489.294.016.016,0,0,1,0,.011v.013a.769.769,0,0,0,.467.277l-.021.068.021-.068a4.648,4.648,0,0,0,1.323.17" transform="translate(-43.364 -12.419)" fill="#b6001c"/>
      <path id="Path_435" data-name="Path 435" d="M115.568,22.309a.139.139,0,0,1-.009-.056c0-.14.112-.417.882-1.013,1.03-.787,6.486-2.549,9.724-3.785a12.615,12.615,0,0,0,4.305-2.479c-.528-.958-4.5-3.513-5.17-4.026-.7-.542-5.769-4.383-6.169-4.783a10.812,10.812,0,0,1-1.784-2.482,2.035,2.035,0,0,1-.189-.907c.013-1.054.557-2.244,1.174-2.273h.033l.021.026a23.674,23.674,0,0,0,2.223,2.454c.69.538,3.776,2.849,4.383,3.231.628.394,5.313,3.845,5.871,4.48a3.961,3.961,0,0,1,1.069,2.293,1.554,1.554,0,0,1-.377,1.034,12.4,12.4,0,0,1-.923.986.261.261,0,0,1,.015.038l.463,3.7-.135.017-.456-3.646a12.836,12.836,0,0,1-4.305,2.468c-3.234,1.23-8.718,3.013-9.689,3.764-.762.585-.833.855-.828.906l0,0,.011.016v.019a33.9,33.9,0,0,0,.383,3.989h0l-.13.043a33.253,33.253,0,0,1-.388-4.014m2.074-20.991a3.416,3.416,0,0,0-.348,1.46,1.891,1.891,0,0,0,.175.846,10.7,10.7,0,0,0,1.757,2.445c.374.376,5.464,4.234,6.157,4.772.658.518,4.5,2.946,5.182,4.042.341-.326.622-.644.886-.95a1.412,1.412,0,0,0,.344-.945,3.851,3.851,0,0,0-1.037-2.2c-.519-.6-5.234-4.076-5.841-4.453-.622-.393-3.7-2.7-4.393-3.24A22.392,22.392,0,0,1,118.3.644c-.207.018-.466.28-.659.675" transform="translate(-33.18 -0.145)" fill="#b6001c"/>
      <path id="Path_436" data-name="Path 436" d="M115.9,26.357a.07.07,0,0,1-.036-.041,32.7,32.7,0,0,1-.391-4.023.217.217,0,0,1-.01-.065v-.006c.009-.179.137-.466.909-1.066,1.06-.8,6.5-2.557,9.741-3.795a12.64,12.64,0,0,0,4.241-2.427c-.6-.956-4.46-3.455-5.124-3.957-.7-.544-5.763-4.378-6.174-4.789a10.871,10.871,0,0,1-1.8-2.5,2.1,2.1,0,0,1-.2-.939c.022-1.074.539-2.288,1.245-2.343h.033l.054.026.013.017A23.947,23.947,0,0,0,120.625,2.9c.686.535,3.777,2.851,4.376,3.227.64.4,5.308,3.84,5.887,4.493a4.033,4.033,0,0,1,1.087,2.34,1.625,1.625,0,0,1-.394,1.079c-.264.307-.548.629-.895.961l0,.009.461,3.7a.068.068,0,0,1-.014.052.077.077,0,0,1-.047.026l-.135.017a.067.067,0,0,1-.053-.015.068.068,0,0,1-.026-.046l-.438-3.512a13.139,13.139,0,0,1-4.228,2.392c-3.231,1.228-8.732,3.022-9.672,3.754-.69.525-.8.8-.8.839v0l.008.023v.019a34.823,34.823,0,0,0,.377,3.961.063.063,0,0,1,.006.021.069.069,0,0,1-.047.078l-.13.043a.089.089,0,0,1-.022,0,.078.078,0,0,1-.031-.007m-.357-4.077-.071,0,.071,0,.059-.024Zm14.975-7.261a.07.07,0,0,1,.038.034l0-.014a.191.191,0,0,0-.012-.031.07.07,0,0,1,.015-.079l.009-.009a.059.059,0,0,1-.034,0,.056.056,0,0,1-.024-.007.069.069,0,0,1-.016.08l-.023.023a.057.057,0,0,1,.024,0,.076.076,0,0,1,.025,0m-12.838-13.7a3.352,3.352,0,0,0-.341,1.429,1.84,1.84,0,0,0,.168.814,10.686,10.686,0,0,0,1.745,2.428c.361.364,5.459,4.228,6.151,4.766.638.506,4.333,2.832,5.15,3.988.312-.3.573-.6.82-.887a1.344,1.344,0,0,0,.328-.9v-.006a3.8,3.8,0,0,0-1.019-2.152c-.5-.577-5.23-4.073-5.825-4.439-.63-.4-3.7-2.7-4.4-3.245A21.8,21.8,0,0,1,118.243.69a1.158,1.158,0,0,0-.565.631l-.064-.031Zm.631-.768h0l.006,0H118.3l.012.006" transform="translate(-33.151 -0.117)" fill="#b6001c"/>
      <path id="Path_437" data-name="Path 437" d="M119.475,32.792a7.83,7.83,0,0,1-3.178-1.007.315.315,0,0,1-.212-.273c.048-.643,2.263-1.617,4.791-2.666,2.524-1.029,5.342-2.038,6.516-2.5a8.893,8.893,0,0,0,3.979-3.06,11.674,11.674,0,0,0,.371-2.612c.1-1.2.155-2.355.155-2.356l.135.006c-.006.015-.215,4.591-.555,5.046a9.017,9.017,0,0,1-4.034,3.1c-1.179.465-3.994,1.474-6.515,2.5-2.516,1-4.755,2.12-4.706,2.541,0,.049.026.1.135.15a7.671,7.671,0,0,0,3.136,1c1.231.154,3.613.308,3.616.308l-.009.135s-2.385-.153-3.624-.309" transform="translate(-33.331 -5.259)" fill="#b6001c"/>
      <path id="Path_438" data-name="Path 438" d="M119.437,32.833l.009-.07.009-.065-.009.065-.009.07a7.866,7.866,0,0,1-3.2-1.014.383.383,0,0,1-.253-.334s0,0,0-.008h0c.095-.744,2.3-1.658,4.835-2.726,2.526-1.029,5.344-2.04,6.517-2.5a8.827,8.827,0,0,0,3.953-3.041,3.5,3.5,0,0,0,.18-.873c.066-.484.128-1.1.172-1.7.1-1.2.155-2.349.155-2.351a.071.071,0,0,1,.07-.071h.012l.128.006a.068.068,0,0,1,.057.034.065.065,0,0,1,.009.046h0s0,0,0,0v0c0,.008,0,.022,0,.038,0,.035,0,.085-.008.148-.007.128-.017.309-.031.53-.026.437-.063,1.025-.111,1.628a10.158,10.158,0,0,1-.418,2.726,9.1,9.1,0,0,1-4.063,3.123c-1.183.466-3.995,1.474-6.515,2.5-1.243.495-2.419,1.019-3.281,1.47s-1.411.865-1.383.991v.013c0,.017,0,.033.095.086a7.583,7.583,0,0,0,3.116.989c1.223.154,3.6.309,3.606.308a.075.075,0,0,1,.053.021.077.077,0,0,1,.018.053l-.009.137a.07.07,0,0,1-.07.066c-.012,0-2.387-.153-3.634-.309m-2.539-2.1c.183-.11.394-.227.629-.354-.235.123-.446.242-.629.354" transform="translate(-33.302 -5.23)" fill="#b6001c"/>
      <path id="Path_439" data-name="Path 439" d="M116.655,41.5a.188.188,0,0,1-.008-.054c.024-.426,1.045-1.4,1.739-1.723.692-.308,5.079-2.231,6.013-2.545.467-.154,1.754-.52,2.938-.9a6.985,6.985,0,0,0,2.254-.96l0-.016c.01-.038-.115-.14-.372-.2a6.736,6.736,0,0,0-.969-.166c-.741-.083-1.567-.12-1.914-.159-.5-.056-3.511-.469-5.16-.7l-1.081-.15.019-.134,1.081.148c1.648.23,4.66.645,5.156.7.336.038,1.168.076,1.913.16.746.1,1.408.166,1.461.5a.2.2,0,0,1,0,.03c-.1.329-1.154.669-2.348,1.075-1.186.386-2.477.751-2.936.9-.917.306-5.312,2.233-6,2.539-.646.273-1.682,1.331-1.659,1.6a.059.059,0,0,0,0,.02c.076.31.847,4,.847,4.006l-.133.026s-.772-3.7-.845-4m3.443-7.579Z" transform="translate(-33.492 -9.701)" fill="#b6001c"/>
      <path id="Path_440" data-name="Path 440" d="M117.408,45.5c-.014-.04-.773-3.7-.851-4.011a.315.315,0,0,1-.009-.076c.046-.5,1.066-1.437,1.781-1.784.7-.307,5.076-2.229,6.02-2.547.47-.154,1.756-.52,2.94-.9a9.38,9.38,0,0,0,2.2-.9l0,0a.337.337,0,0,0-.055-.041,1,1,0,0,0-.262-.1,6.759,6.759,0,0,0-.958-.163c-.738-.083-1.561-.12-1.913-.16-.505-.055-3.512-.47-5.163-.7l-1.069-.148h0a.072.072,0,0,1-.05-.021.069.069,0,0,1-.02-.05h0v-.009l.019-.134a.071.071,0,0,1,.08-.061l1.081.15c1.646.23,4.661.644,5.154.7.331.038,1.166.076,1.916.16.739.117,1.421.134,1.523.574a.328.328,0,0,1-.006.052c-.152.4-1.2.7-2.394,1.121-1.186.386-2.481.753-2.935.9-.908.3-5.308,2.232-6,2.538a4.009,4.009,0,0,0-1.616,1.525H116.8l.021.01v0c.078.322.845,3.988.85,4.021a.071.071,0,0,1-.056.068l-.134.026a.046.046,0,0,1-.014,0,.07.07,0,0,1-.063-.038m-.782-4.029.063-.016h0ZM128.9,35.744a4.777,4.777,0,0,0,.468-.219c-.121.064-.28.138-.468.219" transform="translate(-33.463 -9.672)" fill="#b6001c"/>
      <path id="Path_441" data-name="Path 441" d="M118.321,46.318c-.424,0-.652-.123-.654-.357.03-.617,1.528-1.656,2.017-1.856.615-.232,5.928-2.233,6.856-2.541a37.074,37.074,0,0,0,3.832-1.531.758.758,0,0,0,.046-.335,31.591,31.591,0,0,0-.533-3.757h0l.133-.027a31.755,31.755,0,0,1,.535,3.784c-.006.215-.006.358-.1.443a36.188,36.188,0,0,1-3.87,1.553c-.92.305-6.24,2.307-6.854,2.538-.44.15-1.958,1.285-1.928,1.729,0,.115.1.216.518.221h1.695v.135Z" transform="translate(-33.785 -10.312)" fill="#b6001c"/>
      <path id="Path_442" data-name="Path 442" d="M118.293,46.361v0c-.428,0-.718-.13-.724-.43.057-.7,1.551-1.7,2.062-1.918.617-.232,5.927-2.232,6.86-2.541a39.252,39.252,0,0,0,3.8-1.513.311.311,0,0,0,.011-.046,1.006,1.006,0,0,0,.019-.2v-.041a31.4,31.4,0,0,0-.53-3.738.068.068,0,0,1,.009-.055.07.07,0,0,1,.046-.031l.133-.027a.073.073,0,0,1,.06.015.07.07,0,0,1,.024.049.1.1,0,0,1,0,.024c0,.021.01.051.017.088.015.077.036.188.061.324.05.273.116.647.184,1.054a17.976,17.976,0,0,1,.268,2.3c-.008.211,0,.374-.128.5a35.691,35.691,0,0,1-3.889,1.562c-.918.305-6.238,2.307-6.854,2.539-.4.118-1.915,1.289-1.881,1.649v.013c0,.054.028.139.447.151h1.694a.071.071,0,0,1,.051.021.071.071,0,0,1,.021.049v.136a.069.069,0,0,1-.021.049.071.071,0,0,1-.051.021Z" transform="translate(-33.757 -10.283)" fill="#b6001c"/>
      <path id="Path_443" data-name="Path 443" d="M128.436,48.41a7.487,7.487,0,0,1,3.126-1.867l-1.352-2.7.121-.062,1.425,2.847-.077.023a7.88,7.88,0,0,0-3.112,1.805Z" transform="translate(-36.877 -12.57)" fill="#b6001c"/>
      <path id="Path_444" data-name="Path 444" d="M128.516,48.491l-.13-.043.021-.067.063.025-.063-.025-.021.067a.07.07,0,0,1-.044-.093,7.335,7.335,0,0,1,3.092-1.882l-1.315-2.631a.071.071,0,0,1,.03-.094l.123-.061a.064.064,0,0,1,.053,0,.074.074,0,0,1,.041.036l1.424,2.846a.069.069,0,0,1-.042.1l-.078.023a8.4,8.4,0,0,0-3.051,1.737c-.011.014-.011.014-.011.015a.071.071,0,0,1-.033.047.079.079,0,0,1-.036.01.076.076,0,0,1-.022,0m3.082-1.95a.076.076,0,0,1-.018.024l.045-.013-.022-.046a.062.062,0,0,1,0,.034" transform="translate(-36.848 -12.541)" fill="#b6001c"/>
      <path id="Path_445" data-name="Path 445" d="M120.773,49.326h0Zm-.089-.1c.607-.53,3.611-3.842,3.614-3.845l.1.091s-3,3.308-3.626,3.857Z" transform="translate(-34.651 -13.029)" fill="#b6001c"/>
      <path id="Path_446" data-name="Path 446" d="M120.745,49.369h0a.071.071,0,0,1-.058-.031l-.083-.095.053-.047.042.049-.042-.049-.053.047a.071.071,0,0,1-.018-.052.075.075,0,0,1,.024-.048c.6-.523,3.6-3.834,3.611-3.842a.07.07,0,0,1,.1,0l.1.09a.071.071,0,0,1,.023.056.07.07,0,0,1-.028.053h0c-.006.006-.014.015-.026.027l-.1.106c-.083.092-.2.223-.349.383-.29.319-.684.749-1.1,1.2-.824.89-1.721,1.844-2.047,2.132a.067.067,0,0,1-.052.024Z" transform="translate(-34.623 -13.001)" fill="#b6001c"/>
      <path id="Path_447" data-name="Path 447" d="M119.145,5.417l1.31-2.7.123.059-1.31,2.7Z" transform="translate(-34.209 -0.781)" fill="#b6001c"/>
      <path id="Path_448" data-name="Path 448" d="M119.208,5.51l-.122-.059.031-.063.063.031-.063-.031-.031.063a.071.071,0,0,1-.036-.04.068.068,0,0,1,0-.054l1.31-2.7a.07.07,0,0,1,.095-.032l.122.058a.071.071,0,0,1,.033.093l-1.311,2.7a.07.07,0,0,1-.039.036.061.061,0,0,1-.023,0,.1.1,0,0,1-.032-.006" transform="translate(-34.181 -0.752)" fill="#b6001c"/>
      <path id="Path_449" data-name="Path 449" d="M122.61,8.727,124.3,5.953l.116.071L122.727,8.8Z" transform="translate(-35.204 -1.709)" fill="#b6001c"/>
      <path id="Path_450" data-name="Path 450" d="M122.661,8.828l-.117-.071.037-.059.061.036-.061-.036-.037.059a.07.07,0,0,1-.023-.1l1.693-2.774a.07.07,0,0,1,.1-.023l.115.071a.069.069,0,0,1,.033.045.07.07,0,0,1-.009.053L122.758,8.8a.069.069,0,0,1-.043.032l-.016,0a.069.069,0,0,1-.036-.011" transform="translate(-35.176 -1.681)" fill="#b6001c"/>
      <path id="Path_451" data-name="Path 451" d="M127.149,12.177,129.075,9.4l.113.078-1.928,2.775Z" transform="translate(-36.507 -2.7)" fill="#b6001c"/>
      <path id="Path_452" data-name="Path 452" d="M127.192,12.285l-.112-.078.041-.058.058.041-.058-.041-.041.058a.071.071,0,0,1-.018-.1l1.927-2.774a.07.07,0,0,1,.1-.018l.113.078a.067.067,0,0,1,.029.045.075.075,0,0,1-.011.053l-1.928,2.775a.074.074,0,0,1-.046.029h-.012a.067.067,0,0,1-.04-.013" transform="translate(-36.479 -2.672)" fill="#b6001c"/>
      <rect id="Rectangle_22" data-name="Rectangle 22" width="3.184" height="0.136" transform="matrix(0.532, -0.847, 0.847, 0.532, 93.954, 11.868)" fill="#b6001c"/>
      <path id="Path_453" data-name="Path 453" d="M131.845,15.664l-.116-.072.038-.06.059.038-.059-.038-.038.06a.07.07,0,0,1-.031-.043.065.065,0,0,1,.009-.053l1.695-2.7a.07.07,0,0,1,.1-.021l.115.072a.07.07,0,0,1,.021.1l-1.693,2.7a.073.073,0,0,1-.06.033.066.066,0,0,1-.037-.011" transform="translate(-37.813 -3.666)" fill="#b6001c"/>
      <path id="Path_454" data-name="Path 454" d="M131.89,23.737l.131-.042,1.153,3.622-.129.04Z" transform="translate(-37.869 -6.803)" fill="#b6001c"/>
      <path id="Path_455" data-name="Path 455" d="M132.95,27.349l-1.155-3.621.068-.021.022.067-.022-.067-.068.021a.071.071,0,0,1,.046-.088l.132-.041a.07.07,0,0,1,.088.046l1.155,3.621a.072.072,0,0,1,0,.054.07.07,0,0,1-.042.034l-.13.041-.021,0a.07.07,0,0,1-.068-.048" transform="translate(-37.84 -6.775)" fill="#b6001c"/>
      <path id="Path_456" data-name="Path 456" d="M125.736,26.116l.127-.05,1.463,3.7-.125.05Z" transform="translate(-36.102 -7.484)" fill="#b6001c"/>
      <path id="Path_457" data-name="Path 457" d="M127.106,29.812l-1.465-3.7.066-.025.025.065-.025-.065-.066.025a.061.061,0,0,1,0-.053.063.063,0,0,1,.038-.038l.126-.048a.07.07,0,0,1,.091.038l1.464,3.7a.073.073,0,0,1,0,.055.065.065,0,0,1-.039.037l-.125.05a.086.086,0,0,1-.026,0,.071.071,0,0,1-.065-.044" transform="translate(-36.073 -7.456)" fill="#b6001c"/>
      <rect id="Rectangle_23" data-name="Rectangle 23" width="0.136" height="3.925" transform="matrix(0.962, -0.275, 0.275, 0.962, 85.704, 20.088)" fill="#b6001c"/>
      <path id="Path_458" data-name="Path 458" d="M121.24,31.972a.073.073,0,0,1-.034-.043l-1.076-3.775.068-.019.019.068-.019-.068-.068.019a.07.07,0,0,1,.048-.087l.13-.037a.071.071,0,0,1,.087.048l1.076,3.774a.07.07,0,0,1-.047.087l-.131.038-.021,0a.068.068,0,0,1-.033-.009" transform="translate(-34.491 -8.047)" fill="#b6001c"/>
      <rect id="Rectangle_24" data-name="Rectangle 24" width="0.137" height="3.996" transform="matrix(0.945, -0.327, 0.327, 0.945, 91.636, 27.41)" fill="#b6001c"/>
      <path id="Path_459" data-name="Path 459" d="M129.793,42.244a.071.071,0,0,1-.036-.041l-1.31-3.777.067-.021.023.066-.023-.066-.067.021a.07.07,0,0,1,.044-.088l.128-.044a.07.07,0,0,1,.09.043l1.309,3.776a.072.072,0,0,1-.043.09l-.128.044a.066.066,0,0,1-.023,0,.088.088,0,0,1-.031-.007" transform="translate(-36.879 -10.994)" fill="#b6001c"/>
      <path id="Path_460" data-name="Path 460" d="M122.6,40.812l.129-.043,1.232,3.618-.128.043Z" transform="translate(-35.202 -11.706)" fill="#b6001c"/>
      <path id="Path_461" data-name="Path 461" d="M123.738,44.424l-1.232-3.619.066-.022.023.066-.023-.066-.066.022a.073.073,0,0,1,0-.053.068.068,0,0,1,.041-.035l.128-.043a.072.072,0,0,1,.09.044L124,44.336a.067.067,0,0,1,0,.053.071.071,0,0,1-.041.036l-.13.043a.059.059,0,0,1-.021,0,.071.071,0,0,1-.067-.048" transform="translate(-35.173 -11.677)" fill="#b6001c"/>
      <rect id="Rectangle_25" data-name="Rectangle 25" width="0.136" height="3.853" transform="translate(95.235 26.251) rotate(-12.137)" fill="#b6001c"/>
      <path id="Path_462" data-name="Path 462" d="M134.321,40.611a.07.07,0,0,1-.031-.046l-.768-3.775.069-.014.015.068-.015-.068-.069.014a.074.074,0,0,1,.056-.083l.133-.028a.067.067,0,0,1,.052.01.068.068,0,0,1,.031.046l.768,3.776a.074.074,0,0,1-.011.053.07.07,0,0,1-.045.03l-.133.026-.014,0a.068.068,0,0,1-.038-.011" transform="translate(-38.337 -10.531)" fill="#b6001c"/>
      <path id="Path_463" data-name="Path 463" d="M117.844,42.968l.133-.035,1,3.775-.132.036Z" transform="translate(-33.835 -12.327)" fill="#b6001c"/>
      <path id="Path_464" data-name="Path 464" d="M118.78,46.777a.074.074,0,0,1-.032-.043l-1-3.776.068-.018.018.068-.018-.068-.068.018a.07.07,0,0,1,.05-.086l.131-.035a.07.07,0,0,1,.086.049l1,3.776a.062.062,0,0,1-.007.053.07.07,0,0,1-.042.034l-.134.036-.017,0a.08.08,0,0,1-.036-.009" transform="translate(-33.807 -12.299)" fill="#b6001c"/>
      <path id="Path_465" data-name="Path 465" d="M129.538,44.281l.1-.094,2.387,2.465-.1.1Z" transform="translate(-37.193 -12.687)" fill="#b6001c"/>
      <path id="Path_466" data-name="Path 466" d="M131.9,46.789a.078.078,0,0,1-.05-.02L129.459,44.3l.051-.048.049.051-.049-.051-.051.048a.071.071,0,0,1-.02-.05.065.065,0,0,1,.022-.049l.1-.095a.07.07,0,0,1,.1,0l2.387,2.466a.064.064,0,0,1,.019.05.069.069,0,0,1-.021.05l-.1.1a.07.07,0,0,1-.049.019h0Z" transform="translate(-37.165 -12.658)" fill="#b6001c"/>
      <path id="Path_467" data-name="Path 467" d="M124.694,46.885l.07-.117L128,48.693l-.07.116Z" transform="translate(-35.802 -13.428)" fill="#b6001c"/>
      <path id="Path_468" data-name="Path 468" d="M127.865,48.84l-3.236-1.923.036-.061.061.036-.061-.036-.036.061a.069.069,0,0,1-.031-.043.07.07,0,0,1,.008-.053l.07-.117a.071.071,0,0,1,.1-.025l3.236,1.924a.072.072,0,0,1,.032.043.069.069,0,0,1-.009.053l-.068.116a.07.07,0,0,1-.061.034.078.078,0,0,1-.036-.01" transform="translate(-35.774 -13.4)" fill="#b6001c"/>
      <path id="Path_469" data-name="Path 469" d="M122.275,37.316l.461-3.239.135.02-.461,3.239Z" transform="translate(-35.108 -9.784)" fill="#b6001c"/>
      <path id="Path_470" data-name="Path 470" d="M122.371,37.376l-.136-.019.01-.07.071.01-.071-.01-.01.07a.071.071,0,0,1-.06-.08l.463-3.239a.071.071,0,0,1,.081-.061l.135.021a.069.069,0,0,1,.059.079l-.461,3.239a.069.069,0,0,1-.029.046.062.062,0,0,1-.04.014h-.011" transform="translate(-35.079 -9.755)" fill="#b6001c"/>
      <path id="Path_471" data-name="Path 471" d="M128.11,37.332l.461-2.39.134.026-.46,2.389Z" transform="translate(-36.783 -10.033)" fill="#b6001c"/>
      <path id="Path_472" data-name="Path 472" d="M128.2,37.4l-.135-.025.012-.069.069.014-.069-.014-.012.069a.078.078,0,0,1-.046-.029.07.07,0,0,1-.011-.053l.461-2.39a.07.07,0,0,1,.081-.056l.135.026a.073.073,0,0,1,.056.082l-.461,2.39a.072.072,0,0,1-.07.056H128.2" transform="translate(-36.755 -10.004)" fill="#b6001c"/>
      <path id="Path_473" data-name="Path 473" d="M184.723,26.279a33.244,33.244,0,0,0,.384-3.989v-.019l.009-.014v-.006c0-.051-.069-.32-.831-.9-.972-.752-6.456-2.534-9.687-3.765a12.831,12.831,0,0,1-4.306-2.467l-.429,3.531-.135-.016.44-3.6c0-.008.006-.016.009-.024a12.764,12.764,0,0,1-.921-.987,1.552,1.552,0,0,1-.377-1.034,3.946,3.946,0,0,1,1.069-2.293c.562-.634,5.242-4.084,5.871-4.478.609-.382,3.693-2.695,4.386-3.233A23.169,23.169,0,0,0,182.423.532l.021-.026h.033c.619.027,1.161,1.218,1.174,2.271a2.037,2.037,0,0,1-.19.907,10.688,10.688,0,0,1-1.783,2.48c-.4.4-5.473,4.243-6.17,4.784-.671.515-4.667,3.087-5.171,4.023a12.6,12.6,0,0,0,4.308,2.483c3.235,1.235,8.69,3,9.722,3.785.77.6.879.873.884,1.012a.189.189,0,0,1-.009.057,32.417,32.417,0,0,1-.389,4.013h0ZM180.286,3.092c-.7.541-3.773,2.847-4.4,3.24-.6.376-5.317,3.856-5.841,4.453a3.847,3.847,0,0,0-1.035,2.2,1.405,1.405,0,0,0,.345.945c.263.305.543.622.883.949.664-1.081,4.528-3.521,5.185-4.04.692-.539,5.783-4.4,6.156-4.772a10.707,10.707,0,0,0,1.759-2.446,1.921,1.921,0,0,0,.173-.847,3.435,3.435,0,0,0-.346-1.459c-.2-.4-.453-.657-.659-.675a22.712,22.712,0,0,1-2.223,2.449" transform="translate(-48.488 -0.145)" fill="#b6001c"/>
      <path id="Path_474" data-name="Path 474" d="M184.8,26.36l-.13-.043.022-.066.063.021-.063-.021-.022.066a.072.072,0,0,1-.041-.036.069.069,0,0,1,0-.054,33.724,33.724,0,0,0,.379-3.97v-.018l.007-.02c0-.01-.065-.285-.8-.844-.941-.734-6.44-2.527-9.669-3.755a13.128,13.128,0,0,1-4.227-2.39l-.413,3.4a.069.069,0,0,1-.026.046.069.069,0,0,1-.052.015l-.135-.017a.075.075,0,0,1-.048-.027.069.069,0,0,1-.014-.052l.44-3.589a13.044,13.044,0,0,1-.9-.963,1.621,1.621,0,0,1-.4-1.081,4,4,0,0,1,1.088-2.339c.58-.652,5.246-4.089,5.886-4.491.6-.376,3.691-2.693,4.38-3.228a23.083,23.083,0,0,0,2.2-2.433.045.045,0,0,0-.007.019l.013-.029.022-.026.053-.026h.037c.7.055,1.219,1.269,1.24,2.343a2.1,2.1,0,0,1-.2.938,10.815,10.815,0,0,1-1.8,2.5c-.414.412-5.478,4.247-6.177,4.79-.662.5-4.544,3.018-5.126,3.954a12.668,12.668,0,0,0,4.244,2.431c3.238,1.238,8.676,2.989,9.74,3.794.773.6.9.886.911,1.069a.247.247,0,0,1-.01.071,32.675,32.675,0,0,1-.389,4.016.075.075,0,0,1-.029.042.069.069,0,0,1-.041.013.061.061,0,0,1-.022,0M170.2,15.05a.067.067,0,0,1,.036-.029.071.071,0,0,1,.05,0L170.26,15a.07.07,0,0,1-.016-.08.092.092,0,0,1-.024.008.072.072,0,0,1-.036,0l.01.009a.07.07,0,0,1,.016.082s0,.01,0,0Zm-1.148-2.092a1.327,1.327,0,0,0,.328.9c.247.286.507.582.818.885.8-1.142,4.515-3.478,5.153-3.986.692-.536,5.791-4.4,6.151-4.766a10.619,10.619,0,0,0,1.745-2.427,1.845,1.845,0,0,0,.166-.816,3.352,3.352,0,0,0-.339-1.428,1.162,1.162,0,0,0-.566-.63,22.036,22.036,0,0,1-2.21,2.428c-.7.544-3.77,2.846-4.4,3.244-.6.366-5.323,3.862-5.826,4.44a3.782,3.782,0,0,0-1.018,2.151h-.045ZM182.449.547l0,0,0,0,.019-.008Zm-.115-.081h0m0,0v0" transform="translate(-48.46 -0.117)" fill="#b6001c"/>
      <path id="Path_475" data-name="Path 475" d="M177.617,33.026s2.641-.215,3.871-.368a7.7,7.7,0,0,0,3.137-1c.108-.055.134-.1.134-.151.05-.42-2.191-1.534-4.706-2.539-2.52-1.027-5.336-2.037-6.516-2.5a9.042,9.042,0,0,1-4.036-3.1c-.336-.455-.546-5.03-.553-5.046l.136-.006s.058,1.154.154,2.357a11.741,11.741,0,0,0,.369,2.611,8.91,8.91,0,0,0,3.98,3.061c1.177.462,3.994,1.473,6.517,2.5,2.527,1.049,4.743,2.023,4.792,2.665a.316.316,0,0,1-.212.274,7.806,7.806,0,0,1-3.18,1.007c-1.235.155-3.875.37-3.875.371Z" transform="translate(-48.509 -5.259)" fill="#b6001c"/>
      <path id="Path_476" data-name="Path 476" d="M177.566,33.194a.071.071,0,0,1-.036-.055L177.518,33l.071-.006.007.066L177.589,33l-.071.006a.071.071,0,0,1,.062-.077c.009,0,2.643-.214,3.87-.367a7.608,7.608,0,0,0,3.115-.989c.1-.054.093-.072.1-.095v-.006c.029-.125-.519-.551-1.383-.99s-2.037-.973-3.281-1.47c-2.519-1.027-5.334-2.035-6.514-2.5a9.108,9.108,0,0,1-4.067-3.126,10.153,10.153,0,0,1-.413-2.7c-.093-1.167-.148-2.3-.154-2.377v0a.072.072,0,0,1,.065-.081l.136-.008a.07.07,0,0,1,.071.048c.009.043.061,1.162.158,2.374.045.595.1,1.213.171,1.7a3.328,3.328,0,0,0,.183.876,8.84,8.84,0,0,0,3.95,3.038c1.175.462,3.993,1.474,6.519,2.5,2.53,1.067,4.739,1.983,4.835,2.73v.009a.394.394,0,0,1-.252.328,7.87,7.87,0,0,1-3.2,1.014c-1.233.155-3.87.369-3.872.369H177.6a.069.069,0,0,1-.036-.01m6.5-2.433c-.2-.126-.438-.259-.705-.4.267.144.5.277.705.4" transform="translate(-48.48 -5.23)" fill="#b6001c"/>
      <path id="Path_477" data-name="Path 477" d="M184.5,45.469s.77-3.694.846-4a.18.18,0,0,0,0-.025c.023-.269-1.01-1.327-1.656-1.6-.691-.307-5.087-2.233-6-2.539-.459-.153-1.75-.519-2.936-.9-1.193-.406-2.249-.747-2.345-1.062a.125.125,0,0,1-.007-.043c.053-.338.717-.4,1.464-.5.746-.085,1.578-.123,1.915-.16.493-.053,3.509-.468,5.158-.7l1.076-.149.019.135-1.076.149c-1.652.23-4.662.644-5.163.7a22.477,22.477,0,0,0-2.884.324c-.257.065-.382.166-.372.2h-.011l.013.009a6.79,6.79,0,0,0,2.258.967c1.183.384,2.47.75,2.936.9.934.313,5.318,2.236,6.017,2.544.691.324,1.713,1.3,1.737,1.724a.378.378,0,0,1-.006.051c-.075.3-.845,4-.846,4Z" transform="translate(-49.5 -9.701)" fill="#b6001c"/>
      <path id="Path_478" data-name="Path 478" d="M184.593,45.539l-.134-.029.015-.068.056.041-.056-.041-.015.068a.07.07,0,0,1-.051-.044.075.075,0,0,1,0-.041h0l0,0v0c0-.007,0-.017.006-.031l.026-.118c.02-.1.051-.247.088-.423.073-.351.173-.822.273-1.3.2-.962.413-1.959.451-2.108a.12.12,0,0,0,0-.019v-.006a4,4,0,0,0-1.614-1.526c-.691-.305-5.091-2.234-6-2.536-.455-.152-1.749-.519-2.936-.9-1.2-.419-2.241-.714-2.389-1.108a.206.206,0,0,1-.009-.075c.1-.428.783-.446,1.524-.564.75-.085,1.583-.123,1.915-.16.49-.053,3.507-.468,5.156-.7.647-.09,1.065-.149,1.086-.15a.072.072,0,0,1,.071.061l.018.135a.07.07,0,0,1-.059.078l-1.077.149c-1.652.23-4.661.644-5.165.7a22.685,22.685,0,0,0-2.874.324.788.788,0,0,0-.317.14.124.124,0,0,0,.024.021.741.741,0,0,0,.129.085,4.862,4.862,0,0,0,.495.236c.416.178.978.384,1.56.565,1.181.384,2.467.749,2.936.9.943.317,5.324,2.239,6.025,2.548.714.346,1.732,1.289,1.777,1.789a.315.315,0,0,1-.008.067c-.073.3-.845,4-.845,4a.072.072,0,0,1-.068.058l-.015,0m-11.362-9.771c-.222-.093-.409-.18-.543-.254a4.588,4.588,0,0,0,.543.254m-.582-.277-.019-.014.019.014m-.01-.415c.045-.019.1-.038.16-.058a1.287,1.287,0,0,0-.16.058" transform="translate(-49.473 -9.673)" fill="#b6001c"/>
      <path id="Path_479" data-name="Path 479" d="M182.2,46.318v-.136h1.692c.418,0,.515-.106.517-.221.028-.443-1.488-1.579-1.928-1.728-.616-.232-5.932-2.233-6.853-2.539a35.938,35.938,0,0,1-3.871-1.553c-.1-.087-.095-.227-.1-.442a31.755,31.755,0,0,1,.536-3.785h0l.133.026a31.777,31.777,0,0,0-.533,3.758.744.744,0,0,0,.044.334,37.306,37.306,0,0,0,3.834,1.531c.927.309,6.241,2.31,6.858,2.541.488.2,1.985,1.24,2.013,1.856,0,.234-.228.356-.651.357Z" transform="translate(-49.286 -10.312)" fill="#b6001c"/>
      <path id="Path_480" data-name="Path 480" d="M183.863,46.361H182.17v-.07h0v.07a.07.07,0,0,1-.051-.02.075.075,0,0,1-.02-.05v-.136a.075.075,0,0,1,.02-.05.068.068,0,0,1,.051-.021h1.692c.416-.012.447-.1.446-.155v-.008c.034-.36-1.476-1.531-1.882-1.65-.615-.232-5.934-2.234-6.849-2.538a35.131,35.131,0,0,1-3.9-1.567c-.126-.12-.115-.283-.123-.495a31.087,31.087,0,0,1,.535-3.79.073.073,0,0,1,.04-.058.069.069,0,0,1,.056,0l.123.024a.07.07,0,0,1,.057.068,32.529,32.529,0,0,0-.533,3.755h-.041l.041.006c0,.014,0,.028,0,.04a.864.864,0,0,0,.03.245,39.318,39.318,0,0,0,3.8,1.512c.932.31,6.243,2.309,6.861,2.543.508.221,2,1.223,2.058,1.921-.006.293-.289.427-.708.427Z" transform="translate(-49.258 -10.283)" fill="#b6001c"/>
      <path id="Path_481" data-name="Path 481" d="M174.392,46.648l-.078-.024,1.423-2.846.122.061-1.352,2.7a7.478,7.478,0,0,1,3.125,1.868l-.129.042a7.87,7.87,0,0,0-3.111-1.8" transform="translate(-50.049 -12.57)" fill="#b6001c"/>
      <path id="Path_482" data-name="Path 482" d="M177.439,48.484a.067.067,0,0,1-.034-.046s0,0-.011-.015a.6.6,0,0,0-.052-.058,2.52,2.52,0,0,0-.2-.177,7.55,7.55,0,0,0-.706-.5,8.409,8.409,0,0,0-2.092-1l.02-.068-.021.067-.078-.024a.074.074,0,0,1-.045-.04.076.076,0,0,1,0-.06l1.424-2.844a.069.069,0,0,1,.063-.039l.031.008.122.06a.077.077,0,0,1,.036.041.076.076,0,0,1,0,.054l-1.315,2.63a7.3,7.3,0,0,1,3.09,1.883.077.077,0,0,1,0,.056.071.071,0,0,1-.041.036l-.13.042a.054.054,0,0,1-.021,0,.07.07,0,0,1-.035-.01m-3.005-1.917a.07.07,0,0,1-.019-.026.062.062,0,0,1-.006-.034l-.023.046.048.014" transform="translate(-50.021 -12.541)" fill="#b6001c"/>
      <path id="Path_483" data-name="Path 483" d="M181.509,45.471l.1-.093s3.01,3.316,3.616,3.846l-.089.1c-.624-.547-3.626-3.855-3.626-3.855" transform="translate(-52.115 -13.029)" fill="#b6001c"/>
      <path id="Path_484" data-name="Path 484" d="M185.06,49.35c-.639-.565-3.618-3.839-3.644-3.877l.061-.031.049.051-.049-.051-.061.031a.071.071,0,0,1,.015-.083l.1-.091a.069.069,0,0,1,.091,0c.024.021,3.008,3.31,3.617,3.845a.1.1,0,0,1,.021.028.072.072,0,0,1-.011.076l-.09.1a.067.067,0,0,1-.049.025h-.005a.064.064,0,0,1-.045-.019M181.537,45.4h0m0,0h0Z" transform="translate(-52.087 -13.001)" fill="#b6001c"/>
      <path id="Path_485" data-name="Path 485" d="M186.25,2.779l.123-.06,1.31,2.7-.123.059Z" transform="translate(-53.476 -0.781)" fill="#b6001c"/>
      <path id="Path_486" data-name="Path 486" d="M187.508,5.513a.065.065,0,0,1-.04-.036l-1.31-2.7.063-.029.03.063-.03-.063-.063.029a.069.069,0,0,1,.033-.093l.122-.058a.067.067,0,0,1,.053,0,.076.076,0,0,1,.041.036l1.31,2.7a.066.066,0,0,1-.031.093l-.123.061a.091.091,0,0,1-.031.006.058.058,0,0,1-.022,0" transform="translate(-53.448 -0.752)" fill="#b6001c"/>
      <path id="Path_487" data-name="Path 487" d="M182.257,6.025l.115-.072,1.695,2.774-.115.072Z" transform="translate(-52.33 -1.709)" fill="#b6001c"/>
      <path id="Path_488" data-name="Path 488" d="M183.906,8.837a.067.067,0,0,1-.044-.032l-1.695-2.773L182.229,6l.037.059L182.229,6l-.061.036a.07.07,0,0,1,.024-.1l.116-.072a.067.067,0,0,1,.1.024l1.7,2.774a.081.081,0,0,1,.009.053.073.073,0,0,1-.032.043l-.116.071a.069.069,0,0,1-.038.011l-.016,0" transform="translate(-52.302 -1.681)" fill="#b6001c"/>
      <rect id="Rectangle_26" data-name="Rectangle 26" width="0.136" height="3.376" transform="translate(126.462 6.781) rotate(-34.695)" fill="#b6001c"/>
      <path id="Path_489" data-name="Path 489" d="M179.276,12.3a.067.067,0,0,1-.044-.029l-1.923-2.775.058-.04.039.058-.039-.058-.058.04a.07.07,0,0,1,.019-.1l.112-.077a.069.069,0,0,1,.1.018l1.924,2.774a.074.074,0,0,1-.018.1l-.113.077a.059.059,0,0,1-.038.012h-.015" transform="translate(-50.905 -2.672)" fill="#b6001c"/>
      <path id="Path_490" data-name="Path 490" d="M173.071,12.938l.114-.073,1.7,2.7-.115.072Z" transform="translate(-49.692 -3.694)" fill="#b6001c"/>
      <path id="Path_491" data-name="Path 491" d="M174.722,15.675a.07.07,0,0,1-.044-.031l-1.7-2.7.059-.037.038.059-.038-.059-.059.037a.07.07,0,0,1,.022-.1l.114-.072a.065.065,0,0,1,.053-.01.075.075,0,0,1,.045.031l1.7,2.7a.068.068,0,0,1-.021.1l-.115.073a.07.07,0,0,1-.038.011h-.016" transform="translate(-49.664 -3.665)" fill="#b6001c"/>
      <path id="Path_492" data-name="Path 492" d="M173.708,27.315l1.156-3.62.13.042-1.156,3.62Z" transform="translate(-49.875 -6.803)" fill="#b6001c"/>
      <path id="Path_493" data-name="Path 493" d="M173.788,27.394l-.13-.041.021-.067.067.022-.067-.022-.021.067a.068.068,0,0,1-.045-.088l1.155-3.621a.082.082,0,0,1,.036-.041.07.07,0,0,1,.053,0l.13.042a.071.071,0,0,1,.046.088l-1.156,3.621a.071.071,0,0,1-.035.041.065.065,0,0,1-.032.008.084.084,0,0,1-.022,0" transform="translate(-49.847 -6.775)" fill="#b6001c"/>
      <path id="Path_494" data-name="Path 494" d="M179.438,29.764l1.464-3.7.127.051-1.464,3.7Z" transform="translate(-51.521 -7.484)" fill="#b6001c"/>
      <path id="Path_495" data-name="Path 495" d="M179.512,29.851l-.128-.049.026-.066.066.026-.066-.026-.026.066a.066.066,0,0,1-.038-.038.07.07,0,0,1,0-.055l1.464-3.7a.069.069,0,0,1,.091-.04l.128.051a.071.071,0,0,1,.04.091l-1.464,3.7a.072.072,0,0,1-.066.043.077.077,0,0,1-.025,0" transform="translate(-51.492 -7.455)" fill="#b6001c"/>
      <path id="Path_496" data-name="Path 496" d="M185.486,31.9l1.078-3.775.132.037-1.079,3.775Z" transform="translate(-53.257 -8.076)" fill="#b6001c"/>
      <path id="Path_497" data-name="Path 497" d="M185.57,31.978l-.133-.037.02-.068.067.02-.067-.02-.02.068a.073.073,0,0,1-.042-.034.066.066,0,0,1-.006-.054l1.078-3.774a.07.07,0,0,1,.087-.049l.131.037a.065.065,0,0,1,.041.034.07.07,0,0,1,.007.053l-1.077,3.775a.072.072,0,0,1-.069.052l-.018,0" transform="translate(-53.228 -8.047)" fill="#b6001c"/>
      <path id="Path_498" data-name="Path 498" d="M176.844,42.163l1.31-3.775.128.046-1.31,3.775Z" transform="translate(-50.776 -11.022)" fill="#b6001c"/>
      <path id="Path_499" data-name="Path 499" d="M176.921,42.246l-.128-.045.024-.067.066.024-.066-.024-.024.067a.071.071,0,0,1-.043-.09l1.31-3.775a.07.07,0,0,1,.091-.043l.128.044a.069.069,0,0,1,.043.089L177.01,42.2a.069.069,0,0,1-.035.042.1.1,0,0,1-.031.006.068.068,0,0,1-.024,0" transform="translate(-50.748 -10.994)" fill="#b6001c"/>
      <path id="Path_500" data-name="Path 500" d="M182.893,44.387l1.233-3.618.131.043-1.235,3.618Z" transform="translate(-52.513 -11.706)" fill="#b6001c"/>
      <path id="Path_501" data-name="Path 501" d="M182.971,44.468l-.128-.043.021-.067.066.023-.066-.023-.021.067a.068.068,0,0,1-.041-.035.072.072,0,0,1,0-.054l1.235-3.619a.071.071,0,0,1,.089-.044l.129.044a.067.067,0,0,1,.041.036.07.07,0,0,1,0,.053l-1.235,3.618a.071.071,0,0,1-.035.041.064.064,0,0,1-.031.008.065.065,0,0,1-.023,0" transform="translate(-52.484 -11.677)" fill="#b6001c"/>
      <rect id="Rectangle_27" data-name="Rectangle 27" width="3.853" height="0.135" transform="translate(122.985 29.994) rotate(-78.474)" fill="#b6001c"/>
      <path id="Path_502" data-name="Path 502" d="M172.61,40.621l-.134-.027.014-.069.068.014-.068-.014-.014.069a.067.067,0,0,1-.045-.03.074.074,0,0,1-.01-.053l.77-3.776a.069.069,0,0,1,.03-.044.072.072,0,0,1,.053-.01l.133.027a.071.071,0,0,1,.055.083l-.77,3.775a.082.082,0,0,1-.03.046.085.085,0,0,1-.04.011l-.013,0" transform="translate(-49.506 -10.531)" fill="#b6001c"/>
      <path id="Path_503" data-name="Path 503" d="M187.971,46.709l1-3.775.133.035-1,3.775Z" transform="translate(-53.971 -12.327)" fill="#b6001c"/>
      <path id="Path_504" data-name="Path 504" d="M188.056,46.783l-.132-.035.019-.067.068.016-.068-.016-.019.067a.07.07,0,0,1-.049-.086l1-3.775a.07.07,0,0,1,.086-.051l.132.036a.068.068,0,0,1,.044.032.07.07,0,0,1,.006.053l-1,3.775a.071.071,0,0,1-.033.043.069.069,0,0,1-.036.01.045.045,0,0,1-.017,0" transform="translate(-53.942 -12.299)" fill="#b6001c"/>
      <path id="Path_505" data-name="Path 505" d="M174.382,46.652l2.385-2.465.1.094-2.385,2.467Z" transform="translate(-50.069 -12.687)" fill="#b6001c"/>
      <path id="Path_506" data-name="Path 506" d="M174.4,46.769l-.1-.1.049-.05.05.048-.05-.048-.049.05a.07.07,0,0,1,0-.1l2.387-2.465a.07.07,0,0,1,.1,0l.1.095a.07.07,0,0,1,.021.051.071.071,0,0,1-.019.049L174.5,46.767a.077.077,0,0,1-.05.022h0a.071.071,0,0,1-.048-.021" transform="translate(-50.04 -12.658)" fill="#b6001c"/>
      <path id="Path_507" data-name="Path 507" d="M178.072,48.693l3.236-1.924.07.117-3.236,1.923Z" transform="translate(-51.128 -13.428)" fill="#b6001c"/>
      <path id="Path_508" data-name="Path 508" d="M178.053,48.815l-.069-.116.061-.036.034.06-.034-.06-.061.036a.078.078,0,0,1-.008-.053.068.068,0,0,1,.031-.043l3.236-1.924a.071.071,0,0,1,.1.025l.071.117a.074.074,0,0,1,.008.053.061.061,0,0,1-.034.043L178.15,48.84a.066.066,0,0,1-.036.01.071.071,0,0,1-.061-.034" transform="translate(-51.1 -13.4)" fill="#b6001c"/>
      <path id="Path_509" data-name="Path 509" d="M184.3,34.1l.134-.019.461,3.239-.136.019Z" transform="translate(-52.916 -9.784)" fill="#b6001c"/>
      <path id="Path_510" data-name="Path 510" d="M184.685,37.362a.065.065,0,0,1-.027-.047l-.46-3.239.071-.009.008.07-.008-.07-.071.009a.069.069,0,0,1,.061-.079l.134-.019a.071.071,0,0,1,.079.06l.461,3.239a.061.061,0,0,1-.014.051.066.066,0,0,1-.046.029l-.135.019h-.011a.069.069,0,0,1-.041-.014" transform="translate(-52.887 -9.756)" fill="#b6001c"/>
      <rect id="Rectangle_28" data-name="Rectangle 28" width="0.136" height="2.433" transform="matrix(0.983, -0.186, 0.186, 0.983, 127.224, 24.936)" fill="#b6001c"/>
      <path id="Path_511" data-name="Path 511" d="M178.853,37.388a.063.063,0,0,1-.029-.045l-.461-2.389.068-.014.015.069-.015-.069-.068.014a.07.07,0,0,1,.056-.083l.133-.026a.07.07,0,0,1,.083.056l.461,2.389a.072.072,0,0,1-.01.053.074.074,0,0,1-.046.029l-.133.026h-.014a.064.064,0,0,1-.038-.011" transform="translate(-51.212 -10.004)" fill="#b6001c"/>
      <path id="Path_512" data-name="Path 512" d="M150.013,50.988,150,50.972v-.019c-.024-.837-.076-3.085-.076-4.022,0-.14,0-.25,0-.322,0-.039,0-.079,0-.119,0-.336-.048-.74-.048-1.059,0-.286.028-.553.274-.572a.307.307,0,0,1,.061.008l.047.011.007.046c.1.75.692.834,2.461.868h.125c1.652,0,2.231-.552,2.422-1l.041-.1.072.076a2.2,2.2,0,0,1,.235.3l.009.015v.02s.029,2.35.029,4.179c0,.49,0,.942-.008,1.3h.023V50.6a2.393,2.393,0,0,1-.034.433c-.148.441-1.131.966-2.9.973h-.013c-1.762,0-2.434-.56-2.717-1.013m2.73.879c1.728.008,2.68-.556,2.772-.869.012-.383.016-1.009.016-1.713,0-1.732-.025-3.93-.028-4.158a2.047,2.047,0,0,0-.142-.188c-.256.486-.927.992-2.5.989h-.127c-1.7-.025-2.438-.109-2.586-.93-.075.014-.125.15-.126.433,0,.307.048.713.048,1.059,0,.042,0,.081,0,.123,0,.07,0,.179,0,.318,0,.811.041,2.619.066,3.626h0l.008.372c.262.41.878.937,2.606.938" transform="translate(-43.035 -12.833)" fill="#b6001c"/>
      <path id="Path_513" data-name="Path 513" d="M149.924,51l-.01-.014-.011-.039v-.016c-.023-.838-.076-3.086-.076-4.024,0-.14,0-.25,0-.324,0-.04,0-.078,0-.118,0-.33-.048-.734-.048-1.06,0-.277.02-.607.345-.641a.454.454,0,0,1,.076.009l.046.011a.074.074,0,0,1,.054.058l.008.048a.688.688,0,0,0,.555.644,7.61,7.61,0,0,0,1.836.161h.125c1.64,0,2.176-.54,2.356-.958l.042-.095a.068.068,0,0,1,.051-.042.07.07,0,0,1,.064.021l.072.079h0v0l.011.012-.007-.013,0,0a.213.213,0,0,0,.019.02l.06.069a2.066,2.066,0,0,1,.159.217l.01.015.009.037v.019s.029,2.35.029,4.18c0,.467,0,.9,0,1.253a.078.078,0,0,1,.021.051v.009a2.233,2.233,0,0,1-.039.452c-.181.5-1.183,1.008-2.971,1.023h-.024c-1.766,0-2.472-.571-2.766-1.047m2.79.907v-.136h.037c1.687.01,2.615-.577,2.665-.8.011-.38.015-1.006.015-1.709,0-1.69-.024-3.822-.029-4.138-.019-.029-.04-.058-.061-.085-.3.482-1.015.935-2.5.934v-.006l-.013.007H152.7c-1.588-.021-2.387-.094-2.617-.835a1.227,1.227,0,0,0-.024.267c0,.3.048.707.048,1.06,0,.041,0,.082,0,.125,0,.068,0,.178,0,.316,0,.8.041,2.6.066,3.608a.071.071,0,0,1,0,.017l.009.351c.255.386.844.884,2.536.889V51.9Zm2.84-.935a2.6,2.6,0,0,0,.027-.357.069.069,0,0,1-.018-.027c0,.142-.005.272-.009.384m-5.57-.009.026-.016h0Zm.059-.036v0h0v0m5.495-5.844h0Zm-5.551-.088a.194.194,0,0,1,.075-.075.169.169,0,0,0-.075.075m.168-.081a.068.068,0,0,1,.021.022c0-.009,0-.017,0-.025l-.034-.006a.1.1,0,0,1,.017.009m5.129-.053a.071.071,0,0,1,.08-.009l-.05-.056c-.01.022-.019.043-.03.065m.026-.068,0,0,0,0h0m.107-.093h0" transform="translate(-43.006 -12.805)" fill="#b6001c"/>
      <path id="Path_514" data-name="Path 514" d="M167.637,11.352a24.371,24.371,0,0,1,5.707-3.311" transform="translate(-48.132 -2.309)" fill="#b6001c"/>
      <path id="Path_515" data-name="Path 515" d="M138.21,11.437a21.43,21.43,0,0,0-5.353-3.1" transform="translate(-38.146 -2.394)" fill="#b6001c"/>
      <path id="Path_516" data-name="Path 516" d="M171.49,9.661a6.785,6.785,0,0,0,2.959-1.62" transform="translate(-49.239 -2.309)" fill="#b6001c"/>
      <path id="Path_517" data-name="Path 517" d="M135.123,9.6a6.782,6.782,0,0,1-2.958-1.62" transform="translate(-37.947 -2.29)" fill="#b6001c"/>
      <path id="Path_518" data-name="Path 518" d="M122.033,127.864v-5.627h.821v4.875h1.956v.753Z" transform="translate(-35.038 -35.097)" fill="#686667"/>
      <path id="Path_519" data-name="Path 519" d="M132.99,127.928a2.92,2.92,0,1,1,2.928-2.9,2.928,2.928,0,0,1-2.928,2.9m0-5.087a2.168,2.168,0,1,0,2.107,2.191,2.128,2.128,0,0,0-2.107-2.191" transform="translate(-37.344 -35.054)" fill="#686667"/>
      <path id="Path_520" data-name="Path 520" d="M146.829,127.864l-2.782-4.349h-.019v4.349h-.82v-5.627h.9l2.736,4.282h.016v-4.282h.82v5.627Z" transform="translate(-41.118 -35.097)" fill="#686667"/>
      <path id="Path_521" data-name="Path 521" d="M154.7,122.237h1.825a2.637,2.637,0,0,1,2.3,1.035,3.2,3.2,0,0,1,.577,1.794,2.974,2.974,0,0,1-.707,1.985,2.939,2.939,0,0,1-2.2.814H154.7Zm.82,4.875h.981a1.9,1.9,0,0,0,2.077-2.046,1.986,1.986,0,0,0-2.062-2.074h-1Z" transform="translate(-44.419 -35.097)" fill="#686667"/>
      <path id="Path_522" data-name="Path 522" d="M168.879,127.928a2.92,2.92,0,1,1,2.928-2.9,2.927,2.927,0,0,1-2.928,2.9m0-5.087a2.168,2.168,0,1,0,2.107,2.191,2.127,2.127,0,0,0-2.107-2.191" transform="translate(-47.648 -35.054)" fill="#686667"/>
      <path id="Path_523" data-name="Path 523" d="M182.716,127.864l-2.784-4.349h-.014v4.349H179.1v-5.627h.9l2.735,4.282h.016v-4.282h.821v5.627Z" transform="translate(-51.423 -35.097)" fill="#686667"/>
    </g>
  </g>
  <text id="THIN_RED_LINE" data-name="THIN RED LINE" transform="translate(2.242 74.807)" fill="#161615" font-size="31" font-family="SegoeUI, Segoe UI"><tspan x="0" y="0" letter-spacing="0.069em">T</tspan><tspan y="0" letter-spacing="0.028em">H</tspan><tspan y="0" letter-spacing="0.029em">I</tspan><tspan y="0" letter-spacing="0.054em">N</tspan><tspan y="0" letter-spacing="0.053em"> </tspan><tspan y="0" letter-spacing="0.036em">R</tspan><tspan y="0" letter-spacing="0.031em">E</tspan><tspan y="0" letter-spacing="0.053em">D </tspan><tspan y="0" letter-spacing="0.041em">L</tspan><tspan y="0" letter-spacing="0.029em">I</tspan><tspan y="0" letter-spacing="0.03em">N</tspan><tspan y="0">E</tspan></text>
</svg>
