<svg xmlns="http://www.w3.org/2000/svg" width="25.312" height="25.313" viewBox="0 0 25.312 25.313">
  <g id="Icon_feather-instagram" data-name="Icon feather-instagram" transform="translate(1 1)">
    <path id="Path_175" data-name="Path 175" d="M8.828,3H20.484a5.828,5.828,0,0,1,5.828,5.828V20.484a5.828,5.828,0,0,1-5.828,5.828H8.828A5.828,5.828,0,0,1,3,20.484V8.828A5.828,5.828,0,0,1,8.828,3Z" transform="translate(-3 -3)" fill="none" stroke="#000" stroke-linecap="round" stroke-linejoin="round" stroke-width="2"/>
    <path id="Path_176" data-name="Path 176" d="M21.339,15.914a4.662,4.662,0,1,1-3.928-3.928,4.662,4.662,0,0,1,3.928,3.928Z" transform="translate(-5.021 -4.992)" fill="none" stroke="#000" stroke-linecap="round" stroke-linejoin="round" stroke-width="2"/>
    <path id="Path_177" data-name="Path 177" d="M26.25,9.75h0" transform="translate(-8.183 -4.505)" fill="none" stroke="#000" stroke-linecap="round" stroke-linejoin="round" stroke-width="2"/>
  </g>
</svg>
