<svg version="1.2" xmlns="http://www.w3.org/2000/svg" viewBox="0 0 190 80" width="190" height="80">
	<title>LOGO RED-svg</title>
	<style>
		.s0 { fill: #c62032 } 
		.s1 { fill: #231f20 } 
	</style>
	<g id="Layer">
		<g id="Layer">
			<path id="Layer" class="s0" d="m88.9 32.6l0.6-3h0.1l-0.6 3h-0.1z"/>
			<path id="Layer" class="s0" d="m88.9 32.6h-0.1 0.1-0.1q0 0 0-0.1l0.6-2.9q0 0 0.1 0 0 0 0 0h0.1q0 0 0 0l-0.6 3q0 0 0 0 0 0 0 0 0 0-0.1 0z"/>
		</g>
		<g id="Layer">
			<path id="Layer" fill-rule="evenodd" class="s0" d="m99.9 23.5c0.4-0.2 0.6-0.4 0.6-0.4q0 0 0-0.1c0 0 0-0.3-0.8-0.4q-0.2 0-0.4 0-0.1 0-0.2 0v-0.1q0.1 0 0.2 0 0.2 0 0.4 0c0.8 0.1 0.9 0.4 0.9 0.5q0 0.1 0 0.2c0 0-0.2 0.2-0.6 0.4z"/>
			<path id="Layer" class="s0" d="m99.9 23.6v-0.1h0.1-0.1q0 0 0 0 0 0 0-0.1c0.3-0.1 0.5-0.3 0.6-0.3q0 0 0-0.1c0 0-0.1-0.2-0.9-0.3q-0.1-0.1-0.3-0.1-0.1 0-0.2 0 0 0 0 0 0 0 0 0 0 0 0 0 0 0 0 0l-0.1-0.1q0-0.1 0.1-0.1 0.1 0 0.2 0 0.2 0 0.4 0c0.8 0.2 1 0.4 1 0.6q0 0.1-0.1 0.2c0 0-0.2 0.2-0.6 0.4q0 0 0 0 0 0-0.1 0z"/>
		</g>
		<g id="Layer">
			<path id="Layer" class="s0" d="m89.7 22.2h0.1c0.1 0.3 0.9 0.8 1.3 0.8q0.1 0 0.1 0c0.5-0.1 1.1-1 1.2-1.4-0.1-0.2-0.5-0.3-1-0.3q-0.2 0-0.4 0c-0.6 0.1-1.2 0.5-1.2 0.8q0 0.1 0 0.1h-0.1q0 0 0-0.1c0-0.4 0.7-0.8 1.3-0.9q0.2 0 0.4 0c0.5 0 1 0.1 1.1 0.4-0.1 0.4-0.7 1.4-1.2 1.5q-0.1 0-0.2 0c-0.5 0-1.3-0.5-1.4-0.9z"/>
			<path id="Layer" fill-rule="evenodd" class="s0" d="m89.7 22.3q0 0 0-0.1 0 0 0-0.1c0-0.5 0.7-0.8 1.3-0.9q0.2-0.1 0.4-0.1c0.5 0.1 1 0.2 1.1 0.4v0.1c-0.1 0.5-0.7 1.4-1.2 1.5q-0.1 0-0.2 0c-0.5 0-1.3-0.4-1.4-0.8zm1.4 0.6q0.1 0 0.1 0c0.4 0 1-0.9 1.1-1.3 0-0.1-0.5-0.3-0.9-0.2q0 0 0 0-0.2 0-0.4 0c-0.5 0.1-1.1 0.5-1.1 0.7q0 0 0 0 0 0.1 0 0.1 0 0 0 0c0 0.3 0.8 0.7 1.2 0.7q0 0 0 0 0 0 0 0zm1.3-1.3q0 0 0 0 0 0 0 0z"/>
		</g>
		<g id="Layer">
			<path id="Layer" fill-rule="evenodd" class="s0" d="m90.6 29.4q0 0-0.1 0-0.2-0.1-0.2-0.3 0 0 0 0 0.1-0.2 0.3-0.2 0 0 0.1 0c0.1 0.1 0.2 0.2 0.2 0.3q0 0 0 0.1h-0.1 0.1q-0.1 0.1-0.3 0.1 0 0 0 0zm-0.2-0.3q0 0 0 0 0 0.1 0.1 0.2 0.1 0 0.1 0 0.1 0 0.2-0.1 0 0 0 0 0-0.1-0.2-0.2 0 0 0 0-0.1 0-0.2 0.1z"/>
			<path id="Layer" fill-rule="evenodd" class="s0" d="m90.6 29.5q0 0-0.1 0c-0.1-0.1-0.2-0.2-0.2-0.4q0 0 0 0c0-0.2 0.1-0.2 0.3-0.2q0 0 0 0 0 0 0.1 0c0.1 0 0.2 0.2 0.2 0.3q0 0 0 0.1 0 0 0 0c0 0.1-0.2 0.2-0.3 0.2zm0-0.2q0 0 0 0 0.1 0 0.1-0.1 0 0 0 0c0 0 0-0.1-0.1-0.1q0 0 0 0-0.1 0-0.1 0h-0.1 0.1q0 0 0 0 0 0 0 0 0 0.1 0.1 0.2z"/>
		</g>
		<g id="Layer">
			<path id="Layer" class="s0" d="m91.4 30c0 0 0.4-1.2 0.6-1.7-0.1-0.1-0.2-0.4-0.3-0.6h0.1c0.1 0.2 0.3 0.6 0.3 0.6-0.2 0.6-0.6 1.7-0.6 1.7z"/>
			<path id="Layer" fill-rule="evenodd" class="s0" d="m91.5 30.1l-0.1-0.1q0 0 0 0c0-0.1 0.3-1.1 0.5-1.7 0-0.1-0.2-0.4-0.3-0.6q0 0 0 0 0 0 0.1 0v-0.1q0.1 0 0.1 0 0 0 0 0c0.1 0.3 0.3 0.6 0.3 0.6v0.1c-0.2 0.5-0.5 1.6-0.5 1.7q0 0 0 0.1-0.1 0-0.1 0 0 0 0 0zm0.5-1.8q0 0 0 0 0 0 0 0z"/>
		</g>
		<g id="Layer">
			<path id="Layer" fill-rule="evenodd" class="s0" d="m87.9 38.5h-0.2l1.1-6-5.6 4.9-0.3-0.1 6.6-7.7 0.9-3.9-0.2-0.1c0 0 0.1-0.4 0.1-0.8q0-0.3 0-0.6c-0.2-0.5-0.7-1.5-0.9-1.8q-0.2-0.3-0.2-0.5c0-0.6 0.6-1.2 1.4-1.4q0.3-0.1 0.7-0.1c0.7 0 1.2 0.3 1.5 0.5 0.4 0.1 0.5 0.4 0.5 0.6q0 0.3-0.1 0.4c0 0-0.6 1.4-0.7 1.7-0.1 0.4-0.4 2-0.6 2.3-0.1 0.1-0.3 0.1-0.3 0.2 0 0-0.1 0.3-0.1 0.5 0 0.4 0.1 0.9 0.2 1 0.8-0.2 1.9-1 2.3-1.5q-0.1 0-0.1-0.1c0.1-0.3 0.6-0.9 0.8-1.1 0.1-0.1 0.4-0.4 0.8-0.8h0.1c0.2 0.2 0.4 0.4 0.6 0.4 0.3 0.1 1.2 0.2 2 0.6h0.1l-0.1 0.1q-0.2 0.1-0.3 0.1c-0.8 0.5-2.3 1.2-2.5 1.6q0 0-0.1 0c-0.2 0-0.3 0-0.4-0.1l-3.4 3.2-3.6 8.6zm0-0.2v0.1l3.6-8.5 3.5-3.3q0 0 0.1 0.1 0.1 0 0.3 0 0 0 0 0c0.3-0.4 1.7-1.1 2.5-1.6q0.1 0 0.2 0c-0.7-0.3-1.6-0.5-1.9-0.6-0.2 0-0.4-0.2-0.6-0.3-0.4 0.3-0.7 0.6-0.8 0.7-0.2 0.2-0.7 0.8-0.7 1q0 0.1 0 0.1v0.1c-0.4 0.5-1.5 1.3-2.3 1.5l-0.1 0.1v-0.1c-0.2-0.2-0.2-0.6-0.2-1.1 0-0.3 0-0.6 0-0.6 0 0 0.3-0.1 0.4-0.2 0.1-0.2 0.4-1.8 0.6-2.2 0.1-0.3 0.7-1.7 0.7-1.7q0-0.1 0-0.3c0-0.3 0-0.5-0.3-0.5h-0.1v-0.1c-0.2-0.2-0.8-0.5-1.5-0.5q-0.3 0-0.7 0.1c-0.7 0.2-1.2 0.8-1.2 1.3q0 0.2 0.1 0.4c0.3 0.4 0.7 1.4 0.9 1.9q0.1 0.3 0.1 0.6c0 0.3-0.1 0.6-0.1 0.8h0.1l-0.9 4.1-6.5 7.6h0.1l5.8-5.1zm5.4-16.5q0 0 0 0 0 0 0 0zm2.4 2.3z"/>
			<path id="Layer" fill-rule="evenodd" class="s0" d="m87.9 38.6l-0.2-0.1q-0.1 0 0 0l1.1-5.9-5.6 4.9q0 0 0 0h-0.1l-0.2-0.2q0 0 0 0 0 0 0-0.1l6.5-7.6 0.9-3.9h-0.1q0-0.1 0-0.1c0-0.1 0.1-0.5 0.1-0.8q0-0.3-0.1-0.6c-0.2-0.5-0.6-1.5-0.8-1.8q-0.2-0.2-0.2-0.5 0 0 0 0c0-0.6 0.5-1.3 1.4-1.5q0.3 0 0.7 0c0.7 0 1.3 0.2 1.6 0.5 0.3 0 0.4 0.4 0.4 0.6q0 0 0 0 0 0.3 0 0.5c0 0-0.6 1.3-0.7 1.7-0.2 0.3-0.4 1.9-0.6 2.2-0.2 0.1-0.3 0.2-0.4 0.2 0 0.1 0 0.3 0 0.5q0 0 0 0.1c0 0.3 0 0.7 0.1 0.9 0.8-0.3 1.8-1 2.2-1.5q0 0 0-0.1 0 0 0 0c0-0.4 0.6-0.9 0.8-1.1 0.1-0.1 0.4-0.4 0.8-0.8q0.1-0.1 0.1 0 0.3 0.3 0.6 0.4c0.3 0 1.2 0.2 2 0.5l0.1 0.1q0 0 0 0 0 0.1 0 0.1h-0.1q-0.2 0.1-0.3 0.2c-0.7 0.4-2.2 1.2-2.4 1.5h-0.1q0 0-0.1 0c-0.1 0-0.3 0-0.3 0l-3.4 3.2-3.6 8.5q0 0-0.1 0 0 0 0 0zm0-0.1q0 0 0 0zm-0.2-0.1h0.1q-0.1 0-0.1 0zm1.3-6.3q0 0.1 0 0.1l-1.1 6 3.5-8.3 3.5-3.3q0 0 0 0 0.1 0 0.1 0.1 0.2 0 0.3 0 0 0 0 0c0.4-0.4 1.8-1.1 2.5-1.6q0 0 0.1 0c-0.7-0.3-1.5-0.4-1.8-0.5q-0.3-0.1-0.5-0.3c-0.4 0.3-0.7 0.6-0.8 0.7-0.2 0.2-0.7 0.8-0.7 1q0 0 0 0v0.1q0 0 0 0c-0.4 0.6-1.5 1.4-2.4 1.6v0.1q0 0-0.1-0.1c-0.2-0.2-0.2-0.7-0.2-1.1 0-0.3 0-0.6 0-0.6v-0.1q0 0 0 0h0.1q0 0 0 0 0 0 0 0 0 0 0.1-0.1 0.1 0 0.2-0.1c0.1-0.2 0.4-1.8 0.6-2.1 0-0.3 0.4-1.1 0.6-1.5q0.1-0.2 0.1-0.2 0-0.2 0-0.4c0-0.3 0-0.4-0.3-0.4l-0.1-0.1c-0.2-0.2-0.8-0.5-1.5-0.5q-0.3 0-0.6 0.1c-0.8 0.2-1.2 0.7-1.2 1.2h-0.1 0.1q0 0.3 0.1 0.5c0.3 0.3 0.7 1.3 0.9 1.8q0.1 0.3 0.1 0.6c0 0.3-0.1 0.6-0.1 0.8h0.1q0 0 0 0.1l-0.9 4-6.5 7.6h0.1l5.8-5q0-0.1 0-0.1 0 0 0 0zm-5.8 5.2q0 0-0.1 0zm-0.1-0.1q0 0 0 0 0 0 0 0zm5.9-4.8q0 0 0 0v-0.1l-0.1 0.1q0 0 0 0 0 0 0.1 0zm2.8-4.8q0 0 0 0 0 0 0 0 0 0 0 0zm3.7-0.8q0 0 0 0 0 0 0-0.1zm-0.5 0q0 0 0 0 0 0 0 0 0 0 0 0zm-0.9-0.7q0 0 0 0 0 0 0 0 0 0 0 0zm-2.5-0.1q0 0 0 0 0 0 0 0 0 0 0 0zm-1.1-0.3l0.1-0.1h-0.1q0 0 0 0.1zm-0.1-0.1q0 0 0 0 0 0 0 0zm7.8-0.5q0 0.1-0.1 0.1 0.1 0 0.1-0.1 0 0-0.1 0 0.1 0 0.1 0zm-5.3-4.1q0 0 0 0 0 0 0 0zm-2.5 4.6z"/>
		</g>
		<g id="Layer">
			<path id="Layer" fill-rule="evenodd" class="s0" d="m100.7 24.2c-0.6-0.5-1.3-1.3-1.7-1.7h0.1-0.1q-0.1-0.2-0.2-0.3c-0.1-0.3-0.2-0.2-0.7-0.4h-0.1l0.1-0.1q0.1 0 0.1 0c0.5-0.2 1.3-0.3 1.8-0.4 0.4 0 1.4-0.4 2.1-0.4q0.3 0 0.5 0.1c0.2 0.3 0.2 0.6 0.2 0.8q0 0.1 0 0.1v0.1h-0.1c-0.2-0.1-0.3-0.2-0.4-0.2q0 0-0.2 0.1c-0.4 0.1-1 0.3-1 0.5q0 0 0 0 0.1 0.1 0.1 0.3c0 0.4-0.1 1-0.2 1.3q-0.1 0.1-0.3 0.2v0.1zm0-0.2q0.1-0.1 0.2-0.2c0.1-0.1 0.2-0.7 0.2-1.1q0-0.3 0-0.4 0 0 0 0c0-0.3 0.6-0.4 1-0.6q0.2-0.1 0.3-0.1c0.1 0 0.2 0.1 0.3 0.2q0-0.1 0-0.1c0-0.1 0-0.4-0.1-0.7q-0.2-0.1-0.4-0.1c-0.8 0-1.8 0.4-2.2 0.5-0.4 0.1-1.2 0.1-1.7 0.3 0.3 0.1 0.5 0.1 0.6 0.4q0.1 0.1 0.2 0.3c0.4 0.4 1.1 1.1 1.6 1.6z"/>
			<path id="Layer" fill-rule="evenodd" class="s0" d="m100.7 24.3h-0.1c-0.5-0.6-1.3-1.3-1.6-1.7q0-0.1 0-0.1-0.2-0.1-0.2-0.3c-0.1-0.2-0.2-0.2-0.7-0.3l-0.1-0.1q-0.1 0-0.1 0 0-0.1 0.1-0.1h0.1q0 0 0.1-0.1c0.5-0.2 1.3-0.2 1.8-0.3 0.3-0.1 1.4-0.4 2.1-0.5q0.3 0 0.5 0.1l0.1 0.1c0.1 0.3 0.2 0.6 0.2 0.8q-0.1 0.1-0.1 0.1v0.1q0 0 0 0 0 0 0 0h-0.1c-0.2-0.1-0.3-0.1-0.4-0.1q0 0-0.2 0c-0.3 0.1-0.7 0.3-0.8 0.4q-0.1 0.1-0.1 0.1 0 0.1 0 0.3c0 0.5 0 1-0.2 1.3q-0.1 0.1-0.2 0.3h-0.1q0 0 0 0 0 0 0 0zm0-0.1q0 0 0 0 0 0 0 0 0 0 0 0 0 0 0 0zm-1.7-2c0 0 0 0.1 0.1 0.2 0.4 0.4 1 1.1 1.6 1.6q0.1-0.1 0.1-0.1c0.1-0.2 0.2-0.7 0.2-1.1q0 0 0-0.1 0-0.2 0-0.3 0 0 0 0c0-0.4 0.7-0.5 1-0.7q0.2-0.1 0.3-0.1c0.2 0.1 0.2 0.1 0.4 0.2 0-0.2-0.1-0.4-0.2-0.7q-0.2 0-0.4 0c-0.7 0-1.7 0.3-2.1 0.4-0.4 0.1-1 0.1-1.5 0.3 0.2 0 0.4 0.1 0.5 0.4zm2.3-0.1q0.1 0 0.1 0 0 0-0.1 0zm1.4-0.2q0 0 0 0 0 0 0 0 0 0 0 0 0 0 0 0zm-4.4-0.1q-0.1 0-0.1 0 0-0.1 0.1-0.1-0.1 0-0.1 0 0 0-0.1 0.1 0.1 0 0.2 0zm4.3-0.8q0 0 0 0 0 0 0 0zm-1.9 3.1zm0.4-1.8q0 0 0 0z"/>
		</g>
		<g id="Layer">
			<path id="Layer" class="s0" d="m104.8 30l-3.5-3.2c0 0-0.2 0.1-0.4 0.1q0 0 0 0h-0.1c-0.2-0.4-1.7-1.2-2.4-1.6q-0.2-0.1-0.3-0.1l0.1-0.1q0.1 0.1 0.2 0.1c0.8 0.5 2.2 1.2 2.5 1.6q0 0 0 0c0.2 0 0.4-0.1 0.4-0.1l3.5 3.3 3.6 8.4-1.1-6.2 5.8 5.1h0.1l-6.5-7.7-0.9-4 0.1-0.1c0-0.1-0.1-0.4-0.1-0.7q0-0.3 0.1-0.6c0.2-0.5 0.6-1.5 0.9-1.9q0.1-0.2 0.1-0.4c0-0.6-0.5-1.2-1.2-1.3q-0.4-0.1-0.7-0.1c-0.7 0-1.3 0.3-1.5 0.5h-0.1c-0.3 0.1-0.3 0.3-0.3 0.5 0 0.2 0 0.3 0 0.4 0 0 0.6 1.4 0.7 1.7 0.2 0.4 0.5 2 0.6 2.2 0.1 0.1 0.4 0.2 0.4 0.2 0 0 0 0.3 0 0.6 0 0.4 0 0.9-0.2 1.1h-0.1c-0.8-0.2-1.9-1-2.3-1.6q0 0 0-0.1c0-0.3-0.5-0.8-0.7-1-0.1-0.1-0.5-0.4-0.8-0.8v-0.1c0.4 0.4 0.7 0.7 0.8 0.8 0.2 0.2 0.8 0.8 0.8 1.1q0 0.1 0 0.1c0.4 0.5 1.5 1.3 2.2 1.5 0.2-0.1 0.2-0.6 0.2-1 0-0.2 0-0.5 0-0.5-0.1-0.1-0.2-0.1-0.4-0.2-0.1-0.3-0.4-1.9-0.6-2.3-0.1-0.3-0.7-1.7-0.7-1.7 0-0.1 0-0.2 0-0.4 0-0.2 0.1-0.5 0.4-0.6 0.3-0.2 0.9-0.5 1.6-0.5q0.3 0 0.7 0.1c0.8 0.1 1.3 0.8 1.3 1.4q0 0.2-0.1 0.5c-0.3 0.3-0.7 1.3-0.9 1.8q-0.1 0.3-0.1 0.6c0 0.4 0.1 0.8 0.1 0.8l-0.1 0.1 0.9 3.9 6.5 7.7-0.2 0.1-5.7-4.9 1.2 6h-0.1l-0.2 0.1z"/>
			<path id="Layer" fill-rule="evenodd" class="s0" d="m108.3 38.6l-3.6-8.5-3.4-3.2q-0.1 0-0.4 0 0 0 0 0h-0.1c-0.2-0.3-1.7-1.1-2.5-1.5q-0.1-0.1-0.2-0.2-0.1 0 0 0 0 0 0 0v-0.1q0-0.1 0-0.1 0.1 0 0.1 0 0.1 0.1 0.2 0.2c0.8 0.4 2.2 1.1 2.5 1.5q0 0 0.1 0c0.1 0 0.3 0 0.3 0q0.1 0 0.1 0l3.5 3.2v0.1l3.5 8.2-1.2-6q0 0 0 0 0.1 0 0.1 0l5.8 5-6.5-7.5-0.9-4.1q0 0 0-0.1h0.1c0-0.1 0-0.4 0-0.7q0-0.3 0.1-0.6c0.2-0.6 0.6-1.6 0.8-1.9q0.2-0.2 0.2-0.4c0-0.5-0.5-1.1-1.3-1.3q-0.3 0-0.6 0c-0.7 0-1.2 0.2-1.5 0.5h-0.1c-0.2 0-0.3 0.2-0.3 0.4q0 0.2 0.1 0.4 0 0 0 0 0 0 0 0 0 0.1 0.1 0.2 0 0.2 0.2 0.5c0.1 0.4 0.3 0.8 0.4 1 0.1 0.3 0.4 1.9 0.5 2.2 0.1 0 0.3 0.1 0.4 0.1q0 0 0 0 0 0 0 0.1c0 0 0.1 0.3 0.1 0.6 0 0.4-0.1 0.9-0.3 1.2q0 0-0.1 0c-0.8-0.3-1.9-1.1-2.3-1.6h-0.1q0-0.1 0-0.1 0.1-0.1 0.1-0.1 0 0 0 0c0-0.2-0.6-0.8-0.8-1-0.1 0-0.4-0.4-0.8-0.7q0-0.1 0-0.1l0.1-0.1q0 0 0.1 0c0.4 0.4 0.7 0.7 0.8 0.8 0.2 0.2 0.7 0.7 0.8 1.1q0 0.1 0 0.1c0.4 0.5 1.4 1.2 2.1 1.5 0.1-0.2 0.2-0.6 0.2-0.9q0-0.1 0-0.1c0-0.2 0-0.4-0.1-0.5 0 0-0.2-0.1-0.3-0.2-0.2-0.3-0.5-1.9-0.6-2.2-0.1-0.4-0.7-1.7-0.7-1.8q-0.1-0.1-0.1-0.4 0 0 0 0c0-0.2 0.1-0.6 0.5-0.6 0.3-0.3 0.9-0.5 1.6-0.5q0.3 0 0.7 0c0.8 0.2 1.4 0.8 1.4 1.5q0 0.3-0.2 0.5c-0.2 0.3-0.7 1.3-0.8 1.8q-0.1 0.3-0.1 0.6c0 0.4 0.1 0.7 0.1 0.7v0.1q0 0-0.1 0.1h-0.1l0.9 3.9 6.6 7.6q0 0.1 0 0.1 0 0 0 0h-0.1l-0.2 0.2q0 0-0.1 0l-5.5-4.9 1.1 5.9q0 0 0 0h-0.1l-0.2 0.1q0 0 0 0 0 0 0 0zm0.1-0.1q0 0-0.1 0zm0.2-0.1q0 0 0 0zm4.6-1.1q0 0-0.1 0zm0.2-0.1q0 0 0 0 0 0 0 0zm-5.9-4.8q0 0 0.1 0 0 0 0 0l-0.1-0.1zm-2.8-4.8q0 0 0 0 0 0 0 0 0 0 0 0zm-3.7-0.8q0 0 0 0 0 0 0 0zm0.5-0.1q0 0 0 0 0 0 0 0zm0.9-0.6q0 0 0-0.1 0 0.1 0 0.1 0 0 0 0zm2.5-0.1q0 0 0 0 0 0 0 0 0-0.1 0 0 0 0 0 0zm1.1-0.4q0 0 0 0zm0.1-0.1q0 0 0 0 0 0 0 0 0 0 0 0 0 0 0 0zm-2.5-4.6q0 0 0 0 0 0 0 0zm1.3 9v0.1-0.1zm0-4q0 0 0 0zm0.1 0q0 0 0 0 0 0 0 0zm-1.6-4.1q0 0 0 0 0 0 0 0z"/>
		</g>
		<g id="Layer">
			<path id="Layer" class="s0" d="m95.3 24c-0.2-0.3-0.2-0.8-0.2-1.3q0-0.2 0-0.3 0 0 0 0c0-0.2-0.6-0.4-0.9-0.5q-0.2-0.1-0.3-0.1c-0.1 0-0.1 0.1-0.4 0.2v-0.1q0 0 0-0.1c0-0.2 0-0.5 0.1-0.8h0.1q0.2-0.1 0.4-0.1c0.8 0 1.8 0.4 2.2 0.4 0.5 0.1 1.2 0.2 1.8 0.4q0 0 0 0v0.1q0 0-0.1 0c-0.5-0.2-1.3-0.3-1.7-0.4-0.4 0-1.4-0.4-2.2-0.4q-0.2 0-0.4 0.1c-0.1 0.3-0.1 0.5-0.1 0.7q0 0 0 0c0.1 0 0.2-0.1 0.3-0.1q0.1 0 0.3 0.1c0.4 0.1 1 0.3 1 0.6q0 0 0 0 0 0.1 0 0.3c0 0.4 0.1 1 0.2 1.2q0.1 0.1 0.2 0.2l-0.1 0.1q-0.1-0.1-0.2-0.2z"/>
			<path id="Layer" fill-rule="evenodd" class="s0" d="m95.5 24.3q-0.1-0.2-0.2-0.3c-0.2-0.3-0.2-0.8-0.2-1.3q0-0.2 0-0.3 0 0 0 0 0 0-0.1-0.1-0.1-0.1-0.2-0.1c-0.2-0.1-0.5-0.2-0.6-0.3q-0.2-0.1-0.3 0c0 0-0.1 0-0.3 0.1h-0.1q0 0 0 0-0.1 0-0.1 0v-0.1q0 0 0-0.1c0-0.2 0-0.5 0.2-0.8v-0.1h0.1q0.2-0.1 0.4-0.1c0.8 0 1.8 0.4 2.2 0.5 0.5 0.1 1.2 0.1 1.8 0.3q0 0 0.1 0.1 0 0 0 0 0 0 0 0v0.1q0 0.1-0.1 0.1 0 0 0 0 0 0-0.1-0.1c-0.5-0.2-1.3-0.2-1.7-0.3-0.4-0.1-1.5-0.4-2.2-0.4q-0.2 0-0.3 0c-0.2 0.3-0.2 0.5-0.2 0.7 0.1-0.1 0.2-0.1 0.3-0.2q0.1 0 0.3 0.1c0.4 0.2 1 0.3 1.1 0.7q0 0 0 0 0 0.1 0 0.3 0 0.1 0 0.1c0 0.4 0 0.9 0.1 1.1q0.1 0.1 0.2 0.2 0.1 0 0.1 0 0 0.1-0.1 0.1v0.1q0 0-0.1 0 0 0 0 0zm-0.6-2.2q0 0-0.1 0 0.1 0 0.1 0zm-1.4-0.2q0 0 0.1 0-0.1 0-0.1 0 0 0 0 0 0 0 0 0zm0.2-0.9q0 0 0 0 0 0 0 0z"/>
		</g>
		<g id="Layer">
			<path id="Layer" class="s0" d="m106.7 29.6h0.1l0.6 3h-0.1l-0.6-3z"/>
			<path id="Layer" class="s0" d="m107.3 32.6q0 0 0 0l-0.7-3h0.1v0.1-0.1h-0.1q0 0 0.1 0h0.1q0 0 0 0l0.7 2.9q0 0.1-0.1 0.1 0 0 0 0h-0.1q0 0 0 0 0 0 0 0z"/>
		</g>
		<g id="Layer">
			<path id="Layer" fill-rule="evenodd" class="s0" d="m97.1 23.9c-0.9-0.2-1.4-0.7-1.5-0.8q0 0 0-0.1c0-0.1 0.2-0.4 1-0.5q0.2 0 0.3 0c1 0 2 0.7 2 1.2q0 0 0 0v0.1h-0.1c0 0-0.4 0.2-1.1 0.2q-0.3 0-0.6-0.1zm0-0.1q0.3 0.1 0.6 0.1c0.6 0 1-0.1 1.1-0.2 0-0.2-0.2-0.5-0.6-0.7-0.3-0.2-0.8-0.4-1.3-0.4q-0.1 0-0.3 0c-0.8 0.1-0.9 0.4-0.9 0.4q0 0.1 0 0.1c0.1 0 0.6 0.5 1.4 0.7z"/>
			<path id="Layer" fill-rule="evenodd" class="s0" d="m97 24c-0.8-0.3-1.4-0.8-1.4-0.8q0-0.1 0-0.2c0-0.2 0.2-0.4 1-0.6q0.2 0 0.3 0c1.1 0 2 0.7 2 1.3q0 0 0 0.1 0 0 0 0c0 0-0.5 0.2-1.2 0.2q-0.3 0.1-0.7 0zm0.1-0.2q0.3 0 0.6 0c0.5 0 0.9-0.1 1-0.1 0-0.2-0.2-0.5-0.5-0.7-0.3-0.2-0.8-0.4-1.3-0.4q-0.1 0-0.3 0.1c-0.8 0.1-0.8 0.3-0.8 0.3h-0.1 0.1q0 0 0 0.1c0.1 0 0.6 0.5 1.3 0.7zm0 0q0 0 0 0zm1.7 0q0-0.1 0-0.1 0 0 0 0 0 0 0 0.1z"/>
		</g>
		<g id="Layer">
			<path id="Layer" fill-rule="evenodd" class="s0" d="m105 23.1c-0.5-0.1-1.1-1.1-1.2-1.5 0.1-0.3 0.6-0.4 1.1-0.4q0.2 0 0.4 0c0.6 0.1 1.2 0.5 1.2 0.9q0 0.1 0 0.1c-0.1 0.4-0.9 0.9-1.4 0.9q0 0-0.1 0zm0-0.1q0.1 0 0.1 0c0.5 0 1.3-0.5 1.3-0.8q0 0 0-0.1c0.1-0.3-0.6-0.7-1.1-0.8q-0.2 0-0.4 0c-0.5 0-0.9 0.1-1 0.3 0.1 0.4 0.7 1.3 1.1 1.4z"/>
			<path id="Layer" fill-rule="evenodd" class="s0" d="m105 23.1c-0.6-0.1-1.2-1-1.3-1.5v-0.1c0.2-0.2 0.7-0.3 1.2-0.4q0.2 0 0.4 0.1c0.6 0.1 1.3 0.4 1.3 0.9q0 0.1 0 0.2c-0.1 0.4-0.9 0.8-1.5 0.8q0 0-0.1 0zm0-0.2q0.1 0 0.1 0 0 0 0 0c0.5 0 1.2-0.4 1.3-0.7q0 0 0-0.1 0 0 0 0c0-0.2-0.6-0.6-1.1-0.7q-0.2 0-0.4 0 0 0-0.1 0c-0.4-0.1-0.8 0.1-0.9 0.2 0.1 0.4 0.8 1.3 1.1 1.3zm-1.2-1.3q0 0 0 0 0 0 0 0z"/>
		</g>
		<g id="Layer">
			<path id="Layer" fill-rule="evenodd" class="s0" d="m105.4 29.3q0-0.1 0-0.1c0-0.1 0.1-0.2 0.2-0.3q0 0 0.1 0c0.1 0 0.2 0.1 0.2 0.2q0.1 0 0.1 0c0 0.2-0.1 0.3-0.3 0.3q0 0-0.1 0 0 0 0 0-0.1 0-0.2-0.1zm0.2 0q0.1 0 0.1 0 0.1-0.1 0.2-0.2 0 0-0.1 0 0-0.1-0.1-0.1 0 0-0.1 0-0.1 0.1-0.1 0.2 0 0 0 0l-0.1 0.1 0.1-0.1q0 0.1 0.1 0.1z"/>
			<path id="Layer" fill-rule="evenodd" class="s0" d="m105.6 29.5c-0.1 0-0.2-0.1-0.3-0.2q0 0 0 0 0-0.1 0-0.1c0-0.1 0.1-0.3 0.3-0.3q0 0 0.1 0c0.1 0 0.2 0 0.3 0.2q0 0 0 0c0 0.2-0.1 0.3-0.2 0.4q-0.1 0-0.2 0zm0-0.2q0.1 0 0.1 0 0.1-0.1 0.1-0.2 0 0 0 0 0 0 0 0 0 0-0.1 0 0 0-0.1 0c0 0-0.1 0.1-0.1 0.1q0 0 0 0 0 0 0 0 0.1 0.1 0.1 0.1zm0 0.1v-0.1zm-0.3-0.1h0.1z"/>
		</g>
		<g id="Layer">
			<path id="Layer" class="s0" d="m104.2 28.3c0 0 0.2-0.4 0.3-0.6h0.1c-0.1 0.2-0.3 0.5-0.3 0.6 0.2 0.5 0.5 1.7 0.5 1.7h-0.1c0 0-0.3-1.1-0.5-1.7z"/>
			<path id="Layer" fill-rule="evenodd" class="s0" d="m104.7 30c0 0-0.4-1.1-0.5-1.7v-0.1q0 0 0 0 0 0 0 0 0-0.1 0.1-0.2c0-0.1 0.1-0.3 0.2-0.4q0 0 0 0 0 0 0 0l0.1 0.1q0 0 0 0 0.1 0 0 0c-0.1 0.2-0.2 0.5-0.2 0.6 0.1 0.5 0.4 1.5 0.5 1.7q0 0 0 0 0 0 0 0l-0.1 0.1q-0.1 0-0.1 0 0 0 0-0.1zm-0.4-1.7q0 0 0 0 0 0 0 0zm-0.1 0z"/>
		</g>
		<g id="Layer">
			<g id="Layer">
				<path id="Layer" fill-rule="evenodd" class="s0" d="m104.4 9.2c-1.3 0-2.4-1.1-2.4-2.4 0-1.3 1.1-2.4 2.4-2.4 1.3 0 2.3 1.1 2.3 2.4 0 1.3-1 2.4-2.3 2.4zm2.2-2.4c0-1.2-1-2.3-2.2-2.3-1.3 0-2.3 1.1-2.3 2.3 0 1.3 1 2.3 2.3 2.3 1.2 0 2.2-1 2.2-2.3z"/>
				<path id="Layer" fill-rule="evenodd" class="s0" d="m104.4 9.2c-1.4 0-2.4-1.1-2.4-2.4 0-1.3 1-2.4 2.4-2.4 1.3 0 2.4 1.1 2.4 2.4 0 1.3-1.1 2.4-2.4 2.4zm2.2-2.4c0-1.2-1-2.2-2.2-2.2-1.2 0-2.2 1-2.2 2.2 0 1.2 1 2.2 2.2 2.2 1.2 0 2.2-1 2.2-2.2z"/>
			</g>
			<g id="Layer">
				<g id="Layer">
					<path id="Layer" fill-rule="evenodd" class="s0" d="m104 6.7c-0.2 0-0.3-0.1-0.3-0.3 0-0.1 0.1-0.3 0.3-0.3 0.2 0 0.4 0.2 0.4 0.3 0 0.2-0.2 0.3-0.4 0.3zm0.3-0.3c0-0.1-0.1-0.2-0.3-0.2-0.1 0-0.2 0.1-0.2 0.2 0 0.1 0.1 0.2 0.2 0.2 0.2 0 0.3-0.1 0.3-0.2z"/>
				</g>
				<path id="Layer" fill-rule="evenodd" class="s0" d="m104 6.7c-0.2 0-0.3-0.1-0.3-0.3 0-0.1 0.1-0.3 0.3-0.3 0.2 0 0.4 0.2 0.4 0.3 0 0.2-0.2 0.3-0.4 0.3zm0.4-0.3c0-0.1-0.2-0.3-0.4-0.3-0.2 0-0.3 0.2-0.3 0.3 0 0.2 0.1 0.3 0.3 0.3 0.2 0 0.4-0.1 0.4-0.3zm-0.4 0.2c-0.1 0-0.2-0.1-0.2-0.2 0-0.1 0.1-0.2 0.2-0.2 0.2 0 0.3 0.1 0.3 0.2 0 0.1-0.1 0.2-0.3 0.2zm0.3-0.2c0-0.1-0.1-0.2-0.3-0.2-0.1 0-0.2 0.1-0.2 0.2 0 0.1 0.1 0.2 0.2 0.2 0.2 0 0.3-0.1 0.3-0.2z"/>
			</g>
			<g id="Layer">
				<g id="Layer">
					<path id="Layer" fill-rule="evenodd" class="s0" d="m104.7 7.4c-0.2 0-0.3-0.1-0.3-0.3 0-0.1 0.1-0.3 0.3-0.3 0.2 0 0.4 0.2 0.4 0.3 0 0.2-0.2 0.3-0.4 0.3zm0.3-0.3c0-0.1-0.1-0.2-0.3-0.2-0.1 0-0.2 0.1-0.2 0.2 0 0.1 0.1 0.2 0.2 0.2 0.2 0 0.3-0.1 0.3-0.2z"/>
				</g>
				<path id="Layer" fill-rule="evenodd" class="s0" d="m104.7 7.4c-0.2 0-0.3-0.1-0.3-0.3 0-0.1 0.1-0.3 0.3-0.3 0.2 0 0.4 0.2 0.4 0.3 0 0.2-0.2 0.3-0.4 0.3zm0.4-0.3c0-0.1-0.2-0.3-0.4-0.3-0.2 0-0.3 0.2-0.3 0.3 0 0.2 0.1 0.3 0.3 0.3 0.2 0 0.4-0.1 0.4-0.3zm-0.4 0.2c-0.1 0-0.2-0.1-0.2-0.2 0-0.1 0.1-0.2 0.2-0.2 0.2 0 0.3 0.1 0.3 0.2 0 0.1-0.1 0.2-0.3 0.2zm0.3-0.2c0-0.1-0.1-0.2-0.3-0.2-0.1 0-0.2 0.1-0.2 0.2 0 0.1 0.1 0.2 0.2 0.2 0.2 0 0.3-0.1 0.3-0.2z"/>
			</g>
		</g>
		<g id="Layer">
			<g id="Layer">
				<path id="Layer" fill-rule="evenodd" class="s0" d="m91.6 9.2c-1.3 0-2.3-1.1-2.3-2.4 0-1.3 1-2.4 2.3-2.4 1.3 0 2.4 1.1 2.4 2.4 0 1.3-1.1 2.4-2.4 2.4zm2.3-2.4c0-1.2-1-2.3-2.3-2.3-1.2 0-2.2 1.1-2.2 2.3 0 1.3 1 2.3 2.2 2.3 1.3 0 2.3-1 2.3-2.3z"/>
				<path id="Layer" fill-rule="evenodd" class="s0" d="m91.6 9.2c-1.3 0-2.4-1.1-2.4-2.4 0-1.3 1.1-2.4 2.4-2.4 1.4 0 2.4 1.1 2.4 2.4 0 1.3-1 2.4-2.4 2.4zm2.2-2.4c0-1.2-1-2.2-2.2-2.2-1.2 0-2.2 1-2.2 2.2 0 1.2 1 2.2 2.2 2.2 1.2 0 2.2-1 2.2-2.2zm-2.2 2.3z"/>
			</g>
			<g id="Layer">
				<g id="Layer">
					<path id="Layer" fill-rule="evenodd" class="s0" d="m92 6.7c-0.2 0-0.4-0.1-0.4-0.3 0-0.1 0.2-0.3 0.4-0.3 0.2 0 0.3 0.2 0.3 0.3 0 0.2-0.1 0.3-0.3 0.3zm0.2-0.3c0-0.1-0.1-0.2-0.2-0.2-0.2 0-0.3 0.1-0.3 0.2 0 0.1 0.1 0.2 0.3 0.2 0.1 0 0.2-0.1 0.2-0.2z"/>
				</g>
				<path id="Layer" fill-rule="evenodd" class="s0" d="m92 6.7c-0.2 0-0.4-0.1-0.4-0.3 0-0.1 0.2-0.3 0.4-0.3 0.2 0 0.3 0.2 0.3 0.3 0 0.2-0.1 0.3-0.3 0.3zm0.3-0.3c0-0.1-0.1-0.3-0.3-0.3-0.2 0-0.4 0.2-0.4 0.3 0 0.2 0.2 0.3 0.4 0.3 0.2 0 0.3-0.1 0.3-0.3zm-0.6 0c0-0.1 0.1-0.2 0.3-0.2q0.1 0 0.1 0.1 0-0.1-0.1-0.1c-0.2 0-0.3 0.1-0.3 0.2 0 0.1 0.1 0.2 0.3 0.2 0.1 0 0.2-0.1 0.2-0.2q0 0 0 0 0 0 0 0c0 0.1-0.1 0.2-0.2 0.2-0.2 0-0.3-0.1-0.3-0.2zm0.4-0.1q0.1 0 0.1 0.1 0-0.1-0.1-0.1z"/>
			</g>
			<g id="Layer">
				<g id="Layer">
					<path id="Layer" fill-rule="evenodd" class="s0" d="m91.3 7.4c-0.2 0-0.4-0.1-0.4-0.3 0-0.1 0.2-0.3 0.4-0.3 0.2 0 0.3 0.2 0.3 0.3 0 0.2-0.1 0.3-0.3 0.3zm0.2-0.3c0-0.1-0.1-0.2-0.2-0.2-0.2 0-0.3 0.1-0.3 0.2 0 0.1 0.1 0.2 0.3 0.2 0.1 0 0.2-0.1 0.2-0.2z"/>
				</g>
				<path id="Layer" fill-rule="evenodd" class="s0" d="m90.9 7.1c0-0.1 0.2-0.3 0.4-0.3 0.2 0 0.3 0.2 0.3 0.3 0 0.2-0.1 0.3-0.3 0.3-0.2 0-0.4-0.1-0.4-0.3zm0.7 0c0-0.1-0.1-0.3-0.3-0.3-0.2 0-0.4 0.2-0.4 0.3 0 0.2 0.2 0.3 0.4 0.3 0.2 0 0.3-0.1 0.3-0.3zm-0.6 0c0-0.1 0.1-0.2 0.3-0.2 0.1 0 0.2 0.1 0.2 0.2 0 0.1-0.1 0.2-0.2 0.2 0.1 0 0.2-0.1 0.2-0.2 0-0.1-0.1-0.2-0.2-0.2-0.2 0-0.3 0.1-0.3 0.2 0 0.1 0.1 0.2 0.3 0.2-0.2 0-0.3-0.1-0.3-0.2z"/>
			</g>
		</g>
		<g id="Layer">
			<path id="Layer" fill-rule="evenodd" class="s0" d="m98.1 12.7c-1.9 0-3.4-1.5-3.4-3.3 0-1.9 1.5-3.4 3.4-3.4 1.9 0 3.5 1.5 3.5 3.4 0 1.8-1.6 3.3-3.5 3.3zm3.4-3.3c0-1.9-1.5-3.3-3.4-3.3-1.8 0-3.3 1.4-3.3 3.3 0 1.8 1.5 3.2 3.3 3.2 1.9 0 3.4-1.4 3.4-3.2z"/>
			<path id="Layer" fill-rule="evenodd" class="s0" d="m98.1 12.8c-1.9 0-3.5-1.5-3.5-3.4 0-1.9 1.6-3.5 3.5-3.5 2 0 3.5 1.6 3.5 3.5 0 1.9-1.5 3.4-3.5 3.4zm3.3-3.4c0-1.8-1.5-3.3-3.3-3.3-1.8 0-3.3 1.5-3.3 3.3 0 1.7 1.5 3.2 3.3 3.2 1.8 0 3.3-1.5 3.3-3.2zm-6.6 0h-0.1z"/>
		</g>
		<g id="Layer">
			<path id="Layer" fill-rule="evenodd" class="s0" d="m97.9 9c-0.2 0-0.3-0.2-0.3-0.3 0-0.2 0.1-0.3 0.3-0.3 0.2 0 0.4 0.1 0.4 0.3 0 0.1-0.2 0.3-0.4 0.3zm0.3-0.3c0-0.1-0.1-0.2-0.3-0.2-0.1 0-0.2 0.1-0.2 0.2 0 0.1 0.1 0.2 0.2 0.2 0.2 0 0.3-0.1 0.3-0.2z"/>
			<path id="Layer" fill-rule="evenodd" class="s0" d="m97.5 8.7c0.1-0.2 0.2-0.3 0.4-0.3 0.2 0 0.4 0.1 0.4 0.3 0 0.2-0.2 0.3-0.4 0.3-0.2 0-0.3-0.1-0.4-0.3zm0.8 0c0-0.1-0.2-0.3-0.4-0.3-0.2 0-0.3 0.2-0.3 0.3 0 0.1 0.1 0.2 0.3 0.2 0.2 0 0.4-0.1 0.4-0.2zm-0.4 0.2c-0.1 0-0.3-0.1-0.3-0.2 0-0.1 0.2-0.2 0.3-0.2 0.2 0 0.3 0.1 0.3 0.2 0 0.1-0.1 0.2-0.3 0.2zm0-0.1c0.2 0 0.3-0.1 0.3-0.1 0-0.1-0.1-0.2-0.3-0.2-0.1 0.1-0.2 0.1-0.2 0.2 0 0 0.1 0.1 0.2 0.1z"/>
		</g>
		<g id="Layer">
			<path id="Layer" fill-rule="evenodd" class="s0" d="m98.8 9.6c-0.2 0-0.3-0.1-0.3-0.3 0-0.1 0.1-0.2 0.3-0.2 0.3 0 0.4 0.1 0.4 0.2 0 0.2-0.1 0.3-0.4 0.3zm0.3-0.3c0-0.1-0.1-0.1-0.3-0.1-0.1 0-0.2 0-0.2 0.1 0 0.1 0.1 0.2 0.2 0.2 0.2 0 0.3-0.1 0.3-0.2z"/>
			<path id="Layer" fill-rule="evenodd" class="s0" d="m98.5 9.3c0-0.2 0.2-0.3 0.3-0.3 0.2 0 0.4 0.1 0.4 0.3 0 0.2-0.2 0.3-0.4 0.3-0.1 0-0.3-0.1-0.3-0.3zm0.7 0c0-0.1-0.2-0.2-0.4-0.2-0.1 0-0.3 0.1-0.3 0.2 0 0.2 0.2 0.3 0.3 0.3 0.2 0 0.4-0.1 0.4-0.3zm-0.6 0c0-0.1 0.1-0.2 0.2-0.2 0.2 0 0.3 0.1 0.3 0.2 0 0.1-0.1 0.2-0.3 0.2-0.1 0-0.2-0.1-0.2-0.2zm0.3 0.2c0.1 0 0.2-0.1 0.2-0.2 0 0-0.1-0.1-0.2-0.1-0.2 0-0.3 0.1-0.3 0.1 0 0.1 0.1 0.2 0.3 0.2z"/>
		</g>
		<g id="Layer">
			<path id="Layer" fill-rule="evenodd" class="s0" d="m97.3 9.8c-0.2 0-0.4-0.1-0.4-0.3 0-0.1 0.2-0.2 0.4-0.2 0.2 0 0.4 0.1 0.4 0.2 0 0.2-0.2 0.3-0.4 0.3zm0.2-0.3c0-0.1-0.1-0.1-0.2-0.1-0.2 0-0.3 0-0.3 0.1 0 0.1 0.1 0.2 0.3 0.2 0.1 0 0.2-0.1 0.2-0.2z"/>
			<path id="Layer" fill-rule="evenodd" class="s0" d="m96.9 9.5c0-0.2 0.2-0.3 0.4-0.3 0.2 0 0.4 0.1 0.4 0.3 0 0.2-0.2 0.3-0.4 0.3-0.2 0-0.4-0.1-0.4-0.3zm0.7 0c0-0.1-0.1-0.2-0.3-0.2-0.2 0-0.4 0.1-0.4 0.2 0 0.2 0.2 0.3 0.4 0.3 0.2 0 0.3-0.1 0.3-0.3zm-0.3 0.2c-0.2 0-0.3-0.1-0.3-0.2 0-0.1 0.1-0.2 0.3-0.2 0.1 0 0.3 0.1 0.3 0.2 0 0.1-0.2 0.2-0.3 0.2zm0 0c0.1 0 0.2-0.1 0.2-0.2 0 0-0.1-0.1-0.2-0.1-0.2 0-0.3 0.1-0.3 0.1 0 0.1 0.1 0.2 0.3 0.2z"/>
		</g>
		<g id="Layer">
			<path id="Layer" fill-rule="evenodd" class="s0" d="m98.2 10.4c-0.2 0-0.4-0.1-0.4-0.3 0-0.1 0.2-0.2 0.4-0.2 0.2 0 0.4 0.1 0.4 0.2 0 0.2-0.2 0.3-0.4 0.3zm0.3-0.2c0-0.1-0.1-0.2-0.3-0.2-0.1 0-0.3 0.1-0.3 0.2 0 0 0.2 0.1 0.3 0.1 0.2 0 0.3-0.1 0.3-0.1z"/>
			<path id="Layer" fill-rule="evenodd" class="s0" d="m97.8 10.2c0-0.2 0.2-0.3 0.4-0.3 0.2 0 0.4 0.1 0.4 0.3 0 0.1-0.2 0.2-0.4 0.2-0.2 0-0.4-0.1-0.4-0.2zm0.8-0.1c0-0.1-0.2-0.2-0.4-0.2-0.2 0-0.3 0.1-0.3 0.2 0 0.2 0.1 0.3 0.3 0.3 0.2 0 0.4-0.1 0.4-0.3zm-0.4 0.2c-0.2 0-0.3 0-0.3-0.1 0-0.2 0.1-0.2 0.3-0.2 0.2 0 0.3 0 0.3 0.2 0 0.1-0.1 0.1-0.3 0.1zm0 0c0.2 0 0.2-0.1 0.2-0.1 0-0.1 0-0.2-0.2-0.2-0.1 0-0.2 0.1-0.2 0.2 0 0 0.1 0.1 0.2 0.1z"/>
		</g>
		<g id="Layer">
			<path id="Layer" fill-rule="evenodd" class="s0" d="m98.1 20.4c-0.9 0-1.7-0.8-1.7-1.7 0-1 0.8-1.8 1.7-1.8 1 0 1.8 0.8 1.8 1.8 0 0.9-0.8 1.7-1.8 1.7zm1.7-1.8c0-0.9-0.8-1.6-1.7-1.6-0.9 0-1.6 0.7-1.6 1.6 0 0.9 0.7 1.7 1.6 1.7 0.9 0 1.7-0.8 1.7-1.7z"/>
			<path id="Layer" fill-rule="evenodd" class="s0" d="m98.1 20.4c-1 0-1.8-0.8-1.8-1.8 0-0.9 0.8-1.7 1.8-1.7 1 0 1.8 0.8 1.8 1.7 0 1-0.8 1.8-1.8 1.8zm1.6-1.8c0-0.8-0.7-1.5-1.6-1.5-0.9 0-1.6 0.7-1.6 1.5 0 0.9 0.7 1.6 1.6 1.6 0.9 0 1.6-0.7 1.6-1.6zm-3.2 0.1h-0.1z"/>
		</g>
		<g id="Layer">
			<path id="Layer" fill-rule="evenodd" class="s0" d="m97.8 18.3c0-0.1 0.1-0.1 0.2-0.1 0.1 0 0.2 0 0.2 0.1 0 0.1-0.1 0.2-0.2 0.2-0.1 0-0.2-0.1-0.2-0.2zm0.1 0c0 0 0.1 0.1 0.1 0.1 0.1 0 0.1-0.1 0.1-0.1 0 0 0 0-0.1 0 0 0-0.1 0-0.1 0z"/>
			<path id="Layer" fill-rule="evenodd" class="s0" d="m97.8 18.3c0-0.1 0.1-0.2 0.2-0.2 0.1 0 0.3 0.1 0.3 0.2 0 0.1-0.2 0.2-0.3 0.2-0.1 0-0.2-0.1-0.2-0.2zm0.2 0.2c0.1 0 0.2-0.1 0.2-0.2 0-0.1-0.1-0.1-0.2-0.1-0.1 0-0.2 0-0.2 0.1 0 0.1 0.1 0.2 0.2 0.2zm-0.1-0.2q0-0.1 0.1-0.1 0.2 0.1 0.2 0.1 0 0.1-0.2 0.1-0.1 0-0.1-0.1zm0.1 0.1c0.1 0 0.1-0.1 0.1-0.1 0 0 0 0-0.1 0 0 0-0.1 0-0.1 0 0 0 0.1 0.1 0.1 0.1z"/>
		</g>
		<g id="Layer">
			<path id="Layer" fill-rule="evenodd" class="s0" d="m98.3 18.6c0-0.1 0.1-0.1 0.2-0.1 0.1 0 0.2 0 0.2 0.1 0 0.1-0.1 0.2-0.2 0.2-0.1 0-0.2-0.1-0.2-0.2zm0.1 0c0 0 0 0.1 0.1 0.1 0.1 0 0.1 0 0.1-0.1 0 0 0 0-0.1 0-0.1 0-0.1 0-0.1 0z"/>
			<path id="Layer" fill-rule="evenodd" class="s0" d="m98.5 18.8c-0.1 0-0.2 0-0.2-0.2 0-0.1 0.1-0.1 0.2-0.1 0.1 0 0.2 0 0.2 0.1 0 0.2-0.1 0.2-0.2 0.2q0 0 0 0zm0 0c0.1 0 0.2-0.1 0.2-0.2 0-0.1-0.1-0.1-0.2-0.1-0.1 0-0.2 0-0.2 0.1 0 0.1 0.1 0.2 0.2 0.2zm-0.1-0.2q0 0 0.1 0 0.1 0 0.1 0 0 0.1-0.1 0.1-0.1 0-0.1-0.1zm0.1 0.1c0.1 0 0.1-0.1 0.1-0.1 0 0 0 0-0.1 0q-0.1 0-0.1 0c0 0 0 0.1 0.1 0.1z"/>
		</g>
		<g id="Layer">
			<path id="Layer" fill-rule="evenodd" class="s0" d="m97.5 18.7c0-0.1 0.1-0.1 0.2-0.1 0.1 0 0.2 0 0.2 0.1 0 0.1-0.1 0.2-0.2 0.2-0.1 0-0.2-0.1-0.2-0.2zm0.1 0c0 0 0 0.1 0.1 0.1 0.1 0 0.1-0.1 0.1-0.1 0 0 0 0-0.1 0-0.1 0-0.1 0-0.1 0z"/>
			<path id="Layer" fill-rule="evenodd" class="s0" d="m97.5 18.7c0-0.1 0.1-0.2 0.2-0.2 0.1 0 0.2 0.1 0.2 0.2 0 0.1-0.1 0.2-0.2 0.2-0.1 0-0.2-0.1-0.2-0.2zm0.2 0.2c0.1 0 0.2-0.1 0.2-0.2 0-0.1-0.1-0.1-0.2-0.1-0.1 0-0.2 0-0.2 0.1 0 0.1 0.1 0.2 0.2 0.2zm-0.1-0.2q0 0 0.1-0.1 0.1 0.1 0.1 0.1 0 0.1-0.1 0.1-0.1 0-0.1-0.1zm0.2 0q0 0 0 0c0 0 0 0-0.1 0q-0.1 0-0.1 0c0 0 0 0.1 0.1 0.1q0.1 0 0.1-0.1z"/>
		</g>
		<g id="Layer">
			<path id="Layer" fill-rule="evenodd" class="s0" d="m98 19c0-0.1 0.1-0.1 0.2-0.1 0.1 0 0.2 0 0.2 0.1 0 0.2-0.1 0.2-0.2 0.2-0.1 0-0.2 0-0.2-0.2zm0.1 0c0 0.1 0 0.1 0.1 0.1 0 0 0.1 0 0.1-0.1 0 0-0.1 0-0.1 0-0.1 0-0.1 0-0.1 0z"/>
			<path id="Layer" fill-rule="evenodd" class="s0" d="m97.9 19c0-0.1 0.2-0.1 0.3-0.1 0.1 0 0.2 0 0.2 0.1 0 0.2-0.1 0.2-0.2 0.2-0.1 0-0.3 0-0.3-0.2zm0.3 0.2c0.1 0 0.2-0.1 0.2-0.2 0 0-0.1-0.1-0.2-0.1-0.1 0-0.2 0.1-0.2 0.1 0 0.1 0.1 0.2 0.2 0.2zm-0.2-0.2q0 0 0.2 0 0.1 0 0.1 0 0 0.1-0.1 0.1-0.2 0-0.2-0.1zm0.2 0.1c0 0 0.1-0.1 0.1-0.1 0 0-0.1 0-0.1 0-0.1 0-0.1 0-0.1 0 0 0 0 0.1 0.1 0.1z"/>
		</g>
		<g id="Layer">
			<g id="Layer">
				<path id="Layer" class="s0" d="m92 12.2c-0.5-0.1-2.6-1.2-3.6-1.8-1.1-0.6-2.8-1.7-2.9-1.9 0.1-0.2 0.2-0.5 0.4-0.5q0 0 0 0c0.2 0 1.9 0.8 3 1.4 1 0.6 3.2 1.7 3.5 2.1 0.2 0.1 2.7 1.6 5.7 3.3l-0.1 0.1c-3-1.8-5.5-3.2-5.7-3.3-0.3-0.4-2.5-1.5-3.5-2.1-1-0.6-2.8-1.4-2.9-1.4-0.1 0-0.2 0.2-0.3 0.4 0.2 0.2 1.8 1.3 2.8 1.8 1.1 0.6 3.2 1.7 3.6 1.8 0.3 0.1 2.6 1.4 5.5 3v0.1c-2.9-1.6-5.3-2.9-5.5-3z"/>
				<path id="Layer" fill-rule="evenodd" class="s0" d="m97.5 15.2c-2.9-1.6-5.2-2.8-5.5-3-0.5 0-2.6-1.2-3.7-1.8-1-0.5-2.7-1.7-2.8-1.8v-0.1c0-0.2 0.2-0.5 0.4-0.6q0 0 0 0 0 0 0 0c0.3 0.1 2 0.9 3 1.5 1 0.6 3.2 1.7 3.5 2.1 0.3 0.1 2.7 1.5 5.7 3.2q0.1 0.1 0 0.1v0.1q0 0 0 0-0.1 0-0.1 0c-3-1.7-5.5-3.1-5.7-3.3h-0.1c-0.2-0.3-2.4-1.5-3.4-2.1-1-0.5-2.8-1.3-2.9-1.4q0 0 0 0 0 0 0 0 0 0 0 0.1-0.1 0-0.1 0.1-0.1 0.1-0.1 0.2c0.3 0.2 1.8 1.2 2.7 1.8 1.1 0.5 3.2 1.7 3.6 1.7h0.1c0.2 0.2 2.5 1.4 5.5 3.1q0 0 0 0 0 0 0 0l-0.1 0.1q0 0 0 0 0 0 0 0 0 0 0 0zm-5.5-3v-0.1zm-6.4-3.6q0 0 0 0 0 0 0 0 0 0 0 0zm0.1-0.4q0 0 0.1 0-0.1 0-0.1 0zm0.3 0q0 0 0 0 0 0 0 0z"/>
			</g>
			<g id="Layer">
				<path id="Layer" fill-rule="evenodd" class="s0" d="m98.6 15.2q-0.3-0.2-0.6-0.3v-0.1c3.1-1.7 5.5-3.2 5.8-3.3 0.2-0.4 2.4-1.5 3.5-2.1 1-0.6 2.7-1.4 2.9-1.4q0 0 0 0 0 0 0 0c0.2 0 0.3 0.3 0.4 0.5-0.1 0.2-1.8 1.3-2.8 1.9-1.1 0.6-3.2 1.7-3.7 1.8-0.2 0.1-2.6 1.4-5.5 3zm0-0.1c2.9-1.6 5.3-2.9 5.5-3 0.5 0 2.6-1.2 3.6-1.8 1-0.5 2.6-1.6 2.8-1.8 0-0.1-0.2-0.4-0.3-0.4q0 0 0 0c-0.1 0-1.8 0.8-2.9 1.4-1 0.6-3.2 1.8-3.5 2.1-0.2 0.1-2.6 1.5-5.6 3.2q0.2 0.2 0.4 0.3z"/>
				<path id="Layer" fill-rule="evenodd" class="s0" d="m98.6 15.2q-0.3-0.1-0.6-0.3h-0.1q0 0 0-0.1 0 0 0 0l0.1-0.1c3-1.7 5.5-3.1 5.7-3.2 0.4-0.4 2.5-1.5 3.5-2.1 1.1-0.6 2.7-1.4 3-1.5q0 0 0 0 0 0 0 0c0.3 0.1 0.4 0.4 0.4 0.6v0.1c-0.1 0.1-1.8 1.3-2.8 1.8-1.1 0.6-3.1 1.7-3.7 1.8-0.3 0.2-2.6 1.5-5.4 3h-0.1q0 0.1 0 0.1 0 0 0-0.1zm0-0.1q0 0 0 0 0 0 0 0 0 0 0 0zm0-0.1c2.9-1.6 5.2-2.8 5.5-3q0 0 0 0 0 0 0 0c0.4 0 2.5-1.2 3.6-1.7 0.9-0.6 2.5-1.6 2.7-1.8 0-0.1-0.1-0.3-0.2-0.4q0 0 0 0 0 0 0 0 0 0 0 0c-0.1 0.1-1.9 0.9-2.9 1.4-1 0.6-3.2 1.8-3.4 2.1-0.3 0.2-2.7 1.5-5.6 3.2q0.1 0.1 0.3 0.2zm-0.5-0.1q0 0 0-0.1 0 0 0 0 0 0 0 0 0 0 0 0.1zm0.5 0.3zm0-0.1v-0.1zm12-6.6q0 0 0 0 0 0 0 0 0 0 0 0z"/>
			</g>
			<g id="Layer">
				<g id="Layer">
					<path id="Layer" class="s0" d="m86 22c0 0 6.8-3.7 12.1-6.6h0.1l-0.1 0.1c-2.6 1.4-5.7 3.1-8 4.4-2.4 1.3-4 2.2-4.1 2.2l-0.6 0.1 0.4-0.4h0.1v-0.1c0 0 6.4-3.6 11.6-6.6q0.1 0 0.1 0c-5.2 3-11.7 6.7-11.7 6.7l-0.3 0.3z"/>
					<path id="Layer" class="s0" d="m85.4 22.2q0 0 0 0l0.4-0.5q0 0 0 0 0 0 0 0c0 0 6.5-3.7 11.7-6.6v-0.1q0 0 0 0l0.1 0.1q0 0 0 0 0 0 0 0 0 0 0 0.1c-5.1 2.9-11.5 6.5-11.7 6.6l-0.2 0.2h0.3c0.2-0.1 6.9-3.8 12.1-6.6q0-0.1 0 0h0.1q0 0 0 0 0 0.1 0 0.1h-0.1c-2.6 1.5-5.6 3.1-8 4.4-2.3 1.3-4 2.2-4.1 2.2l-0.6 0.2q0 0 0 0 0 0 0-0.1z"/>
				</g>
				<g id="Layer">
					<path id="Layer" class="s0" d="m85.9 21.8c0 0 6.5-3.7 11.7-6.7q0.2 0.1 0.4 0.2l-0.1 0.1q-0.2-0.1-0.4-0.2c-5 2.9-11.3 6.5-11.6 6.6l-0.2 0.2-0.1 0.1z"/>
					<path id="Layer" class="s0" d="m85.5 22.2q0-0.1 0-0.1l0.3-0.3 0.1-0.1c0 0 1.6-0.9 3.9-2.2 2.2-1.3 5.2-3 7.7-4.4q0.1 0 0.1 0 0.2 0.1 0.4 0.2 0.1 0 0.1 0 0 0.1-0.1 0.1l-0.1 0.1q0 0 0 0-0.2-0.1-0.4-0.2c-5 2.8-11.2 6.4-11.6 6.6l-0.1 0.2q0 0 0 0l-0.2 0.1v-0.1 0.1q0 0 0 0 0 0-0.1 0z"/>
				</g>
				<g id="Layer">
					<path id="Layer" class="s0" d="m98.1 15.4c-5.3 2.9-12.1 6.6-12.1 6.6l-0.4 0.1 0.1-0.1h0.3c0 0 6.7-3.7 12-6.6q-0.1 0-0.1 0l0.1-0.1q0 0.1 0.1 0.1z"/>
					<path id="Layer" fill-rule="evenodd" class="s0" d="m85.5 22.1q0 0 0.1 0l0.1-0.1 0.3-0.1c0.2-0.1 6.7-3.7 11.9-6.5q-0.1 0-0.1 0 0 0 0.1 0l0.1-0.1q0 0 0 0 0.1 0 0.1 0v0.1q0.1 0 0.1 0 0 0-0.1 0c-3.9 2.2-8.7 4.9-10.9 6.1-0.7 0.3-1.2 0.6-1.2 0.6l-0.4 0.1q0 0 0 0 0 0-0.1-0.1zm12.5-6.7q0 0 0 0 0 0 0 0 0 0 0 0zm0 0v-0.1z"/>
				</g>
			</g>
			<g id="Layer">
				<path id="Layer" class="s0" d="m97.5 15.2v-0.1q0.3 0.1 0.6 0.3l-0.1 0.1q-0.2-0.2-0.5-0.3z"/>
				<path id="Layer" class="s0" d="m98 15.5q-0.3-0.1-0.5-0.3-0.1 0-0.1 0 0.1 0 0.1 0v-0.1q0 0 0-0.1 0.1 0 0.1 0 0.2 0.2 0.5 0.3 0 0.1 0 0.1 0 0 0 0v0.1q0 0-0.1 0 0 0 0 0z"/>
			</g>
			<g id="Layer">
				<path id="Layer" class="s0" d="m98 14.9l0.1-0.1q0.3 0.1 0.5 0.3v0.1q-0.3-0.2-0.6-0.3z"/>
				<path id="Layer" class="s0" d="m98.6 15.2q-0.3-0.1-0.6-0.3h0.1-0.1q0 0 0 0v-0.1q0.1-0.1 0.1-0.1 0.3 0.2 0.6 0.4 0 0 0 0l-0.1 0.1q0 0 0 0 0 0 0 0 0 0 0 0z"/>
			</g>
			<g id="Layer">
				<path id="Layer" class="s0" d="m110.1 22.1c0 0-6.8-3.7-12.1-6.6l0.1-0.1c5.2 2.9 12 6.6 12 6.6h0.3l-0.2-0.2c0 0-6.5-3.7-11.6-6.6v-0.1c5.2 2.9 11.7 6.6 11.7 6.7l0.4 0.4z"/>
				<path id="Layer" fill-rule="evenodd" class="s0" d="m110.7 22.3l-0.6-0.2c0 0-6.8-3.7-12.1-6.6q0 0 0 0v-0.1q0.1-0.1 0.1-0.1 0 0 0 0c5.1 2.8 11.6 6.4 12 6.6l0.2 0.1-0.1-0.1c-0.3-0.2-6.6-3.8-11.6-6.7q-0.1 0-0.1 0l0.1-0.1q0 0 0-0.1 0 0 0.1 0c5.1 3 11.6 6.7 11.6 6.7l0.4 0.5q0 0 0 0 0 0.1 0 0.1 0 0 0 0zm-0.2-0.2v-0.1q0 0.1-0.1 0.1 0 0 0 0zm-0.4-0.1q0 0 0 0 0 0 0 0zm0 0q0 0 0 0 0 0 0 0zm0-0.1q0 0 0 0 0 0 0 0z"/>
			</g>
		</g>
		<g id="Layer">
			<path id="Layer" fill-rule="evenodd" class="s0" d="m94.6 33.7c0-0.5 0.6-0.9 1.4-1.1h0.1q0 0.2 0 0.3c0.2 0.3 0.6 0.7 1.9 0.7 1.3 0 2-0.4 2.1-0.7q0 0 0-0.3h0.1c0.8 0.2 1.3 0.6 1.3 1.1 0 0.8-1.6 1.4-3.5 1.4-1.8 0-3.4-0.6-3.4-1.4zm0.1 0c0 0.3 0.3 0.7 1 0.9 0.6 0.3 1.4 0.4 2.3 0.4 1 0 1.8-0.1 2.4-0.4 0.6-0.2 1-0.6 1-0.9 0-0.4-0.5-0.7-1.2-1q0 0.2 0 0.3c-0.1 0.3-0.9 0.7-2.2 0.7-1.3 0-1.8-0.4-2-0.8q0 0 0-0.2c-0.8 0.2-1.3 0.6-1.3 1zm5.4-1v-0.1z"/>
			<path id="Layer" fill-rule="evenodd" class="s0" d="m94.5 33.7h0.1-0.1c0-0.5 0.6-0.9 1.5-1.2q0.1 0 0.1 0 0 0 0 0.1 0 0.2 0 0.3c0.2 0.3 0.6 0.6 1.9 0.7q0 0 0 0c1.3 0 2-0.5 2-0.7 0 0 0-0.1 0-0.3q0-0.1 0.1-0.1 0 0 0 0h0.1c0.8 0.3 1.3 0.7 1.3 1.2 0 0.9-1.6 1.5-3.5 1.5-1.9 0-3.4-0.6-3.5-1.5zm0.2 0c0 0.3 0.4 0.6 1 0.9 0.6 0.2 1.4 0.4 2.3 0.4 1 0 1.8-0.2 2.4-0.4 0.6-0.3 0.9-0.6 0.9-0.9q0 0 0 0 0 0 0 0c0-0.3-0.4-0.7-1.1-0.9q0 0.1 0 0.2c-0.1 0.4-0.9 0.7-2.2 0.8q0 0 0 0c-1.3 0-1.9-0.5-2.1-0.8v-0.1q0 0 0-0.1c-0.7 0.2-1.2 0.6-1.2 0.9zm1.2-1.1q0.1 0.1 0.1 0.1 0-0.1 0-0.1-0.1 0-0.1 0 0 0 0 0z"/>
		</g>
		<g id="Layer">
			<path id="Layer" class="s0" d="m96.1 28.4c0-0.1 0.1-0.4 0.1-0.4v-0.1c0.2-0.3 1-0.4 1.7-0.4q0.1-0.1 0.1 0c0.8 0 1.7 0.1 1.8 0.4q0.2 0.4 0.2 0.4h-0.1q0 0.1-0.2-0.3c0-0.2-1-0.4-1.7-0.4q0 0-0.1 0c-0.7-0.1-1.4 0.1-1.6 0.4 0 0-0.1 0.4-0.1 0.4z"/>
			<path id="Layer" fill-rule="evenodd" class="s0" d="m96.1 28.5q0 0 0-0.1c0-0.1 0-0.4 0-0.5v0.1-0.1c0.3-0.4 1.1-0.5 1.8-0.5q0.1 0 0.1 0c0.8 0 1.7 0.2 1.9 0.5q0.1 0.4 0.1 0.4 0 0 0 0 0 0.1 0 0.1h-0.1q0 0-0.1 0 0 0 0 0c0 0 0-0.1-0.1-0.4 0-0.1-0.3-0.2-0.6-0.3-0.3 0-0.7-0.1-1.1-0.1q0 0-0.1 0 0 0 0 0c-0.7 0-1.4 0.2-1.6 0.4 0 0.1 0 0.4 0 0.4q0 0-0.1 0.1 0 0 0 0zm3.2-0.8q0 0-0.1 0 0.1 0 0.1 0zm-3.1 0.3q0 0 0 0 0 0 0 0z"/>
		</g>
		<g id="Layer">
			<path id="Layer" fill-rule="evenodd" class="s0" d="m96.5 28q0 0 0 0c0.1-0.3 0.7-0.5 1.6-0.5 0.8 0 1.4 0.2 1.4 0.5 0 0.4-0.7 0.5-1.5 0.5-0.8 0-1.4-0.1-1.5-0.5zm0.5 0.3c0.3 0.1 0.6 0.1 1 0.1 0.4 0 0.8 0 1-0.1 0.3-0.1 0.4-0.2 0.4-0.3q0 0 0 0c0-0.1-0.1-0.2-0.3-0.3-0.3 0-0.6-0.1-1-0.1-0.4 0-0.8 0.1-1.1 0.1-0.2 0.1-0.4 0.2-0.4 0.3q0 0 0 0c0 0.1 0.2 0.2 0.4 0.3z"/>
			<path id="Layer" fill-rule="evenodd" class="s0" d="m96.5 28q0 0 0 0 0 0 0 0c0.1-0.4 0.8-0.5 1.6-0.5 0.8 0 1.4 0.1 1.5 0.5q0 0 0 0 0 0 0 0c-0.1 0.4-0.8 0.6-1.6 0.6-0.8 0-1.5-0.2-1.5-0.6zm1.5 0.4c0.4 0 0.8-0.1 1-0.2 0.3 0 0.4-0.2 0.4-0.2q0 0 0 0 0 0 0 0c0 0-0.1-0.1-0.4-0.2-0.2-0.1-0.6-0.1-0.9-0.1-0.4 0-0.8 0-1 0.1-0.3 0.1-0.4 0.2-0.4 0.2q0 0 0 0 0 0 0 0c0 0.1 0.1 0.2 0.3 0.2v0.1-0.1c0.3 0.1 0.6 0.2 1 0.2z"/>
		</g>
		<g id="Layer">
			<path id="Layer" fill-rule="evenodd" class="s0" d="m77.7 21q-0.1 0-0.1-0.1c0-0.1 0.1-0.3 0.7-0.7 0.8-0.6 4.8-1.9 7.2-2.9 1.7-0.6 2.6-1.2 3.3-1.8-0.4-0.7-3.4-2.6-3.9-3-0.5-0.4-4.3-3.3-4.6-3.6-0.3-0.3-0.9-1.1-1.3-1.9q-0.2-0.3-0.2-0.6c0-0.8 0.4-1.7 0.9-1.7 0.1 0 1.2 1.4 1.7 1.8 0.5 0.4 2.8 2.1 3.3 2.4 0.4 0.3 3.9 2.9 4.3 3.4 0.3 0.3 0.8 1 0.8 1.7q0.1 0.4-0.2 0.8-0.3 0.3-0.7 0.7 0 0 0 0l0.3 2.8h-0.1l-0.3-2.7c-0.7 0.6-1.6 1.2-3.2 1.8-2.4 1-6.5 2.3-7.2 2.9-0.6 0.4-0.7 0.6-0.7 0.6v0.1c0.1 0.9 0.2 2.6 0.3 2.9l-0.1 0.1c-0.1-0.4-0.2-2-0.2-3zm1.5-15.7c-0.2 0.3-0.3 0.7-0.3 1.1q0 0.3 0.2 0.6c0.4 0.8 1 1.5 1.3 1.8 0.3 0.3 4 3.2 4.6 3.6 0.5 0.4 3.3 2.2 3.8 3q0.4-0.4 0.7-0.7 0.3-0.3 0.2-0.7c0-0.6-0.4-1.3-0.7-1.7-0.4-0.4-3.9-3-4.4-3.3-0.4-0.3-2.7-2-3.2-2.4-0.5-0.4-1.6-1.7-1.7-1.8-0.2 0-0.4 0.2-0.5 0.5z"/>
			<path id="Layer" fill-rule="evenodd" class="s0" d="m77.9 24q0 0 0 0c-0.1-0.4-0.2-2-0.3-3q0 0 0-0.1 0 0 0 0c0-0.1 0.1-0.3 0.7-0.8 0.8-0.6 4.8-1.9 7.2-2.8 1.7-0.6 2.6-1.2 3.2-1.8-0.5-0.7-3.3-2.6-3.8-3-0.6-0.4-4.3-3.3-4.6-3.6-0.3-0.3-1-1-1.4-1.8q-0.1-0.4-0.1-0.7c0-0.9 0.4-1.8 0.9-1.8h0.1c0 0 1.1 1.5 1.6 1.9 0.6 0.4 2.9 2.1 3.3 2.4 0.5 0.3 4 2.9 4.4 3.3 0.3 0.4 0.8 1.1 0.8 1.8q0 0.4-0.3 0.8-0.3 0.3-0.7 0.7 0 0 0 0l0.4 2.8q0 0 0 0 0 0.1-0.1 0.1h-0.1q0 0 0 0 0-0.1 0-0.1l-0.4-2.6c-0.6 0.6-1.5 1.2-3.1 1.8-2.4 0.9-6.5 2.2-7.2 2.8-0.5 0.4-0.6 0.6-0.6 0.6v0.1c0.1 0.9 0.2 2.6 0.3 2.9q0 0 0 0 0 0.1 0 0.1h-0.1q-0.1 0-0.1 0 0 0 0 0zm10.9-8.5q0 0 0 0.1 0-0.1 0-0.1 0 0 0 0 0 0 0 0 0 0 0 0 0 0 0 0 0 0 0 0 0 0 0 0 0 0 0 0 0 0 0 0zm-9.8-9.1q0 0.3 0.1 0.6c0.4 0.8 1 1.5 1.3 1.8 0.3 0.3 4.1 3.1 4.6 3.5 0.5 0.4 3.2 2.2 3.8 3q0.4-0.3 0.6-0.6 0.3-0.3 0.3-0.7c0-0.6-0.5-1.3-0.8-1.6-0.3-0.4-3.9-3.1-4.3-3.3-0.5-0.3-2.8-2.1-3.3-2.5-0.5-0.3-1.4-1.5-1.6-1.8-0.2 0-0.3 0.2-0.5 0.5-0.1 0.3-0.2 0.7-0.2 1.1zm0.7-1.7q0 0 0 0 0 0 0 0zm-2 16.3h-0.1 0.1z"/>
		</g>
		<g id="Layer">
			<path id="Layer" class="s0" d="m80.5 25c-1-0.1-1.2-0.2-2.4-0.8q-0.2 0-0.2-0.2c0.1-0.4 1.7-1.2 3.6-2 1.9-0.7 4-1.5 4.9-1.8 1.8-0.8 2.7-2 2.9-2.3 0.1-0.1 0.2-1.1 0.3-2 0.1-0.9 0.1-1.7 0.1-1.7h0.1c0 0-0.2 3.4-0.4 3.7-0.2 0.3-1.1 1.6-3 2.4-0.9 0.3-3 1.1-4.9 1.8-1.8 0.8-3.5 1.6-3.5 1.9q0 0.1 0.1 0.1c1.2 0.6 1.4 0.7 2.4 0.8 0.9 0.1 2.7 0.2 2.7 0.2v0.1c0 0-1.8-0.1-2.7-0.2z"/>
			<path id="Layer" fill-rule="evenodd" class="s0" d="m80.4 25c-0.9-0.1-1.1-0.1-2.3-0.7q-0.2-0.1-0.2-0.3 0 0 0 0c0-0.5 1.7-1.2 3.6-2 1.9-0.8 4-1.5 4.8-1.9 1.9-0.7 2.7-2 3-2.3 0 0 0.1-0.3 0.1-0.6 0.1-0.4 0.1-0.8 0.1-1.3 0.1-0.9 0.2-1.7 0.2-1.7q0-0.1 0-0.1 0 0 0 0 0 0 0 0h0.1q0 0 0.1 0 0 0 0 0.1 0 0 0 0 0 0 0 0 0 0 0 0 0 0 0 0.1-0.1 0.2-0.1 0.4c0 0.3 0 0.8-0.1 1.2 0 0.9-0.1 1.9-0.3 2.1-0.2 0.3-1.1 1.5-3 2.3-0.9 0.4-3 1.1-4.8 1.9-1 0.3-1.8 0.7-2.5 1.1-0.6 0.3-1 0.6-1 0.7q0 0 0 0c0 0 0 0.1 0.1 0.1 1.2 0.6 1.4 0.6 2.3 0.7 0.9 0.2 2.7 0.3 2.7 0.3q0 0 0 0 0 0 0 0v0.1q0 0.1 0 0.1c-0.1 0-1.8-0.1-2.8-0.3zm-1.8-1.5q0.2-0.1 0.4-0.3-0.2 0.1-0.4 0.3z"/>
		</g>
		<g id="Layer">
			<path id="Layer" class="s0" d="m78.2 28.2q0 0 0-0.1c0-0.3 0.8-1 1.3-1.2 0.5-0.3 3.8-1.7 4.5-1.9 0.3-0.2 1.3-0.4 2.2-0.7 0.9-0.3 1.7-0.6 1.7-0.7q0-0.1 0-0.1c0 0-0.1-0.1-0.3-0.1q-0.3-0.1-0.7-0.1c-0.6-0.1-1.2-0.1-1.5-0.1-0.3-0.1-2.6-0.4-3.8-0.6-0.5 0-0.8-0.1-0.8-0.1v-0.1c0 0 0.3 0.1 0.8 0.1 1.2 0.2 3.5 0.5 3.9 0.5 0.2 0.1 0.8 0.1 1.4 0.2 0.5 0 1 0.1 1.1 0.3q0 0.1 0 0.1c-0.1 0.2-0.9 0.5-1.8 0.8-0.9 0.3-1.8 0.5-2.2 0.6-0.7 0.3-3.9 1.7-4.4 1.9-0.5 0.3-1.3 1-1.3 1.2q0 0.1 0 0.1c0.1 0.2 0.7 3 0.7 3h-0.1c0 0-0.6-2.8-0.7-3z"/>
			<path id="Layer" fill-rule="evenodd" class="s0" d="m78.8 31.2c0 0-0.6-2.8-0.6-3q0 0 0-0.1c0-0.3 0.8-1 1.3-1.3 0.5-0.2 3.8-1.7 4.5-1.9 0.3-0.1 1.3-0.4 2.2-0.7 0.8-0.2 1.5-0.6 1.6-0.7q0 0 0 0 0 0 0 0-0.1 0-0.2-0.1-0.3 0-0.7-0.1c-0.6 0-1.2-0.1-1.5-0.1-0.3 0-2.6-0.4-3.8-0.5-0.4-0.1-0.7-0.1-0.8-0.1q0 0 0 0 0 0 0-0.1-0.1 0-0.1 0 0 0 0 0l0.1-0.1q0 0 0 0c0 0 0.3 0 0.8 0.1 1.2 0.1 3.5 0.5 3.9 0.5 0.2 0 0.8 0 1.4 0.1 0.5 0.1 1 0.1 1.1 0.4q0 0.1 0 0.1c-0.1 0.3-0.9 0.5-1.8 0.8-0.9 0.3-1.8 0.6-2.2 0.7-0.6 0.2-3.9 1.7-4.4 1.9-0.5 0.2-1.2 1-1.2 1.1q0 0 0 0c0 0.3 0.6 3 0.6 3.1q0 0 0 0h-0.1q0 0 0 0-0.1 0-0.1 0zm-0.6-3h0.1q0 0 0 0zm9.1-4.3q0.2-0.1 0.4-0.2-0.2 0.1-0.4 0.2z"/>
		</g>
		<g id="Layer">
			<path id="Layer" class="s0" d="m79.3 31.3q-0.5 0-0.5-0.2c0-0.5 1.1-1.3 1.5-1.4 0.4-0.2 4.4-1.7 5.1-1.9 0.7-0.3 2.6-1 2.8-1.2 0 0 0.1-0.1 0.1-0.2 0-0.8-0.4-2.8-0.4-2.8l0.1-0.1c0 0 0.4 2.1 0.4 2.9 0 0.1 0 0.2-0.1 0.3-0.3 0.2-2.2 0.9-2.9 1.2-0.7 0.2-4.6 1.7-5.1 1.9-0.3 0.1-1.5 0.9-1.4 1.3 0 0.1 0 0.1 0.3 0.1h1.3v0.1h-1.2z"/>
			<path id="Layer" class="s0" d="m79.3 31.4v-0.1 0.1c-0.4 0-0.6-0.1-0.6-0.3 0.1-0.6 1.2-1.3 1.5-1.5 0.5-0.1 4.5-1.6 5.2-1.9 0.6-0.2 2.6-0.9 2.8-1.1q0 0 0 0 0-0.1 0-0.2 0 0 0 0 0 0 0 0c0-0.8-0.4-2.7-0.4-2.8q0 0 0-0.1 0 0 0.1 0h0.1q0 0 0 0 0 0 0 0 0 0.1 0 0.1 0 0 0 0 0.1 0.1 0.1 0.3 0 0.3 0.1 0.8c0.1 0.6 0.2 1.3 0.2 1.7 0 0.1 0 0.3-0.1 0.4-0.2 0.2-2.2 0.9-2.9 1.1-0.7 0.3-4.6 1.8-5.1 1.9-0.3 0.1-1.4 1-1.4 1.3q0 0 0 0c0 0 0 0.1 0.4 0.1h1.2q0 0 0.1 0 0 0 0 0v0.1q0 0.1 0 0.1-0.1 0-0.1 0h-1.2z"/>
		</g>
		<g id="Layer">
			<path id="Layer" class="s0" d="m84.5 31.2c0.1-0.2 1.2-1 2.3-1.4l-1-2 0.1-0.1 1.1 2.2h-0.1c-1.1 0.3-2.3 1.2-2.3 1.3z"/>
			<path id="Layer" fill-rule="evenodd" class="s0" d="m84.6 31.3h-0.1q-0.1 0-0.1-0.1 0 0 0 0c0.1-0.3 1.2-1 2.3-1.4l-0.9-2q-0.1 0 0-0.1h0.1q0 0 0 0 0 0 0 0l1.1 2.2q0 0 0 0 0 0 0 0h-0.1c-1 0.3-2.1 1.2-2.3 1.3q0 0.1 0 0.1 0 0 0 0 0 0 0 0 0 0 0 0zm2.3-1.5q0 0-0.1 0.1 0.1-0.1 0.1-0.1 0 0 0 0z"/>
		</g>
		<g id="Layer">
			<path id="Layer" fill-rule="evenodd" class="s0" d="m80.4 31.5c0.4-0.4 2.7-2.9 2.7-2.9v0.1c0 0-2.2 2.4-2.7 2.9z"/>
			<path id="Layer" class="s0" d="m80.4 31.6q0 0 0 0l-0.1-0.1h0.1-0.1q0 0 0 0 0 0 0-0.1c0.5-0.4 2.7-2.8 2.7-2.8q0.1-0.1 0.1 0h0.1q0 0 0 0.1 0 0 0 0 0 0-0.1 0 0 0.1 0 0.1-0.1 0.1-0.3 0.3c-0.2 0.2-0.5 0.6-0.8 0.9-0.6 0.7-1.3 1.4-1.5 1.6q0 0-0.1 0z"/>
		</g>
		<g id="Layer">
			<path id="Layer" class="s0" d="m79.6 7.9l0.9-2.1 0.1 0.1-1 2z"/>
			<path id="Layer" class="s0" d="m79.6 7.9h-0.1 0.1-0.1q0 0 0 0 0-0.1 0-0.1l1-2q0 0 0.1 0 0.1 0.1 0.1 0.1l-1 2q0 0 0 0 0 0-0.1 0 0 0 0 0z"/>
		</g>
		<g id="Layer">
			<path id="Layer" class="s0" d="m81.4 9.6l1.3-2-1.2 2.1-0.1-0.1z"/>
			<path id="Layer" class="s0" d="m81.5 9.7h-0.1v-0.1 0.1-0.1 0.1q-0.1 0-0.1-0.1 0 0 0 0l1.3-2.1q0 0 0.1 0l0.1 0.1q0 0 0 0 0 0 0 0l-1.3 2.1q0 0 0 0 0 0 0 0 0 0 0 0z"/>
		</g>
		<g id="Layer">
			<path id="Layer" class="s0" d="m83.8 11.5l1.4-2.1 0.1 0.1-1.4 2h-0.1z"/>
			<path id="Layer" class="s0" d="m83.9 11.6l-0.1-0.1q-0.1 0 0-0.1l1.4-2q0-0.1 0.1 0 0.1 0 0.1 0 0 0.1 0 0.1l-1.5 2.1q0 0 0 0 0 0 0 0 0 0 0 0z"/>
		</g>
		<g id="Layer">
			<path id="Layer" class="s0" d="m86.3 13.3l1.2-2.1 0.1 0.1-1.2 2h-0.1z"/>
			<path id="Layer" class="s0" d="m86.3 13.4l-0.1-0.1h0.1-0.1q0 0 0 0 0 0 0-0.1l1.3-2q0 0 0.1 0v0.1q0.1 0 0.1 0l-1.3 2q0 0.1 0 0.1-0.1 0-0.1 0z"/>
		</g>
		<g id="Layer">
			<path id="Layer" class="s0" d="m86.3 17.1l0.1-0.1 0.9 2.7-0.1 0.1-0.9-2.7z"/>
			<path id="Layer" class="s0" d="m87.1 19.8l-0.8-2.7q0-0.1 0-0.1h0.1q0 0 0.1 0l0.8 2.7q0 0 0 0.1 0 0 0 0h-0.1q0 0 0 0-0.1 0-0.1 0z"/>
		</g>
		<g id="Layer">
			<path id="Layer" class="s0" d="m83.1 18.3l1.1 2.8h-0.1l-1-2.8z"/>
			<path id="Layer" class="s0" d="m84.1 21.1l-1.1-2.8h0.1v0.1-0.1h-0.1q0 0 0 0 0 0 0 0l0.1-0.1q0.1 0 0.1 0.1l1.1 2.7q0 0.1 0 0.1 0 0 0 0h-0.1q0 0-0.1 0 0 0 0 0z"/>
		</g>
		<g id="Layer">
			<path id="Layer" class="s0" d="m80.1 19.4h0.1l0.8 2.8h-0.1l-0.8-2.8z"/>
			<path id="Layer" class="s0" d="m80.9 22.3q0 0 0 0l-0.8-2.9v0.1-0.1q0 0 0 0l0.1-0.1q0.1 0 0.1 0.1l0.8 2.8q0 0.1-0.1 0.1h-0.1q0 0 0 0 0 0 0 0z"/>
		</g>
		<g id="Layer">
			<path id="Layer" class="s0" d="m84.5 24.9h0.1l1 2.8h-0.1l-1-2.8z"/>
			<path id="Layer" class="s0" d="m85.5 27.8q0 0 0-0.1l-1-2.8 0.1 0.1-0.1-0.1q0 0 0 0l0.1-0.1q0.1 0 0.1 0l1 2.9q0 0-0.1 0l-0.1 0.1q0 0 0 0 0 0 0 0z"/>
		</g>
		<g id="Layer">
			<path id="Layer" class="s0" d="m81.4 26.2l0.1-0.1 0.9 2.7-0.1 0.1-0.9-2.7z"/>
			<path id="Layer" class="s0" d="m82.3 28.9l-1-2.7h0.1-0.1q0 0 0-0.1 0 0 0.1 0h0.1q0 0 0 0l0.9 2.7q0.1 0.1 0 0.1 0 0 0 0h-0.1q0 0 0 0 0 0 0 0z"/>
		</g>
		<g id="Layer">
			<path id="Layer" class="s0" d="m87.2 24h0.1l0.6 2.8-0.1 0.1-0.6-2.9z"/>
			<path id="Layer" class="s0" d="m87.8 26.9q0 0 0 0l-0.6-2.9v0.1-0.1q0 0 0 0h0.1q0 0 0.1 0 0 0 0 0l0.6 2.8q0 0 0 0.1-0.1 0-0.1 0h-0.1q0 0 0 0 0 0 0 0z"/>
		</g>
		<g id="Layer">
			<path id="Layer" class="s0" d="m78.9 27.3h0.1l0.7 2.8h-0.1l-0.7-2.8z"/>
			<path id="Layer" class="s0" d="m79.6 30.2q0 0 0 0l-0.8-2.9h0.1v0.1-0.1h-0.1q0 0 0 0l0.1-0.1q0.1 0 0.1 0.1l0.8 2.8q0 0 0 0-0.1 0.1-0.1 0.1h-0.1q0 0 0 0 0 0 0 0z"/>
		</g>
		<g id="Layer">
			<path id="Layer" class="s0" d="m85.1 28l1.8 1.8-0.1 0.1-1.7-1.9z"/>
			<path id="Layer" class="s0" d="m86.8 29.9q0 0 0 0l-1.8-1.8 0.1-0.1v0.1-0.1l-0.1 0.1q0 0 0-0.1 0 0 0 0l0.1-0.1q0 0 0.1 0l1.8 1.9q0 0 0 0 0 0 0 0l-0.1 0.1q0 0-0.1 0z"/>
		</g>
		<g id="Layer">
			<path id="Layer" class="s0" d="m82.5 29.4v-0.1l2.5 1.5-0.1 0.1-2.4-1.5z"/>
			<path id="Layer" class="s0" d="m84.9 30.9l-2.4-1.4v-0.1 0.1-0.1 0.1q0 0-0.1-0.1 0 0 0.1 0v-0.1q0 0 0.1 0l2.4 1.4q0 0 0 0.1 0 0 0 0v0.1q-0.1 0-0.1 0 0 0 0 0z"/>
		</g>
		<g id="Layer">
			<path id="Layer" class="s0" d="m81.2 25l0.4-2.4h0.1l-0.4 2.4h-0.1z"/>
			<path id="Layer" class="s0" d="m81.3 25.1l-0.1-0.1h0.1-0.1q0 0 0 0l0.3-2.4q0-0.1 0.1-0.1h0.1q0 0 0 0.1l-0.3 2.4q0 0-0.1 0 0 0.1 0 0.1 0 0 0 0z"/>
		</g>
		<g id="Layer">
			<path id="Layer" class="s0" d="m84.3 24.8l0.4-1.8h0.1l-0.4 1.8h-0.1z"/>
			<path id="Layer" class="s0" d="m84.4 24.9h-0.1v-0.1h0.1-0.1v0.1q0 0 0-0.1 0 0 0 0l0.3-1.8q0 0 0.1 0h0.1q0 0 0 0 0 0 0 0.1l-0.3 1.7q-0.1 0.1-0.1 0.1 0 0 0 0z"/>
		</g>
		<g id="Layer">
			<path id="Layer" fill-rule="evenodd" class="s0" d="m117.8 23.9c0.1-0.3 0.2-2 0.3-2.9v-0.1c0 0-0.1-0.2-0.7-0.6-0.7-0.6-4.8-1.9-7.2-2.9-1.6-0.6-2.5-1.2-3.2-1.8l-0.3 2.6h-0.1l0.3-2.7q0 0 0 0-0.4-0.4-0.7-0.7-0.2-0.4-0.2-0.8c0-0.7 0.5-1.4 0.8-1.7 0.4-0.5 3.9-3.1 4.3-3.4 0.5-0.3 2.8-2 3.3-2.4 0.5-0.4 1.7-1.8 1.7-1.8 0.5 0 0.9 0.9 0.9 1.7q0 0.3-0.2 0.6c-0.4 0.8-1 1.6-1.3 1.9-0.3 0.3-4.1 3.2-4.6 3.6-0.5 0.4-3.5 2.3-3.9 3 0.7 0.6 1.6 1.2 3.3 1.8 2.4 1 6.4 2.3 7.2 2.9 0.6 0.4 0.7 0.6 0.7 0.7q0 0.1 0 0.1c-0.1 1-0.2 2.6-0.3 3zm-3.3-17.4c-0.6 0.4-2.9 2.2-3.3 2.4-0.5 0.3-4 2.9-4.4 3.4-0.3 0.3-0.7 1-0.7 1.6q0 0.4 0.2 0.7 0.3 0.4 0.7 0.7c0.5-0.8 3.3-2.6 3.8-3 0.6-0.4 4.3-3.3 4.6-3.5 0.3-0.3 0.9-1.1 1.3-1.9q0.2-0.3 0.2-0.6c0-0.4-0.1-0.8-0.3-1.1-0.1-0.3-0.3-0.5-0.5-0.5-0.1 0.2-1.2 1.4-1.6 1.8z"/>
			<path id="Layer" fill-rule="evenodd" class="s0" d="m117.8 24q-0.1 0-0.1 0 0-0.1 0-0.1c0.1-0.3 0.2-2 0.3-2.9v-0.1c0 0 0-0.2-0.6-0.6-0.7-0.6-4.8-1.9-7.2-2.8-1.6-0.6-2.5-1.2-3.1-1.8l-0.3 2.5q-0.1 0.1-0.1 0.1 0 0 0 0h-0.1q0 0 0 0-0.1-0.1-0.1-0.1l0.4-2.7q-0.4-0.3-0.7-0.7-0.3-0.4-0.3-0.8c0-0.7 0.5-1.4 0.8-1.8 0.5-0.4 3.9-3 4.4-3.3 0.5-0.3 2.8-2 3.3-2.4 0.4-0.4 1.5-1.7 1.6-1.9q0 0.1 0 0.1v-0.1h0.1c0.5 0 0.9 0.9 0.9 1.8q0 0.3-0.1 0.7c-0.4 0.8-1.1 1.5-1.4 1.8-0.3 0.3-4 3.2-4.6 3.6-0.5 0.4-3.3 2.3-3.8 3 0.7 0.5 1.6 1.2 3.2 1.8 2.4 0.9 6.4 2.2 7.2 2.8 0.6 0.5 0.7 0.7 0.7 0.8q0 0.1 0 0.1c0 1-0.2 2.6-0.3 3q0 0 0 0 0 0 0 0 0 0-0.1 0zm-1.8-19.4q0 0 0 0 0 0 0 0zm-9 11q0-0.1 0-0.1 0 0 0 0 0 0 0 0 0 0 0 0 0 0 0 0 0 0 0 0 0 0 0 0 0 0 0 0 0 0 0 0zm-0.9-1.5q0 0.3 0.3 0.6 0.2 0.4 0.6 0.7c0.6-0.8 3.3-2.6 3.8-3 0.5-0.4 4.3-3.3 4.6-3.5 0.3-0.3 0.9-1.1 1.3-1.9q0.1-0.2 0.1-0.6c0-0.3-0.1-0.7-0.2-1-0.2-0.3-0.3-0.5-0.5-0.5-0.2 0.2-1.1 1.4-1.6 1.8-0.5 0.4-2.8 2.1-3.3 2.4-0.4 0.3-3.9 2.9-4.3 3.4-0.3 0.3-0.8 1-0.8 1.6zm10-9.3q0 0 0 0 0 0 0 0 0 0 0 0zm-0.1-0.1zm0 0q0 0 0 0z"/>
		</g>
		<g id="Layer">
			<path id="Layer" class="s0" d="m112.5 25.2c0 0 1.9-0.2 2.8-0.3 1-0.1 1.2-0.2 2.4-0.8q0.1 0 0.1-0.1c0-0.3-1.7-1.1-3.5-1.9-1.9-0.7-4-1.5-4.9-1.8-1.9-0.8-2.8-2.1-3-2.4-0.2-0.3-0.4-3.7-0.4-3.7h0.1c0 0 0 0.8 0.1 1.7 0.1 0.9 0.2 1.9 0.3 2 0.2 0.3 1.1 1.5 3 2.3 0.8 0.3 2.9 1.1 4.8 1.8 1.9 0.8 3.5 1.6 3.6 2q0 0.2-0.2 0.2c-1.2 0.6-1.4 0.7-2.3 0.8-1 0.1-2.9 0.3-2.9 0.3z"/>
			<path id="Layer" fill-rule="evenodd" class="s0" d="m112.4 25.3q0 0 0 0v-0.1q0-0.1 0-0.1c0.1 0 2-0.1 2.9-0.3 0.9-0.1 1.1-0.1 2.4-0.7 0 0 0-0.1 0-0.1q0 0 0 0c0-0.1-0.4-0.4-1-0.7-0.6-0.4-1.5-0.7-2.4-1.1-1.9-0.8-4-1.5-4.9-1.9-1.9-0.7-2.8-2-3-2.3-0.2-0.2-0.3-1.1-0.3-2-0.1-0.9-0.2-1.8-0.2-1.8q0 0 0 0 0 0 0.1-0.1 0 0 0 0h0.1q0 0 0 0c0.1 0.1 0.1 0.9 0.2 1.8 0 0.5 0 0.9 0.1 1.3 0 0.3 0.1 0.6 0.1 0.6 0.3 0.3 1.1 1.6 3 2.3 0.8 0.4 2.9 1.1 4.8 1.9 1.9 0.8 3.6 1.5 3.6 2q0 0 0 0 0 0.2-0.2 0.3c-1.2 0.6-1.4 0.6-2.3 0.7-1 0.2-2.9 0.3-2.9 0.3q0 0 0 0 0 0-0.1 0zm4.9-1.8q-0.2-0.1-0.5-0.3 0.3 0.2 0.5 0.3z"/>
		</g>
		<g id="Layer">
			<path id="Layer" class="s0" d="m116.8 31.2c0 0 0.6-2.8 0.7-3q0 0 0-0.1c0-0.2-0.8-0.9-1.3-1.2-0.5-0.2-3.7-1.6-4.4-1.8-0.4-0.2-1.3-0.4-2.2-0.7-0.9-0.3-1.7-0.6-1.8-0.8q0 0 0-0.1c0.1-0.2 0.6-0.3 1.1-0.3 0.6-0.1 1.2-0.1 1.5-0.2 0.3 0 2.6-0.3 3.8-0.5 0.5 0 0.8-0.1 0.8-0.1v0.1c0 0-0.3 0.1-0.8 0.1-1.2 0.2-3.5 0.5-3.8 0.5-0.4 0.1-1.6 0.1-2.2 0.3-0.2 0-0.3 0.1-0.3 0.1 0 0.1 0.8 0.5 1.7 0.8 0.9 0.3 1.9 0.5 2.2 0.6 0.7 0.3 4 1.7 4.5 2 0.5 0.2 1.3 0.9 1.3 1.2q0 0.1 0 0.1c-0.1 0.2-0.6 3-0.7 3z"/>
			<path id="Layer" fill-rule="evenodd" class="s0" d="m116.9 31.2h-0.1q0 0 0 0 0 0 0-0.1 0 0 0 0 0 0 0 0 0 0 0 0 0 0 0-0.1 0-0.1 0.1-0.3c0-0.2 0.1-0.6 0.2-1 0.1-0.7 0.3-1.4 0.3-1.5q0 0 0-0.1c0-0.1-0.7-0.9-1.2-1.1-0.5-0.2-3.8-1.7-4.4-1.9-0.4-0.1-1.3-0.4-2.2-0.7-0.9-0.3-1.7-0.5-1.8-0.8q0 0 0-0.1c0.1-0.3 0.6-0.3 1.1-0.4 0.6 0 1.2-0.1 1.4-0.1 0.4 0 2.7-0.4 3.9-0.5 0.5-0.1 0.8-0.1 0.8-0.1q0 0 0.1 0v0.1q0 0.1-0.1 0.1c0 0-0.3 0-0.8 0.1-1.2 0.2-3.5 0.5-3.8 0.5-0.4 0-1.6 0.1-2.2 0.2q-0.2 0.1-0.2 0.2 0 0 0 0 0 0 0.1 0 0.1 0.1 0.4 0.2c0.3 0.1 0.7 0.3 1.1 0.4 0.9 0.3 1.9 0.6 2.2 0.7 0.7 0.2 4 1.7 4.5 1.9 0.5 0.3 1.3 1 1.3 1.4q0 0 0 0c0 0.2-0.6 3-0.6 3q0 0 0 0 0 0 0 0-0.1 0-0.1 0zm-8.4-7.3q-0.3-0.1-0.4-0.2 0.1 0.1 0.4 0.2zm-0.5-0.2q0 0 0 0 0 0 0 0zm0-0.3q0.1 0 0.1 0 0 0-0.1 0z"/>
		</g>
		<g id="Layer">
			<path id="Layer" class="s0" d="m115.3 31.3v-0.1h1.3c0.3 0 0.3 0 0.3-0.1 0.1-0.4-1.1-1.2-1.4-1.3-0.5-0.2-4.4-1.7-5.1-1.9-0.7-0.3-2.6-1-2.9-1.2-0.1-0.1-0.1-0.2-0.1-0.3 0-0.8 0.4-2.8 0.4-2.9v0.1h0.1c0 0-0.4 2-0.4 2.8 0 0.1 0.1 0.2 0.1 0.2 0.2 0.2 2.1 1 2.8 1.2 0.7 0.2 4.7 1.7 5.1 1.9 0.4 0.1 1.5 0.9 1.5 1.4q0 0.2-0.4 0.2h-1.3z"/>
			<path id="Layer" class="s0" d="m116.6 31.4h-1.3v-0.1 0.1q0 0 0 0-0.1 0-0.1-0.1v-0.1q0 0 0.1 0 0 0 0 0h1.3c0.3 0 0.3-0.1 0.3-0.1q0 0 0 0c0-0.3-1.1-1.2-1.4-1.3-0.5-0.1-4.4-1.6-5.1-1.9-0.7-0.2-2.6-0.9-2.9-1.1-0.1-0.1-0.1-0.3-0.1-0.4 0-0.8 0.4-2.7 0.4-2.9q0 0 0 0 0 0 0.1 0 0.1 0 0.1 0.1c0 0-0.4 2-0.4 2.8q0 0 0 0 0 0.2 0 0.2c0.2 0.2 2.2 0.9 2.8 1.1 0.7 0.3 4.7 1.8 5.2 1.9 0.3 0.2 1.4 0.9 1.5 1.5 0 0.2-0.2 0.3-0.5 0.3q0 0 0 0z"/>
		</g>
		<g id="Layer">
			<path id="Layer" class="s0" d="m108.9 29.9l1-2.2 0.1 0.1-1 2c1.1 0.4 2.2 1.2 2.3 1.4h-0.1c0-0.1-1.2-1-2.3-1.3z"/>
			<path id="Layer" fill-rule="evenodd" class="s0" d="m111.2 31.3q0 0 0 0 0 0 0-0.1 0 0-0.1 0 0-0.1-0.1-0.1-0.2-0.2-0.5-0.4c-0.5-0.3-1.1-0.6-1.6-0.8h-0.1q0 0 0 0 0 0 0-0.1l1.1-2.1q0 0 0 0h0.1q0 0.1 0.1 0.1 0 0-0.1 0l-0.9 2c1.1 0.4 2.2 1.1 2.3 1.4q0 0 0 0 0 0.1-0.1 0.1h-0.1q0 0 0 0 0 0 0 0zm-2.2-1.4q0-0.1-0.1-0.1 0 0 0 0 0 0 0.1 0.1z"/>
		</g>
		<g id="Layer">
			<path id="Layer" class="s0" d="m112.7 28.7v-0.1c0 0 2.3 2.5 2.7 2.9v0.1c-0.5-0.5-2.7-2.9-2.7-2.9z"/>
			<path id="Layer" fill-rule="evenodd" class="s0" d="m115.3 31.6c-0.4-0.4-2.7-2.9-2.7-2.9h0.1-0.1q0 0 0-0.1h0.1q0-0.1 0.1 0c0 0 2.2 2.4 2.7 2.8q0 0 0 0.1 0 0 0 0l-0.1 0.1q0 0 0 0 0 0 0 0 0 0-0.1 0zm-2.6-3q0 0 0 0z"/>
		</g>
		<g id="Layer">
			<path id="Layer" class="s0" d="m115.2 5.9l0.1-0.1 1 2.1h-0.1l-1-2z"/>
			<path id="Layer" class="s0" d="m116.1 7.9q0 0 0 0l-1-2h0.1-0.1q0 0 0.1-0.1h0.1q0 0 0 0 0 0 0 0l1 2q0 0 0 0.1 0 0 0 0h-0.1q0 0 0 0 0 0-0.1 0z"/>
		</g>
		<g id="Layer">
			<path id="Layer" class="s0" d="m113.1 7.6h0.1l1.2 2-0.1 0.1-1.2-2.1z"/>
			<path id="Layer" class="s0" d="m114.3 9.7q0 0 0 0l-1.3-2.1h0.1v0.1-0.1h-0.1q0 0 0 0l0.1-0.1q0 0 0.1 0 0 0 0 0l1.3 2.1q0 0 0 0.1 0 0-0.1 0-0.1 0-0.1 0 0 0 0 0z"/>
		</g>
		<g id="Layer">
			<path id="Layer" class="s0" d="m110.5 9.5l0.1-0.1 1.4 2.1h-0.1l-1.4-2z"/>
			<path id="Layer" class="s0" d="m111.9 11.6q0 0 0 0l-1.5-2.1h0.1-0.1q0-0.1 0.1-0.1 0.1-0.1 0.1 0l1.4 2q0.1 0.1 0.1 0.1-0.1 0-0.1 0l-0.1 0.1q0 0 0 0 0 0 0 0z"/>
		</g>
		<g id="Layer">
			<path id="Layer" class="s0" d="m108.2 11.3l0.1-0.1 1.2 2.1-1.3-2z"/>
			<path id="Layer" class="s0" d="m109.4 13.4q0 0 0-0.1l-1.3-2h0.1-0.1q0 0 0.1 0v-0.1q0.1 0 0.1 0 0 0 0 0l1.3 2q0 0.1 0 0.1l-0.1 0.1q0 0 0 0-0.1 0-0.1 0z"/>
		</g>
		<g id="Layer">
			<path id="Layer" class="s0" d="m108.5 19.7l0.9-2.7 0.1 0.1-0.9 2.7-0.1-0.1z"/>
			<path id="Layer" class="s0" d="m108.6 19.8h-0.1v-0.1l0.1 0.1-0.1-0.1v0.1q0 0 0-0.1l0.8-2.7q0 0 0.1 0 0 0 0 0h0.1q0 0 0 0.1l-0.8 2.7q0 0-0.1 0 0 0 0 0 0 0 0 0z"/>
		</g>
		<g id="Layer">
			<path id="Layer" class="s0" d="m111.6 21.1l1.1-2.8h0.1l-1.1 2.8h-0.1z"/>
			<path id="Layer" class="s0" d="m111.6 21.1q-0.1 0-0.1 0 0 0 0-0.1l1.1-2.7q0-0.1 0.1-0.1l0.1 0.1q0 0 0 0.1l-1.1 2.7q0 0.1 0 0.1 0 0-0.1-0.1z"/>
		</g>
		<g id="Layer">
			<path id="Layer" class="s0" d="m114.8 22.2l0.8-2.8h0.1l-0.8 2.8h-0.1z"/>
			<path id="Layer" class="s0" d="m114.9 22.3h-0.1v-0.1 0.1q-0.1 0-0.1-0.1 0 0 0 0l0.8-2.8q0.1-0.1 0.1-0.1l0.1 0.1q0 0 0 0 0 0 0 0l-0.8 2.9q0 0 0 0 0 0 0 0z"/>
		</g>
		<g id="Layer">
			<path id="Layer" class="s0" d="m110.2 27.7l1-2.8h0.1l-1 2.8h-0.1z"/>
			<path id="Layer" class="s0" d="m110.3 27.8l-0.1-0.1q-0.1 0-0.1 0l1-2.8q0-0.1 0-0.1 0.1 0 0.1 0l0.1 0.1q0 0 0 0l-1 2.8q0 0.1 0 0.1 0 0 0 0 0 0 0 0z"/>
		</g>
		<g id="Layer">
			<path id="Layer" class="s0" d="m113.4 28.8l0.9-2.7 0.1 0.1-0.9 2.7-0.1-0.1z"/>
			<path id="Layer" class="s0" d="m113.5 28.9h-0.1v-0.1l0.1 0.1-0.1-0.1v0.1q0 0 0 0 0 0 0-0.1l0.9-2.7q0 0 0 0h0.1q0.1 0 0.1 0 0 0.1 0 0.1l-0.9 2.7q-0.1 0-0.1 0 0 0 0 0 0 0 0 0z"/>
		</g>
		<g id="Layer">
			<path id="Layer" class="s0" d="m107.9 26.8l0.6-2.8h0.1l-0.6 2.9-0.1-0.1z"/>
			<path id="Layer" class="s0" d="m108 26.9h-0.1v-0.1 0.1q0 0-0.1 0 0-0.1 0-0.1l0.6-2.8q0 0 0 0 0.1 0 0.1 0h0.1q0 0 0 0l-0.6 2.9q0 0 0 0 0 0 0 0 0 0 0 0z"/>
		</g>
		<g id="Layer">
			<path id="Layer" class="s0" d="m116.1 30.1l0.7-2.8h0.1l-0.7 2.8h-0.1z"/>
			<path id="Layer" class="s0" d="m116.2 30.2h-0.1v-0.1h0.1-0.1v0.1q-0.1 0 0-0.1l0.7-2.8q0-0.1 0.1-0.1l0.1 0.1q0 0 0 0 0 0 0 0l-0.7 2.9q-0.1 0-0.1 0 0 0 0 0 0 0 0 0z"/>
		</g>
		<g id="Layer">
			<path id="Layer" class="s0" d="m108.9 29.8l1.8-1.8-1.7 1.9-0.1-0.1z"/>
			<path id="Layer" class="s0" d="m108.9 29.9l-0.1-0.1h0.1-0.1q0 0 0 0l1.8-1.9q0.1 0 0.1 0l0.1 0.1q0 0 0 0 0 0.1 0 0.1l-1.8 1.8q0 0 0 0 0 0 0 0-0.1 0-0.1 0z"/>
		</g>
		<g id="Layer">
			<path id="Layer" class="s0" d="m110.8 30.8l2.5-1.5v0.1l-2.4 1.5-0.1-0.1z"/>
			<path id="Layer" class="s0" d="m110.9 30.9l-0.1-0.1h0.1-0.1q0 0 0 0 0-0.1 0-0.1l2.4-1.4q0.1 0 0.1 0l0.1 0.1q0 0 0 0 0 0.1-0.1 0.1l-2.4 1.4q0 0 0 0 0 0 0 0z"/>
		</g>
		<g id="Layer">
			<path id="Layer" class="s0" d="m114.2 22.6h0.1l0.3 2.4h-0.1l-0.3-2.4z"/>
			<path id="Layer" class="s0" d="m114.5 25q-0.1 0-0.1 0l-0.3-2.4h0.1-0.1q0-0.1 0-0.1h0.1q0.1 0 0.1 0.1l0.3 2.4q0.1 0 0 0 0 0 0 0l-0.1 0.1q0 0 0 0 0 0 0-0.1z"/>
		</g>
		<g id="Layer">
			<path id="Layer" class="s0" d="m111.1 23h0.1l0.3 1.8h-0.1l-0.3-1.8z"/>
			<path id="Layer" class="s0" d="m111.4 24.9q-0.1 0-0.1-0.1l-0.3-1.7v-0.1l0.1 0.1-0.1-0.1v0.1q0-0.1 0-0.1h0.1q0.1 0 0.1 0l0.3 1.8q0 0 0 0 0 0.1 0 0.1h-0.1q0 0 0 0 0 0 0 0z"/>
		</g>
		<g id="Layer">
			<path id="Layer" fill-rule="evenodd" class="s0" d="m96 32.9c-0.1-0.6-0.1-2.3-0.1-3q0-0.1 0-0.2 0-0.1 0-0.1c0-0.3 0-0.6 0-0.8 0-0.2 0-0.4 0.2-0.4q0 0 0 0h0.1c0 0.6 0.5 0.6 1.8 0.7q0 0 0.1 0c1.2 0 1.7-0.5 1.8-0.8v-0.1l0.1 0.1c0 0 0.1 0.1 0.2 0.2 0 0 0 1.8 0 3.2q0 0.5 0 0.9 0 0.1 0 0.1 0 0.2 0 0.3c-0.1 0.3-0.9 0.7-2.2 0.7q0 0 0 0c-1.3 0-1.8-0.4-2-0.8zm2 0.7c1.3 0 2-0.4 2.1-0.6 0-0.3 0-0.8 0-1.3 0-1.3 0-3 0-3.1q-0.1-0.1-0.1-0.2c-0.2 0.4-0.7 0.8-1.9 0.8q-0.1 0-0.1 0c-1.3-0.1-1.8-0.1-1.9-0.7q-0.1 0-0.1 0.3c0 0.2 0 0.5 0 0.8q0 0 0 0.1 0 0 0 0.2c0 0.6 0 2 0.1 2.7v0.3c0.2 0.3 0.6 0.7 1.9 0.7z"/>
			<path id="Layer" fill-rule="evenodd" class="s0" d="m95.9 33v-0.1c0-0.6 0-2.3 0-3q0-0.1 0-0.2 0-0.1 0-0.1c0-0.3-0.1-0.6-0.1-0.8 0-0.2 0-0.5 0.3-0.5q0 0 0 0h0.1q0 0 0 0.1c0.1 0.3 0.2 0.4 0.4 0.5 0.3 0.1 0.7 0.1 1.4 0.1q0 0 0.1 0c1.2 0 1.6-0.4 1.7-0.7l0.1-0.1q0 0 0 0 0 0 0.1 0v0.1q0 0 0 0 0 0 0 0 0 0 0 0 0.1 0 0.1 0 0 0.1 0.1 0.2c0 0 0 1.8 0 3.2q0 0.5 0 0.9 0 0 0 0v0.1q0 0.2 0 0.3c-0.1 0.4-0.9 0.7-2.2 0.8q0 0 0 0 0 0 0 0c-1.3 0-1.9-0.5-2.1-0.8zm4.1-4.7q0 0 0 0 0 0 0 0zm-2 5.4v-0.1q0 0 0 0v0.1zm0-0.1q0 0 0 0c1.3 0 2-0.5 2-0.6 0-0.3 0-0.8 0-1.3 0-1.3 0-2.9 0-3.1q0-0.1 0-0.1c-0.3 0.4-0.8 0.7-1.9 0.7q-0.1 0-0.1 0c-1.2 0-1.8-0.1-2-0.6q0 0.1 0 0.2c0 0.2 0.1 0.5 0.1 0.8q0 0 0 0.1 0 0.1 0 0.2c0 0.6 0 2 0 2.7q0 0 0 0v0.3c0.2 0.3 0.6 0.7 1.9 0.7zm2.1-0.6q0-0.1 0-0.3 0 0 0 0 0 0.1 0 0.3zm-4.1 0v-0.1zm0-4.4q0-0.1 0-0.1 0 0 0 0.1zm0.1-0.1q0 0 0 0 0 0 0 0 0 0 0 0 0 0 0 0zm3.8 0q0 0 0.1 0 0 0 0 0 0-0.1 0-0.1-0.1 0-0.1 0.1zm-3.9 4.5q0 0 0 0 0 0 0 0zm4.1-4.4q0 0 0 0 0 0 0 0zm-0.1-0.2q0 0 0 0 0 0 0 0zm0 0z"/>
		</g>
		<path id="Layer" class="s0" d="m105.3 11.2c0.6-0.7 3.1-2.1 4.3-2.5"/>
		<path id="Layer" class="s0" d="m90.8 11.2c-0.6-0.7-2.8-1.9-4-2.4"/>
		<path id="Layer" class="s0" d="m107.3 9.9c0.3 0 1.9-0.7 2.3-1.2"/>
		<path id="Layer" class="s0" d="m88.7 9.9c-0.3-0.1-1.9-0.7-2.2-1.3"/>
	</g>
	<g id="Layer">
		<path id="Layer" class="s1" d="m21.7 62.3v-11.5h-5.4v-1.5h12.4v1.5h-5.4v11.5z"/>
		<path id="Layer" class="s1" d="m31 62.3v-13h1.6v5.1h7.6v-5.1h1.6v13h-1.6v-6.4h-7.6v6.4z"/>
		<path id="Layer" class="s1" d="m46.2 49.3h1.6v13h-1.6z"/>
		<path id="Layer" class="s1" d="m52.2 62.3v-13h0.9l8.3 9.7v-9.7h1.6v13h-0.8l-8.4-9.7v9.7z"/>
		<path id="Layer" fill-rule="evenodd" class="s1" d="m77.3 62.3v-13h7.4q1.9 0 3 1 1.1 0.9 1.1 2.6 0 1.4-0.9 2.4-0.8 1-2.2 1.3l3.2 5.7h-1.7l-3.3-5.7h-5v5.7c0 0-1.6 0-1.6 0zm1.6-7.2h5.7q1.2 0 1.9-0.6 0.6-0.5 0.6-1.5 0-1.1-0.6-1.6-0.7-0.6-1.8-0.6h-5.8z"/>
		<path id="Layer" class="s1" d="m92.4 62.3v-13h10.1v1.5h-8.5v3.8h5.1v1.5h-5.1v4.7h9v1.5z"/>
		<path id="Layer" fill-rule="evenodd" class="s1" d="m111.5 49.3q3.1 0 4.9 1.8 1.9 1.8 1.9 4.7 0 2.9-1.9 4.7-1.8 1.8-4.9 1.8h-5.5v-13zm0 1.5h-3.9v10h3.9q2.4 0 3.7-1.4 1.4-1.3 1.4-3.6 0-2.2-1.4-3.6-1.4-1.4-3.7-1.4z"/>
		<path id="Layer" class="s1" d="m131.6 62.3v-13h1.6v11.5h8.4v1.5z"/>
		<path id="Layer" class="s1" d="m144.4 49.3h1.6v13h-1.6z"/>
		<path id="Layer" class="s1" d="m150.4 62.3v-13h0.9l8.3 9.7v-9.7h1.6v13h-0.8l-8.4-9.7v9.7z"/>
		<path id="Layer" class="s1" d="m165.6 62.3v-13h10.2v1.5h-8.6v3.8h5.2v1.5h-5.2v4.7h9.1v1.5z"/>
	</g>
	<g id="Layer">
		<path id="Layer" class="s1" d="m76.6 72.8h2.1v0.6h-2.1v1.4h2.4v0.6h-3.1v-4.7h3.1v0.6h-2.4z"/>
		<path id="Layer" class="s1" d="m80 74.4q0.7 0.5 1.5 0.5 1.1 0 1.1-0.7 0-0.3-0.2-0.4-0.1-0.2-0.4-0.2-0.3-0.1-0.6-0.2-0.3-0.1-0.6-0.2-0.3-0.1-0.6-0.2-0.2-0.1-0.4-0.4-0.2-0.3-0.2-0.6 0-0.5 0.3-0.8 0.3-0.3 0.6-0.4 0.4-0.2 0.9-0.2 1 0 1.6 0.6l-0.3 0.5q-0.6-0.4-1.4-0.4-0.4 0-0.7 0.1-0.3 0.2-0.3 0.6 0 0.2 0.2 0.3 0.1 0.2 0.4 0.3 0.3 0 0.6 0.1 0.3 0.1 0.6 0.2 0.3 0.1 0.6 0.2 0.3 0.2 0.4 0.4 0.2 0.3 0.2 0.7 0 0.6-0.5 1-0.5 0.3-1.2 0.3-0.6 0-1.1-0.2-0.6-0.1-0.9-0.4l0.4-0.5z"/>
		<path id="Layer" class="s1" d="m85.9 71.3v4.1h-0.7v-4.1h-1.4v-0.6h3.5v0.6z"/>
		<path id="Layer" class="s1" d="m88 75.5q-0.2 0-0.3-0.2-0.1-0.1-0.1-0.3 0-0.1 0.1-0.3 0.1-0.1 0.3-0.1 0.2 0 0.3 0.1 0.1 0.2 0.1 0.3 0.1 0.2-0.1 0.3-0.1 0.2-0.3 0.2z"/>
		<path id="Layer" class="s1" d="m94.5 75.4h-3v-4.7h0.7v4.1h2.3z"/>
		<path id="Layer" fill-rule="evenodd" class="s1" d="m95.7 74.8q-0.7-0.7-0.7-1.7 0-1.1 0.7-1.8 0.7-0.7 1.7-0.7 1.1 0 1.8 0.7 0.7 0.7 0.7 1.8 0 1-0.7 1.7-0.7 0.7-1.8 0.7-1 0-1.7-0.7zm1.8-3.5q-0.8 0-1.3 0.5-0.5 0.5-0.5 1.3 0 0.7 0.5 1.3 0.5 0.5 1.3 0.5 0.7 0 1.2-0.5 0.5-0.6 0.5-1.3 0-0.8-0.5-1.3-0.5-0.5-1.2-0.5z"/>
		<path id="Layer" class="s1" d="m104.7 70.7v4.7h-0.6l-2.5-3.5v3.5h-0.7v-4.7h0.7l2.5 3.5v-3.5z"/>
		<path id="Layer" fill-rule="evenodd" class="s1" d="m106.1 70.7h1.4q1.2 0 1.9 0.6 0.7 0.7 0.7 1.8 0 1-0.7 1.7-0.7 0.6-1.9 0.6h-1.4zm1.4 4.1q0.9 0 1.4-0.4 0.5-0.5 0.5-1.3 0-0.9-0.5-1.3-0.5-0.5-1.4-0.5h-0.7v3.5c0 0 0.7 0 0.7 0z"/>
		<path id="Layer" fill-rule="evenodd" class="s1" d="m111.5 74.8q-0.7-0.7-0.7-1.7 0-1.1 0.7-1.8 0.7-0.7 1.7-0.7 1.1 0 1.8 0.7 0.7 0.7 0.7 1.8 0 1-0.7 1.7-0.7 0.7-1.8 0.7-1 0-1.7-0.7zm1.8-3.5q-0.8 0-1.3 0.5-0.5 0.5-0.5 1.3 0 0.7 0.5 1.3 0.5 0.5 1.3 0.5 0.7 0 1.2-0.5 0.5-0.6 0.5-1.3 0-0.8-0.5-1.3-0.5-0.5-1.2-0.5z"/>
		<path id="Layer" class="s1" d="m120.5 70.7v4.7h-0.6l-2.5-3.5v3.5h-0.7v-4.7h0.7l2.5 3.5v-3.5z"/>
	</g>
</svg>